%TF.GenerationSoftware,KiCad,Pcbnew,10.0.0-10.0.0~ubuntu24.04.1*%
%TF.CreationDate,2026-03-31T07:03:56+02:00*%
%TF.ProjectId,k_lc7,6b5f6c63-372e-46b6-9963-61645f706362,rev?*%
%TF.SameCoordinates,Original*%
%TF.FileFunction,Copper,L4,Bot*%
%TF.FilePolarity,Positive*%
%FSLAX46Y46*%
G04 Gerber Fmt 4.6, Leading zero omitted, Abs format (unit mm)*
G04 Created by KiCad (PCBNEW 10.0.0-10.0.0~ubuntu24.04.1) date 2026-03-31 07:03:56*
%MOMM*%
%LPD*%
G01*
G04 APERTURE LIST*
G04 Aperture macros list*
%AMRoundRect*
0 Rectangle with rounded corners*
0 $1 Rounding radius*
0 $2 $3 $4 $5 $6 $7 $8 $9 X,Y pos of 4 corners*
0 Add a 4 corners polygon primitive as box body*
4,1,4,$2,$3,$4,$5,$6,$7,$8,$9,$2,$3,0*
0 Add four circle primitives for the rounded corners*
1,1,$1+$1,$2,$3*
1,1,$1+$1,$4,$5*
1,1,$1+$1,$6,$7*
1,1,$1+$1,$8,$9*
0 Add four rect primitives between the rounded corners*
20,1,$1+$1,$2,$3,$4,$5,0*
20,1,$1+$1,$4,$5,$6,$7,0*
20,1,$1+$1,$6,$7,$8,$9,0*
20,1,$1+$1,$8,$9,$2,$3,0*%
G04 Aperture macros list end*
%TA.AperFunction,HeatsinkPad*%
%ADD10O,2.100000X1.000000*%
%TD*%
%TA.AperFunction,HeatsinkPad*%
%ADD11O,1.800000X1.000000*%
%TD*%
%TA.AperFunction,SMDPad,CuDef*%
%ADD12RoundRect,0.075000X0.910000X0.225000X-0.910000X0.225000X-0.910000X-0.225000X0.910000X-0.225000X0*%
%TD*%
%TA.AperFunction,ComponentPad*%
%ADD13R,1.700000X1.700000*%
%TD*%
%TA.AperFunction,ComponentPad*%
%ADD14C,1.700000*%
%TD*%
%TA.AperFunction,ViaPad*%
%ADD15C,0.700000*%
%TD*%
%TA.AperFunction,Conductor*%
%ADD16C,0.200000*%
%TD*%
%TA.AperFunction,Conductor*%
%ADD17C,0.500000*%
%TD*%
G04 APERTURE END LIST*
D10*
%TO.P,J4,S1,SHIELD*%
%TO.N,GND*%
X167870000Y-111250000D03*
D11*
X172050000Y-111250000D03*
D10*
X167870000Y-102610000D03*
D11*
X172050000Y-102610000D03*
%TD*%
D12*
%TO.P,U3,1,VOUTA*%
%TO.N,Net-(U3-VOUTA)*%
X148925000Y-84840000D03*
%TO.P,U3,2,-IN_A*%
%TO.N,Net-(U3--IN_A)*%
X148925000Y-86110000D03*
%TO.P,U3,3,+_IN_A*%
%TO.N,+2V5*%
X148925000Y-87380000D03*
%TO.P,U3,4,V-*%
%TO.N,GND*%
X148925000Y-88650000D03*
%TO.P,U3,5,+IN_B*%
%TO.N,+2V5*%
X143985000Y-88650000D03*
%TO.P,U3,6,-IN_B*%
%TO.N,Net-(U3--IN_B)*%
X143985000Y-87380000D03*
%TO.P,U3,7,VOUTB*%
%TO.N,Net-(U3-VOUTB)*%
X143985000Y-86110000D03*
%TO.P,U3,8,V+*%
%TO.N,+5V*%
X143985000Y-84840000D03*
%TD*%
D13*
%TO.P,J3,1,Pin_1*%
%TO.N,+3V3*%
X168190000Y-95350000D03*
D14*
%TO.P,J3,2,Pin_2*%
%TO.N,/MCU/SWDIO*%
X165650000Y-95350000D03*
%TO.P,J3,3,Pin_3*%
%TO.N,/MCU/SWCLK*%
X163110000Y-95350000D03*
%TO.P,J3,4,Pin_4*%
%TO.N,GND*%
X160570000Y-95350000D03*
%TD*%
D12*
%TO.P,U1,1,VOUTA*%
%TO.N,Net-(U1-VOUTA)*%
X149000000Y-76590000D03*
%TO.P,U1,2,-IN_A*%
%TO.N,Net-(U1--IN_A)*%
X149000000Y-77860000D03*
%TO.P,U1,3,+_IN_A*%
%TO.N,+2V5*%
X149000000Y-79130000D03*
%TO.P,U1,4,V-*%
%TO.N,GND*%
X149000000Y-80400000D03*
%TO.P,U1,5,+IN_B*%
%TO.N,+2V5*%
X144060000Y-80400000D03*
%TO.P,U1,6,-IN_B*%
%TO.N,Net-(U1--IN_B)*%
X144060000Y-79130000D03*
%TO.P,U1,7,VOUTB*%
%TO.N,Net-(U1-VOUTB)*%
X144060000Y-77860000D03*
%TO.P,U1,8,V+*%
%TO.N,+5V*%
X144060000Y-76590000D03*
%TD*%
%TO.P,U4,1,VOUTA*%
%TO.N,Net-(U4-VOUTA)*%
X160655000Y-84987500D03*
%TO.P,U4,2,-IN_A*%
%TO.N,Net-(U4--IN_A)*%
X160655000Y-86257500D03*
%TO.P,U4,3,+_IN_A*%
%TO.N,+2V5*%
X160655000Y-87527500D03*
%TO.P,U4,4,V-*%
%TO.N,GND*%
X160655000Y-88797500D03*
%TO.P,U4,5,+IN_B*%
%TO.N,+2V5*%
X155715000Y-88797500D03*
%TO.P,U4,6,-IN_B*%
%TO.N,Net-(U4--IN_B)*%
X155715000Y-87527500D03*
%TO.P,U4,7,VOUTB*%
%TO.N,Net-(U4-VOUTB)*%
X155715000Y-86257500D03*
%TO.P,U4,8,V+*%
%TO.N,+5V*%
X155715000Y-84987500D03*
%TD*%
%TO.P,U2,1,VOUTA*%
%TO.N,Net-(U2-VOUTA)*%
X160690000Y-76717500D03*
%TO.P,U2,2,-IN_A*%
%TO.N,Net-(U2--IN_A)*%
X160690000Y-77987500D03*
%TO.P,U2,3,+_IN_A*%
%TO.N,+2V5*%
X160690000Y-79257500D03*
%TO.P,U2,4,V-*%
%TO.N,GND*%
X160690000Y-80527500D03*
%TO.P,U2,5,+IN_B*%
%TO.N,+2V5*%
X155750000Y-80527500D03*
%TO.P,U2,6,-IN_B*%
%TO.N,Net-(U2--IN_B)*%
X155750000Y-79257500D03*
%TO.P,U2,7,VOUTB*%
%TO.N,Net-(U2-VOUTB)*%
X155750000Y-77987500D03*
%TO.P,U2,8,V+*%
%TO.N,+5V*%
X155750000Y-76717500D03*
%TD*%
D13*
%TO.P,J2,1,Pin_1*%
%TO.N,vco_in*%
X137740000Y-78000000D03*
D14*
%TO.P,J2,2,Pin_2*%
%TO.N,GND*%
X137740000Y-80540000D03*
%TO.P,J2,3,Pin_3*%
%TO.N,+5V*%
X137740000Y-83080000D03*
%TD*%
D13*
%TO.P,J1,1,Pin_1*%
%TO.N,dac_out*%
X170000000Y-86850000D03*
D14*
%TO.P,J1,2,Pin_2*%
%TO.N,/baseband/I2_conn*%
X170000000Y-84310000D03*
%TO.P,J1,3,Pin_3*%
%TO.N,/baseband/Q2_conn*%
X170000000Y-81770000D03*
%TO.P,J1,4,Pin_4*%
%TO.N,GND*%
X170000000Y-79230000D03*
%TO.P,J1,5,Pin_5*%
%TO.N,/baseband/Q1_conn*%
X170000000Y-76690000D03*
%TO.P,J1,6,Pin_6*%
%TO.N,/baseband/I1_conn*%
X170000000Y-74150000D03*
%TD*%
D15*
%TO.N,Net-(U1--IN_A)*%
X150600000Y-77850000D03*
%TO.N,Net-(U1-VOUTA)*%
X150550000Y-76600000D03*
%TO.N,Net-(U1--IN_B)*%
X142330000Y-79130000D03*
%TO.N,Net-(U1-VOUTB)*%
X142387500Y-77862500D03*
%TO.N,Net-(U2--IN_A)*%
X162315000Y-77992500D03*
%TO.N,Net-(U2-VOUTA)*%
X162365000Y-76692500D03*
%TO.N,Net-(U2-VOUTB)*%
X153075000Y-77975000D03*
%TO.N,Net-(U2--IN_B)*%
X153050000Y-79250000D03*
%TO.N,Net-(U3-VOUTA)*%
X150525000Y-84800000D03*
%TO.N,Net-(U3--IN_A)*%
X150500000Y-86100000D03*
%TO.N,Net-(U3-VOUTB)*%
X141100000Y-86425000D03*
%TO.N,Net-(U3--IN_B)*%
X141100000Y-87325000D03*
%TO.N,Net-(U4-VOUTA)*%
X162465000Y-84967500D03*
%TO.N,Net-(U4--IN_A)*%
X162465000Y-86342500D03*
%TO.N,Net-(U4-VOUTB)*%
X153100000Y-86250000D03*
%TO.N,Net-(U4--IN_B)*%
X153125000Y-87525000D03*
%TO.N,GND*%
X159512500Y-106362500D03*
X136250000Y-88450000D03*
X163350000Y-98125000D03*
X161450000Y-93850000D03*
X168700000Y-112075000D03*
X150250000Y-110100000D03*
X163950000Y-110950000D03*
X172100000Y-77950000D03*
X172925000Y-101775000D03*
X143500000Y-110400000D03*
X171975000Y-80375000D03*
X153275000Y-111300000D03*
X150100000Y-111025000D03*
X160690000Y-81817500D03*
X168700000Y-102150000D03*
X148000000Y-101975000D03*
X150725000Y-99750000D03*
X163300000Y-97250000D03*
X156625000Y-111225000D03*
X150425000Y-88625000D03*
X142550000Y-102350000D03*
X132725000Y-110550000D03*
X150700000Y-102025000D03*
X135650000Y-81200000D03*
X162775000Y-101775000D03*
X135675000Y-79975000D03*
X132700000Y-109550000D03*
X162850000Y-111000000D03*
X140700000Y-96500000D03*
X139800000Y-109300000D03*
X144325000Y-106300000D03*
X153400000Y-104775000D03*
X164050000Y-107050000D03*
X166275000Y-110150000D03*
X144175000Y-110425000D03*
X155700000Y-99750000D03*
X149000000Y-81300000D03*
X145925000Y-93025000D03*
X140725000Y-95425000D03*
X150450000Y-80375000D03*
X153450000Y-102075000D03*
X160690000Y-89892500D03*
X162750000Y-102625000D03*
X139900000Y-97075000D03*
X132725000Y-111550000D03*
X160550000Y-111975000D03*
X132300000Y-82700000D03*
X144800000Y-93150000D03*
X171350000Y-112225000D03*
X141200000Y-102350000D03*
X167025000Y-112075000D03*
X155750000Y-102100000D03*
X170075000Y-101325000D03*
X169025000Y-101350000D03*
X155500000Y-111225000D03*
X160550000Y-106425000D03*
X148025000Y-104775000D03*
X162850000Y-104725000D03*
X150650000Y-97100000D03*
X170500000Y-96225000D03*
X168975000Y-110550000D03*
X166325000Y-102075000D03*
X147975000Y-97025000D03*
X155775000Y-104725000D03*
X141950000Y-109325000D03*
X155650000Y-97100000D03*
X136350000Y-90525000D03*
X148000000Y-99775000D03*
X143400000Y-106275000D03*
X159425000Y-112000000D03*
X171250000Y-101650000D03*
X148300000Y-89525000D03*
X159675000Y-93825000D03*
X170375000Y-99425000D03*
X162190000Y-80942500D03*
X132225000Y-83900000D03*
X150800000Y-104800000D03*
X146575000Y-91300000D03*
X169050000Y-103200000D03*
X172900000Y-112200000D03*
X154450000Y-111250000D03*
X137650000Y-105725000D03*
X170525000Y-97000000D03*
X138700000Y-97025000D03*
X132700000Y-108450000D03*
X153450000Y-99750000D03*
X153425000Y-97050000D03*
X162850000Y-103725000D03*
X162540000Y-88792500D03*
%TO.N,+5V*%
X161900000Y-107050000D03*
X169075000Y-97400000D03*
X162025000Y-100500000D03*
X161900000Y-109350000D03*
%TO.N,+2V5*%
X136325000Y-112325000D03*
%TO.N,+3V3*%
X150200000Y-108325000D03*
X144950000Y-95100000D03*
X157550000Y-96575000D03*
X174200000Y-97700000D03*
X136150000Y-93575000D03*
X143450000Y-103325000D03*
X173300000Y-95250000D03*
X174225000Y-95775000D03*
X150125000Y-109125000D03*
X156900000Y-107675000D03*
X168125000Y-93875000D03*
X156925000Y-108950000D03*
X168200000Y-96675000D03*
X148475000Y-92675000D03*
X146825000Y-92550000D03*
X136150000Y-95500000D03*
X144675000Y-102300000D03*
%TO.N,dac_out*%
X139875000Y-104775000D03*
%TO.N,vco_in*%
X155972699Y-93924588D03*
X158950000Y-101575000D03*
%TO.N,adc_in1*%
X137140000Y-101990000D03*
X144175000Y-103875000D03*
%TO.N,adc_in2*%
X150540000Y-72690000D03*
X144600000Y-104725000D03*
X153130000Y-72640000D03*
X137860000Y-102750000D03*
%TO.N,adc_in4*%
X138010000Y-101100000D03*
X147075000Y-106600000D03*
%TO.N,adc_in3*%
X152010000Y-78500000D03*
X151240000Y-74450000D03*
X145350000Y-105475000D03*
X138810000Y-103250000D03*
X151230000Y-71660000D03*
%TD*%
%TO.N,Net-(U1--IN_A)*%
D16*
X149000000Y-77860000D02*
X150590000Y-77860000D01*
%TO.N,Net-(U1-VOUTA)*%
X150540000Y-76590000D02*
X150550000Y-76600000D01*
X149000000Y-76590000D02*
X150540000Y-76590000D01*
%TO.N,Net-(U1--IN_B)*%
X144060000Y-79130000D02*
X142330000Y-79130000D01*
%TO.N,Net-(U1-VOUTB)*%
X142390000Y-77860000D02*
X142387500Y-77862500D01*
X144060000Y-77860000D02*
X142390000Y-77860000D01*
X142387500Y-77862500D02*
X142375000Y-77875000D01*
%TO.N,Net-(U2--IN_A)*%
X160690000Y-77987500D02*
X162310000Y-77987500D01*
X162310000Y-77987500D02*
X162315000Y-77992500D01*
%TO.N,Net-(U2-VOUTA)*%
X162340000Y-76717500D02*
X162365000Y-76692500D01*
X160690000Y-76717500D02*
X162340000Y-76717500D01*
%TO.N,Net-(U2-VOUTB)*%
X153997500Y-77975000D02*
X154010000Y-77987500D01*
X154010000Y-77987500D02*
X155750000Y-77987500D01*
X153075000Y-77975000D02*
X153997500Y-77975000D01*
%TO.N,Net-(U2--IN_B)*%
X153050000Y-79250000D02*
X153892500Y-79250000D01*
X153900000Y-79257500D02*
X155750000Y-79257500D01*
X153892500Y-79250000D02*
X153900000Y-79257500D01*
%TO.N,Net-(U3-VOUTA)*%
X148925000Y-84840000D02*
X150485000Y-84840000D01*
X150485000Y-84840000D02*
X150525000Y-84800000D01*
%TO.N,Net-(U3--IN_A)*%
X150490000Y-86110000D02*
X150500000Y-86100000D01*
X148925000Y-86110000D02*
X150490000Y-86110000D01*
%TO.N,Net-(U3-VOUTB)*%
X141250000Y-86575000D02*
X141100000Y-86425000D01*
X143985000Y-86110000D02*
X143520000Y-86575000D01*
X143520000Y-86575000D02*
X141250000Y-86575000D01*
%TO.N,Net-(U3--IN_B)*%
X141155000Y-87380000D02*
X141100000Y-87325000D01*
X143985000Y-87380000D02*
X141155000Y-87380000D01*
%TO.N,Net-(U4-VOUTA)*%
X160655000Y-84987500D02*
X162445000Y-84987500D01*
X162445000Y-84987500D02*
X162465000Y-84967500D01*
%TO.N,Net-(U4--IN_A)*%
X160740000Y-86342500D02*
X160655000Y-86257500D01*
X162380000Y-86257500D02*
X162465000Y-86342500D01*
X162465000Y-86342500D02*
X160740000Y-86342500D01*
%TO.N,Net-(U4-VOUTB)*%
X153992500Y-86250000D02*
X154000000Y-86257500D01*
X153100000Y-86250000D02*
X153992500Y-86250000D01*
X154000000Y-86257500D02*
X155715000Y-86257500D01*
%TO.N,Net-(U4--IN_B)*%
X153125000Y-87525000D02*
X154047500Y-87525000D01*
X154050000Y-87527500D02*
X155715000Y-87527500D01*
X154047500Y-87525000D02*
X154050000Y-87527500D01*
%TO.N,GND*%
D17*
X160655000Y-81782500D02*
X160690000Y-81817500D01*
X162165000Y-80967500D02*
X162190000Y-80942500D01*
X150425000Y-80400000D02*
X150450000Y-80375000D01*
X160655000Y-89857500D02*
X160690000Y-89892500D01*
X160655000Y-80967500D02*
X162165000Y-80967500D01*
X160570000Y-95350000D02*
X160725000Y-95350000D01*
X160725000Y-95350000D02*
X161450000Y-94625000D01*
X149000000Y-80400000D02*
X149000000Y-81300000D01*
X160655000Y-80967500D02*
X160655000Y-81782500D01*
X160570000Y-95350000D02*
X159675000Y-94455000D01*
X160655000Y-88797500D02*
X162535000Y-88797500D01*
X148300000Y-89275000D02*
X148300000Y-89525000D01*
X148925000Y-88650000D02*
X150400000Y-88650000D01*
X159675000Y-94455000D02*
X159675000Y-93825000D01*
X161450000Y-94625000D02*
X161450000Y-93850000D01*
X149000000Y-80400000D02*
X150425000Y-80400000D01*
X160655000Y-88797500D02*
X160655000Y-89857500D01*
X148925000Y-88650000D02*
X148300000Y-89275000D01*
X150400000Y-88650000D02*
X150425000Y-88625000D01*
%TO.N,+5V*%
X140625000Y-80195000D02*
X140625000Y-84375000D01*
X165182500Y-82975000D02*
X165165000Y-82992500D01*
X155715000Y-83292500D02*
X155715000Y-84987500D01*
X156015000Y-82992500D02*
X155715000Y-83292500D01*
X169699000Y-90273044D02*
X169699000Y-96776000D01*
X157610000Y-73765000D02*
X157725000Y-73650000D01*
X167400000Y-87974044D02*
X169699000Y-90273044D01*
X141090000Y-84840000D02*
X143985000Y-84840000D01*
X140625000Y-84375000D02*
X141090000Y-84840000D01*
X144060000Y-76590000D02*
X140815000Y-76590000D01*
X161900000Y-107050000D02*
X161900000Y-109350000D01*
X155750000Y-76717500D02*
X155750000Y-73782500D01*
X167400000Y-83350000D02*
X167025000Y-82975000D01*
X140625000Y-80195000D02*
X140625000Y-76400000D01*
X161900000Y-100625000D02*
X162025000Y-100500000D01*
X140815000Y-76590000D02*
X140625000Y-76400000D01*
X169699000Y-96776000D02*
X169075000Y-97400000D01*
X161900000Y-107050000D02*
X161900000Y-100625000D01*
X140625000Y-83080000D02*
X140625000Y-80195000D01*
X137740000Y-83080000D02*
X140625000Y-83080000D01*
X157725000Y-73650000D02*
X166100000Y-73650000D01*
X167400000Y-74950000D02*
X167400000Y-87974044D01*
X166100000Y-73650000D02*
X167400000Y-74950000D01*
X140625000Y-76400000D02*
X140625000Y-73650000D01*
X140625000Y-73650000D02*
X157725000Y-73650000D01*
X167025000Y-82975000D02*
X165182500Y-82975000D01*
X165165000Y-82992500D02*
X156015000Y-82992500D01*
%TO.N,+2V5*%
X157390000Y-89807501D02*
X159670001Y-87527500D01*
X151405000Y-79130000D02*
X149000000Y-79130000D01*
X153450000Y-81175000D02*
X154097500Y-80527500D01*
X159670001Y-87527500D02*
X160655000Y-87527500D01*
X136325000Y-98267214D02*
X143985000Y-90607214D01*
X146375000Y-90499000D02*
X153175000Y-90499000D01*
X149000000Y-79130000D02*
X145940956Y-79130000D01*
X153450000Y-81175000D02*
X151405000Y-79130000D01*
X144093214Y-90499000D02*
X146375000Y-90499000D01*
X157390000Y-90542500D02*
X157390000Y-89807501D01*
X153996000Y-90516500D02*
X155715000Y-88797500D01*
X148925000Y-87380000D02*
X147940001Y-87380000D01*
X145940956Y-79130000D02*
X144670956Y-80400000D01*
X154097500Y-80527500D02*
X155750000Y-80527500D01*
X144670956Y-80400000D02*
X144060000Y-80400000D01*
X153175000Y-90499000D02*
X155325000Y-90499000D01*
X155325000Y-90499000D02*
X157346500Y-90499000D01*
X152275000Y-90499000D02*
X152275000Y-82350000D01*
X152275000Y-82350000D02*
X153450000Y-81175000D01*
X153175000Y-90499000D02*
X152275000Y-90499000D01*
X143985000Y-90607214D02*
X143985000Y-88650000D01*
X160655000Y-79697500D02*
X157595956Y-79697500D01*
X156325956Y-80967500D02*
X155715000Y-80967500D01*
X147044044Y-88650000D02*
X148314044Y-87380000D01*
X157595956Y-79697500D02*
X156325956Y-80967500D01*
X143985000Y-90607214D02*
X144093214Y-90499000D01*
X155351000Y-90525000D02*
X155325000Y-90499000D01*
X143985000Y-88650000D02*
X147044044Y-88650000D01*
X148314044Y-87380000D02*
X148925000Y-87380000D01*
X157346500Y-90499000D02*
X157390000Y-90542500D01*
X136325000Y-112325000D02*
X136325000Y-98267214D01*
%TO.N,dac_out*%
D16*
X172650000Y-97375000D02*
X172650000Y-89500000D01*
X139875000Y-104775000D02*
X140950000Y-105850000D01*
X172650000Y-89500000D02*
X170000000Y-86850000D01*
X173576000Y-112900000D02*
X173576000Y-98301000D01*
X140950000Y-112450000D02*
X141375000Y-112875000D01*
X141375000Y-112875000D02*
X173551000Y-112875000D01*
X173576000Y-112900000D02*
X173551000Y-112875000D01*
X173576000Y-98301000D02*
X172650000Y-97375000D01*
X140950000Y-105850000D02*
X140950000Y-112450000D01*
%TO.N,vco_in*%
X158800000Y-93900000D02*
X158800000Y-101425000D01*
X155997287Y-93900000D02*
X155972699Y-93924588D01*
X158800000Y-101425000D02*
X158950000Y-101575000D01*
X158800000Y-93900000D02*
X155997287Y-93900000D01*
%TO.N,adc_in1*%
X144175000Y-103875000D02*
X144074000Y-103976000D01*
X139680003Y-101950003D02*
X137179997Y-101950003D01*
X144074000Y-103976000D02*
X141706000Y-103976000D01*
X137179997Y-101950003D02*
X137140000Y-101990000D01*
X141706000Y-103976000D02*
X139680003Y-101950003D01*
%TO.N,adc_in2*%
X144600000Y-104725000D02*
X141585000Y-104725000D01*
X153080000Y-72690000D02*
X153130000Y-72640000D01*
X150450000Y-72690000D02*
X150540000Y-72690000D01*
X141585000Y-104725000D02*
X139400000Y-102540000D01*
X150540000Y-72690000D02*
X153080000Y-72690000D01*
X138251514Y-102540000D02*
X138041593Y-102749921D01*
X139400000Y-102540000D02*
X138251514Y-102540000D01*
%TO.N,adc_in4*%
X142320654Y-101100000D02*
X138030000Y-101100000D01*
X147075000Y-105854346D02*
X142320654Y-101100000D01*
X147075000Y-106600000D02*
X147075000Y-105854346D01*
%TO.N,adc_in3*%
X141615000Y-105475000D02*
X145350000Y-105475000D01*
X138780000Y-103280000D02*
X139420000Y-103280000D01*
X152010000Y-75200000D02*
X151180000Y-74370000D01*
X139420000Y-103280000D02*
X141615000Y-105475000D01*
X152010000Y-78580000D02*
X152010000Y-78500000D01*
X152010000Y-78500000D02*
X152010000Y-75200000D01*
%TD*%
%TA.AperFunction,Conductor*%
%TO.N,+3V3*%
G36*
X174617539Y-70220185D02*
G01*
X174663294Y-70272989D01*
X174674500Y-70324500D01*
X174674500Y-113075500D01*
X174654815Y-113142539D01*
X174602011Y-113188294D01*
X174550500Y-113199500D01*
X174279032Y-113199500D01*
X174211993Y-113179815D01*
X174166238Y-113127011D01*
X174156294Y-113057853D01*
X174159254Y-113043418D01*
X174176500Y-112979057D01*
X174176500Y-98390060D01*
X174176501Y-98390047D01*
X174176501Y-98221944D01*
X174172971Y-98208771D01*
X174135577Y-98069216D01*
X174067037Y-97950500D01*
X174056524Y-97932290D01*
X174056518Y-97932282D01*
X173286819Y-97162583D01*
X173253334Y-97101260D01*
X173250500Y-97074902D01*
X173250500Y-89589059D01*
X173250501Y-89589046D01*
X173250501Y-89420945D01*
X173250501Y-89420943D01*
X173209577Y-89268215D01*
X173172331Y-89203703D01*
X173172331Y-89203702D01*
X173130524Y-89131290D01*
X173130521Y-89131286D01*
X173130520Y-89131284D01*
X173018716Y-89019480D01*
X173018715Y-89019479D01*
X173014385Y-89015149D01*
X173014374Y-89015139D01*
X171386818Y-87387583D01*
X171353333Y-87326260D01*
X171350499Y-87299902D01*
X171350499Y-85952129D01*
X171350498Y-85952123D01*
X171350497Y-85952116D01*
X171344091Y-85892517D01*
X171330015Y-85854778D01*
X171293797Y-85757671D01*
X171293793Y-85757664D01*
X171207547Y-85642455D01*
X171207544Y-85642452D01*
X171092335Y-85556206D01*
X171092328Y-85556202D01*
X170960917Y-85507189D01*
X170904983Y-85465318D01*
X170880566Y-85399853D01*
X170895418Y-85331580D01*
X170916563Y-85303332D01*
X171030104Y-85189792D01*
X171039150Y-85177342D01*
X171155048Y-85017820D01*
X171155047Y-85017820D01*
X171155051Y-85017816D01*
X171251557Y-84828412D01*
X171317246Y-84626243D01*
X171350500Y-84416287D01*
X171350500Y-84203713D01*
X171317246Y-83993757D01*
X171251557Y-83791588D01*
X171155051Y-83602184D01*
X171155049Y-83602181D01*
X171155048Y-83602179D01*
X171030109Y-83430213D01*
X170879786Y-83279890D01*
X170707820Y-83154951D01*
X170707115Y-83154591D01*
X170699054Y-83150485D01*
X170648259Y-83102512D01*
X170631463Y-83034692D01*
X170653999Y-82968556D01*
X170699054Y-82929515D01*
X170707816Y-82925051D01*
X170781408Y-82871584D01*
X170879786Y-82800109D01*
X170879788Y-82800106D01*
X170879792Y-82800104D01*
X171030104Y-82649792D01*
X171030106Y-82649788D01*
X171030109Y-82649786D01*
X171155048Y-82477820D01*
X171155047Y-82477820D01*
X171155051Y-82477816D01*
X171251557Y-82288412D01*
X171317246Y-82086243D01*
X171350500Y-81876287D01*
X171350500Y-81663713D01*
X171317246Y-81453757D01*
X171251557Y-81251588D01*
X171194315Y-81139245D01*
X171181420Y-81070578D01*
X171207696Y-81005838D01*
X171264802Y-80965580D01*
X171334608Y-80962588D01*
X171392482Y-80995271D01*
X171432837Y-81035626D01*
X171485147Y-81070578D01*
X171572137Y-81128703D01*
X171726918Y-81192816D01*
X171855207Y-81218334D01*
X171891228Y-81225499D01*
X171891232Y-81225500D01*
X171891233Y-81225500D01*
X172058768Y-81225500D01*
X172058769Y-81225499D01*
X172223082Y-81192816D01*
X172377863Y-81128703D01*
X172517162Y-81035626D01*
X172635626Y-80917162D01*
X172728703Y-80777863D01*
X172792816Y-80623082D01*
X172825500Y-80458767D01*
X172825500Y-80291233D01*
X172792816Y-80126918D01*
X172728703Y-79972137D01*
X172691741Y-79916819D01*
X172635626Y-79832837D01*
X172517162Y-79714373D01*
X172377860Y-79621295D01*
X172223082Y-79557184D01*
X172223074Y-79557182D01*
X172058771Y-79524500D01*
X172058767Y-79524500D01*
X171891233Y-79524500D01*
X171891228Y-79524500D01*
X171726925Y-79557182D01*
X171726917Y-79557184D01*
X171572138Y-79621296D01*
X171572136Y-79621297D01*
X171509493Y-79663153D01*
X171442816Y-79684030D01*
X171375436Y-79665544D01*
X171328746Y-79613565D01*
X171317571Y-79544595D01*
X171318126Y-79540684D01*
X171350500Y-79336287D01*
X171350500Y-79123713D01*
X171317246Y-78913757D01*
X171251557Y-78711588D01*
X171155051Y-78522184D01*
X171155049Y-78522181D01*
X171155048Y-78522179D01*
X171030109Y-78350213D01*
X170879786Y-78199890D01*
X170707820Y-78074951D01*
X170707115Y-78074591D01*
X170699054Y-78070485D01*
X170648259Y-78022512D01*
X170631463Y-77954692D01*
X170653999Y-77888556D01*
X170679766Y-77866228D01*
X171249500Y-77866228D01*
X171249500Y-78033771D01*
X171282182Y-78198074D01*
X171282184Y-78198082D01*
X171346295Y-78352860D01*
X171439373Y-78492162D01*
X171557837Y-78610626D01*
X171619285Y-78651684D01*
X171697137Y-78703703D01*
X171697138Y-78703703D01*
X171697139Y-78703704D01*
X171716173Y-78711588D01*
X171851918Y-78767816D01*
X172016228Y-78800499D01*
X172016232Y-78800500D01*
X172016233Y-78800500D01*
X172183768Y-78800500D01*
X172183769Y-78800499D01*
X172348082Y-78767816D01*
X172502863Y-78703703D01*
X172642162Y-78610626D01*
X172760626Y-78492162D01*
X172853703Y-78352863D01*
X172917816Y-78198082D01*
X172950500Y-78033767D01*
X172950500Y-77866233D01*
X172917816Y-77701918D01*
X172853703Y-77547137D01*
X172789024Y-77450338D01*
X172760626Y-77407837D01*
X172642162Y-77289373D01*
X172502860Y-77196295D01*
X172348082Y-77132184D01*
X172348074Y-77132182D01*
X172183771Y-77099500D01*
X172183767Y-77099500D01*
X172016233Y-77099500D01*
X172016228Y-77099500D01*
X171851925Y-77132182D01*
X171851917Y-77132184D01*
X171697139Y-77196295D01*
X171557837Y-77289373D01*
X171439376Y-77407834D01*
X171439373Y-77407838D01*
X171393189Y-77476957D01*
X171393186Y-77476962D01*
X171346297Y-77547137D01*
X171282184Y-77701918D01*
X171281704Y-77704330D01*
X171281702Y-77704335D01*
X171249500Y-77866228D01*
X170679766Y-77866228D01*
X170699054Y-77849515D01*
X170707816Y-77845051D01*
X170846317Y-77744425D01*
X170879786Y-77720109D01*
X170879788Y-77720106D01*
X170879792Y-77720104D01*
X171030104Y-77569792D01*
X171155051Y-77397816D01*
X171251557Y-77208412D01*
X171317246Y-77006243D01*
X171350500Y-76796287D01*
X171350500Y-76583713D01*
X171317246Y-76373757D01*
X171251557Y-76171588D01*
X171155051Y-75982184D01*
X171155049Y-75982181D01*
X171155048Y-75982179D01*
X171030109Y-75810213D01*
X170879786Y-75659890D01*
X170707820Y-75534951D01*
X170707115Y-75534591D01*
X170699054Y-75530485D01*
X170648259Y-75482512D01*
X170631463Y-75414692D01*
X170653999Y-75348556D01*
X170699054Y-75309515D01*
X170707816Y-75305051D01*
X170759067Y-75267815D01*
X170879786Y-75180109D01*
X170879788Y-75180106D01*
X170879792Y-75180104D01*
X171030104Y-75029792D01*
X171030106Y-75029788D01*
X171030109Y-75029786D01*
X171155048Y-74857820D01*
X171155047Y-74857820D01*
X171155051Y-74857816D01*
X171251557Y-74668412D01*
X171317246Y-74466243D01*
X171350500Y-74256287D01*
X171350500Y-74043713D01*
X171317246Y-73833757D01*
X171251557Y-73631588D01*
X171155051Y-73442184D01*
X171155049Y-73442181D01*
X171155048Y-73442179D01*
X171030109Y-73270213D01*
X170879786Y-73119890D01*
X170707820Y-72994951D01*
X170518414Y-72898444D01*
X170518413Y-72898443D01*
X170518412Y-72898443D01*
X170316243Y-72832754D01*
X170316241Y-72832753D01*
X170316240Y-72832753D01*
X170154957Y-72807208D01*
X170106287Y-72799500D01*
X169893713Y-72799500D01*
X169845042Y-72807208D01*
X169683760Y-72832753D01*
X169481585Y-72898444D01*
X169292179Y-72994951D01*
X169120213Y-73119890D01*
X168969890Y-73270213D01*
X168844951Y-73442179D01*
X168748444Y-73631585D01*
X168682753Y-73833760D01*
X168649500Y-74043713D01*
X168649500Y-74256286D01*
X168678093Y-74436819D01*
X168682754Y-74466243D01*
X168730172Y-74612181D01*
X168748444Y-74668414D01*
X168844951Y-74857820D01*
X168969890Y-75029786D01*
X169120213Y-75180109D01*
X169292182Y-75305050D01*
X169300946Y-75309516D01*
X169351742Y-75357491D01*
X169368536Y-75425312D01*
X169345998Y-75491447D01*
X169300946Y-75530484D01*
X169292182Y-75534949D01*
X169120213Y-75659890D01*
X168969890Y-75810213D01*
X168844951Y-75982179D01*
X168748444Y-76171585D01*
X168682753Y-76373760D01*
X168649500Y-76583713D01*
X168649500Y-76796286D01*
X168682218Y-77002863D01*
X168682754Y-77006243D01*
X168740276Y-77183278D01*
X168748444Y-77208414D01*
X168844951Y-77397820D01*
X168969890Y-77569786D01*
X169120213Y-77720109D01*
X169292182Y-77845050D01*
X169300946Y-77849516D01*
X169351742Y-77897491D01*
X169368536Y-77965312D01*
X169345998Y-78031447D01*
X169300946Y-78070484D01*
X169292182Y-78074949D01*
X169120213Y-78199890D01*
X168969890Y-78350213D01*
X168844951Y-78522179D01*
X168748444Y-78711585D01*
X168682753Y-78913760D01*
X168649500Y-79123713D01*
X168649500Y-79336286D01*
X168680634Y-79532863D01*
X168682754Y-79546243D01*
X168746620Y-79742802D01*
X168748444Y-79748414D01*
X168844951Y-79937820D01*
X168969890Y-80109786D01*
X169120213Y-80260109D01*
X169292182Y-80385050D01*
X169300946Y-80389516D01*
X169351742Y-80437491D01*
X169368536Y-80505312D01*
X169345998Y-80571447D01*
X169300946Y-80610484D01*
X169292182Y-80614949D01*
X169120213Y-80739890D01*
X168969890Y-80890213D01*
X168844951Y-81062179D01*
X168748444Y-81251585D01*
X168682753Y-81453760D01*
X168660700Y-81592999D01*
X168649500Y-81663713D01*
X168649500Y-81876287D01*
X168657207Y-81924949D01*
X168680267Y-82070545D01*
X168682754Y-82086243D01*
X168742734Y-82270843D01*
X168748444Y-82288414D01*
X168844951Y-82477820D01*
X168969890Y-82649786D01*
X169120213Y-82800109D01*
X169292182Y-82925050D01*
X169300946Y-82929516D01*
X169351742Y-82977491D01*
X169368536Y-83045312D01*
X169345998Y-83111447D01*
X169300946Y-83150484D01*
X169292182Y-83154949D01*
X169120213Y-83279890D01*
X168969890Y-83430213D01*
X168844951Y-83602179D01*
X168748444Y-83791585D01*
X168682753Y-83993760D01*
X168659690Y-84139374D01*
X168649500Y-84203713D01*
X168649500Y-84416287D01*
X168650934Y-84425338D01*
X168680539Y-84612263D01*
X168682754Y-84626243D01*
X168731984Y-84777758D01*
X168748444Y-84828414D01*
X168844951Y-85017820D01*
X168969890Y-85189786D01*
X169083430Y-85303326D01*
X169116915Y-85364649D01*
X169111931Y-85434341D01*
X169070059Y-85490274D01*
X169039083Y-85507189D01*
X168907669Y-85556203D01*
X168907664Y-85556206D01*
X168792455Y-85642452D01*
X168792452Y-85642455D01*
X168706206Y-85757664D01*
X168706202Y-85757671D01*
X168655908Y-85892517D01*
X168649501Y-85952116D01*
X168649501Y-85952123D01*
X168649500Y-85952135D01*
X168649500Y-87747870D01*
X168649501Y-87747876D01*
X168655908Y-87807482D01*
X168671508Y-87849308D01*
X168676491Y-87918999D01*
X168643005Y-87980322D01*
X168581681Y-88013806D01*
X168511989Y-88008820D01*
X168467644Y-87980320D01*
X168186819Y-87699494D01*
X168153334Y-87638171D01*
X168150500Y-87611813D01*
X168150500Y-74876079D01*
X168125193Y-74748856D01*
X168125192Y-74748855D01*
X168123176Y-74738716D01*
X168121659Y-74731088D01*
X168084104Y-74640423D01*
X168065084Y-74594505D01*
X168065083Y-74594504D01*
X168065080Y-74594498D01*
X167982952Y-74471585D01*
X167931552Y-74420185D01*
X167878416Y-74367049D01*
X167555080Y-74043713D01*
X166578421Y-73067052D01*
X166578420Y-73067051D01*
X166491114Y-73008716D01*
X166455499Y-72984919D01*
X166455495Y-72984916D01*
X166455493Y-72984915D01*
X166455490Y-72984913D01*
X166318917Y-72928343D01*
X166318907Y-72928340D01*
X166173920Y-72899500D01*
X166173918Y-72899500D01*
X157798918Y-72899500D01*
X154096639Y-72899500D01*
X154029600Y-72879815D01*
X153983845Y-72827011D01*
X153973901Y-72757853D01*
X153975022Y-72751309D01*
X153980499Y-72723770D01*
X153980500Y-72723768D01*
X153980500Y-72556232D01*
X153980499Y-72556228D01*
X153957763Y-72441925D01*
X153947816Y-72391918D01*
X153883703Y-72237137D01*
X153824035Y-72147838D01*
X153790626Y-72097837D01*
X153672162Y-71979373D01*
X153532860Y-71886295D01*
X153378082Y-71822184D01*
X153378074Y-71822182D01*
X153213771Y-71789500D01*
X153213767Y-71789500D01*
X153046233Y-71789500D01*
X153046228Y-71789500D01*
X152881925Y-71822182D01*
X152881917Y-71822184D01*
X152727139Y-71886295D01*
X152587839Y-71979372D01*
X152550935Y-72016276D01*
X152514029Y-72053182D01*
X152452709Y-72086666D01*
X152426350Y-72089500D01*
X152158249Y-72089500D01*
X152091210Y-72069815D01*
X152045455Y-72017011D01*
X152035511Y-71947853D01*
X152043686Y-71918051D01*
X152047816Y-71908082D01*
X152080500Y-71743767D01*
X152080500Y-71576233D01*
X152047816Y-71411918D01*
X151983703Y-71257137D01*
X151952537Y-71210494D01*
X151890626Y-71117837D01*
X151772162Y-70999373D01*
X151632860Y-70906295D01*
X151478082Y-70842184D01*
X151478074Y-70842182D01*
X151313771Y-70809500D01*
X151313767Y-70809500D01*
X151146233Y-70809500D01*
X151146228Y-70809500D01*
X150981925Y-70842182D01*
X150981917Y-70842184D01*
X150827139Y-70906295D01*
X150687837Y-70999373D01*
X150569373Y-71117837D01*
X150476295Y-71257139D01*
X150412184Y-71411917D01*
X150412182Y-71411925D01*
X150379500Y-71576228D01*
X150379500Y-71749858D01*
X150377664Y-71749858D01*
X150366235Y-71810055D01*
X150318160Y-71860756D01*
X150297502Y-71869747D01*
X150297546Y-71869853D01*
X150137139Y-71936295D01*
X149997837Y-72029373D01*
X149879373Y-72147837D01*
X149786295Y-72287139D01*
X149722184Y-72441917D01*
X149722182Y-72441925D01*
X149689500Y-72606228D01*
X149689500Y-72775500D01*
X149669815Y-72842539D01*
X149617011Y-72888294D01*
X149565500Y-72899500D01*
X140551080Y-72899500D01*
X140406092Y-72928340D01*
X140406082Y-72928343D01*
X140269511Y-72984912D01*
X140269498Y-72984919D01*
X140146584Y-73067048D01*
X140146580Y-73067051D01*
X140042051Y-73171580D01*
X140042048Y-73171584D01*
X139959919Y-73294498D01*
X139959912Y-73294511D01*
X139903343Y-73431082D01*
X139903340Y-73431092D01*
X139874500Y-73576079D01*
X139874500Y-82205500D01*
X139854815Y-82272539D01*
X139802011Y-82318294D01*
X139750500Y-82329500D01*
X138927221Y-82329500D01*
X138860182Y-82309815D01*
X138826903Y-82278385D01*
X138770107Y-82200211D01*
X138619786Y-82049890D01*
X138447820Y-81924951D01*
X138447115Y-81924591D01*
X138439054Y-81920485D01*
X138388259Y-81872512D01*
X138371463Y-81804692D01*
X138393999Y-81738556D01*
X138439054Y-81699515D01*
X138447816Y-81695051D01*
X138505122Y-81653416D01*
X138619786Y-81570109D01*
X138619788Y-81570106D01*
X138619792Y-81570104D01*
X138770104Y-81419792D01*
X138770106Y-81419788D01*
X138770109Y-81419786D01*
X138889828Y-81255005D01*
X138895051Y-81247816D01*
X138991557Y-81058412D01*
X139057246Y-80856243D01*
X139090500Y-80646287D01*
X139090500Y-80433713D01*
X139057246Y-80223757D01*
X138991557Y-80021588D01*
X138895051Y-79832184D01*
X138895049Y-79832181D01*
X138895048Y-79832179D01*
X138770109Y-79660213D01*
X138656569Y-79546673D01*
X138623084Y-79485350D01*
X138628068Y-79415658D01*
X138669940Y-79359725D01*
X138700915Y-79342810D01*
X138832331Y-79293796D01*
X138947546Y-79207546D01*
X139033796Y-79092331D01*
X139084091Y-78957483D01*
X139090500Y-78897873D01*
X139090499Y-77102128D01*
X139084091Y-77042517D01*
X139070560Y-77006239D01*
X139033797Y-76907671D01*
X139033793Y-76907664D01*
X138947547Y-76792455D01*
X138947544Y-76792452D01*
X138832335Y-76706206D01*
X138832328Y-76706202D01*
X138697482Y-76655908D01*
X138697483Y-76655908D01*
X138637883Y-76649501D01*
X138637881Y-76649500D01*
X138637873Y-76649500D01*
X138637864Y-76649500D01*
X136842129Y-76649500D01*
X136842123Y-76649501D01*
X136782516Y-76655908D01*
X136647671Y-76706202D01*
X136647664Y-76706206D01*
X136532455Y-76792452D01*
X136532452Y-76792455D01*
X136446206Y-76907664D01*
X136446202Y-76907671D01*
X136395908Y-77042517D01*
X136390227Y-77095363D01*
X136389501Y-77102123D01*
X136389500Y-77102135D01*
X136389500Y-78897870D01*
X136389501Y-78897876D01*
X136395908Y-78957483D01*
X136446202Y-79092328D01*
X136446206Y-79092335D01*
X136532452Y-79207544D01*
X136532455Y-79207547D01*
X136647664Y-79293793D01*
X136647671Y-79293797D01*
X136779082Y-79342810D01*
X136835016Y-79384681D01*
X136859433Y-79450145D01*
X136844582Y-79518418D01*
X136826654Y-79543326D01*
X136825062Y-79545041D01*
X136709896Y-79660208D01*
X136679829Y-79701591D01*
X136674772Y-79707043D01*
X136650880Y-79721276D01*
X136628854Y-79738261D01*
X136621277Y-79738911D01*
X136614747Y-79742802D01*
X136586954Y-79741859D01*
X136559241Y-79744239D01*
X136552516Y-79740690D01*
X136544918Y-79740433D01*
X136522045Y-79724613D01*
X136497446Y-79711633D01*
X136492287Y-79704029D01*
X136487454Y-79700687D01*
X136483382Y-79690906D01*
X136469306Y-79670161D01*
X136465185Y-79660213D01*
X136428703Y-79572137D01*
X136370714Y-79485350D01*
X136335626Y-79432837D01*
X136217162Y-79314373D01*
X136077860Y-79221295D01*
X135923082Y-79157184D01*
X135923074Y-79157182D01*
X135758771Y-79124500D01*
X135758767Y-79124500D01*
X135591233Y-79124500D01*
X135591228Y-79124500D01*
X135426925Y-79157182D01*
X135426917Y-79157184D01*
X135272139Y-79221295D01*
X135132837Y-79314373D01*
X135014373Y-79432837D01*
X134921295Y-79572139D01*
X134857184Y-79726917D01*
X134857182Y-79726925D01*
X134824500Y-79891228D01*
X134824500Y-80058771D01*
X134857182Y-80223074D01*
X134857184Y-80223082D01*
X134921296Y-80377861D01*
X134921298Y-80377865D01*
X135004169Y-80501891D01*
X135025047Y-80568568D01*
X135006562Y-80635948D01*
X134993076Y-80652994D01*
X134993239Y-80653128D01*
X134989373Y-80657837D01*
X134896295Y-80797139D01*
X134832184Y-80951917D01*
X134832182Y-80951925D01*
X134799500Y-81116228D01*
X134799500Y-81283771D01*
X134832182Y-81448074D01*
X134832184Y-81448082D01*
X134896295Y-81602860D01*
X134989373Y-81742162D01*
X135107837Y-81860626D01*
X135168667Y-81901271D01*
X135247137Y-81953703D01*
X135401918Y-82017816D01*
X135566228Y-82050499D01*
X135566232Y-82050500D01*
X135566233Y-82050500D01*
X135733768Y-82050500D01*
X135733769Y-82050499D01*
X135898082Y-82017816D01*
X136052863Y-81953703D01*
X136192162Y-81860626D01*
X136310626Y-81742162D01*
X136403703Y-81602863D01*
X136467816Y-81448082D01*
X136468958Y-81442339D01*
X136501338Y-81380429D01*
X136562051Y-81345851D01*
X136631821Y-81349585D01*
X136688496Y-81390448D01*
X136690893Y-81393639D01*
X136709888Y-81419783D01*
X136709894Y-81419790D01*
X136860213Y-81570109D01*
X137032182Y-81695050D01*
X137040946Y-81699516D01*
X137091742Y-81747491D01*
X137108536Y-81815312D01*
X137085998Y-81881447D01*
X137040946Y-81920484D01*
X137032182Y-81924949D01*
X136860213Y-82049890D01*
X136709890Y-82200213D01*
X136584951Y-82372179D01*
X136488444Y-82561585D01*
X136422753Y-82763760D01*
X136389500Y-82973713D01*
X136389500Y-83186286D01*
X136413608Y-83338501D01*
X136422754Y-83396243D01*
X136455537Y-83497139D01*
X136488444Y-83598414D01*
X136584951Y-83787820D01*
X136709890Y-83959786D01*
X136860213Y-84110109D01*
X137032179Y-84235048D01*
X137032181Y-84235049D01*
X137032184Y-84235051D01*
X137221588Y-84331557D01*
X137423757Y-84397246D01*
X137633713Y-84430500D01*
X137633714Y-84430500D01*
X137846286Y-84430500D01*
X137846287Y-84430500D01*
X138056243Y-84397246D01*
X138258412Y-84331557D01*
X138447816Y-84235051D01*
X138529377Y-84175794D01*
X138619786Y-84110109D01*
X138619788Y-84110106D01*
X138619792Y-84110104D01*
X138770104Y-83959792D01*
X138773949Y-83954500D01*
X138826903Y-83881615D01*
X138882233Y-83838949D01*
X138927221Y-83830500D01*
X139750500Y-83830500D01*
X139817539Y-83850185D01*
X139863294Y-83902989D01*
X139874500Y-83954500D01*
X139874500Y-84448918D01*
X139874500Y-84448920D01*
X139874499Y-84448920D01*
X139903340Y-84593907D01*
X139903343Y-84593917D01*
X139959913Y-84730490D01*
X139959914Y-84730492D01*
X139991495Y-84777756D01*
X139991496Y-84777758D01*
X140042045Y-84853414D01*
X140042049Y-84853418D01*
X140611580Y-85422948D01*
X140611588Y-85422954D01*
X140685894Y-85472604D01*
X140730700Y-85526216D01*
X140739407Y-85595541D01*
X140709253Y-85658568D01*
X140685895Y-85678808D01*
X140557838Y-85764373D01*
X140557834Y-85764376D01*
X140439373Y-85882837D01*
X140346295Y-86022139D01*
X140282184Y-86176917D01*
X140282182Y-86176925D01*
X140249500Y-86341228D01*
X140249500Y-86508771D01*
X140282182Y-86673074D01*
X140282185Y-86673086D01*
X140346165Y-86827548D01*
X140353634Y-86897017D01*
X140346165Y-86922452D01*
X140282185Y-87076913D01*
X140282182Y-87076925D01*
X140249500Y-87241228D01*
X140249500Y-87408771D01*
X140282182Y-87573074D01*
X140282184Y-87573082D01*
X140346295Y-87727860D01*
X140439373Y-87867162D01*
X140557837Y-87985626D01*
X140637411Y-88038795D01*
X140697137Y-88078703D01*
X140697138Y-88078703D01*
X140697139Y-88078704D01*
X140717201Y-88087014D01*
X140851918Y-88142816D01*
X140993560Y-88170990D01*
X141016228Y-88175499D01*
X141016232Y-88175500D01*
X141016233Y-88175500D01*
X141183768Y-88175500D01*
X141183769Y-88175499D01*
X141348082Y-88142816D01*
X141502863Y-88078703D01*
X141618558Y-88001398D01*
X141685236Y-87980520D01*
X141687449Y-87980500D01*
X142450622Y-87980500D01*
X142517661Y-88000185D01*
X142563416Y-88052989D01*
X142573360Y-88122147D01*
X142565183Y-88151953D01*
X142514313Y-88274763D01*
X142514313Y-88274764D01*
X142499500Y-88387272D01*
X142499500Y-88912727D01*
X142514313Y-89025235D01*
X142514313Y-89025236D01*
X142558240Y-89131286D01*
X142572302Y-89165233D01*
X142664549Y-89285451D01*
X142784767Y-89377698D01*
X142924764Y-89435687D01*
X143037280Y-89450500D01*
X143110500Y-89450500D01*
X143177539Y-89470185D01*
X143223294Y-89522989D01*
X143234500Y-89574500D01*
X143234500Y-90244984D01*
X143214815Y-90312023D01*
X143198181Y-90332665D01*
X135742047Y-97788798D01*
X135742043Y-97788803D01*
X135715385Y-97828702D01*
X135715385Y-97828703D01*
X135659913Y-97911722D01*
X135603343Y-98048296D01*
X135603340Y-98048306D01*
X135574500Y-98193293D01*
X135574500Y-111889739D01*
X135565061Y-111937192D01*
X135507184Y-112076917D01*
X135507182Y-112076925D01*
X135474500Y-112241228D01*
X135474500Y-112408771D01*
X135507182Y-112573074D01*
X135507184Y-112573082D01*
X135571295Y-112727860D01*
X135664373Y-112867162D01*
X135785030Y-112987819D01*
X135818515Y-113049142D01*
X135813531Y-113118834D01*
X135771659Y-113174767D01*
X135706195Y-113199184D01*
X135697349Y-113199500D01*
X129524500Y-113199500D01*
X129457461Y-113179815D01*
X129411706Y-113127011D01*
X129400500Y-113075500D01*
X129400500Y-108366228D01*
X131849500Y-108366228D01*
X131849500Y-108533771D01*
X131882182Y-108698074D01*
X131882184Y-108698082D01*
X131906935Y-108757837D01*
X131946297Y-108852863D01*
X131987087Y-108913909D01*
X131998580Y-108931110D01*
X132019457Y-108997787D01*
X132000972Y-109065167D01*
X131998580Y-109068890D01*
X131946295Y-109147140D01*
X131882184Y-109301917D01*
X131882182Y-109301925D01*
X131849500Y-109466228D01*
X131849500Y-109633771D01*
X131882182Y-109798074D01*
X131882184Y-109798082D01*
X131946295Y-109952860D01*
X131946296Y-109952862D01*
X131946297Y-109952863D01*
X131976335Y-109997818D01*
X131977670Y-109999815D01*
X131998548Y-110066492D01*
X131980064Y-110133872D01*
X131977673Y-110137593D01*
X131971300Y-110147131D01*
X131971295Y-110147140D01*
X131907184Y-110301917D01*
X131907182Y-110301925D01*
X131874500Y-110466228D01*
X131874500Y-110633771D01*
X131907182Y-110798074D01*
X131907184Y-110798082D01*
X131971295Y-110952859D01*
X131971302Y-110952872D01*
X131990170Y-110981111D01*
X132011047Y-111047789D01*
X131992561Y-111115168D01*
X131990170Y-111118889D01*
X131971302Y-111147127D01*
X131971295Y-111147140D01*
X131907184Y-111301917D01*
X131907182Y-111301925D01*
X131874500Y-111466228D01*
X131874500Y-111633771D01*
X131907182Y-111798074D01*
X131907184Y-111798082D01*
X131971295Y-111952860D01*
X132064373Y-112092162D01*
X132182837Y-112210626D01*
X132242513Y-112250500D01*
X132322137Y-112303703D01*
X132476918Y-112367816D01*
X132641228Y-112400499D01*
X132641232Y-112400500D01*
X132641233Y-112400500D01*
X132808768Y-112400500D01*
X132808769Y-112400499D01*
X132973082Y-112367816D01*
X133127863Y-112303703D01*
X133267162Y-112210626D01*
X133385626Y-112092162D01*
X133478703Y-111952863D01*
X133542816Y-111798082D01*
X133575500Y-111633767D01*
X133575500Y-111466233D01*
X133542816Y-111301918D01*
X133480493Y-111151459D01*
X133478704Y-111147139D01*
X133475368Y-111142147D01*
X133459828Y-111118889D01*
X133438951Y-111052214D01*
X133457435Y-110984834D01*
X133459829Y-110981109D01*
X133462625Y-110976925D01*
X133478703Y-110952863D01*
X133542816Y-110798082D01*
X133575500Y-110633767D01*
X133575500Y-110466233D01*
X133542816Y-110301918D01*
X133489567Y-110173365D01*
X133478704Y-110147139D01*
X133475815Y-110142816D01*
X133447329Y-110100183D01*
X133426451Y-110033505D01*
X133444936Y-109966125D01*
X133447314Y-109962424D01*
X133453703Y-109952863D01*
X133517816Y-109798082D01*
X133550500Y-109633767D01*
X133550500Y-109466233D01*
X133517816Y-109301918D01*
X133453703Y-109147137D01*
X133401419Y-109068889D01*
X133380542Y-109002214D01*
X133399026Y-108934833D01*
X133401407Y-108931127D01*
X133453703Y-108852863D01*
X133517816Y-108698082D01*
X133550500Y-108533767D01*
X133550500Y-108366233D01*
X133517816Y-108201918D01*
X133453703Y-108047137D01*
X133422537Y-108000494D01*
X133360626Y-107907837D01*
X133242162Y-107789373D01*
X133102860Y-107696295D01*
X132948082Y-107632184D01*
X132948074Y-107632182D01*
X132783771Y-107599500D01*
X132783767Y-107599500D01*
X132616233Y-107599500D01*
X132616228Y-107599500D01*
X132451925Y-107632182D01*
X132451917Y-107632184D01*
X132297139Y-107696295D01*
X132157837Y-107789373D01*
X132039373Y-107907837D01*
X131946295Y-108047139D01*
X131882184Y-108201917D01*
X131882182Y-108201925D01*
X131849500Y-108366228D01*
X129400500Y-108366228D01*
X129400500Y-95518995D01*
X131999499Y-95518995D01*
X132026418Y-95654322D01*
X132026421Y-95654332D01*
X132079221Y-95781804D01*
X132079228Y-95781817D01*
X132155885Y-95896541D01*
X132155888Y-95896545D01*
X132253454Y-95994111D01*
X132253458Y-95994114D01*
X132368182Y-96070771D01*
X132368195Y-96070778D01*
X132495667Y-96123578D01*
X132495672Y-96123580D01*
X132495676Y-96123580D01*
X132495677Y-96123581D01*
X132631004Y-96150500D01*
X132631007Y-96150500D01*
X132768995Y-96150500D01*
X132860041Y-96132389D01*
X132904328Y-96123580D01*
X133031811Y-96070775D01*
X133146542Y-95994114D01*
X133244114Y-95896542D01*
X133320775Y-95781811D01*
X133373580Y-95654328D01*
X133400500Y-95518993D01*
X133400500Y-95381007D01*
X133400500Y-95381004D01*
X133373581Y-95245677D01*
X133373580Y-95245676D01*
X133373580Y-95245672D01*
X133345104Y-95176925D01*
X133320778Y-95118195D01*
X133320771Y-95118182D01*
X133244114Y-95003458D01*
X133244111Y-95003454D01*
X133146545Y-94905888D01*
X133146541Y-94905885D01*
X133031817Y-94829228D01*
X133031804Y-94829221D01*
X132904332Y-94776421D01*
X132904322Y-94776418D01*
X132768995Y-94749500D01*
X132768993Y-94749500D01*
X132631007Y-94749500D01*
X132631005Y-94749500D01*
X132495677Y-94776418D01*
X132495667Y-94776421D01*
X132368195Y-94829221D01*
X132368182Y-94829228D01*
X132253458Y-94905885D01*
X132253454Y-94905888D01*
X132155888Y-95003454D01*
X132155885Y-95003458D01*
X132079228Y-95118182D01*
X132079221Y-95118195D01*
X132026421Y-95245667D01*
X132026418Y-95245677D01*
X131999500Y-95381004D01*
X131999500Y-95381007D01*
X131999500Y-95518993D01*
X131999500Y-95518995D01*
X131999499Y-95518995D01*
X129400500Y-95518995D01*
X129400500Y-90441228D01*
X135499500Y-90441228D01*
X135499500Y-90608771D01*
X135532182Y-90773074D01*
X135532184Y-90773082D01*
X135596295Y-90927860D01*
X135689373Y-91067162D01*
X135807837Y-91185626D01*
X135900494Y-91247537D01*
X135947137Y-91278703D01*
X136101918Y-91342816D01*
X136256178Y-91373500D01*
X136266228Y-91375499D01*
X136266232Y-91375500D01*
X136266233Y-91375500D01*
X136433768Y-91375500D01*
X136433769Y-91375499D01*
X136598082Y-91342816D01*
X136752863Y-91278703D01*
X136892162Y-91185626D01*
X137010626Y-91067162D01*
X137103703Y-90927863D01*
X137167816Y-90773082D01*
X137200500Y-90608767D01*
X137200500Y-90441233D01*
X137167816Y-90276918D01*
X137103703Y-90122137D01*
X137058259Y-90054126D01*
X137010626Y-89982837D01*
X136892162Y-89864373D01*
X136752860Y-89771295D01*
X136598082Y-89707184D01*
X136598074Y-89707182D01*
X136433771Y-89674500D01*
X136433767Y-89674500D01*
X136266233Y-89674500D01*
X136266228Y-89674500D01*
X136101925Y-89707182D01*
X136101917Y-89707184D01*
X135947139Y-89771295D01*
X135807837Y-89864373D01*
X135689373Y-89982837D01*
X135596295Y-90122139D01*
X135532184Y-90276917D01*
X135532182Y-90276925D01*
X135499500Y-90441228D01*
X129400500Y-90441228D01*
X129400500Y-88718995D01*
X131999499Y-88718995D01*
X132026418Y-88854322D01*
X132026421Y-88854332D01*
X132079221Y-88981804D01*
X132079228Y-88981817D01*
X132155885Y-89096541D01*
X132155888Y-89096545D01*
X132253454Y-89194111D01*
X132253458Y-89194114D01*
X132368182Y-89270771D01*
X132368195Y-89270778D01*
X132495667Y-89323578D01*
X132495672Y-89323580D01*
X132495676Y-89323580D01*
X132495677Y-89323581D01*
X132631004Y-89350500D01*
X132631007Y-89350500D01*
X132768995Y-89350500D01*
X132860041Y-89332389D01*
X132904328Y-89323580D01*
X133002924Y-89282740D01*
X133031804Y-89270778D01*
X133031804Y-89270777D01*
X133031811Y-89270775D01*
X133146542Y-89194114D01*
X133244114Y-89096542D01*
X133320775Y-88981811D01*
X133373580Y-88854328D01*
X133392853Y-88757437D01*
X133400500Y-88718995D01*
X133400500Y-88581004D01*
X133373581Y-88445677D01*
X133373580Y-88445676D01*
X133373580Y-88445672D01*
X133340674Y-88366228D01*
X135399500Y-88366228D01*
X135399500Y-88533771D01*
X135432182Y-88698074D01*
X135432184Y-88698082D01*
X135496295Y-88852860D01*
X135589373Y-88992162D01*
X135707837Y-89110626D01*
X135789557Y-89165229D01*
X135847137Y-89203703D01*
X136001918Y-89267816D01*
X136166228Y-89300499D01*
X136166232Y-89300500D01*
X136166233Y-89300500D01*
X136333768Y-89300500D01*
X136333769Y-89300499D01*
X136498082Y-89267816D01*
X136652863Y-89203703D01*
X136792162Y-89110626D01*
X136910626Y-88992162D01*
X137003703Y-88852863D01*
X137067816Y-88698082D01*
X137100500Y-88533767D01*
X137100500Y-88366233D01*
X137067816Y-88201918D01*
X137003703Y-88047137D01*
X136972331Y-88000185D01*
X136910626Y-87907837D01*
X136792162Y-87789373D01*
X136652860Y-87696295D01*
X136498082Y-87632184D01*
X136498074Y-87632182D01*
X136333771Y-87599500D01*
X136333767Y-87599500D01*
X136166233Y-87599500D01*
X136166228Y-87599500D01*
X136001925Y-87632182D01*
X136001917Y-87632184D01*
X135847139Y-87696295D01*
X135707837Y-87789373D01*
X135589373Y-87907837D01*
X135496295Y-88047139D01*
X135432184Y-88201917D01*
X135432182Y-88201925D01*
X135399500Y-88366228D01*
X133340674Y-88366228D01*
X133321953Y-88321032D01*
X133320776Y-88318191D01*
X133320771Y-88318182D01*
X133244114Y-88203458D01*
X133244111Y-88203454D01*
X133146545Y-88105888D01*
X133146541Y-88105885D01*
X133031817Y-88029228D01*
X133031804Y-88029221D01*
X132904332Y-87976421D01*
X132904322Y-87976418D01*
X132768995Y-87949500D01*
X132768993Y-87949500D01*
X132631007Y-87949500D01*
X132631005Y-87949500D01*
X132495677Y-87976418D01*
X132495667Y-87976421D01*
X132368195Y-88029221D01*
X132368182Y-88029228D01*
X132253458Y-88105885D01*
X132253454Y-88105888D01*
X132155888Y-88203454D01*
X132155885Y-88203458D01*
X132079228Y-88318182D01*
X132079221Y-88318195D01*
X132026421Y-88445667D01*
X132026418Y-88445677D01*
X131999500Y-88581004D01*
X131999500Y-88581007D01*
X131999500Y-88718993D01*
X131999500Y-88718995D01*
X131999499Y-88718995D01*
X129400500Y-88718995D01*
X129400500Y-83816228D01*
X131374500Y-83816228D01*
X131374500Y-83983771D01*
X131407182Y-84148074D01*
X131407184Y-84148082D01*
X131471295Y-84302860D01*
X131564373Y-84442162D01*
X131682837Y-84560626D01*
X131707750Y-84577272D01*
X131822137Y-84653703D01*
X131976918Y-84717816D01*
X132141228Y-84750499D01*
X132141232Y-84750500D01*
X132141233Y-84750500D01*
X132308768Y-84750500D01*
X132308769Y-84750499D01*
X132473082Y-84717816D01*
X132627863Y-84653703D01*
X132767162Y-84560626D01*
X132885626Y-84442162D01*
X132978703Y-84302863D01*
X133042816Y-84148082D01*
X133075500Y-83983767D01*
X133075500Y-83816233D01*
X133042816Y-83651918D01*
X132978703Y-83497137D01*
X132925870Y-83418067D01*
X132904993Y-83351390D01*
X132923478Y-83284010D01*
X132941294Y-83261494D01*
X132960626Y-83242162D01*
X132976384Y-83218579D01*
X133053703Y-83102863D01*
X133117816Y-82948082D01*
X133150500Y-82783767D01*
X133150500Y-82616233D01*
X133117816Y-82451918D01*
X133062467Y-82318294D01*
X133053704Y-82297139D01*
X132960626Y-82157837D01*
X132842162Y-82039373D01*
X132702860Y-81946295D01*
X132548082Y-81882184D01*
X132548074Y-81882182D01*
X132383771Y-81849500D01*
X132383767Y-81849500D01*
X132216233Y-81849500D01*
X132216228Y-81849500D01*
X132051925Y-81882182D01*
X132051917Y-81882184D01*
X131897139Y-81946295D01*
X131757837Y-82039373D01*
X131639373Y-82157837D01*
X131546295Y-82297139D01*
X131482184Y-82451917D01*
X131482182Y-82451925D01*
X131449500Y-82616228D01*
X131449500Y-82783771D01*
X131482182Y-82948074D01*
X131482184Y-82948082D01*
X131546151Y-83102512D01*
X131546297Y-83102863D01*
X131552033Y-83111447D01*
X131599129Y-83181932D01*
X131620006Y-83248610D01*
X131601521Y-83315990D01*
X131583709Y-83338501D01*
X131564373Y-83357837D01*
X131471295Y-83497139D01*
X131407184Y-83651917D01*
X131407182Y-83651925D01*
X131374500Y-83816228D01*
X129400500Y-83816228D01*
X129400500Y-70324500D01*
X129420185Y-70257461D01*
X129472989Y-70211706D01*
X129524500Y-70200500D01*
X174550500Y-70200500D01*
X174617539Y-70220185D01*
G37*
%TD.AperFunction*%
%TA.AperFunction,Conductor*%
G36*
X166592539Y-83745185D02*
G01*
X166638294Y-83797989D01*
X166649500Y-83849500D01*
X166649500Y-88047962D01*
X166649500Y-88047964D01*
X166649499Y-88047964D01*
X166678340Y-88192951D01*
X166678343Y-88192961D01*
X166734914Y-88329536D01*
X166759433Y-88366231D01*
X166759434Y-88366234D01*
X166817046Y-88452458D01*
X166817052Y-88452465D01*
X168912181Y-90547593D01*
X168945666Y-90608916D01*
X168948500Y-90635274D01*
X168948500Y-93876000D01*
X168928815Y-93943039D01*
X168876011Y-93988794D01*
X168824500Y-94000000D01*
X168440000Y-94000000D01*
X168440000Y-94916988D01*
X168382993Y-94884075D01*
X168255826Y-94850000D01*
X168124174Y-94850000D01*
X167997007Y-94884075D01*
X167940000Y-94916988D01*
X167940000Y-94000000D01*
X167292155Y-94000000D01*
X167232627Y-94006401D01*
X167232620Y-94006403D01*
X167097913Y-94056645D01*
X167097906Y-94056649D01*
X166982812Y-94142809D01*
X166982809Y-94142812D01*
X166896649Y-94257906D01*
X166896646Y-94257912D01*
X166847577Y-94389471D01*
X166805705Y-94445404D01*
X166740241Y-94469821D01*
X166671968Y-94454969D01*
X166643714Y-94433818D01*
X166529786Y-94319890D01*
X166357820Y-94194951D01*
X166168414Y-94098444D01*
X166168413Y-94098443D01*
X166168412Y-94098443D01*
X165966243Y-94032754D01*
X165966241Y-94032753D01*
X165966240Y-94032753D01*
X165804957Y-94007208D01*
X165756287Y-93999500D01*
X165543713Y-93999500D01*
X165495042Y-94007208D01*
X165333760Y-94032753D01*
X165131585Y-94098444D01*
X164942179Y-94194951D01*
X164770213Y-94319890D01*
X164619890Y-94470213D01*
X164494949Y-94642182D01*
X164490484Y-94650946D01*
X164442509Y-94701742D01*
X164374688Y-94718536D01*
X164308553Y-94695998D01*
X164269516Y-94650946D01*
X164265050Y-94642182D01*
X164140109Y-94470213D01*
X163989786Y-94319890D01*
X163817820Y-94194951D01*
X163628414Y-94098444D01*
X163628413Y-94098443D01*
X163628412Y-94098443D01*
X163426243Y-94032754D01*
X163426241Y-94032753D01*
X163426240Y-94032753D01*
X163264957Y-94007208D01*
X163216287Y-93999500D01*
X163003713Y-93999500D01*
X162955042Y-94007208D01*
X162793760Y-94032753D01*
X162591582Y-94098445D01*
X162459007Y-94165995D01*
X162390338Y-94178891D01*
X162325598Y-94152614D01*
X162285341Y-94095508D01*
X162281096Y-94031319D01*
X162287425Y-93999500D01*
X162300500Y-93933767D01*
X162300500Y-93766233D01*
X162267816Y-93601918D01*
X162203703Y-93447137D01*
X162160464Y-93382425D01*
X162110626Y-93307837D01*
X161992162Y-93189373D01*
X161852860Y-93096295D01*
X161698082Y-93032184D01*
X161698074Y-93032182D01*
X161533771Y-92999500D01*
X161533767Y-92999500D01*
X161366233Y-92999500D01*
X161366228Y-92999500D01*
X161201925Y-93032182D01*
X161201917Y-93032184D01*
X161047139Y-93096295D01*
X160907837Y-93189373D01*
X160789373Y-93307837D01*
X160696295Y-93447139D01*
X160696295Y-93447140D01*
X160682237Y-93481078D01*
X160638395Y-93535480D01*
X160572101Y-93557544D01*
X160504402Y-93540264D01*
X160456792Y-93489126D01*
X160453116Y-93481075D01*
X160428705Y-93422141D01*
X160428704Y-93422139D01*
X160412624Y-93398074D01*
X160352062Y-93307436D01*
X160335626Y-93282837D01*
X160217162Y-93164373D01*
X160077860Y-93071295D01*
X159923082Y-93007184D01*
X159923074Y-93007182D01*
X159758771Y-92974500D01*
X159758767Y-92974500D01*
X159591233Y-92974500D01*
X159591228Y-92974500D01*
X159426925Y-93007182D01*
X159426917Y-93007184D01*
X159272139Y-93071295D01*
X159132838Y-93164373D01*
X159023259Y-93273952D01*
X158961936Y-93307436D01*
X158903487Y-93306046D01*
X158879057Y-93299500D01*
X158879055Y-93299500D01*
X156601762Y-93299500D01*
X156534723Y-93279815D01*
X156519680Y-93267693D01*
X156519571Y-93267827D01*
X156514861Y-93263961D01*
X156375559Y-93170883D01*
X156220781Y-93106772D01*
X156220773Y-93106770D01*
X156056470Y-93074088D01*
X156056466Y-93074088D01*
X155888932Y-93074088D01*
X155888927Y-93074088D01*
X155724624Y-93106770D01*
X155724616Y-93106772D01*
X155569838Y-93170883D01*
X155430536Y-93263961D01*
X155312072Y-93382425D01*
X155218994Y-93521727D01*
X155154883Y-93676505D01*
X155154881Y-93676513D01*
X155122199Y-93840816D01*
X155122199Y-94008359D01*
X155154881Y-94172662D01*
X155154883Y-94172670D01*
X155218994Y-94327448D01*
X155312072Y-94466750D01*
X155430536Y-94585214D01*
X155515795Y-94642182D01*
X155569836Y-94678291D01*
X155724617Y-94742404D01*
X155835064Y-94764373D01*
X155888927Y-94775087D01*
X155888931Y-94775088D01*
X155888932Y-94775088D01*
X156056467Y-94775088D01*
X156056468Y-94775087D01*
X156220781Y-94742404D01*
X156375562Y-94678291D01*
X156514861Y-94585214D01*
X156563255Y-94536820D01*
X156624578Y-94503334D01*
X156650937Y-94500500D01*
X158075500Y-94500500D01*
X158142539Y-94520185D01*
X158188294Y-94572989D01*
X158199500Y-94624500D01*
X158199500Y-101139739D01*
X158190061Y-101187192D01*
X158132184Y-101326917D01*
X158132182Y-101326925D01*
X158099500Y-101491228D01*
X158099500Y-101658771D01*
X158132182Y-101823074D01*
X158132184Y-101823082D01*
X158196295Y-101977860D01*
X158289373Y-102117162D01*
X158407837Y-102235626D01*
X158478995Y-102283172D01*
X158547137Y-102328703D01*
X158701918Y-102392816D01*
X158866228Y-102425499D01*
X158866232Y-102425500D01*
X158866233Y-102425500D01*
X159033768Y-102425500D01*
X159033769Y-102425499D01*
X159198082Y-102392816D01*
X159352863Y-102328703D01*
X159492162Y-102235626D01*
X159610626Y-102117162D01*
X159703703Y-101977863D01*
X159767816Y-101823082D01*
X159800500Y-101658767D01*
X159800500Y-101491233D01*
X159767816Y-101326918D01*
X159703703Y-101172137D01*
X159656783Y-101101917D01*
X159610626Y-101032837D01*
X159492165Y-100914376D01*
X159492159Y-100914371D01*
X159455608Y-100889948D01*
X159410804Y-100836336D01*
X159400500Y-100786847D01*
X159400500Y-96389758D01*
X159420185Y-96322719D01*
X159472989Y-96276964D01*
X159542147Y-96267020D01*
X159605703Y-96296045D01*
X159612181Y-96302077D01*
X159690213Y-96380109D01*
X159862179Y-96505048D01*
X159862181Y-96505049D01*
X159862184Y-96505051D01*
X160051588Y-96601557D01*
X160253757Y-96667246D01*
X160463713Y-96700500D01*
X160463714Y-96700500D01*
X160676286Y-96700500D01*
X160676287Y-96700500D01*
X160886243Y-96667246D01*
X161088412Y-96601557D01*
X161277816Y-96505051D01*
X161321818Y-96473082D01*
X161449786Y-96380109D01*
X161449788Y-96380106D01*
X161449792Y-96380104D01*
X161600104Y-96229792D01*
X161600106Y-96229788D01*
X161600109Y-96229786D01*
X161725048Y-96057820D01*
X161725047Y-96057820D01*
X161725051Y-96057816D01*
X161729514Y-96049054D01*
X161777488Y-95998259D01*
X161845308Y-95981463D01*
X161911444Y-96003999D01*
X161950486Y-96049056D01*
X161954951Y-96057820D01*
X162079890Y-96229786D01*
X162230213Y-96380109D01*
X162402179Y-96505048D01*
X162402181Y-96505049D01*
X162402184Y-96505051D01*
X162510628Y-96560306D01*
X162555882Y-96583364D01*
X162606678Y-96631339D01*
X162623473Y-96699160D01*
X162602690Y-96762739D01*
X162546295Y-96847140D01*
X162482184Y-97001917D01*
X162482182Y-97001925D01*
X162449500Y-97166228D01*
X162449500Y-97333771D01*
X162482182Y-97498074D01*
X162482184Y-97498082D01*
X162546296Y-97652861D01*
X162546297Y-97652863D01*
X162558053Y-97670458D01*
X162578930Y-97737136D01*
X162569512Y-97786798D01*
X162532184Y-97876918D01*
X162532182Y-97876925D01*
X162499500Y-98041228D01*
X162499500Y-98208771D01*
X162532182Y-98373074D01*
X162532184Y-98373082D01*
X162596295Y-98527860D01*
X162689373Y-98667162D01*
X162807837Y-98785626D01*
X162900494Y-98847537D01*
X162947137Y-98878703D01*
X162947138Y-98878703D01*
X162947139Y-98878704D01*
X162982201Y-98893227D01*
X163101918Y-98942816D01*
X163266228Y-98975499D01*
X163266232Y-98975500D01*
X163266233Y-98975500D01*
X163433768Y-98975500D01*
X163433769Y-98975499D01*
X163598082Y-98942816D01*
X163752863Y-98878703D01*
X163892162Y-98785626D01*
X164010626Y-98667162D01*
X164103703Y-98527863D01*
X164167816Y-98373082D01*
X164200500Y-98208767D01*
X164200500Y-98041233D01*
X164167816Y-97876918D01*
X164103703Y-97722137D01*
X164091945Y-97704541D01*
X164071068Y-97637868D01*
X164080486Y-97588202D01*
X164117816Y-97498082D01*
X164150500Y-97333767D01*
X164150500Y-97166233D01*
X164117816Y-97001918D01*
X164055686Y-96851925D01*
X164053704Y-96847139D01*
X164023488Y-96801918D01*
X163990084Y-96751925D01*
X163960626Y-96707837D01*
X163885740Y-96632951D01*
X163852255Y-96571628D01*
X163857239Y-96501936D01*
X163899111Y-96446003D01*
X163900537Y-96444951D01*
X163989788Y-96380107D01*
X163989788Y-96380106D01*
X163989792Y-96380104D01*
X164140104Y-96229792D01*
X164140106Y-96229788D01*
X164140109Y-96229786D01*
X164265048Y-96057820D01*
X164265047Y-96057820D01*
X164265051Y-96057816D01*
X164269514Y-96049054D01*
X164317488Y-95998259D01*
X164385308Y-95981463D01*
X164451444Y-96003999D01*
X164490486Y-96049056D01*
X164494951Y-96057820D01*
X164619890Y-96229786D01*
X164770213Y-96380109D01*
X164942179Y-96505048D01*
X164942181Y-96505049D01*
X164942184Y-96505051D01*
X165131588Y-96601557D01*
X165333757Y-96667246D01*
X165543713Y-96700500D01*
X165543714Y-96700500D01*
X165756286Y-96700500D01*
X165756287Y-96700500D01*
X165966243Y-96667246D01*
X166168412Y-96601557D01*
X166357816Y-96505051D01*
X166482623Y-96414374D01*
X166529784Y-96380110D01*
X166529784Y-96380109D01*
X166529792Y-96380104D01*
X166643717Y-96266178D01*
X166705036Y-96232696D01*
X166774728Y-96237680D01*
X166830662Y-96279551D01*
X166847577Y-96310528D01*
X166896646Y-96442088D01*
X166896649Y-96442093D01*
X166982809Y-96557187D01*
X166982812Y-96557190D01*
X167097906Y-96643350D01*
X167097913Y-96643354D01*
X167232620Y-96693596D01*
X167232627Y-96693598D01*
X167292155Y-96699999D01*
X167292172Y-96700000D01*
X167940000Y-96700000D01*
X167940000Y-95783012D01*
X167997007Y-95815925D01*
X168124174Y-95850000D01*
X168255826Y-95850000D01*
X168382993Y-95815925D01*
X168440000Y-95783012D01*
X168440000Y-96717937D01*
X168451909Y-96739747D01*
X168446925Y-96809439D01*
X168418429Y-96853781D01*
X168414373Y-96857837D01*
X168321295Y-96997139D01*
X168257184Y-97151917D01*
X168257182Y-97151925D01*
X168224500Y-97316228D01*
X168224500Y-97483771D01*
X168257182Y-97648074D01*
X168257184Y-97648082D01*
X168321295Y-97802860D01*
X168414373Y-97942162D01*
X168532837Y-98060626D01*
X168625494Y-98122537D01*
X168672137Y-98153703D01*
X168826918Y-98217816D01*
X168991228Y-98250499D01*
X168991232Y-98250500D01*
X168991233Y-98250500D01*
X169158768Y-98250500D01*
X169158769Y-98250499D01*
X169323082Y-98217816D01*
X169477863Y-98153703D01*
X169617162Y-98060626D01*
X169735626Y-97942162D01*
X169828703Y-97802863D01*
X169850439Y-97750387D01*
X169894279Y-97695984D01*
X169960573Y-97673919D01*
X170028273Y-97691198D01*
X170033873Y-97694726D01*
X170122137Y-97753703D01*
X170276918Y-97817816D01*
X170402598Y-97842815D01*
X170441228Y-97850499D01*
X170441232Y-97850500D01*
X170441233Y-97850500D01*
X170608768Y-97850500D01*
X170608769Y-97850499D01*
X170773082Y-97817816D01*
X170927863Y-97753703D01*
X171067162Y-97660626D01*
X171185626Y-97542162D01*
X171278703Y-97402863D01*
X171342816Y-97248082D01*
X171375500Y-97083767D01*
X171375500Y-96916233D01*
X171342816Y-96751918D01*
X171292221Y-96629774D01*
X171284753Y-96560306D01*
X171292223Y-96534868D01*
X171317813Y-96473090D01*
X171317813Y-96473087D01*
X171317816Y-96473082D01*
X171350500Y-96308767D01*
X171350500Y-96141233D01*
X171317816Y-95976918D01*
X171253703Y-95822137D01*
X171188747Y-95724924D01*
X171160626Y-95682837D01*
X171042162Y-95564373D01*
X170902860Y-95471295D01*
X170748082Y-95407184D01*
X170748074Y-95407182D01*
X170583771Y-95374500D01*
X170583767Y-95374500D01*
X170573500Y-95374500D01*
X170506461Y-95354815D01*
X170460706Y-95302011D01*
X170449500Y-95250500D01*
X170449500Y-90199123D01*
X170420659Y-90054136D01*
X170420658Y-90054135D01*
X170420658Y-90054131D01*
X170364084Y-89917549D01*
X170324263Y-89857952D01*
X170324263Y-89857951D01*
X170281950Y-89794625D01*
X170281947Y-89794622D01*
X168869679Y-88382355D01*
X168836194Y-88321032D01*
X168841178Y-88251340D01*
X168883050Y-88195407D01*
X168948514Y-88170990D01*
X169000693Y-88178492D01*
X169042517Y-88194091D01*
X169042516Y-88194091D01*
X169049444Y-88194835D01*
X169102127Y-88200500D01*
X170449902Y-88200499D01*
X170516941Y-88220184D01*
X170537583Y-88236818D01*
X172013181Y-89712416D01*
X172046666Y-89773739D01*
X172049500Y-89800097D01*
X172049500Y-97288330D01*
X172049499Y-97288348D01*
X172049499Y-97454054D01*
X172049498Y-97454054D01*
X172090424Y-97606789D01*
X172090425Y-97606790D01*
X172110847Y-97642161D01*
X172110848Y-97642162D01*
X172169477Y-97743712D01*
X172169481Y-97743717D01*
X172288349Y-97862585D01*
X172288355Y-97862590D01*
X172939181Y-98513416D01*
X172972666Y-98574739D01*
X172975500Y-98601097D01*
X172975500Y-100800500D01*
X172955815Y-100867539D01*
X172903011Y-100913294D01*
X172851500Y-100924500D01*
X172841228Y-100924500D01*
X172676925Y-100957182D01*
X172676917Y-100957184D01*
X172522139Y-101021295D01*
X172382837Y-101114373D01*
X172264376Y-101232834D01*
X172264371Y-101232840D01*
X172228685Y-101286248D01*
X172175073Y-101331052D01*
X172105748Y-101339759D01*
X172042721Y-101309604D01*
X172011023Y-101264808D01*
X172003705Y-101247141D01*
X172003704Y-101247139D01*
X171994148Y-101232838D01*
X171953591Y-101172139D01*
X171910626Y-101107837D01*
X171792162Y-100989373D01*
X171652860Y-100896295D01*
X171498082Y-100832184D01*
X171498074Y-100832182D01*
X171333771Y-100799500D01*
X171333767Y-100799500D01*
X171166233Y-100799500D01*
X171166228Y-100799500D01*
X171001925Y-100832182D01*
X171001913Y-100832185D01*
X170913192Y-100868935D01*
X170843723Y-100876404D01*
X170781244Y-100845129D01*
X170762637Y-100823263D01*
X170735627Y-100782839D01*
X170735623Y-100782834D01*
X170617162Y-100664373D01*
X170477860Y-100571295D01*
X170339684Y-100514061D01*
X170285281Y-100470220D01*
X170263216Y-100403926D01*
X170280495Y-100336226D01*
X170331633Y-100288616D01*
X170387137Y-100275500D01*
X170458768Y-100275500D01*
X170458769Y-100275499D01*
X170623082Y-100242816D01*
X170777863Y-100178703D01*
X170917162Y-100085626D01*
X171035626Y-99967162D01*
X171128703Y-99827863D01*
X171192816Y-99673082D01*
X171225500Y-99508767D01*
X171225500Y-99341233D01*
X171192816Y-99176918D01*
X171128703Y-99022137D01*
X171063464Y-98924500D01*
X171035626Y-98882837D01*
X170917162Y-98764373D01*
X170777860Y-98671295D01*
X170623082Y-98607184D01*
X170623074Y-98607182D01*
X170458771Y-98574500D01*
X170458767Y-98574500D01*
X170291233Y-98574500D01*
X170291228Y-98574500D01*
X170126925Y-98607182D01*
X170126917Y-98607184D01*
X169972139Y-98671295D01*
X169832837Y-98764373D01*
X169714373Y-98882837D01*
X169621295Y-99022139D01*
X169557184Y-99176917D01*
X169557182Y-99176925D01*
X169524500Y-99341228D01*
X169524500Y-99508771D01*
X169557182Y-99673074D01*
X169557184Y-99673082D01*
X169621295Y-99827860D01*
X169714373Y-99967162D01*
X169832837Y-100085626D01*
X169850065Y-100097137D01*
X169972137Y-100178703D01*
X169972138Y-100178703D01*
X169972139Y-100178704D01*
X170110316Y-100235939D01*
X170164719Y-100279780D01*
X170186784Y-100346074D01*
X170169505Y-100413774D01*
X170118367Y-100461384D01*
X170062863Y-100474500D01*
X169991228Y-100474500D01*
X169826925Y-100507182D01*
X169826917Y-100507184D01*
X169672140Y-100571295D01*
X169600182Y-100619376D01*
X169533505Y-100640253D01*
X169466125Y-100621768D01*
X169462401Y-100619375D01*
X169427860Y-100596295D01*
X169273082Y-100532184D01*
X169273074Y-100532182D01*
X169108771Y-100499500D01*
X169108767Y-100499500D01*
X168941233Y-100499500D01*
X168941228Y-100499500D01*
X168776925Y-100532182D01*
X168776917Y-100532184D01*
X168622139Y-100596295D01*
X168482837Y-100689373D01*
X168364373Y-100807837D01*
X168271295Y-100947139D01*
X168207184Y-101101917D01*
X168207182Y-101101925D01*
X168174500Y-101266228D01*
X168174500Y-101421350D01*
X168154815Y-101488389D01*
X168138181Y-101509031D01*
X168074031Y-101573181D01*
X168012708Y-101606666D01*
X167986350Y-101609500D01*
X167221454Y-101609500D01*
X167139769Y-101625748D01*
X167070177Y-101619521D01*
X167015000Y-101576657D01*
X167012490Y-101573042D01*
X166985626Y-101532838D01*
X166985625Y-101532837D01*
X166985624Y-101532835D01*
X166867162Y-101414373D01*
X166727860Y-101321295D01*
X166573082Y-101257184D01*
X166573074Y-101257182D01*
X166408771Y-101224500D01*
X166408767Y-101224500D01*
X166241233Y-101224500D01*
X166241228Y-101224500D01*
X166076925Y-101257182D01*
X166076917Y-101257184D01*
X165922139Y-101321295D01*
X165782837Y-101414373D01*
X165664373Y-101532837D01*
X165571295Y-101672139D01*
X165507184Y-101826917D01*
X165507182Y-101826925D01*
X165474500Y-101991228D01*
X165474500Y-102158771D01*
X165507182Y-102323074D01*
X165507184Y-102323082D01*
X165571295Y-102477860D01*
X165664373Y-102617162D01*
X165782837Y-102735626D01*
X165868430Y-102792817D01*
X165922137Y-102828703D01*
X166076918Y-102892816D01*
X166202598Y-102917815D01*
X166241228Y-102925499D01*
X166241232Y-102925500D01*
X166241233Y-102925500D01*
X166284897Y-102925500D01*
X166351936Y-102945185D01*
X166397691Y-102997989D01*
X166399458Y-103002048D01*
X166433364Y-103083907D01*
X166433371Y-103083920D01*
X166542860Y-103247781D01*
X166542863Y-103247785D01*
X166682214Y-103387136D01*
X166682218Y-103387139D01*
X166846079Y-103496628D01*
X166846092Y-103496635D01*
X167017943Y-103567817D01*
X167028165Y-103572051D01*
X167028169Y-103572051D01*
X167028170Y-103572052D01*
X167221456Y-103610500D01*
X167221459Y-103610500D01*
X167738667Y-103610500D01*
X167805706Y-103630185D01*
X167851461Y-103682989D01*
X167861405Y-103752147D01*
X167846053Y-103796501D01*
X167833721Y-103817859D01*
X167833720Y-103817862D01*
X167833719Y-103817864D01*
X167833719Y-103817865D01*
X167794500Y-103964234D01*
X167794500Y-104115766D01*
X167812471Y-104182837D01*
X167833719Y-104262136D01*
X167852053Y-104293891D01*
X167909485Y-104393365D01*
X168016635Y-104500515D01*
X168147865Y-104576281D01*
X168294234Y-104615500D01*
X168294236Y-104615500D01*
X168445764Y-104615500D01*
X168445766Y-104615500D01*
X168592135Y-104576281D01*
X168723365Y-104500515D01*
X168830515Y-104393365D01*
X168906281Y-104262135D01*
X168938362Y-104142405D01*
X168974726Y-104082746D01*
X169037572Y-104052217D01*
X169058136Y-104050500D01*
X169133768Y-104050500D01*
X169133769Y-104050499D01*
X169298082Y-104017816D01*
X169452863Y-103953703D01*
X169592162Y-103860626D01*
X169710626Y-103742162D01*
X169803703Y-103602863D01*
X169867816Y-103448082D01*
X169900500Y-103283767D01*
X169900500Y-103116233D01*
X169867816Y-102951918D01*
X169803703Y-102797137D01*
X169772537Y-102750494D01*
X169710626Y-102657837D01*
X169592164Y-102539375D01*
X169570621Y-102524981D01*
X169525815Y-102471369D01*
X169517108Y-102402044D01*
X169517229Y-102401306D01*
X169517740Y-102398263D01*
X169517816Y-102398082D01*
X169550500Y-102233767D01*
X169550500Y-102203538D01*
X169552218Y-102193326D01*
X169563143Y-102170838D01*
X169570185Y-102146859D01*
X169578146Y-102139960D01*
X169582752Y-102130481D01*
X169604101Y-102117470D01*
X169622989Y-102101104D01*
X169633416Y-102099604D01*
X169642415Y-102094121D01*
X169667403Y-102094717D01*
X169692147Y-102091160D01*
X169708711Y-102095704D01*
X169712265Y-102095789D01*
X169714475Y-102097285D01*
X169721946Y-102099334D01*
X169826918Y-102142816D01*
X169991228Y-102175499D01*
X169991232Y-102175500D01*
X169991233Y-102175500D01*
X170158768Y-102175500D01*
X170158769Y-102175499D01*
X170323082Y-102142816D01*
X170411806Y-102106064D01*
X170481273Y-102098595D01*
X170543753Y-102129869D01*
X170553522Y-102140062D01*
X170558287Y-102145637D01*
X170589374Y-102192162D01*
X170649063Y-102251851D01*
X170652215Y-102255539D01*
X170664608Y-102283172D01*
X170679117Y-102309744D01*
X170679169Y-102315642D01*
X170680806Y-102319291D01*
X170679291Y-102329336D01*
X170679568Y-102360293D01*
X170649500Y-102511454D01*
X170649500Y-102511459D01*
X170649500Y-102708541D01*
X170649500Y-102708543D01*
X170649499Y-102708543D01*
X170687947Y-102901829D01*
X170687950Y-102901839D01*
X170763364Y-103083907D01*
X170763371Y-103083920D01*
X170872860Y-103247781D01*
X170872863Y-103247785D01*
X171012214Y-103387136D01*
X171012218Y-103387139D01*
X171176079Y-103496628D01*
X171176092Y-103496635D01*
X171347943Y-103567817D01*
X171358165Y-103572051D01*
X171358169Y-103572051D01*
X171358170Y-103572052D01*
X171551456Y-103610500D01*
X171551459Y-103610500D01*
X172548543Y-103610500D01*
X172682739Y-103583806D01*
X172741835Y-103572051D01*
X172776863Y-103557541D01*
X172804048Y-103546282D01*
X172873517Y-103538813D01*
X172935996Y-103570088D01*
X172971648Y-103630177D01*
X172975500Y-103660843D01*
X172975500Y-110199157D01*
X172955815Y-110266196D01*
X172903011Y-110311951D01*
X172833853Y-110321895D01*
X172804048Y-110313718D01*
X172741839Y-110287950D01*
X172741829Y-110287947D01*
X172548543Y-110249500D01*
X172548541Y-110249500D01*
X171551459Y-110249500D01*
X171551457Y-110249500D01*
X171358170Y-110287947D01*
X171358160Y-110287950D01*
X171176092Y-110363364D01*
X171176079Y-110363371D01*
X171012218Y-110472860D01*
X171012214Y-110472863D01*
X170872863Y-110612214D01*
X170872860Y-110612218D01*
X170763371Y-110776079D01*
X170763364Y-110776092D01*
X170687950Y-110958160D01*
X170687947Y-110958170D01*
X170649500Y-111151456D01*
X170649500Y-111151457D01*
X170649500Y-111151459D01*
X170649500Y-111348541D01*
X170649500Y-111348543D01*
X170649499Y-111348543D01*
X170687948Y-111541833D01*
X170687949Y-111541835D01*
X170699185Y-111568963D01*
X170706652Y-111638432D01*
X170687725Y-111685304D01*
X170596298Y-111822134D01*
X170596296Y-111822138D01*
X170532184Y-111976917D01*
X170532182Y-111976925D01*
X170499500Y-112141228D01*
X170499500Y-112150500D01*
X170479815Y-112217539D01*
X170427011Y-112263294D01*
X170375500Y-112274500D01*
X169674500Y-112274500D01*
X169607461Y-112254815D01*
X169561706Y-112202011D01*
X169550500Y-112150500D01*
X169550500Y-111991232D01*
X169550499Y-111991228D01*
X169530609Y-111891233D01*
X169517816Y-111826918D01*
X169455477Y-111676420D01*
X169453704Y-111672139D01*
X169446011Y-111660626D01*
X169407051Y-111602318D01*
X169386173Y-111535640D01*
X169388092Y-111511584D01*
X169388303Y-111510400D01*
X169420500Y-111348541D01*
X169420500Y-111330484D01*
X169422439Y-111319649D01*
X169433318Y-111297836D01*
X169440185Y-111274453D01*
X169449930Y-111264531D01*
X169453625Y-111257125D01*
X169462248Y-111251991D01*
X169475611Y-111238389D01*
X169517162Y-111210626D01*
X169635626Y-111092162D01*
X169728703Y-110952863D01*
X169792816Y-110798082D01*
X169825500Y-110633767D01*
X169825500Y-110466233D01*
X169792816Y-110301918D01*
X169739567Y-110173365D01*
X169728704Y-110147139D01*
X169725815Y-110142816D01*
X169685729Y-110082822D01*
X169635626Y-110007837D01*
X169517162Y-109889373D01*
X169377860Y-109796295D01*
X169223082Y-109732184D01*
X169223074Y-109732182D01*
X169058771Y-109699500D01*
X169058767Y-109699500D01*
X169028662Y-109699500D01*
X168961623Y-109679815D01*
X168915868Y-109627011D01*
X168908887Y-109607592D01*
X168908302Y-109605408D01*
X168906281Y-109597865D01*
X168830515Y-109466635D01*
X168723365Y-109359485D01*
X168623669Y-109301925D01*
X168592136Y-109283719D01*
X168464426Y-109249500D01*
X168445766Y-109244500D01*
X168294234Y-109244500D01*
X168147863Y-109283719D01*
X168016635Y-109359485D01*
X168016632Y-109359487D01*
X167909487Y-109466632D01*
X167909485Y-109466635D01*
X167833719Y-109597863D01*
X167797729Y-109732182D01*
X167794500Y-109744234D01*
X167794500Y-109895766D01*
X167828361Y-110022139D01*
X167833720Y-110042137D01*
X167833721Y-110042140D01*
X167846053Y-110063499D01*
X167862527Y-110131398D01*
X167839675Y-110197426D01*
X167784755Y-110240617D01*
X167738667Y-110249500D01*
X167249500Y-110249500D01*
X167182461Y-110229815D01*
X167136706Y-110177011D01*
X167125500Y-110125500D01*
X167125500Y-110066232D01*
X167125499Y-110066228D01*
X167114439Y-110010626D01*
X167092816Y-109901918D01*
X167035843Y-109764374D01*
X167028704Y-109747139D01*
X167018711Y-109732184D01*
X166961324Y-109646297D01*
X166935626Y-109607837D01*
X166817162Y-109489373D01*
X166677860Y-109396295D01*
X166523082Y-109332184D01*
X166523074Y-109332182D01*
X166358771Y-109299500D01*
X166358767Y-109299500D01*
X166191233Y-109299500D01*
X166191228Y-109299500D01*
X166026925Y-109332182D01*
X166026917Y-109332184D01*
X165872139Y-109396295D01*
X165732837Y-109489373D01*
X165614373Y-109607837D01*
X165521295Y-109747139D01*
X165457184Y-109901917D01*
X165457182Y-109901925D01*
X165424500Y-110066228D01*
X165424500Y-110233771D01*
X165457182Y-110398074D01*
X165457184Y-110398082D01*
X165521295Y-110552860D01*
X165614373Y-110692162D01*
X165732837Y-110810626D01*
X165816052Y-110866228D01*
X165872137Y-110903703D01*
X166026918Y-110967816D01*
X166191228Y-111000499D01*
X166191232Y-111000500D01*
X166191233Y-111000500D01*
X166198433Y-111000500D01*
X166265472Y-111020185D01*
X166311227Y-111072989D01*
X166321171Y-111142147D01*
X166320050Y-111148693D01*
X166319501Y-111151456D01*
X166319500Y-111151459D01*
X166319500Y-111348541D01*
X166319500Y-111348543D01*
X166319499Y-111348543D01*
X166348023Y-111491934D01*
X166341796Y-111561526D01*
X166329508Y-111585017D01*
X166271300Y-111672130D01*
X166271295Y-111672140D01*
X166207184Y-111826917D01*
X166207182Y-111826925D01*
X166174500Y-111991228D01*
X166174500Y-112150500D01*
X166154815Y-112217539D01*
X166102011Y-112263294D01*
X166050500Y-112274500D01*
X161508683Y-112274500D01*
X161441644Y-112254815D01*
X161395889Y-112202011D01*
X161385945Y-112132853D01*
X161387065Y-112126310D01*
X161387726Y-112122982D01*
X161400500Y-112058767D01*
X161400500Y-111891233D01*
X161367816Y-111726918D01*
X161318227Y-111607201D01*
X161303704Y-111572139D01*
X161300378Y-111567162D01*
X161250113Y-111491934D01*
X161210626Y-111432837D01*
X161092162Y-111314373D01*
X160952860Y-111221295D01*
X160798082Y-111157184D01*
X160798074Y-111157182D01*
X160633771Y-111124500D01*
X160633767Y-111124500D01*
X160466233Y-111124500D01*
X160466228Y-111124500D01*
X160301925Y-111157182D01*
X160301917Y-111157184D01*
X160147140Y-111221295D01*
X160037682Y-111294432D01*
X159971004Y-111315309D01*
X159903624Y-111296824D01*
X159899902Y-111294432D01*
X159871568Y-111275500D01*
X159827863Y-111246297D01*
X159827860Y-111246295D01*
X159827859Y-111246295D01*
X159673082Y-111182184D01*
X159673074Y-111182182D01*
X159508771Y-111149500D01*
X159508767Y-111149500D01*
X159341233Y-111149500D01*
X159341228Y-111149500D01*
X159176925Y-111182182D01*
X159176917Y-111182184D01*
X159022139Y-111246295D01*
X158882837Y-111339373D01*
X158764373Y-111457837D01*
X158671295Y-111597139D01*
X158607184Y-111751917D01*
X158607182Y-111751925D01*
X158574500Y-111916228D01*
X158574500Y-112083768D01*
X158582962Y-112126308D01*
X158576735Y-112195900D01*
X158533873Y-112251077D01*
X158467983Y-112274322D01*
X158461345Y-112274500D01*
X156937137Y-112274500D01*
X156870098Y-112254815D01*
X156824343Y-112202011D01*
X156814399Y-112132853D01*
X156843424Y-112069297D01*
X156889684Y-112035939D01*
X156997613Y-111991233D01*
X157027863Y-111978703D01*
X157167162Y-111885626D01*
X157285626Y-111767162D01*
X157378703Y-111627863D01*
X157442816Y-111473082D01*
X157475500Y-111308767D01*
X157475500Y-111141233D01*
X157442816Y-110976918D01*
X157378703Y-110822137D01*
X157298375Y-110701918D01*
X157285626Y-110682837D01*
X157167162Y-110564373D01*
X157027860Y-110471295D01*
X156873082Y-110407184D01*
X156873074Y-110407182D01*
X156708771Y-110374500D01*
X156708767Y-110374500D01*
X156541233Y-110374500D01*
X156541228Y-110374500D01*
X156376925Y-110407182D01*
X156376917Y-110407184D01*
X156222140Y-110471295D01*
X156131390Y-110531932D01*
X156064713Y-110552809D01*
X155997332Y-110534324D01*
X155993610Y-110531932D01*
X155935372Y-110493019D01*
X155902863Y-110471297D01*
X155902860Y-110471295D01*
X155902859Y-110471295D01*
X155748082Y-110407184D01*
X155748074Y-110407182D01*
X155583771Y-110374500D01*
X155583767Y-110374500D01*
X155416233Y-110374500D01*
X155416228Y-110374500D01*
X155251925Y-110407182D01*
X155251917Y-110407184D01*
X155097140Y-110471295D01*
X155025182Y-110519376D01*
X154958505Y-110540253D01*
X154891125Y-110521768D01*
X154887401Y-110519375D01*
X154852860Y-110496295D01*
X154698082Y-110432184D01*
X154698074Y-110432182D01*
X154533771Y-110399500D01*
X154533767Y-110399500D01*
X154366233Y-110399500D01*
X154366228Y-110399500D01*
X154201925Y-110432182D01*
X154201917Y-110432184D01*
X154047139Y-110496295D01*
X153907835Y-110589375D01*
X153904643Y-110591995D01*
X153840331Y-110619303D01*
X153771465Y-110607507D01*
X153757094Y-110599238D01*
X153746254Y-110591995D01*
X153677863Y-110546297D01*
X153677862Y-110546296D01*
X153677860Y-110546295D01*
X153523082Y-110482184D01*
X153523074Y-110482182D01*
X153358771Y-110449500D01*
X153358767Y-110449500D01*
X153191233Y-110449500D01*
X153191228Y-110449500D01*
X153026925Y-110482182D01*
X153026917Y-110482184D01*
X152872139Y-110546295D01*
X152732837Y-110639373D01*
X152614373Y-110757837D01*
X152521295Y-110897139D01*
X152457184Y-111051917D01*
X152457182Y-111051925D01*
X152424500Y-111216228D01*
X152424500Y-111383771D01*
X152457182Y-111548074D01*
X152457184Y-111548082D01*
X152521295Y-111702860D01*
X152614373Y-111842162D01*
X152732834Y-111960623D01*
X152732838Y-111960626D01*
X152862701Y-112047398D01*
X152907506Y-112101010D01*
X152916213Y-112170335D01*
X152886059Y-112233362D01*
X152826616Y-112270082D01*
X152793810Y-112274500D01*
X141675098Y-112274500D01*
X141608059Y-112254815D01*
X141587417Y-112238181D01*
X141586819Y-112237583D01*
X141553334Y-112176260D01*
X141550500Y-112149902D01*
X141550500Y-110263791D01*
X141570185Y-110196752D01*
X141622989Y-110150997D01*
X141692147Y-110141053D01*
X141698691Y-110142174D01*
X141701917Y-110142815D01*
X141701918Y-110142816D01*
X141866230Y-110175499D01*
X141866232Y-110175500D01*
X141866233Y-110175500D01*
X142033768Y-110175500D01*
X142033769Y-110175499D01*
X142198082Y-110142816D01*
X142352863Y-110078703D01*
X142492162Y-109985626D01*
X142493324Y-109984464D01*
X142494084Y-109984048D01*
X142496872Y-109981761D01*
X142497305Y-109982289D01*
X142554644Y-109950973D01*
X142624336Y-109955951D01*
X142680273Y-109997818D01*
X142704696Y-110063280D01*
X142695575Y-110119587D01*
X142682185Y-110151914D01*
X142682182Y-110151925D01*
X142649500Y-110316228D01*
X142649500Y-110483771D01*
X142682182Y-110648074D01*
X142682184Y-110648082D01*
X142746295Y-110802860D01*
X142839373Y-110942162D01*
X142957837Y-111060626D01*
X143045034Y-111118889D01*
X143097137Y-111153703D01*
X143097138Y-111153703D01*
X143097139Y-111153704D01*
X143132201Y-111168227D01*
X143251918Y-111217816D01*
X143377598Y-111242815D01*
X143416228Y-111250499D01*
X143416232Y-111250500D01*
X143416233Y-111250500D01*
X143583768Y-111250500D01*
X143583769Y-111250499D01*
X143748082Y-111217816D01*
X143759865Y-111212934D01*
X143829333Y-111205463D01*
X143854775Y-111212933D01*
X143926918Y-111242816D01*
X144036088Y-111264531D01*
X144091228Y-111275499D01*
X144091232Y-111275500D01*
X144091233Y-111275500D01*
X144258768Y-111275500D01*
X144258769Y-111275499D01*
X144423082Y-111242816D01*
X144577863Y-111178703D01*
X144717162Y-111085626D01*
X144835626Y-110967162D01*
X144852955Y-110941228D01*
X149249500Y-110941228D01*
X149249500Y-111108771D01*
X149282182Y-111273074D01*
X149282184Y-111273082D01*
X149346295Y-111427860D01*
X149439373Y-111567162D01*
X149557837Y-111685626D01*
X149619646Y-111726925D01*
X149697137Y-111778703D01*
X149851918Y-111842816D01*
X150016228Y-111875499D01*
X150016232Y-111875500D01*
X150016233Y-111875500D01*
X150183768Y-111875500D01*
X150183769Y-111875499D01*
X150348082Y-111842816D01*
X150502863Y-111778703D01*
X150642162Y-111685626D01*
X150760626Y-111567162D01*
X150853703Y-111427863D01*
X150917816Y-111273082D01*
X150950500Y-111108767D01*
X150950500Y-110941233D01*
X150917816Y-110776918D01*
X150905970Y-110748321D01*
X150898501Y-110678855D01*
X150917425Y-110631986D01*
X151003703Y-110502863D01*
X151067816Y-110348082D01*
X151100500Y-110183767D01*
X151100500Y-110016233D01*
X151067816Y-109851918D01*
X151003703Y-109697137D01*
X150951850Y-109619534D01*
X150910626Y-109557837D01*
X150792162Y-109439373D01*
X150652860Y-109346295D01*
X150498082Y-109282184D01*
X150498074Y-109282182D01*
X150333771Y-109249500D01*
X150333767Y-109249500D01*
X150166233Y-109249500D01*
X150166228Y-109249500D01*
X150001925Y-109282182D01*
X150001917Y-109282184D01*
X149847139Y-109346295D01*
X149707837Y-109439373D01*
X149589373Y-109557837D01*
X149496295Y-109697139D01*
X149432184Y-109851917D01*
X149432182Y-109851925D01*
X149399500Y-110016228D01*
X149399500Y-110183771D01*
X149432182Y-110348074D01*
X149432185Y-110348086D01*
X149444028Y-110376677D01*
X149451497Y-110446146D01*
X149432570Y-110493019D01*
X149346295Y-110622140D01*
X149282184Y-110776917D01*
X149282182Y-110776925D01*
X149249500Y-110941228D01*
X144852955Y-110941228D01*
X144928703Y-110827863D01*
X144992816Y-110673082D01*
X145025500Y-110508767D01*
X145025500Y-110341233D01*
X144992816Y-110176918D01*
X144928703Y-110022137D01*
X144888785Y-109962395D01*
X144835626Y-109882837D01*
X144717162Y-109764373D01*
X144577860Y-109671295D01*
X144423082Y-109607184D01*
X144423074Y-109607182D01*
X144258771Y-109574500D01*
X144258767Y-109574500D01*
X144091233Y-109574500D01*
X144091228Y-109574500D01*
X143926925Y-109607181D01*
X143926913Y-109607185D01*
X143915125Y-109612068D01*
X143845656Y-109619534D01*
X143820226Y-109612066D01*
X143748086Y-109582185D01*
X143748074Y-109582182D01*
X143583771Y-109549500D01*
X143583767Y-109549500D01*
X143416233Y-109549500D01*
X143416228Y-109549500D01*
X143251925Y-109582182D01*
X143251917Y-109582184D01*
X143097139Y-109646295D01*
X142957837Y-109739373D01*
X142957829Y-109739380D01*
X142956659Y-109740551D01*
X142955895Y-109740967D01*
X142953128Y-109743239D01*
X142952697Y-109742713D01*
X142895333Y-109774031D01*
X142825642Y-109769040D01*
X142769712Y-109727163D01*
X142745301Y-109661697D01*
X142754424Y-109605411D01*
X142767816Y-109573082D01*
X142800500Y-109408767D01*
X142800500Y-109241233D01*
X142767816Y-109076918D01*
X142703703Y-108922137D01*
X142672537Y-108875494D01*
X142610626Y-108782837D01*
X142492162Y-108664373D01*
X142352860Y-108571295D01*
X142198082Y-108507184D01*
X142198074Y-108507182D01*
X142033771Y-108474500D01*
X142033767Y-108474500D01*
X141866233Y-108474500D01*
X141866228Y-108474500D01*
X141698691Y-108507825D01*
X141629099Y-108501598D01*
X141573922Y-108458734D01*
X141550678Y-108392845D01*
X141550500Y-108386208D01*
X141550500Y-106199501D01*
X141570185Y-106132462D01*
X141622989Y-106086707D01*
X141674495Y-106075501D01*
X141694058Y-106075501D01*
X141694060Y-106075500D01*
X141701665Y-106075500D01*
X142425500Y-106075500D01*
X142492539Y-106095185D01*
X142538294Y-106147989D01*
X142549500Y-106199500D01*
X142549500Y-106358771D01*
X142582182Y-106523074D01*
X142582184Y-106523082D01*
X142646295Y-106677860D01*
X142739373Y-106817162D01*
X142857837Y-106935626D01*
X142903644Y-106966233D01*
X142997137Y-107028703D01*
X142997138Y-107028703D01*
X142997139Y-107028704D01*
X143032201Y-107043227D01*
X143151918Y-107092816D01*
X143277598Y-107117815D01*
X143316228Y-107125499D01*
X143316232Y-107125500D01*
X143316233Y-107125500D01*
X143483768Y-107125500D01*
X143483769Y-107125499D01*
X143648082Y-107092816D01*
X143792164Y-107033134D01*
X143861630Y-107025666D01*
X143908503Y-107044593D01*
X143922137Y-107053703D01*
X144076918Y-107117816D01*
X144199315Y-107142162D01*
X144241228Y-107150499D01*
X144241232Y-107150500D01*
X144241233Y-107150500D01*
X144408768Y-107150500D01*
X144408769Y-107150499D01*
X144573082Y-107117816D01*
X144727863Y-107053703D01*
X144867162Y-106960626D01*
X144985626Y-106842162D01*
X145078703Y-106702863D01*
X145142816Y-106548082D01*
X145167237Y-106425309D01*
X145199621Y-106363398D01*
X145260337Y-106328824D01*
X145288854Y-106325500D01*
X145433768Y-106325500D01*
X145433769Y-106325499D01*
X145598082Y-106292816D01*
X145752863Y-106228703D01*
X145892162Y-106135626D01*
X146010626Y-106017162D01*
X146078071Y-105916222D01*
X146131681Y-105871419D01*
X146201006Y-105862712D01*
X146264034Y-105892866D01*
X146268842Y-105897423D01*
X146287644Y-105916225D01*
X146348377Y-105976958D01*
X146381862Y-106038281D01*
X146376878Y-106107973D01*
X146363798Y-106133530D01*
X146321295Y-106197139D01*
X146257184Y-106351917D01*
X146257182Y-106351925D01*
X146224500Y-106516228D01*
X146224500Y-106683771D01*
X146257182Y-106848074D01*
X146257184Y-106848082D01*
X146321295Y-107002860D01*
X146414373Y-107142162D01*
X146532837Y-107260626D01*
X146625494Y-107322537D01*
X146672137Y-107353703D01*
X146826918Y-107417816D01*
X146991228Y-107450499D01*
X146991232Y-107450500D01*
X146991233Y-107450500D01*
X147158768Y-107450500D01*
X147158769Y-107450499D01*
X147323082Y-107417816D01*
X147477863Y-107353703D01*
X147617162Y-107260626D01*
X147735626Y-107142162D01*
X147828703Y-107002863D01*
X147892816Y-106848082D01*
X147925500Y-106683767D01*
X147925500Y-106516233D01*
X147892816Y-106351918D01*
X147883250Y-106328824D01*
X147879634Y-106320093D01*
X147862500Y-106278728D01*
X158662000Y-106278728D01*
X158662000Y-106446271D01*
X158694682Y-106610574D01*
X158694684Y-106610582D01*
X158758795Y-106765360D01*
X158851873Y-106904662D01*
X158970337Y-107023126D01*
X159062994Y-107085037D01*
X159109637Y-107116203D01*
X159109638Y-107116203D01*
X159109639Y-107116204D01*
X159132079Y-107125499D01*
X159264418Y-107180316D01*
X159428728Y-107212999D01*
X159428732Y-107213000D01*
X159428733Y-107213000D01*
X159596268Y-107213000D01*
X159596269Y-107212999D01*
X159760582Y-107180316D01*
X159915363Y-107116203D01*
X159915582Y-107116056D01*
X159915715Y-107116014D01*
X159920730Y-107113334D01*
X159921238Y-107114284D01*
X159982256Y-107095173D01*
X160049638Y-107113652D01*
X160053370Y-107116050D01*
X160056015Y-107117817D01*
X160147137Y-107178703D01*
X160301918Y-107242816D01*
X160466228Y-107275499D01*
X160466232Y-107275500D01*
X160466233Y-107275500D01*
X160633768Y-107275500D01*
X160633769Y-107275499D01*
X160798082Y-107242816D01*
X160910811Y-107196121D01*
X160980277Y-107188653D01*
X161042756Y-107219927D01*
X161073975Y-107266116D01*
X161077802Y-107276052D01*
X161082184Y-107298082D01*
X161140652Y-107439235D01*
X161141214Y-107440694D01*
X161141621Y-107445655D01*
X161149500Y-107485261D01*
X161149500Y-108914739D01*
X161140061Y-108962192D01*
X161082184Y-109101917D01*
X161082182Y-109101925D01*
X161049500Y-109266228D01*
X161049500Y-109433771D01*
X161082182Y-109598074D01*
X161082184Y-109598082D01*
X161146295Y-109752860D01*
X161239373Y-109892162D01*
X161357837Y-110010626D01*
X161441052Y-110066228D01*
X161497137Y-110103703D01*
X161651918Y-110167816D01*
X161800779Y-110197426D01*
X161816228Y-110200499D01*
X161816232Y-110200500D01*
X161816233Y-110200500D01*
X161983768Y-110200500D01*
X161983769Y-110200499D01*
X162148082Y-110167816D01*
X162148099Y-110167808D01*
X162149928Y-110167255D01*
X162150951Y-110167245D01*
X162154057Y-110166628D01*
X162154174Y-110167216D01*
X162219795Y-110166624D01*
X162278912Y-110203866D01*
X162308510Y-110267158D01*
X162299191Y-110336403D01*
X162273618Y-110373593D01*
X162189373Y-110457838D01*
X162096295Y-110597139D01*
X162032184Y-110751917D01*
X162032182Y-110751925D01*
X161999500Y-110916228D01*
X161999500Y-111083771D01*
X162032182Y-111248074D01*
X162032184Y-111248082D01*
X162096295Y-111402860D01*
X162189373Y-111542162D01*
X162307837Y-111660626D01*
X162400494Y-111722537D01*
X162447137Y-111753703D01*
X162601918Y-111817816D01*
X162724315Y-111842162D01*
X162766228Y-111850499D01*
X162766232Y-111850500D01*
X162766233Y-111850500D01*
X162933768Y-111850500D01*
X162933769Y-111850499D01*
X163098082Y-111817816D01*
X163252863Y-111753703D01*
X163368526Y-111676418D01*
X163435200Y-111655542D01*
X163502580Y-111674026D01*
X163506284Y-111676406D01*
X163547137Y-111703703D01*
X163701918Y-111767816D01*
X163854037Y-111798074D01*
X163866228Y-111800499D01*
X163866232Y-111800500D01*
X163866233Y-111800500D01*
X164033768Y-111800500D01*
X164033769Y-111800499D01*
X164198082Y-111767816D01*
X164352863Y-111703703D01*
X164492162Y-111610626D01*
X164610626Y-111492162D01*
X164703703Y-111352863D01*
X164767816Y-111198082D01*
X164800500Y-111033767D01*
X164800500Y-110866233D01*
X164767816Y-110701918D01*
X164710843Y-110564374D01*
X164703704Y-110547139D01*
X164703141Y-110546297D01*
X164660301Y-110482182D01*
X164610626Y-110407837D01*
X164492162Y-110289373D01*
X164352860Y-110196295D01*
X164198082Y-110132184D01*
X164198074Y-110132182D01*
X164033771Y-110099500D01*
X164033767Y-110099500D01*
X163866233Y-110099500D01*
X163866228Y-110099500D01*
X163701925Y-110132182D01*
X163701917Y-110132184D01*
X163547138Y-110196296D01*
X163547134Y-110196298D01*
X163431475Y-110273579D01*
X163364798Y-110294457D01*
X163297418Y-110275972D01*
X163293694Y-110273579D01*
X163252869Y-110246300D01*
X163252859Y-110246295D01*
X163098082Y-110182184D01*
X163098074Y-110182182D01*
X162933771Y-110149500D01*
X162933767Y-110149500D01*
X162766233Y-110149500D01*
X162766228Y-110149500D01*
X162601913Y-110182184D01*
X162600052Y-110182749D01*
X162599029Y-110182758D01*
X162595943Y-110183372D01*
X162595826Y-110182786D01*
X162530185Y-110183369D01*
X162471074Y-110146118D01*
X162441487Y-110082822D01*
X162450816Y-110013578D01*
X162476379Y-109976408D01*
X162560626Y-109892162D01*
X162653703Y-109752863D01*
X162717816Y-109598082D01*
X162750500Y-109433767D01*
X162750500Y-109266233D01*
X162717816Y-109101918D01*
X162659938Y-108962191D01*
X162650500Y-108914739D01*
X162650500Y-107485261D01*
X162659939Y-107437808D01*
X162717816Y-107298082D01*
X162750500Y-107133767D01*
X162750500Y-106966233D01*
X162750499Y-106966228D01*
X163199500Y-106966228D01*
X163199500Y-107133771D01*
X163232182Y-107298074D01*
X163232184Y-107298082D01*
X163296295Y-107452860D01*
X163389373Y-107592162D01*
X163507837Y-107710626D01*
X163600494Y-107772537D01*
X163647137Y-107803703D01*
X163801918Y-107867816D01*
X163966228Y-107900499D01*
X163966232Y-107900500D01*
X163966233Y-107900500D01*
X164133768Y-107900500D01*
X164133769Y-107900499D01*
X164298082Y-107867816D01*
X164452863Y-107803703D01*
X164592162Y-107710626D01*
X164710626Y-107592162D01*
X164803703Y-107452863D01*
X164867816Y-107298082D01*
X164900500Y-107133767D01*
X164900500Y-106966233D01*
X164867816Y-106801918D01*
X164803703Y-106647137D01*
X164767655Y-106593187D01*
X164710626Y-106507837D01*
X164592162Y-106389373D01*
X164452860Y-106296295D01*
X164298082Y-106232184D01*
X164298074Y-106232182D01*
X164133771Y-106199500D01*
X164133767Y-106199500D01*
X163966233Y-106199500D01*
X163966228Y-106199500D01*
X163801925Y-106232182D01*
X163801917Y-106232184D01*
X163647139Y-106296295D01*
X163507837Y-106389373D01*
X163389373Y-106507837D01*
X163296295Y-106647139D01*
X163232184Y-106801917D01*
X163232182Y-106801925D01*
X163199500Y-106966228D01*
X162750499Y-106966228D01*
X162717816Y-106801918D01*
X162659938Y-106662191D01*
X162650500Y-106614739D01*
X162650500Y-105699500D01*
X162670185Y-105632461D01*
X162722989Y-105586706D01*
X162774500Y-105575500D01*
X162933768Y-105575500D01*
X162933769Y-105575499D01*
X163098082Y-105542816D01*
X163252863Y-105478703D01*
X163392162Y-105385626D01*
X163510626Y-105267162D01*
X163603703Y-105127863D01*
X163667816Y-104973082D01*
X163700500Y-104808767D01*
X163700500Y-104641233D01*
X163667816Y-104476918D01*
X163603703Y-104322137D01*
X163584828Y-104293890D01*
X163563951Y-104227214D01*
X163582435Y-104159834D01*
X163584829Y-104156109D01*
X163603703Y-104127863D01*
X163667816Y-103973082D01*
X163700500Y-103808767D01*
X163700500Y-103641233D01*
X163667816Y-103476918D01*
X163603703Y-103322137D01*
X163529803Y-103211538D01*
X163510623Y-103182833D01*
X163508070Y-103179722D01*
X163480759Y-103115411D01*
X163492553Y-103046544D01*
X163500821Y-103032175D01*
X163503703Y-103027863D01*
X163567816Y-102873082D01*
X163600500Y-102708767D01*
X163600500Y-102541233D01*
X163567816Y-102376918D01*
X163526688Y-102277629D01*
X163519220Y-102208162D01*
X163526689Y-102182725D01*
X163541545Y-102146859D01*
X163592816Y-102023082D01*
X163625500Y-101858767D01*
X163625500Y-101691233D01*
X163592816Y-101526918D01*
X163528703Y-101372137D01*
X163461324Y-101271297D01*
X163435626Y-101232837D01*
X163317162Y-101114373D01*
X163177860Y-101021295D01*
X163023082Y-100957184D01*
X163023074Y-100957182D01*
X162924709Y-100937616D01*
X162862798Y-100905231D01*
X162828224Y-100844516D01*
X162831963Y-100774746D01*
X162834328Y-100768572D01*
X162842816Y-100748082D01*
X162875500Y-100583767D01*
X162875500Y-100416233D01*
X162842816Y-100251918D01*
X162778703Y-100097137D01*
X162729221Y-100023082D01*
X162685626Y-99957837D01*
X162567162Y-99839373D01*
X162427860Y-99746295D01*
X162273082Y-99682184D01*
X162273074Y-99682182D01*
X162108771Y-99649500D01*
X162108767Y-99649500D01*
X161941233Y-99649500D01*
X161941228Y-99649500D01*
X161776925Y-99682182D01*
X161776917Y-99682184D01*
X161622139Y-99746295D01*
X161482837Y-99839373D01*
X161364373Y-99957837D01*
X161271295Y-100097139D01*
X161207184Y-100251917D01*
X161207182Y-100251925D01*
X161174500Y-100416228D01*
X161173903Y-100422294D01*
X161173605Y-100422264D01*
X161172117Y-100437380D01*
X161149500Y-100551079D01*
X161149500Y-105570698D01*
X161129815Y-105637737D01*
X161077011Y-105683492D01*
X161007853Y-105693436D01*
X160956612Y-105673802D01*
X160953174Y-105671505D01*
X160952863Y-105671297D01*
X160929981Y-105661819D01*
X160798082Y-105607184D01*
X160798074Y-105607182D01*
X160633771Y-105574500D01*
X160633767Y-105574500D01*
X160466233Y-105574500D01*
X160466228Y-105574500D01*
X160301925Y-105607182D01*
X160301917Y-105607184D01*
X160147135Y-105671297D01*
X160147130Y-105671300D01*
X160146891Y-105671460D01*
X160146746Y-105671505D01*
X160141767Y-105674167D01*
X160141261Y-105673221D01*
X160080210Y-105692327D01*
X160012833Y-105673830D01*
X160009128Y-105671448D01*
X159915365Y-105608798D01*
X159915361Y-105608796D01*
X159760582Y-105544684D01*
X159760574Y-105544682D01*
X159596271Y-105512000D01*
X159596267Y-105512000D01*
X159428733Y-105512000D01*
X159428728Y-105512000D01*
X159264425Y-105544682D01*
X159264417Y-105544684D01*
X159109639Y-105608795D01*
X158970337Y-105701873D01*
X158851873Y-105820337D01*
X158758795Y-105959639D01*
X158694684Y-106114417D01*
X158694682Y-106114425D01*
X158662000Y-106278728D01*
X147862500Y-106278728D01*
X147828704Y-106197139D01*
X147735626Y-106057837D01*
X147711819Y-106034030D01*
X147678334Y-105972707D01*
X147675500Y-105946349D01*
X147675500Y-105943406D01*
X147675501Y-105943393D01*
X147675501Y-105775290D01*
X147675500Y-105775286D01*
X147669756Y-105753849D01*
X147671417Y-105684000D01*
X147710579Y-105626136D01*
X147774807Y-105598631D01*
X147813721Y-105600137D01*
X147941228Y-105625499D01*
X147941232Y-105625500D01*
X147941233Y-105625500D01*
X148108768Y-105625500D01*
X148108769Y-105625499D01*
X148273082Y-105592816D01*
X148427863Y-105528703D01*
X148567162Y-105435626D01*
X148685626Y-105317162D01*
X148778703Y-105177863D01*
X148842816Y-105023082D01*
X148875500Y-104858767D01*
X148875500Y-104716228D01*
X149949500Y-104716228D01*
X149949500Y-104883771D01*
X149982182Y-105048074D01*
X149982184Y-105048082D01*
X150046295Y-105202860D01*
X150139373Y-105342162D01*
X150257837Y-105460626D01*
X150334724Y-105512000D01*
X150397137Y-105553703D01*
X150551918Y-105617816D01*
X150716228Y-105650499D01*
X150716232Y-105650500D01*
X150716233Y-105650500D01*
X150883768Y-105650500D01*
X150883769Y-105650499D01*
X151048082Y-105617816D01*
X151202863Y-105553703D01*
X151342162Y-105460626D01*
X151460626Y-105342162D01*
X151553703Y-105202863D01*
X151617816Y-105048082D01*
X151650500Y-104883767D01*
X151650500Y-104716233D01*
X151649127Y-104709330D01*
X151649127Y-104709327D01*
X151645527Y-104691228D01*
X152549500Y-104691228D01*
X152549500Y-104858771D01*
X152582182Y-105023074D01*
X152582184Y-105023082D01*
X152646295Y-105177860D01*
X152739373Y-105317162D01*
X152857837Y-105435626D01*
X152932674Y-105485630D01*
X152997137Y-105528703D01*
X153151918Y-105592816D01*
X153277598Y-105617815D01*
X153316228Y-105625499D01*
X153316232Y-105625500D01*
X153316233Y-105625500D01*
X153483768Y-105625500D01*
X153483769Y-105625499D01*
X153648082Y-105592816D01*
X153802863Y-105528703D01*
X153942162Y-105435626D01*
X154060626Y-105317162D01*
X154153703Y-105177863D01*
X154217816Y-105023082D01*
X154250500Y-104858767D01*
X154250500Y-104691233D01*
X154240554Y-104641233D01*
X154240553Y-104641228D01*
X154924500Y-104641228D01*
X154924500Y-104808771D01*
X154957182Y-104973074D01*
X154957184Y-104973082D01*
X155021295Y-105127860D01*
X155114373Y-105267162D01*
X155232837Y-105385626D01*
X155307668Y-105435626D01*
X155372137Y-105478703D01*
X155526918Y-105542816D01*
X155667092Y-105570698D01*
X155691228Y-105575499D01*
X155691232Y-105575500D01*
X155691233Y-105575500D01*
X155858768Y-105575500D01*
X155858769Y-105575499D01*
X156023082Y-105542816D01*
X156177863Y-105478703D01*
X156317162Y-105385626D01*
X156435626Y-105267162D01*
X156528703Y-105127863D01*
X156592816Y-104973082D01*
X156625500Y-104808767D01*
X156625500Y-104641233D01*
X156592816Y-104476918D01*
X156528703Y-104322137D01*
X156497537Y-104275494D01*
X156435626Y-104182837D01*
X156317162Y-104064373D01*
X156177860Y-103971295D01*
X156023082Y-103907184D01*
X156023074Y-103907182D01*
X155858771Y-103874500D01*
X155858767Y-103874500D01*
X155691233Y-103874500D01*
X155691228Y-103874500D01*
X155526925Y-103907182D01*
X155526917Y-103907184D01*
X155372139Y-103971295D01*
X155232837Y-104064373D01*
X155114373Y-104182837D01*
X155021295Y-104322139D01*
X154957184Y-104476917D01*
X154957182Y-104476925D01*
X154924500Y-104641228D01*
X154240553Y-104641228D01*
X154222789Y-104551918D01*
X154217816Y-104526918D01*
X154153703Y-104372137D01*
X154120294Y-104322137D01*
X154060626Y-104232837D01*
X153942162Y-104114373D01*
X153802860Y-104021295D01*
X153648082Y-103957184D01*
X153648074Y-103957182D01*
X153483771Y-103924500D01*
X153483767Y-103924500D01*
X153316233Y-103924500D01*
X153316228Y-103924500D01*
X153151925Y-103957182D01*
X153151917Y-103957184D01*
X152997139Y-104021295D01*
X152857837Y-104114373D01*
X152739373Y-104232837D01*
X152646295Y-104372139D01*
X152582184Y-104526917D01*
X152582182Y-104526925D01*
X152549500Y-104691228D01*
X151645527Y-104691228D01*
X151617817Y-104551925D01*
X151617816Y-104551918D01*
X151553703Y-104397137D01*
X151503591Y-104322139D01*
X151460626Y-104257837D01*
X151342162Y-104139373D01*
X151202860Y-104046295D01*
X151048082Y-103982184D01*
X151048074Y-103982182D01*
X150883771Y-103949500D01*
X150883767Y-103949500D01*
X150716233Y-103949500D01*
X150716228Y-103949500D01*
X150551925Y-103982182D01*
X150551917Y-103982184D01*
X150397139Y-104046295D01*
X150257837Y-104139373D01*
X150139373Y-104257837D01*
X150046295Y-104397139D01*
X149982184Y-104551917D01*
X149982182Y-104551925D01*
X149949500Y-104716228D01*
X148875500Y-104716228D01*
X148875500Y-104691233D01*
X148842816Y-104526918D01*
X148778703Y-104372137D01*
X148745294Y-104322137D01*
X148685626Y-104232837D01*
X148567162Y-104114373D01*
X148427860Y-104021295D01*
X148273082Y-103957184D01*
X148273074Y-103957182D01*
X148108771Y-103924500D01*
X148108767Y-103924500D01*
X147941233Y-103924500D01*
X147941228Y-103924500D01*
X147776925Y-103957182D01*
X147776917Y-103957184D01*
X147622139Y-104021295D01*
X147482837Y-104114373D01*
X147364373Y-104232837D01*
X147271295Y-104372139D01*
X147207184Y-104526917D01*
X147207182Y-104526925D01*
X147174500Y-104691228D01*
X147174500Y-104805248D01*
X147154815Y-104872287D01*
X147102011Y-104918042D01*
X147032853Y-104927986D01*
X146969297Y-104898961D01*
X146962819Y-104892929D01*
X145517964Y-103448074D01*
X143961117Y-101891228D01*
X147149500Y-101891228D01*
X147149500Y-102058771D01*
X147182182Y-102223074D01*
X147182184Y-102223082D01*
X147246295Y-102377860D01*
X147339373Y-102517162D01*
X147457837Y-102635626D01*
X147491080Y-102657838D01*
X147597137Y-102728703D01*
X147751918Y-102792816D01*
X147916228Y-102825499D01*
X147916232Y-102825500D01*
X147916233Y-102825500D01*
X148083768Y-102825500D01*
X148083769Y-102825499D01*
X148248082Y-102792816D01*
X148402863Y-102728703D01*
X148542162Y-102635626D01*
X148660626Y-102517162D01*
X148753703Y-102377863D01*
X148817816Y-102223082D01*
X148850500Y-102058767D01*
X148850500Y-101941228D01*
X149849500Y-101941228D01*
X149849500Y-102108771D01*
X149882182Y-102273074D01*
X149882184Y-102273082D01*
X149946295Y-102427860D01*
X150039373Y-102567162D01*
X150157837Y-102685626D01*
X150232668Y-102735626D01*
X150297137Y-102778703D01*
X150451918Y-102842816D01*
X150591845Y-102870649D01*
X150616228Y-102875499D01*
X150616232Y-102875500D01*
X150616233Y-102875500D01*
X150783768Y-102875500D01*
X150783769Y-102875499D01*
X150948082Y-102842816D01*
X151102863Y-102778703D01*
X151242162Y-102685626D01*
X151360626Y-102567162D01*
X151453703Y-102427863D01*
X151517816Y-102273082D01*
X151550500Y-102108767D01*
X151550500Y-101991228D01*
X152599500Y-101991228D01*
X152599500Y-102158771D01*
X152632182Y-102323074D01*
X152632184Y-102323082D01*
X152696295Y-102477860D01*
X152789373Y-102617162D01*
X152907837Y-102735626D01*
X152993430Y-102792817D01*
X153047137Y-102828703D01*
X153201918Y-102892816D01*
X153327598Y-102917815D01*
X153366228Y-102925499D01*
X153366232Y-102925500D01*
X153366233Y-102925500D01*
X153533768Y-102925500D01*
X153533769Y-102925499D01*
X153698082Y-102892816D01*
X153852863Y-102828703D01*
X153992162Y-102735626D01*
X154110626Y-102617162D01*
X154203703Y-102477863D01*
X154267816Y-102323082D01*
X154300500Y-102158767D01*
X154300500Y-102016228D01*
X154899500Y-102016228D01*
X154899500Y-102183771D01*
X154932182Y-102348074D01*
X154932184Y-102348082D01*
X154996295Y-102502860D01*
X155089373Y-102642162D01*
X155207837Y-102760626D01*
X155256015Y-102792817D01*
X155347137Y-102853703D01*
X155501918Y-102917816D01*
X155666228Y-102950499D01*
X155666232Y-102950500D01*
X155666233Y-102950500D01*
X155833768Y-102950500D01*
X155833769Y-102950499D01*
X155998082Y-102917816D01*
X156152863Y-102853703D01*
X156292162Y-102760626D01*
X156410626Y-102642162D01*
X156503703Y-102502863D01*
X156567816Y-102348082D01*
X156600500Y-102183767D01*
X156600500Y-102016233D01*
X156567816Y-101851918D01*
X156503703Y-101697137D01*
X156453591Y-101622139D01*
X156410626Y-101557837D01*
X156292162Y-101439373D01*
X156152860Y-101346295D01*
X155998082Y-101282184D01*
X155998074Y-101282182D01*
X155833771Y-101249500D01*
X155833767Y-101249500D01*
X155666233Y-101249500D01*
X155666228Y-101249500D01*
X155501925Y-101282182D01*
X155501917Y-101282184D01*
X155347139Y-101346295D01*
X155207837Y-101439373D01*
X155089373Y-101557837D01*
X154996295Y-101697139D01*
X154932184Y-101851917D01*
X154932182Y-101851925D01*
X154899500Y-102016228D01*
X154300500Y-102016228D01*
X154300500Y-101991233D01*
X154267816Y-101826918D01*
X154211613Y-101691233D01*
X154203704Y-101672139D01*
X154110626Y-101532837D01*
X153992162Y-101414373D01*
X153852860Y-101321295D01*
X153698082Y-101257184D01*
X153698074Y-101257182D01*
X153533771Y-101224500D01*
X153533767Y-101224500D01*
X153366233Y-101224500D01*
X153366228Y-101224500D01*
X153201925Y-101257182D01*
X153201917Y-101257184D01*
X153047139Y-101321295D01*
X152907837Y-101414373D01*
X152789373Y-101532837D01*
X152696295Y-101672139D01*
X152632184Y-101826917D01*
X152632182Y-101826925D01*
X152599500Y-101991228D01*
X151550500Y-101991228D01*
X151550500Y-101941233D01*
X151517816Y-101776918D01*
X151453703Y-101622137D01*
X151394035Y-101532838D01*
X151360626Y-101482837D01*
X151242162Y-101364373D01*
X151102860Y-101271295D01*
X150948082Y-101207184D01*
X150948074Y-101207182D01*
X150783771Y-101174500D01*
X150783767Y-101174500D01*
X150616233Y-101174500D01*
X150616228Y-101174500D01*
X150451925Y-101207182D01*
X150451917Y-101207184D01*
X150297139Y-101271295D01*
X150157837Y-101364373D01*
X150039373Y-101482837D01*
X149946295Y-101622139D01*
X149882184Y-101776917D01*
X149882182Y-101776925D01*
X149849500Y-101941228D01*
X148850500Y-101941228D01*
X148850500Y-101891233D01*
X148817816Y-101726918D01*
X148755575Y-101576657D01*
X148753704Y-101572139D01*
X148747849Y-101563377D01*
X148711537Y-101509031D01*
X148660626Y-101432837D01*
X148542162Y-101314373D01*
X148402860Y-101221295D01*
X148248082Y-101157184D01*
X148248074Y-101157182D01*
X148083771Y-101124500D01*
X148083767Y-101124500D01*
X147916233Y-101124500D01*
X147916228Y-101124500D01*
X147751925Y-101157182D01*
X147751917Y-101157184D01*
X147597139Y-101221295D01*
X147457837Y-101314373D01*
X147339373Y-101432837D01*
X147246295Y-101572139D01*
X147182184Y-101726917D01*
X147182182Y-101726925D01*
X147149500Y-101891228D01*
X143961117Y-101891228D01*
X142808243Y-100738354D01*
X142808242Y-100738352D01*
X142689371Y-100619481D01*
X142689366Y-100619477D01*
X142599885Y-100567816D01*
X142552439Y-100540423D01*
X142399711Y-100499499D01*
X142241597Y-100499499D01*
X142234001Y-100499499D01*
X142233985Y-100499500D01*
X138663651Y-100499500D01*
X138596612Y-100479815D01*
X138575970Y-100463181D01*
X138552162Y-100439373D01*
X138412860Y-100346295D01*
X138258082Y-100282184D01*
X138258074Y-100282182D01*
X138093771Y-100249500D01*
X138093767Y-100249500D01*
X137926233Y-100249500D01*
X137926228Y-100249500D01*
X137761925Y-100282182D01*
X137761917Y-100282184D01*
X137607139Y-100346295D01*
X137467837Y-100439373D01*
X137349376Y-100557834D01*
X137349373Y-100557838D01*
X137302602Y-100627836D01*
X137248989Y-100672641D01*
X137179664Y-100681348D01*
X137116637Y-100651193D01*
X137079918Y-100591750D01*
X137075500Y-100558945D01*
X137075500Y-99691228D01*
X147149500Y-99691228D01*
X147149500Y-99858771D01*
X147182182Y-100023074D01*
X147182184Y-100023082D01*
X147246295Y-100177860D01*
X147339373Y-100317162D01*
X147457837Y-100435626D01*
X147523971Y-100479815D01*
X147597137Y-100528703D01*
X147597138Y-100528703D01*
X147597139Y-100528704D01*
X147625431Y-100540423D01*
X147751918Y-100592816D01*
X147897471Y-100621768D01*
X147916228Y-100625499D01*
X147916232Y-100625500D01*
X147916233Y-100625500D01*
X148083768Y-100625500D01*
X148083769Y-100625499D01*
X148248082Y-100592816D01*
X148402863Y-100528703D01*
X148542162Y-100435626D01*
X148660626Y-100317162D01*
X148753703Y-100177863D01*
X148817816Y-100023082D01*
X148850500Y-99858767D01*
X148850500Y-99691233D01*
X148849127Y-99684330D01*
X148849127Y-99684327D01*
X148845527Y-99666228D01*
X149874500Y-99666228D01*
X149874500Y-99833771D01*
X149907182Y-99998074D01*
X149907184Y-99998082D01*
X149971295Y-100152860D01*
X150064373Y-100292162D01*
X150182837Y-100410626D01*
X150225862Y-100439374D01*
X150322137Y-100503703D01*
X150322138Y-100503703D01*
X150322139Y-100503704D01*
X150347143Y-100514061D01*
X150476918Y-100567816D01*
X150602598Y-100592815D01*
X150641228Y-100600499D01*
X150641232Y-100600500D01*
X150641233Y-100600500D01*
X150808768Y-100600500D01*
X150808769Y-100600499D01*
X150973082Y-100567816D01*
X151127863Y-100503703D01*
X151267162Y-100410626D01*
X151385626Y-100292162D01*
X151478703Y-100152863D01*
X151542816Y-99998082D01*
X151575500Y-99833767D01*
X151575500Y-99666233D01*
X151575499Y-99666228D01*
X152599500Y-99666228D01*
X152599500Y-99833771D01*
X152632182Y-99998074D01*
X152632184Y-99998082D01*
X152696295Y-100152860D01*
X152789373Y-100292162D01*
X152907837Y-100410626D01*
X152950862Y-100439374D01*
X153047137Y-100503703D01*
X153047138Y-100503703D01*
X153047139Y-100503704D01*
X153072143Y-100514061D01*
X153201918Y-100567816D01*
X153327598Y-100592815D01*
X153366228Y-100600499D01*
X153366232Y-100600500D01*
X153366233Y-100600500D01*
X153533768Y-100600500D01*
X153533769Y-100600499D01*
X153698082Y-100567816D01*
X153852863Y-100503703D01*
X153992162Y-100410626D01*
X154110626Y-100292162D01*
X154203703Y-100152863D01*
X154267816Y-99998082D01*
X154300500Y-99833767D01*
X154300500Y-99666233D01*
X154300499Y-99666228D01*
X154849500Y-99666228D01*
X154849500Y-99833771D01*
X154882182Y-99998074D01*
X154882184Y-99998082D01*
X154946295Y-100152860D01*
X155039373Y-100292162D01*
X155157837Y-100410626D01*
X155200862Y-100439374D01*
X155297137Y-100503703D01*
X155297138Y-100503703D01*
X155297139Y-100503704D01*
X155322143Y-100514061D01*
X155451918Y-100567816D01*
X155577598Y-100592815D01*
X155616228Y-100600499D01*
X155616232Y-100600500D01*
X155616233Y-100600500D01*
X155783768Y-100600500D01*
X155783769Y-100600499D01*
X155948082Y-100567816D01*
X156102863Y-100503703D01*
X156242162Y-100410626D01*
X156360626Y-100292162D01*
X156453703Y-100152863D01*
X156517816Y-99998082D01*
X156550500Y-99833767D01*
X156550500Y-99666233D01*
X156517816Y-99501918D01*
X156453703Y-99347137D01*
X156377330Y-99232837D01*
X156360626Y-99207837D01*
X156242162Y-99089373D01*
X156102860Y-98996295D01*
X155948082Y-98932184D01*
X155948074Y-98932182D01*
X155783771Y-98899500D01*
X155783767Y-98899500D01*
X155616233Y-98899500D01*
X155616228Y-98899500D01*
X155451925Y-98932182D01*
X155451917Y-98932184D01*
X155297139Y-98996295D01*
X155157837Y-99089373D01*
X155039373Y-99207837D01*
X154946295Y-99347139D01*
X154882184Y-99501917D01*
X154882182Y-99501925D01*
X154849500Y-99666228D01*
X154300499Y-99666228D01*
X154267816Y-99501918D01*
X154203703Y-99347137D01*
X154127330Y-99232837D01*
X154110626Y-99207837D01*
X153992162Y-99089373D01*
X153852860Y-98996295D01*
X153698082Y-98932184D01*
X153698074Y-98932182D01*
X153533771Y-98899500D01*
X153533767Y-98899500D01*
X153366233Y-98899500D01*
X153366228Y-98899500D01*
X153201925Y-98932182D01*
X153201917Y-98932184D01*
X153047139Y-98996295D01*
X152907837Y-99089373D01*
X152789373Y-99207837D01*
X152696295Y-99347139D01*
X152632184Y-99501917D01*
X152632182Y-99501925D01*
X152599500Y-99666228D01*
X151575499Y-99666228D01*
X151542816Y-99501918D01*
X151478703Y-99347137D01*
X151402330Y-99232837D01*
X151385626Y-99207837D01*
X151267162Y-99089373D01*
X151127860Y-98996295D01*
X150973082Y-98932184D01*
X150973074Y-98932182D01*
X150808771Y-98899500D01*
X150808767Y-98899500D01*
X150641233Y-98899500D01*
X150641228Y-98899500D01*
X150476925Y-98932182D01*
X150476917Y-98932184D01*
X150322139Y-98996295D01*
X150182837Y-99089373D01*
X150064373Y-99207837D01*
X149971295Y-99347139D01*
X149907184Y-99501917D01*
X149907182Y-99501925D01*
X149874500Y-99666228D01*
X148845527Y-99666228D01*
X148817817Y-99526925D01*
X148817816Y-99526918D01*
X148753703Y-99372137D01*
X148722537Y-99325494D01*
X148660626Y-99232837D01*
X148542162Y-99114373D01*
X148402860Y-99021295D01*
X148248082Y-98957184D01*
X148248074Y-98957182D01*
X148083771Y-98924500D01*
X148083767Y-98924500D01*
X147916233Y-98924500D01*
X147916228Y-98924500D01*
X147751925Y-98957182D01*
X147751917Y-98957184D01*
X147597139Y-99021295D01*
X147457837Y-99114373D01*
X147339373Y-99232837D01*
X147246295Y-99372139D01*
X147182184Y-99526917D01*
X147182182Y-99526925D01*
X147149500Y-99691228D01*
X137075500Y-99691228D01*
X137075500Y-98629444D01*
X137095185Y-98562405D01*
X137111819Y-98541763D01*
X137499879Y-98153703D01*
X137975217Y-97678364D01*
X138036538Y-97644881D01*
X138106229Y-97649865D01*
X138150577Y-97678366D01*
X138157837Y-97685626D01*
X138212480Y-97722137D01*
X138297137Y-97778703D01*
X138451918Y-97842816D01*
X138577598Y-97867815D01*
X138616228Y-97875499D01*
X138616232Y-97875500D01*
X138616233Y-97875500D01*
X138783768Y-97875500D01*
X138783769Y-97875499D01*
X138948082Y-97842816D01*
X139102863Y-97778703D01*
X139196919Y-97715856D01*
X139263594Y-97694979D01*
X139330974Y-97713463D01*
X139353489Y-97731278D01*
X139357837Y-97735626D01*
X139480845Y-97817817D01*
X139497137Y-97828703D01*
X139651918Y-97892816D01*
X139777598Y-97917815D01*
X139816228Y-97925499D01*
X139816232Y-97925500D01*
X139816233Y-97925500D01*
X139983768Y-97925500D01*
X139983769Y-97925499D01*
X140148082Y-97892816D01*
X140302863Y-97828703D01*
X140442162Y-97735626D01*
X140560626Y-97617162D01*
X140653703Y-97477863D01*
X140674752Y-97427047D01*
X140718593Y-97372644D01*
X140777884Y-97352909D01*
X140777706Y-97351097D01*
X140783761Y-97350500D01*
X140783767Y-97350500D01*
X140948082Y-97317816D01*
X141102863Y-97253703D01*
X141242162Y-97160626D01*
X141360626Y-97042162D01*
X141428068Y-96941228D01*
X147124500Y-96941228D01*
X147124500Y-97108771D01*
X147157182Y-97273074D01*
X147157184Y-97273082D01*
X147221295Y-97427860D01*
X147314373Y-97567162D01*
X147432837Y-97685626D01*
X147487480Y-97722137D01*
X147572137Y-97778703D01*
X147726918Y-97842816D01*
X147852598Y-97867815D01*
X147891228Y-97875499D01*
X147891232Y-97875500D01*
X147891233Y-97875500D01*
X148058768Y-97875500D01*
X148058769Y-97875499D01*
X148223082Y-97842816D01*
X148377863Y-97778703D01*
X148517162Y-97685626D01*
X148635626Y-97567162D01*
X148728703Y-97427863D01*
X148792816Y-97273082D01*
X148825500Y-97108767D01*
X148825500Y-97016228D01*
X149799500Y-97016228D01*
X149799500Y-97183771D01*
X149832182Y-97348074D01*
X149832184Y-97348082D01*
X149896295Y-97502860D01*
X149989373Y-97642161D01*
X149989376Y-97642165D01*
X150107837Y-97760626D01*
X150193430Y-97817817D01*
X150247137Y-97853703D01*
X150247138Y-97853703D01*
X150247139Y-97853704D01*
X150251526Y-97855521D01*
X150401918Y-97917816D01*
X150524315Y-97942162D01*
X150566228Y-97950499D01*
X150566232Y-97950500D01*
X150566233Y-97950500D01*
X150733768Y-97950500D01*
X150733769Y-97950499D01*
X150898082Y-97917816D01*
X151052863Y-97853703D01*
X151192162Y-97760626D01*
X151310626Y-97642162D01*
X151403703Y-97502863D01*
X151467816Y-97348082D01*
X151500500Y-97183767D01*
X151500500Y-97016233D01*
X151490554Y-96966233D01*
X151490553Y-96966228D01*
X152574500Y-96966228D01*
X152574500Y-97133771D01*
X152607182Y-97298074D01*
X152607184Y-97298082D01*
X152671295Y-97452860D01*
X152764373Y-97592162D01*
X152882837Y-97710626D01*
X152957668Y-97760626D01*
X153022137Y-97803703D01*
X153176918Y-97867816D01*
X153302598Y-97892815D01*
X153341228Y-97900499D01*
X153341232Y-97900500D01*
X153341233Y-97900500D01*
X153508768Y-97900500D01*
X153508769Y-97900499D01*
X153673082Y-97867816D01*
X153827863Y-97803703D01*
X153967162Y-97710626D01*
X154085626Y-97592162D01*
X154178703Y-97452863D01*
X154242816Y-97298082D01*
X154275500Y-97133767D01*
X154275500Y-97016228D01*
X154799500Y-97016228D01*
X154799500Y-97183771D01*
X154832182Y-97348074D01*
X154832184Y-97348082D01*
X154896295Y-97502860D01*
X154989373Y-97642161D01*
X154989376Y-97642165D01*
X155107837Y-97760626D01*
X155193430Y-97817817D01*
X155247137Y-97853703D01*
X155247138Y-97853703D01*
X155247139Y-97853704D01*
X155251526Y-97855521D01*
X155401918Y-97917816D01*
X155524315Y-97942162D01*
X155566228Y-97950499D01*
X155566232Y-97950500D01*
X155566233Y-97950500D01*
X155733768Y-97950500D01*
X155733769Y-97950499D01*
X155898082Y-97917816D01*
X156052863Y-97853703D01*
X156192162Y-97760626D01*
X156310626Y-97642162D01*
X156403703Y-97502863D01*
X156467816Y-97348082D01*
X156500500Y-97183767D01*
X156500500Y-97016233D01*
X156467816Y-96851918D01*
X156404889Y-96700000D01*
X156403704Y-96697139D01*
X156310626Y-96557837D01*
X156192162Y-96439373D01*
X156052860Y-96346295D01*
X155898082Y-96282184D01*
X155898074Y-96282182D01*
X155733771Y-96249500D01*
X155733767Y-96249500D01*
X155566233Y-96249500D01*
X155566228Y-96249500D01*
X155401925Y-96282182D01*
X155401917Y-96282184D01*
X155247139Y-96346295D01*
X155107837Y-96439373D01*
X154989373Y-96557837D01*
X154896295Y-96697139D01*
X154832184Y-96851917D01*
X154832182Y-96851925D01*
X154799500Y-97016228D01*
X154275500Y-97016228D01*
X154275500Y-96966233D01*
X154242816Y-96801918D01*
X154193227Y-96682201D01*
X154178704Y-96647139D01*
X154178141Y-96646297D01*
X154140107Y-96589374D01*
X154085626Y-96507837D01*
X153967162Y-96389373D01*
X153827860Y-96296295D01*
X153673082Y-96232184D01*
X153673074Y-96232182D01*
X153508771Y-96199500D01*
X153508767Y-96199500D01*
X153341233Y-96199500D01*
X153341228Y-96199500D01*
X153176925Y-96232182D01*
X153176917Y-96232184D01*
X153022139Y-96296295D01*
X152882837Y-96389373D01*
X152764373Y-96507837D01*
X152671295Y-96647139D01*
X152607184Y-96801917D01*
X152607182Y-96801925D01*
X152574500Y-96966228D01*
X151490553Y-96966228D01*
X151480114Y-96913748D01*
X151467816Y-96851918D01*
X151404889Y-96700000D01*
X151403704Y-96697139D01*
X151310626Y-96557837D01*
X151192162Y-96439373D01*
X151052860Y-96346295D01*
X150898082Y-96282184D01*
X150898074Y-96282182D01*
X150733771Y-96249500D01*
X150733767Y-96249500D01*
X150566233Y-96249500D01*
X150566228Y-96249500D01*
X150401925Y-96282182D01*
X150401917Y-96282184D01*
X150247139Y-96346295D01*
X150107837Y-96439373D01*
X149989373Y-96557837D01*
X149896295Y-96697139D01*
X149832184Y-96851917D01*
X149832182Y-96851925D01*
X149799500Y-97016228D01*
X148825500Y-97016228D01*
X148825500Y-96941233D01*
X148792816Y-96776918D01*
X148739058Y-96647137D01*
X148728704Y-96622139D01*
X148703067Y-96583771D01*
X148685305Y-96557187D01*
X148635626Y-96482837D01*
X148517162Y-96364373D01*
X148377860Y-96271295D01*
X148223082Y-96207184D01*
X148223074Y-96207182D01*
X148058771Y-96174500D01*
X148058767Y-96174500D01*
X147891233Y-96174500D01*
X147891228Y-96174500D01*
X147726925Y-96207182D01*
X147726917Y-96207184D01*
X147572139Y-96271295D01*
X147432837Y-96364373D01*
X147314373Y-96482837D01*
X147221295Y-96622139D01*
X147157184Y-96776917D01*
X147157182Y-96776925D01*
X147124500Y-96941228D01*
X141428068Y-96941228D01*
X141453703Y-96902863D01*
X141517816Y-96748082D01*
X141550500Y-96583767D01*
X141550500Y-96416233D01*
X141517816Y-96251918D01*
X141453703Y-96097137D01*
X141436090Y-96070778D01*
X141422273Y-96050099D01*
X141401394Y-95983422D01*
X141419878Y-95916042D01*
X141422245Y-95912357D01*
X141478703Y-95827863D01*
X141542816Y-95673082D01*
X141575500Y-95508767D01*
X141575500Y-95341233D01*
X141542816Y-95176918D01*
X141478703Y-95022137D01*
X141401028Y-94905888D01*
X141385626Y-94882837D01*
X141267165Y-94764376D01*
X141267161Y-94764373D01*
X141166224Y-94696929D01*
X141121419Y-94643317D01*
X141112712Y-94573992D01*
X141142866Y-94510964D01*
X141147415Y-94506165D01*
X144367763Y-91285819D01*
X144429086Y-91252334D01*
X144455444Y-91249500D01*
X145600500Y-91249500D01*
X145667539Y-91269185D01*
X145713294Y-91321989D01*
X145724500Y-91373500D01*
X145724500Y-91383771D01*
X145757182Y-91548074D01*
X145757184Y-91548082D01*
X145821295Y-91702860D01*
X145914373Y-91842162D01*
X146035030Y-91962819D01*
X146068515Y-92024142D01*
X146063531Y-92093834D01*
X146021659Y-92149767D01*
X145956195Y-92174184D01*
X145947349Y-92174500D01*
X145841228Y-92174500D01*
X145676925Y-92207182D01*
X145676917Y-92207184D01*
X145522139Y-92271295D01*
X145382841Y-92364371D01*
X145382840Y-92364372D01*
X145363568Y-92383643D01*
X145302243Y-92417125D01*
X145232552Y-92412138D01*
X145206999Y-92399060D01*
X145202868Y-92396300D01*
X145202859Y-92396295D01*
X145048082Y-92332184D01*
X145048074Y-92332182D01*
X144883771Y-92299500D01*
X144883767Y-92299500D01*
X144716233Y-92299500D01*
X144716228Y-92299500D01*
X144551925Y-92332182D01*
X144551917Y-92332184D01*
X144397139Y-92396295D01*
X144257837Y-92489373D01*
X144139373Y-92607837D01*
X144046295Y-92747139D01*
X143982184Y-92901917D01*
X143982182Y-92901925D01*
X143949500Y-93066228D01*
X143949500Y-93233771D01*
X143982182Y-93398074D01*
X143982184Y-93398082D01*
X144046295Y-93552860D01*
X144139373Y-93692162D01*
X144257837Y-93810626D01*
X144306015Y-93842817D01*
X144397137Y-93903703D01*
X144551918Y-93967816D01*
X144711206Y-93999500D01*
X144716228Y-94000499D01*
X144716232Y-94000500D01*
X144716233Y-94000500D01*
X144883768Y-94000500D01*
X144883769Y-94000499D01*
X145048082Y-93967816D01*
X145202863Y-93903703D01*
X145342162Y-93810626D01*
X145361427Y-93791360D01*
X145422748Y-93757874D01*
X145492440Y-93762857D01*
X145517998Y-93775937D01*
X145522137Y-93778703D01*
X145676918Y-93842816D01*
X145841228Y-93875499D01*
X145841232Y-93875500D01*
X145841233Y-93875500D01*
X146008768Y-93875500D01*
X146008769Y-93875499D01*
X146173082Y-93842816D01*
X146327863Y-93778703D01*
X146467162Y-93685626D01*
X146585626Y-93567162D01*
X146678703Y-93427863D01*
X146742816Y-93273082D01*
X146775500Y-93108767D01*
X146775500Y-92941233D01*
X146742816Y-92776918D01*
X146678703Y-92622137D01*
X146647537Y-92575494D01*
X146585626Y-92482837D01*
X146464970Y-92362181D01*
X146431485Y-92300858D01*
X146436469Y-92231166D01*
X146478341Y-92175233D01*
X146543805Y-92150816D01*
X146552651Y-92150500D01*
X146658768Y-92150500D01*
X146658769Y-92150499D01*
X146823082Y-92117816D01*
X146977863Y-92053703D01*
X147117162Y-91960626D01*
X147235626Y-91842162D01*
X147328703Y-91702863D01*
X147392816Y-91548082D01*
X147425500Y-91383767D01*
X147425500Y-91373500D01*
X147445185Y-91306461D01*
X147497989Y-91260706D01*
X147549500Y-91249500D01*
X152201082Y-91249500D01*
X153101082Y-91249500D01*
X153821895Y-91249500D01*
X153846085Y-91251882D01*
X153881554Y-91258938D01*
X153922082Y-91267000D01*
X153922083Y-91267000D01*
X154069918Y-91267000D01*
X154110446Y-91258938D01*
X154145914Y-91251882D01*
X154170105Y-91249500D01*
X155134160Y-91249500D01*
X155158351Y-91251883D01*
X155182147Y-91256616D01*
X155277080Y-91275499D01*
X155277082Y-91275500D01*
X155277083Y-91275500D01*
X155424919Y-91275500D01*
X155424919Y-91275499D01*
X155530267Y-91254544D01*
X155543650Y-91251883D01*
X155567841Y-91249500D01*
X157111035Y-91249500D01*
X157158483Y-91258937D01*
X157171087Y-91264158D01*
X157196359Y-91269185D01*
X157316079Y-91293000D01*
X157316082Y-91293000D01*
X157463920Y-91293000D01*
X157583641Y-91269185D01*
X157608913Y-91264158D01*
X157745495Y-91207584D01*
X157868416Y-91125451D01*
X157972951Y-91020916D01*
X158055084Y-90897995D01*
X158111658Y-90761413D01*
X158134575Y-90646204D01*
X158140500Y-90616420D01*
X158140500Y-90169730D01*
X158160185Y-90102691D01*
X158176819Y-90082049D01*
X158588379Y-89670489D01*
X159024334Y-89234533D01*
X159085655Y-89201050D01*
X159155346Y-89206034D01*
X159211280Y-89247906D01*
X159226574Y-89274763D01*
X159242302Y-89312733D01*
X159334549Y-89432951D01*
X159454767Y-89525198D01*
X159594764Y-89583187D01*
X159707280Y-89598000D01*
X159730323Y-89598000D01*
X159797362Y-89617685D01*
X159843117Y-89670489D01*
X159853061Y-89739647D01*
X159851940Y-89746191D01*
X159839500Y-89808729D01*
X159839500Y-89976271D01*
X159872182Y-90140574D01*
X159872184Y-90140582D01*
X159936295Y-90295360D01*
X160029373Y-90434662D01*
X160147837Y-90553126D01*
X160193912Y-90583912D01*
X160287137Y-90646203D01*
X160441918Y-90710316D01*
X160606228Y-90742999D01*
X160606232Y-90743000D01*
X160606233Y-90743000D01*
X160773768Y-90743000D01*
X160773769Y-90742999D01*
X160938082Y-90710316D01*
X161092863Y-90646203D01*
X161232162Y-90553126D01*
X161350626Y-90434662D01*
X161443703Y-90295363D01*
X161507816Y-90140582D01*
X161540500Y-89976267D01*
X161540500Y-89808733D01*
X161528060Y-89746191D01*
X161527069Y-89741209D01*
X161533296Y-89671618D01*
X161576159Y-89616440D01*
X161617985Y-89596879D01*
X161625157Y-89595046D01*
X161715236Y-89583187D01*
X161785571Y-89554052D01*
X161794148Y-89551861D01*
X161803732Y-89552200D01*
X161824849Y-89548000D01*
X162116810Y-89548000D01*
X162164262Y-89557438D01*
X162291918Y-89610316D01*
X162456228Y-89642999D01*
X162456232Y-89643000D01*
X162456233Y-89643000D01*
X162623768Y-89643000D01*
X162623769Y-89642999D01*
X162788082Y-89610316D01*
X162942863Y-89546203D01*
X163082162Y-89453126D01*
X163200626Y-89334662D01*
X163293703Y-89195363D01*
X163357816Y-89040582D01*
X163390500Y-88876267D01*
X163390500Y-88708733D01*
X163357816Y-88544418D01*
X163293703Y-88389637D01*
X163253545Y-88329536D01*
X163200626Y-88250337D01*
X163082162Y-88131873D01*
X162942860Y-88038795D01*
X162788082Y-87974684D01*
X162788074Y-87974682D01*
X162623771Y-87942000D01*
X162623767Y-87942000D01*
X162456233Y-87942000D01*
X162456228Y-87942000D01*
X162285943Y-87975872D01*
X162285658Y-87974440D01*
X162223062Y-87974992D01*
X162163953Y-87937738D01*
X162134369Y-87874440D01*
X162134008Y-87839531D01*
X162140500Y-87790220D01*
X162140500Y-87296209D01*
X162160185Y-87229170D01*
X162212989Y-87183415D01*
X162282147Y-87173471D01*
X162288669Y-87174588D01*
X162381231Y-87192999D01*
X162381232Y-87193000D01*
X162381233Y-87193000D01*
X162548768Y-87193000D01*
X162548769Y-87192999D01*
X162713082Y-87160316D01*
X162867863Y-87096203D01*
X163007162Y-87003126D01*
X163125626Y-86884662D01*
X163218703Y-86745363D01*
X163282816Y-86590582D01*
X163315500Y-86426267D01*
X163315500Y-86258733D01*
X163282816Y-86094418D01*
X163229565Y-85965860D01*
X163218704Y-85939639D01*
X163203937Y-85917539D01*
X163180749Y-85882835D01*
X163125626Y-85800337D01*
X163067970Y-85742681D01*
X163034485Y-85681358D01*
X163039469Y-85611666D01*
X163067970Y-85567319D01*
X163125623Y-85509665D01*
X163125626Y-85509662D01*
X163134556Y-85496297D01*
X163218703Y-85370363D01*
X163282816Y-85215582D01*
X163315500Y-85051267D01*
X163315500Y-84883733D01*
X163282816Y-84719418D01*
X163230827Y-84593907D01*
X163218704Y-84564639D01*
X163125626Y-84425337D01*
X163007162Y-84306873D01*
X162867860Y-84213795D01*
X162713082Y-84149684D01*
X162713074Y-84149682D01*
X162548771Y-84117000D01*
X162548767Y-84117000D01*
X162381233Y-84117000D01*
X162381228Y-84117000D01*
X162216925Y-84149682D01*
X162216917Y-84149684D01*
X162062138Y-84213796D01*
X162062134Y-84213798D01*
X161993373Y-84259743D01*
X161926696Y-84280621D01*
X161862730Y-84263072D01*
X161862273Y-84263866D01*
X161855235Y-84259803D01*
X161855228Y-84259800D01*
X161715236Y-84201813D01*
X161701171Y-84199961D01*
X161602727Y-84187000D01*
X161602720Y-84187000D01*
X159707280Y-84187000D01*
X159707272Y-84187000D01*
X159594764Y-84201813D01*
X159594763Y-84201813D01*
X159454770Y-84259800D01*
X159454767Y-84259801D01*
X159454767Y-84259802D01*
X159334549Y-84352049D01*
X159248060Y-84464764D01*
X159242300Y-84472270D01*
X159184313Y-84612263D01*
X159184313Y-84612264D01*
X159169500Y-84724772D01*
X159169500Y-85250227D01*
X159184313Y-85362735D01*
X159184313Y-85362736D01*
X159242301Y-85502733D01*
X159276279Y-85547014D01*
X159301473Y-85612184D01*
X159287434Y-85680629D01*
X159276279Y-85697986D01*
X159242301Y-85742266D01*
X159184313Y-85882263D01*
X159184313Y-85882264D01*
X159169500Y-85994772D01*
X159169500Y-86520227D01*
X159184313Y-86632735D01*
X159184313Y-86632736D01*
X159245412Y-86780242D01*
X159243923Y-86780858D01*
X159258168Y-86839590D01*
X159235313Y-86905616D01*
X159203203Y-86936785D01*
X159191586Y-86944547D01*
X159191581Y-86944551D01*
X157412181Y-88723952D01*
X157350858Y-88757437D01*
X157281166Y-88752453D01*
X157225233Y-88710581D01*
X157200816Y-88645117D01*
X157200500Y-88636271D01*
X157200500Y-88534786D01*
X157200499Y-88534772D01*
X157195855Y-88499500D01*
X157185687Y-88422264D01*
X157127698Y-88282267D01*
X157093720Y-88237986D01*
X157068526Y-88172817D01*
X157082564Y-88104372D01*
X157093720Y-88087014D01*
X157100097Y-88078703D01*
X157127698Y-88042733D01*
X157185687Y-87902736D01*
X157200500Y-87790220D01*
X157200500Y-87264780D01*
X157185687Y-87152264D01*
X157127698Y-87012267D01*
X157093720Y-86967986D01*
X157068526Y-86902817D01*
X157082564Y-86834372D01*
X157093720Y-86817014D01*
X157109038Y-86797051D01*
X157127698Y-86772733D01*
X157185687Y-86632736D01*
X157200500Y-86520220D01*
X157200500Y-85994780D01*
X157185687Y-85882264D01*
X157134076Y-85757664D01*
X157127699Y-85742269D01*
X157127697Y-85742266D01*
X157093720Y-85697986D01*
X157068526Y-85632817D01*
X157082564Y-85564372D01*
X157093720Y-85547014D01*
X157104374Y-85533129D01*
X157127698Y-85502733D01*
X157185687Y-85362736D01*
X157200500Y-85250220D01*
X157200500Y-84724780D01*
X157185687Y-84612264D01*
X157127698Y-84472267D01*
X157035451Y-84352049D01*
X156915233Y-84259802D01*
X156915229Y-84259800D01*
X156804170Y-84213798D01*
X156775236Y-84201813D01*
X156761171Y-84199961D01*
X156662727Y-84187000D01*
X156662720Y-84187000D01*
X156589500Y-84187000D01*
X156522461Y-84167315D01*
X156476706Y-84114511D01*
X156465500Y-84063000D01*
X156465500Y-83867000D01*
X156485185Y-83799961D01*
X156537989Y-83754206D01*
X156589500Y-83743000D01*
X165238919Y-83743000D01*
X165273740Y-83736073D01*
X165314915Y-83727882D01*
X165339106Y-83725500D01*
X166525500Y-83725500D01*
X166592539Y-83745185D01*
G37*
%TD.AperFunction*%
%TA.AperFunction,Conductor*%
G36*
X143280436Y-102924865D02*
G01*
X143324784Y-102953366D01*
X143521634Y-103150215D01*
X143555119Y-103211538D01*
X143550135Y-103281229D01*
X143521638Y-103325573D01*
X143510070Y-103337142D01*
X143508551Y-103335623D01*
X143458825Y-103369498D01*
X143420715Y-103375500D01*
X142920078Y-103375500D01*
X142853039Y-103355815D01*
X142807284Y-103303011D01*
X142797340Y-103233853D01*
X142826365Y-103170297D01*
X142872625Y-103136939D01*
X142877485Y-103134925D01*
X142952863Y-103103703D01*
X143092162Y-103010626D01*
X143149423Y-102953364D01*
X143210744Y-102919881D01*
X143280436Y-102924865D01*
G37*
%TD.AperFunction*%
%TD*%
M02*
