%TF.GenerationSoftware,KiCad,Pcbnew,10.0.0-10.0.0~ubuntu24.04.1*%
%TF.CreationDate,2026-03-31T07:03:56+02:00*%
%TF.ProjectId,k_lc7,6b5f6c63-372e-46b6-9963-61645f706362,rev?*%
%TF.SameCoordinates,Original*%
%TF.FileFunction,Copper,L1,Top*%
%TF.FilePolarity,Positive*%
%FSLAX46Y46*%
G04 Gerber Fmt 4.6, Leading zero omitted, Abs format (unit mm)*
G04 Created by KiCad (PCBNEW 10.0.0-10.0.0~ubuntu24.04.1) date 2026-03-31 07:03:56*
%MOMM*%
%LPD*%
G01*
G04 APERTURE LIST*
G04 Aperture macros list*
%AMRoundRect*
0 Rectangle with rounded corners*
0 $1 Rounding radius*
0 $2 $3 $4 $5 $6 $7 $8 $9 X,Y pos of 4 corners*
0 Add a 4 corners polygon primitive as box body*
4,1,4,$2,$3,$4,$5,$6,$7,$8,$9,$2,$3,0*
0 Add four circle primitives for the rounded corners*
1,1,$1+$1,$2,$3*
1,1,$1+$1,$4,$5*
1,1,$1+$1,$6,$7*
1,1,$1+$1,$8,$9*
0 Add four rect primitives between the rounded corners*
20,1,$1+$1,$2,$3,$4,$5,0*
20,1,$1+$1,$4,$5,$6,$7,0*
20,1,$1+$1,$6,$7,$8,$9,0*
20,1,$1+$1,$8,$9,$2,$3,0*%
G04 Aperture macros list end*
%TA.AperFunction,SMDPad,CuDef*%
%ADD10RoundRect,0.250000X-0.475000X0.250000X-0.475000X-0.250000X0.475000X-0.250000X0.475000X0.250000X0*%
%TD*%
%TA.AperFunction,SMDPad,CuDef*%
%ADD11RoundRect,0.250000X0.450000X-0.262500X0.450000X0.262500X-0.450000X0.262500X-0.450000X-0.262500X0*%
%TD*%
%TA.AperFunction,SMDPad,CuDef*%
%ADD12RoundRect,0.250000X0.475000X-0.250000X0.475000X0.250000X-0.475000X0.250000X-0.475000X-0.250000X0*%
%TD*%
%TA.AperFunction,SMDPad,CuDef*%
%ADD13RoundRect,0.075000X-0.700000X-0.075000X0.700000X-0.075000X0.700000X0.075000X-0.700000X0.075000X0*%
%TD*%
%TA.AperFunction,SMDPad,CuDef*%
%ADD14RoundRect,0.075000X-0.075000X-0.700000X0.075000X-0.700000X0.075000X0.700000X-0.075000X0.700000X0*%
%TD*%
%TA.AperFunction,SMDPad,CuDef*%
%ADD15RoundRect,0.250000X0.250000X0.475000X-0.250000X0.475000X-0.250000X-0.475000X0.250000X-0.475000X0*%
%TD*%
%TA.AperFunction,SMDPad,CuDef*%
%ADD16RoundRect,0.250000X0.262500X0.450000X-0.262500X0.450000X-0.262500X-0.450000X0.262500X-0.450000X0*%
%TD*%
%TA.AperFunction,SMDPad,CuDef*%
%ADD17RoundRect,0.150000X-0.512500X-0.150000X0.512500X-0.150000X0.512500X0.150000X-0.512500X0.150000X0*%
%TD*%
%TA.AperFunction,SMDPad,CuDef*%
%ADD18RoundRect,0.250000X-1.000000X0.375000X-1.000000X-0.375000X1.000000X-0.375000X1.000000X0.375000X0*%
%TD*%
%TA.AperFunction,SMDPad,CuDef*%
%ADD19R,1.000000X0.900000*%
%TD*%
%TA.AperFunction,SMDPad,CuDef*%
%ADD20RoundRect,0.250000X-0.450000X0.262500X-0.450000X-0.262500X0.450000X-0.262500X0.450000X0.262500X0*%
%TD*%
%TA.AperFunction,SMDPad,CuDef*%
%ADD21RoundRect,0.147500X-0.457500X-0.147500X0.457500X-0.147500X0.457500X0.147500X-0.457500X0.147500X0*%
%TD*%
%TA.AperFunction,SMDPad,CuDef*%
%ADD22RoundRect,0.250000X-0.250000X-0.475000X0.250000X-0.475000X0.250000X0.475000X-0.250000X0.475000X0*%
%TD*%
%TA.AperFunction,SMDPad,CuDef*%
%ADD23RoundRect,0.150000X0.425000X-0.150000X0.425000X0.150000X-0.425000X0.150000X-0.425000X-0.150000X0*%
%TD*%
%TA.AperFunction,SMDPad,CuDef*%
%ADD24RoundRect,0.075000X0.500000X-0.075000X0.500000X0.075000X-0.500000X0.075000X-0.500000X-0.075000X0*%
%TD*%
%TA.AperFunction,HeatsinkPad*%
%ADD25O,2.100000X1.000000*%
%TD*%
%TA.AperFunction,HeatsinkPad*%
%ADD26O,1.800000X1.000000*%
%TD*%
%TA.AperFunction,SMDPad,CuDef*%
%ADD27RoundRect,0.150000X0.512500X0.150000X-0.512500X0.150000X-0.512500X-0.150000X0.512500X-0.150000X0*%
%TD*%
%TA.AperFunction,SMDPad,CuDef*%
%ADD28RoundRect,0.218750X-0.381250X0.218750X-0.381250X-0.218750X0.381250X-0.218750X0.381250X0.218750X0*%
%TD*%
%TA.AperFunction,SMDPad,CuDef*%
%ADD29RoundRect,0.250000X0.450000X0.350000X-0.450000X0.350000X-0.450000X-0.350000X0.450000X-0.350000X0*%
%TD*%
%TA.AperFunction,ComponentPad*%
%ADD30R,1.700000X1.700000*%
%TD*%
%TA.AperFunction,ComponentPad*%
%ADD31C,1.700000*%
%TD*%
%TA.AperFunction,ViaPad*%
%ADD32C,0.700000*%
%TD*%
%TA.AperFunction,Conductor*%
%ADD33C,0.200000*%
%TD*%
%TA.AperFunction,Conductor*%
%ADD34C,0.500000*%
%TD*%
%TA.AperFunction,Conductor*%
%ADD35C,0.400000*%
%TD*%
%TA.AperFunction,Conductor*%
%ADD36C,0.300000*%
%TD*%
G04 APERTURE END LIST*
D10*
%TO.P,C29,1*%
%TO.N,+3V3*%
X149050000Y-108575000D03*
%TO.P,C29,2*%
%TO.N,GND*%
X149050000Y-110475000D03*
%TD*%
D11*
%TO.P,R13,1*%
%TO.N,Net-(U3--IN_A)*%
X146875000Y-84950000D03*
%TO.P,R13,2*%
%TO.N,Net-(U3-VOUTA)*%
X146875000Y-83125000D03*
%TD*%
%TO.P,R5,1*%
%TO.N,Net-(U1--IN_B)*%
X144500000Y-76700000D03*
%TO.P,R5,2*%
%TO.N,Net-(U1-VOUTB)*%
X144500000Y-74875000D03*
%TD*%
D12*
%TO.P,C33,1*%
%TO.N,/MCU/VCO*%
X133775000Y-106675000D03*
%TO.P,C33,2*%
%TO.N,dac_out*%
X133775000Y-104775000D03*
%TD*%
D11*
%TO.P,R18,1*%
%TO.N,Net-(U4--IN_B)*%
X154975000Y-86250000D03*
%TO.P,R18,2*%
%TO.N,Net-(U4-VOUTB)*%
X154975000Y-84425000D03*
%TD*%
D13*
%TO.P,U5,1,VBAT*%
%TO.N,+3V3*%
X146225000Y-97125000D03*
%TO.P,U5,2,PC13*%
%TO.N,unconnected-(U5-PC13-Pad2)*%
X146225000Y-97625000D03*
%TO.P,U5,3,PC14*%
%TO.N,unconnected-(U5-PC14-Pad3)*%
X146225000Y-98125000D03*
%TO.P,U5,4,PC15*%
%TO.N,unconnected-(U5-PC15-Pad4)*%
X146225000Y-98625000D03*
%TO.P,U5,5,PH0*%
%TO.N,/MCU/RCC_OSC_IN*%
X146225000Y-99125000D03*
%TO.P,U5,6,PH1*%
%TO.N,/MCU/RCC_OSC_OUT*%
X146225000Y-99625000D03*
%TO.P,U5,7,NRST*%
%TO.N,/MCU/nRST*%
X146225000Y-100125000D03*
%TO.P,U5,8,PC0*%
%TO.N,unconnected-(U5-PC0-Pad8)*%
X146225000Y-100625000D03*
%TO.P,U5,9,PC1*%
%TO.N,unconnected-(U5-PC1-Pad9)*%
X146225000Y-101125000D03*
%TO.P,U5,10,PC2*%
%TO.N,unconnected-(U5-PC2-Pad10)*%
X146225000Y-101625000D03*
%TO.P,U5,11,PC3*%
%TO.N,unconnected-(U5-PC3-Pad11)*%
X146225000Y-102125000D03*
%TO.P,U5,12,VSSA*%
%TO.N,GND*%
X146225000Y-102625000D03*
%TO.P,U5,13,VDDA*%
%TO.N,+3V3*%
X146225000Y-103125000D03*
%TO.P,U5,14,PA0*%
%TO.N,adc_in1*%
X146225000Y-103625000D03*
%TO.P,U5,15,PA1*%
%TO.N,adc_in2*%
X146225000Y-104125000D03*
%TO.P,U5,16,PA2*%
%TO.N,adc_in3*%
X146225000Y-104625000D03*
D14*
%TO.P,U5,17,PA3*%
%TO.N,adc_in4*%
X148150000Y-106550000D03*
%TO.P,U5,18,VSS*%
%TO.N,GND*%
X148650000Y-106550000D03*
%TO.P,U5,19,VDD*%
%TO.N,+3V3*%
X149150000Y-106550000D03*
%TO.P,U5,20,PA4*%
%TO.N,/MCU/VCO*%
X149650000Y-106550000D03*
%TO.P,U5,21,PA5*%
%TO.N,unconnected-(U5-PA5-Pad21)*%
X150150000Y-106550000D03*
%TO.P,U5,22,PA6*%
%TO.N,unconnected-(U5-PA6-Pad22)*%
X150650000Y-106550000D03*
%TO.P,U5,23,PA7*%
%TO.N,unconnected-(U5-PA7-Pad23)*%
X151150000Y-106550000D03*
%TO.P,U5,24,PC4*%
%TO.N,unconnected-(U5-PC4-Pad24)*%
X151650000Y-106550000D03*
%TO.P,U5,25,PB0*%
%TO.N,unconnected-(U5-PB0-Pad25)*%
X152150000Y-106550000D03*
%TO.P,U5,26,PB1*%
%TO.N,unconnected-(U5-PB1-Pad26)*%
X152650000Y-106550000D03*
%TO.P,U5,27,PB2*%
%TO.N,unconnected-(U5-PB2-Pad27)*%
X153150000Y-106550000D03*
%TO.P,U5,28,PB10*%
%TO.N,unconnected-(U5-PB10-Pad28)*%
X153650000Y-106550000D03*
%TO.P,U5,29,PB11*%
%TO.N,unconnected-(U5-PB11-Pad29)*%
X154150000Y-106550000D03*
%TO.P,U5,30,VCAP_1*%
%TO.N,/MCU/VCAP*%
X154650000Y-106550000D03*
%TO.P,U5,31,VSS*%
%TO.N,GND*%
X155150000Y-106550000D03*
%TO.P,U5,32,VDD*%
%TO.N,+3V3*%
X155650000Y-106550000D03*
D13*
%TO.P,U5,33,PB12*%
%TO.N,unconnected-(U5-PB12-Pad33)*%
X157575000Y-104625000D03*
%TO.P,U5,34,PB13*%
%TO.N,unconnected-(U5-PB13-Pad34)*%
X157575000Y-104125000D03*
%TO.P,U5,35,PB14*%
%TO.N,unconnected-(U5-PB14-Pad35)*%
X157575000Y-103625000D03*
%TO.P,U5,36,PB15*%
%TO.N,unconnected-(U5-PB15-Pad36)*%
X157575000Y-103125000D03*
%TO.P,U5,37,PC6*%
%TO.N,unconnected-(U5-PC6-Pad37)*%
X157575000Y-102625000D03*
%TO.P,U5,38,PC7*%
%TO.N,/MCU/button_record*%
X157575000Y-102125000D03*
%TO.P,U5,39,PC8*%
%TO.N,vco_in*%
X157575000Y-101625000D03*
%TO.P,U5,40,PC9*%
%TO.N,unconnected-(U5-PC9-Pad40)*%
X157575000Y-101125000D03*
%TO.P,U5,41,PA8*%
%TO.N,unconnected-(U5-PA8-Pad41)*%
X157575000Y-100625000D03*
%TO.P,U5,42,PA9*%
%TO.N,unconnected-(U5-PA9-Pad42)*%
X157575000Y-100125000D03*
%TO.P,U5,43,PA10*%
%TO.N,unconnected-(U5-PA10-Pad43)*%
X157575000Y-99625000D03*
%TO.P,U5,44,PA11*%
%TO.N,/MCU/USB_OTG_FS_DM*%
X157575000Y-99125000D03*
%TO.P,U5,45,PA12*%
%TO.N,/MCU/USB_OTG_FS_DP*%
X157575000Y-98625000D03*
%TO.P,U5,46,PA13*%
%TO.N,/MCU/SWDIO*%
X157575000Y-98125000D03*
%TO.P,U5,47,VSS*%
%TO.N,GND*%
X157575000Y-97625000D03*
%TO.P,U5,48,VDD*%
%TO.N,+3V3*%
X157575000Y-97125000D03*
D14*
%TO.P,U5,49,PA14*%
%TO.N,/MCU/SWCLK*%
X155650000Y-95200000D03*
%TO.P,U5,50,PA15*%
%TO.N,unconnected-(U5-PA15-Pad50)*%
X155150000Y-95200000D03*
%TO.P,U5,51,PC10*%
%TO.N,unconnected-(U5-PC10-Pad51)*%
X154650000Y-95200000D03*
%TO.P,U5,52,PC11*%
%TO.N,unconnected-(U5-PC11-Pad52)*%
X154150000Y-95200000D03*
%TO.P,U5,53,PC12*%
%TO.N,unconnected-(U5-PC12-Pad53)*%
X153650000Y-95200000D03*
%TO.P,U5,54,PD2*%
%TO.N,unconnected-(U5-PD2-Pad54)*%
X153150000Y-95200000D03*
%TO.P,U5,55,PB3*%
%TO.N,unconnected-(U5-PB3-Pad55)*%
X152650000Y-95200000D03*
%TO.P,U5,56,PB4*%
%TO.N,unconnected-(U5-PB4-Pad56)*%
X152150000Y-95200000D03*
%TO.P,U5,57,PB5*%
%TO.N,unconnected-(U5-PB5-Pad57)*%
X151650000Y-95200000D03*
%TO.P,U5,58,PB6*%
%TO.N,unconnected-(U5-PB6-Pad58)*%
X151150000Y-95200000D03*
%TO.P,U5,59,PB7*%
%TO.N,unconnected-(U5-PB7-Pad59)*%
X150650000Y-95200000D03*
%TO.P,U5,60,BOOT0*%
%TO.N,/MCU/BOOT0*%
X150150000Y-95200000D03*
%TO.P,U5,61,PB8*%
%TO.N,unconnected-(U5-PB8-Pad61)*%
X149650000Y-95200000D03*
%TO.P,U5,62,PB9*%
%TO.N,unconnected-(U5-PB9-Pad62)*%
X149150000Y-95200000D03*
%TO.P,U5,63,VSS*%
%TO.N,GND*%
X148650000Y-95200000D03*
%TO.P,U5,64,VDD*%
%TO.N,+3V3*%
X148150000Y-95200000D03*
%TD*%
D12*
%TO.P,C13,1*%
%TO.N,Net-(U4--IN_A)*%
X161050000Y-86325000D03*
%TO.P,C13,2*%
%TO.N,Net-(U4-VOUTA)*%
X161050000Y-84425000D03*
%TD*%
D15*
%TO.P,C10,1*%
%TO.N,/baseband/Q2_conn*%
X167150000Y-82200000D03*
%TO.P,C10,2*%
%TO.N,Net-(C10-Pad2)*%
X165250000Y-82200000D03*
%TD*%
D16*
%TO.P,R19,1*%
%TO.N,Net-(U3-VOUTB)*%
X142575000Y-81250000D03*
%TO.P,R19,2*%
%TO.N,adc_in4*%
X140750000Y-81250000D03*
%TD*%
D12*
%TO.P,C5,1*%
%TO.N,Net-(U2--IN_A)*%
X160875000Y-78175000D03*
%TO.P,C5,2*%
%TO.N,Net-(U2-VOUTA)*%
X160875000Y-76275000D03*
%TD*%
D17*
%TO.P,U6,1,IN*%
%TO.N,+5V*%
X171375000Y-98475000D03*
%TO.P,U6,2,GND*%
%TO.N,GND*%
X171375000Y-99425000D03*
%TO.P,U6,3,EN*%
%TO.N,+5V*%
X171375000Y-100375000D03*
%TO.P,U6,4,NC*%
%TO.N,unconnected-(U6-NC-Pad4)*%
X173650000Y-100375000D03*
%TO.P,U6,5,OUT*%
%TO.N,+3V3*%
X173650000Y-98475000D03*
%TD*%
D18*
%TO.P,SW1,1,A*%
%TO.N,GND*%
X135450000Y-89550000D03*
%TO.P,SW1,2,B*%
%TO.N,/MCU/SW_BOOT0*%
X135450000Y-92050000D03*
%TO.P,SW1,3,C*%
%TO.N,+3V3*%
X135450000Y-94550000D03*
%TD*%
D12*
%TO.P,C32,1*%
%TO.N,+3V3*%
X145600000Y-95850000D03*
%TO.P,C32,2*%
%TO.N,GND*%
X145600000Y-93950000D03*
%TD*%
D16*
%TO.P,R1,1*%
%TO.N,Net-(C1-Pad2)*%
X163575000Y-71875000D03*
%TO.P,R1,2*%
%TO.N,Net-(U1--IN_A)*%
X161750000Y-71875000D03*
%TD*%
D15*
%TO.P,C28,1*%
%TO.N,+3V3*%
X143750000Y-102325000D03*
%TO.P,C28,2*%
%TO.N,GND*%
X141850000Y-102325000D03*
%TD*%
D11*
%TO.P,R6,1*%
%TO.N,Net-(U2--IN_A)*%
X158800000Y-78100000D03*
%TO.P,R6,2*%
%TO.N,Net-(U2-VOUTA)*%
X158800000Y-76275000D03*
%TD*%
D12*
%TO.P,C14,1*%
%TO.N,Net-(U4--IN_B)*%
X156925000Y-86275000D03*
%TO.P,C14,2*%
%TO.N,Net-(U4-VOUTB)*%
X156925000Y-84375000D03*
%TD*%
D19*
%TO.P,SW3,1,1*%
%TO.N,GND*%
X143775000Y-111225000D03*
X143775000Y-107125000D03*
%TO.P,SW3,2,2*%
%TO.N,/MCU/nRST*%
X145375000Y-111225000D03*
X145375000Y-107125000D03*
%TD*%
%TO.P,SW2,1,1*%
%TO.N,GND*%
X159950000Y-107100000D03*
X159950000Y-111200000D03*
%TO.P,SW2,2,2*%
%TO.N,/MCU/button_record*%
X158350000Y-107100000D03*
X158350000Y-111200000D03*
%TD*%
D15*
%TO.P,C25,1*%
%TO.N,+3V3*%
X173400000Y-96500000D03*
%TO.P,C25,2*%
%TO.N,GND*%
X171500000Y-96500000D03*
%TD*%
D12*
%TO.P,C8,1*%
%TO.N,Net-(U2-VOUTA)*%
X158800000Y-81650000D03*
%TO.P,C8,2*%
%TO.N,Net-(C8-Pad2)*%
X158800000Y-79750000D03*
%TD*%
D15*
%TO.P,C18,1*%
%TO.N,+2V5*%
X135400000Y-109000000D03*
%TO.P,C18,2*%
%TO.N,GND*%
X133500000Y-109000000D03*
%TD*%
%TO.P,C1,1*%
%TO.N,/baseband/I1_conn*%
X167100000Y-71900000D03*
%TO.P,C1,2*%
%TO.N,Net-(C1-Pad2)*%
X165200000Y-71900000D03*
%TD*%
D12*
%TO.P,C4,1*%
%TO.N,Net-(U1--IN_B)*%
X142425000Y-76775000D03*
%TO.P,C4,2*%
%TO.N,Net-(U1-VOUTB)*%
X142425000Y-74875000D03*
%TD*%
D11*
%TO.P,R7,1*%
%TO.N,Net-(C8-Pad2)*%
X156750000Y-81625000D03*
%TO.P,R7,2*%
%TO.N,Net-(U2--IN_B)*%
X156750000Y-79800000D03*
%TD*%
D16*
%TO.P,R2,1*%
%TO.N,Net-(C2-Pad2)*%
X163600000Y-74300000D03*
%TO.P,R2,2*%
%TO.N,Net-(U2--IN_A)*%
X161775000Y-74300000D03*
%TD*%
D12*
%TO.P,C6,1*%
%TO.N,Net-(U2--IN_B)*%
X154750000Y-78075000D03*
%TO.P,C6,2*%
%TO.N,Net-(U2-VOUTB)*%
X154750000Y-76175000D03*
%TD*%
%TO.P,C7,1*%
%TO.N,Net-(U1-VOUTA)*%
X146775000Y-80250000D03*
%TO.P,C7,2*%
%TO.N,Net-(C7-Pad2)*%
X146775000Y-78350000D03*
%TD*%
D11*
%TO.P,R3,1*%
%TO.N,Net-(U1--IN_A)*%
X146750000Y-76575000D03*
%TO.P,R3,2*%
%TO.N,Net-(U1-VOUTA)*%
X146750000Y-74750000D03*
%TD*%
%TO.P,R4,1*%
%TO.N,Net-(C7-Pad2)*%
X144575000Y-80175000D03*
%TO.P,R4,2*%
%TO.N,Net-(U1--IN_B)*%
X144575000Y-78350000D03*
%TD*%
D15*
%TO.P,C2,1*%
%TO.N,/baseband/Q1_conn*%
X167200000Y-74325000D03*
%TO.P,C2,2*%
%TO.N,Net-(C2-Pad2)*%
X165300000Y-74325000D03*
%TD*%
%TO.P,C21,1*%
%TO.N,+5V*%
X134750000Y-83425000D03*
%TO.P,C21,2*%
%TO.N,GND*%
X132850000Y-83425000D03*
%TD*%
D11*
%TO.P,R28,1*%
%TO.N,/MCU/VCO*%
X136050000Y-106625000D03*
%TO.P,R28,2*%
%TO.N,dac_out*%
X136050000Y-104800000D03*
%TD*%
D16*
%TO.P,R22,1*%
%TO.N,+2V5*%
X135325000Y-111050000D03*
%TO.P,R22,2*%
%TO.N,GND*%
X133500000Y-111050000D03*
%TD*%
%TO.P,R20,1*%
%TO.N,Net-(U4-VOUTB)*%
X154350000Y-82400000D03*
%TO.P,R20,2*%
%TO.N,adc_in3*%
X152525000Y-82400000D03*
%TD*%
D20*
%TO.P,R11,1*%
%TO.N,Net-(C9-Pad2)*%
X166825000Y-87800000D03*
%TO.P,R11,2*%
%TO.N,Net-(U3--IN_A)*%
X166825000Y-89625000D03*
%TD*%
D15*
%TO.P,C22,1*%
%TO.N,VCC*%
X165125000Y-102250000D03*
%TO.P,C22,2*%
%TO.N,GND*%
X163225000Y-102250000D03*
%TD*%
D11*
%TO.P,R16,1*%
%TO.N,Net-(U4--IN_A)*%
X159050000Y-86275000D03*
%TO.P,R16,2*%
%TO.N,Net-(U4-VOUTA)*%
X159050000Y-84450000D03*
%TD*%
D16*
%TO.P,R27,1*%
%TO.N,Net-(J4-CC2)*%
X165100000Y-104350000D03*
%TO.P,R27,2*%
%TO.N,GND*%
X163275000Y-104350000D03*
%TD*%
D21*
%TO.P,U8,1,OUT*%
%TO.N,dac_out*%
X138865000Y-104750000D03*
%TO.P,U8,2,V-*%
%TO.N,GND*%
X138865000Y-105700000D03*
%TO.P,U8,3,+IN*%
%TO.N,+2V5*%
X138865000Y-106650000D03*
%TO.P,U8,4,-IN*%
%TO.N,/MCU/VCO*%
X141375000Y-106650000D03*
%TO.P,U8,5,V+*%
%TO.N,+5V*%
X141375000Y-104750000D03*
%TD*%
D16*
%TO.P,R26,1*%
%TO.N,Net-(J4-CC1)*%
X165175000Y-109775000D03*
%TO.P,R26,2*%
%TO.N,GND*%
X163350000Y-109775000D03*
%TD*%
D12*
%TO.P,C16,1*%
%TO.N,Net-(U4-VOUTA)*%
X158950000Y-89850000D03*
%TO.P,C16,2*%
%TO.N,Net-(C16-Pad2)*%
X158950000Y-87950000D03*
%TD*%
%TO.P,C11,1*%
%TO.N,Net-(U3--IN_A)*%
X148900000Y-84950000D03*
%TO.P,C11,2*%
%TO.N,Net-(U3-VOUTA)*%
X148900000Y-83050000D03*
%TD*%
%TO.P,C12,1*%
%TO.N,Net-(U3--IN_B)*%
X142725000Y-85000000D03*
%TO.P,C12,2*%
%TO.N,Net-(U3-VOUTB)*%
X142725000Y-83100000D03*
%TD*%
%TO.P,C3,1*%
%TO.N,Net-(U1--IN_A)*%
X148850000Y-76650000D03*
%TO.P,C3,2*%
%TO.N,Net-(U1-VOUTA)*%
X148850000Y-74750000D03*
%TD*%
D16*
%TO.P,R10,1*%
%TO.N,Net-(U2-VOUTB)*%
X154925000Y-74225000D03*
%TO.P,R10,2*%
%TO.N,adc_in2*%
X153100000Y-74225000D03*
%TD*%
D11*
%TO.P,R8,1*%
%TO.N,Net-(U2--IN_B)*%
X156800000Y-78050000D03*
%TO.P,R8,2*%
%TO.N,Net-(U2-VOUTB)*%
X156800000Y-76225000D03*
%TD*%
D16*
%TO.P,R21,1*%
%TO.N,+5V*%
X139137500Y-111050000D03*
%TO.P,R21,2*%
%TO.N,+2V5*%
X137312500Y-111050000D03*
%TD*%
D12*
%TO.P,C23,1*%
%TO.N,GND*%
X153725000Y-110400000D03*
%TO.P,C23,2*%
%TO.N,/MCU/VCAP*%
X153725000Y-108500000D03*
%TD*%
D15*
%TO.P,C19,1*%
%TO.N,/MCU/RCC_OSC_IN*%
X143600000Y-95925000D03*
%TO.P,C19,2*%
%TO.N,GND*%
X141700000Y-95925000D03*
%TD*%
D11*
%TO.P,R14,1*%
%TO.N,Net-(C15-Pad2)*%
X144650000Y-88425000D03*
%TO.P,R14,2*%
%TO.N,Net-(U3--IN_B)*%
X144650000Y-86600000D03*
%TD*%
D22*
%TO.P,C30,1*%
%TO.N,+3V3*%
X160350000Y-97625000D03*
%TO.P,C30,2*%
%TO.N,GND*%
X162250000Y-97625000D03*
%TD*%
D11*
%TO.P,R17,1*%
%TO.N,Net-(C16-Pad2)*%
X156675000Y-89750000D03*
%TO.P,R17,2*%
%TO.N,Net-(U4--IN_B)*%
X156675000Y-87925000D03*
%TD*%
D12*
%TO.P,C20,1*%
%TO.N,/MCU/RCC_OSC_OUT*%
X139350000Y-99725000D03*
%TO.P,C20,2*%
%TO.N,GND*%
X139350000Y-97825000D03*
%TD*%
D23*
%TO.P,J4,A1,GND*%
%TO.N,GND*%
X167295000Y-110130000D03*
%TO.P,J4,A4,VBUS*%
%TO.N,VCC*%
X167295000Y-109330000D03*
D24*
%TO.P,J4,A5,CC1*%
%TO.N,Net-(J4-CC1)*%
X167295000Y-108180000D03*
%TO.P,J4,A6,D+*%
%TO.N,Net-(J4-D+-PadA6)*%
X167295000Y-107180000D03*
%TO.P,J4,A7,D-*%
%TO.N,Net-(J4-D--PadA7)*%
X167295000Y-106680000D03*
%TO.P,J4,A8,SBU1*%
%TO.N,unconnected-(J4-SBU1-PadA8)*%
X167295000Y-105680000D03*
D23*
%TO.P,J4,A9,VBUS*%
%TO.N,VCC*%
X167295000Y-104530000D03*
%TO.P,J4,A12,GND*%
%TO.N,GND*%
X167295000Y-103730000D03*
%TO.P,J4,B1,GND*%
X167295000Y-103730000D03*
%TO.P,J4,B4,VBUS*%
%TO.N,VCC*%
X167295000Y-104530000D03*
D24*
%TO.P,J4,B5,CC2*%
%TO.N,Net-(J4-CC2)*%
X167295000Y-105180000D03*
%TO.P,J4,B6,D+*%
%TO.N,Net-(J4-D+-PadA6)*%
X167295000Y-106180000D03*
%TO.P,J4,B7,D-*%
%TO.N,Net-(J4-D--PadA7)*%
X167295000Y-107680000D03*
%TO.P,J4,B8,SBU2*%
%TO.N,unconnected-(J4-SBU2-PadB8)*%
X167295000Y-108680000D03*
D23*
%TO.P,J4,B9,VBUS*%
%TO.N,VCC*%
X167295000Y-109330000D03*
%TO.P,J4,B12,GND*%
%TO.N,GND*%
X167295000Y-110130000D03*
D25*
%TO.P,J4,S1,SHIELD*%
X167870000Y-111250000D03*
D26*
X172050000Y-111250000D03*
D25*
X167870000Y-102610000D03*
D26*
X172050000Y-102610000D03*
%TD*%
D12*
%TO.P,C17,1*%
%TO.N,+5V*%
X141000000Y-111225000D03*
%TO.P,C17,2*%
%TO.N,GND*%
X141000000Y-109325000D03*
%TD*%
D11*
%TO.P,R15,1*%
%TO.N,Net-(U3--IN_B)*%
X144850000Y-84975000D03*
%TO.P,R15,2*%
%TO.N,Net-(U3-VOUTB)*%
X144850000Y-83150000D03*
%TD*%
D10*
%TO.P,C24,1*%
%TO.N,+5V*%
X169475000Y-98475000D03*
%TO.P,C24,2*%
%TO.N,GND*%
X169475000Y-100375000D03*
%TD*%
D12*
%TO.P,C31,1*%
%TO.N,+3V3*%
X147875000Y-93325000D03*
%TO.P,C31,2*%
%TO.N,GND*%
X147875000Y-91425000D03*
%TD*%
D27*
%TO.P,U7,1,I/O1*%
%TO.N,Net-(J4-D--PadA7)*%
X164975000Y-108000000D03*
%TO.P,U7,2,GND*%
%TO.N,GND*%
X164975000Y-107050000D03*
%TO.P,U7,3,I/O2*%
%TO.N,Net-(J4-D+-PadA6)*%
X164975000Y-106100000D03*
%TO.P,U7,4,I/O2*%
%TO.N,/MCU/USB_OTG_FS_DP*%
X162700000Y-106100000D03*
%TO.P,U7,5,VBUS*%
%TO.N,+5V*%
X162700000Y-107050000D03*
%TO.P,U7,6,I/O1*%
%TO.N,/MCU/USB_OTG_FS_DM*%
X162700000Y-108000000D03*
%TD*%
D28*
%TO.P,FB1,1*%
%TO.N,+5V*%
X167375000Y-98400000D03*
%TO.P,FB1,2*%
%TO.N,VCC*%
X167375000Y-100525000D03*
%TD*%
D11*
%TO.P,R23,1*%
%TO.N,/MCU/BOOT0*%
X149950000Y-93200000D03*
%TO.P,R23,2*%
%TO.N,/MCU/SW_BOOT0*%
X149950000Y-91375000D03*
%TD*%
D16*
%TO.P,R12,1*%
%TO.N,Net-(C10-Pad2)*%
X163600000Y-82225000D03*
%TO.P,R12,2*%
%TO.N,Net-(U4--IN_A)*%
X161775000Y-82225000D03*
%TD*%
D10*
%TO.P,C9,1*%
%TO.N,/baseband/I2_conn*%
X166800000Y-84175000D03*
%TO.P,C9,2*%
%TO.N,Net-(C9-Pad2)*%
X166800000Y-86075000D03*
%TD*%
%TO.P,C26,1*%
%TO.N,+3V3*%
X155975000Y-108525000D03*
%TO.P,C26,2*%
%TO.N,GND*%
X155975000Y-110425000D03*
%TD*%
D29*
%TO.P,Y1,1,1*%
%TO.N,/MCU/RCC_OSC_IN*%
X143700000Y-97900000D03*
%TO.P,Y1,2,2*%
%TO.N,GND*%
X141500000Y-97900000D03*
%TO.P,Y1,3,3*%
%TO.N,/MCU/RCC_OSC_OUT*%
X141500000Y-99600000D03*
%TO.P,Y1,4,4*%
%TO.N,GND*%
X143700000Y-99600000D03*
%TD*%
D16*
%TO.P,R9,1*%
%TO.N,Net-(U1-VOUTB)*%
X140525000Y-74800000D03*
%TO.P,R9,2*%
%TO.N,adc_in1*%
X138700000Y-74800000D03*
%TD*%
D12*
%TO.P,C15,1*%
%TO.N,Net-(U3-VOUTA)*%
X146700000Y-88475000D03*
%TO.P,C15,2*%
%TO.N,Net-(C15-Pad2)*%
X146700000Y-86575000D03*
%TD*%
D30*
%TO.P,J3,1,Pin_1*%
%TO.N,+3V3*%
X168190000Y-95350000D03*
D31*
%TO.P,J3,2,Pin_2*%
%TO.N,/MCU/SWDIO*%
X165650000Y-95350000D03*
%TO.P,J3,3,Pin_3*%
%TO.N,/MCU/SWCLK*%
X163110000Y-95350000D03*
%TO.P,J3,4,Pin_4*%
%TO.N,GND*%
X160570000Y-95350000D03*
%TD*%
D30*
%TO.P,J2,1,Pin_1*%
%TO.N,vco_in*%
X137740000Y-78000000D03*
D31*
%TO.P,J2,2,Pin_2*%
%TO.N,GND*%
X137740000Y-80540000D03*
%TO.P,J2,3,Pin_3*%
%TO.N,+5V*%
X137740000Y-83080000D03*
%TD*%
D30*
%TO.P,J1,1,Pin_1*%
%TO.N,dac_out*%
X170000000Y-86850000D03*
D31*
%TO.P,J1,2,Pin_2*%
%TO.N,/baseband/I2_conn*%
X170000000Y-84310000D03*
%TO.P,J1,3,Pin_3*%
%TO.N,/baseband/Q2_conn*%
X170000000Y-81770000D03*
%TO.P,J1,4,Pin_4*%
%TO.N,GND*%
X170000000Y-79230000D03*
%TO.P,J1,5,Pin_5*%
%TO.N,/baseband/Q1_conn*%
X170000000Y-76690000D03*
%TO.P,J1,6,Pin_6*%
%TO.N,/baseband/I1_conn*%
X170000000Y-74150000D03*
%TD*%
D32*
%TO.N,Net-(U1--IN_A)*%
X150600000Y-77850000D03*
%TO.N,Net-(U1-VOUTA)*%
X150550000Y-76600000D03*
%TO.N,Net-(U1--IN_B)*%
X142330000Y-79130000D03*
%TO.N,Net-(U1-VOUTB)*%
X142387500Y-77862500D03*
%TO.N,Net-(U2--IN_A)*%
X162315000Y-77992500D03*
%TO.N,Net-(U2-VOUTA)*%
X162365000Y-76692500D03*
%TO.N,Net-(U2-VOUTB)*%
X153075000Y-77975000D03*
%TO.N,Net-(U2--IN_B)*%
X153050000Y-79250000D03*
%TO.N,Net-(U3-VOUTA)*%
X150525000Y-84800000D03*
%TO.N,Net-(U3--IN_A)*%
X150500000Y-86100000D03*
%TO.N,Net-(U3-VOUTB)*%
X141100000Y-86425000D03*
%TO.N,Net-(U3--IN_B)*%
X141100000Y-87325000D03*
%TO.N,Net-(U4-VOUTA)*%
X162465000Y-84967500D03*
%TO.N,Net-(U4--IN_A)*%
X162465000Y-86342500D03*
%TO.N,Net-(U4-VOUTB)*%
X153100000Y-86250000D03*
%TO.N,Net-(U4--IN_B)*%
X153125000Y-87525000D03*
%TO.N,GND*%
X159512500Y-106362500D03*
X136250000Y-88450000D03*
X163350000Y-98125000D03*
X161450000Y-93850000D03*
X168700000Y-112075000D03*
X150250000Y-110100000D03*
X163950000Y-110950000D03*
X172100000Y-77950000D03*
X172925000Y-101775000D03*
X143500000Y-110400000D03*
X171975000Y-80375000D03*
X153275000Y-111300000D03*
X150100000Y-111025000D03*
X160690000Y-81817500D03*
X168700000Y-102150000D03*
X148000000Y-101975000D03*
X150725000Y-99750000D03*
X163300000Y-97250000D03*
X156625000Y-111225000D03*
X150425000Y-88625000D03*
X142550000Y-102350000D03*
X132725000Y-110550000D03*
X150700000Y-102025000D03*
X135650000Y-81200000D03*
X162775000Y-101775000D03*
X135675000Y-79975000D03*
X132700000Y-109550000D03*
X162850000Y-111000000D03*
X140700000Y-96500000D03*
X139800000Y-109300000D03*
X144325000Y-106300000D03*
X153400000Y-104775000D03*
X164050000Y-107050000D03*
X166275000Y-110150000D03*
X144175000Y-110425000D03*
X155700000Y-99750000D03*
X149000000Y-81300000D03*
X145925000Y-93025000D03*
X140725000Y-95425000D03*
X150450000Y-80375000D03*
X153450000Y-102075000D03*
X160690000Y-89892500D03*
X162750000Y-102625000D03*
X139900000Y-97075000D03*
X132725000Y-111550000D03*
X160550000Y-111975000D03*
X132300000Y-82700000D03*
X144800000Y-93150000D03*
X171350000Y-112225000D03*
X141200000Y-102350000D03*
X167025000Y-112075000D03*
X155750000Y-102100000D03*
X170075000Y-101325000D03*
X169025000Y-101350000D03*
X155500000Y-111225000D03*
X160550000Y-106425000D03*
X148025000Y-104775000D03*
X162850000Y-104725000D03*
X150650000Y-97100000D03*
X170500000Y-96225000D03*
X168975000Y-110550000D03*
X166325000Y-102075000D03*
X147975000Y-97025000D03*
X155775000Y-104725000D03*
X141950000Y-109325000D03*
X155650000Y-97100000D03*
X136350000Y-90525000D03*
X148000000Y-99775000D03*
X143400000Y-106275000D03*
X159425000Y-112000000D03*
X171250000Y-101650000D03*
X148300000Y-89525000D03*
X159675000Y-93825000D03*
X170375000Y-99425000D03*
X162190000Y-80942500D03*
X132225000Y-83900000D03*
X150800000Y-104800000D03*
X146575000Y-91300000D03*
X169050000Y-103200000D03*
X172900000Y-112200000D03*
X154450000Y-111250000D03*
X137650000Y-105725000D03*
X170525000Y-97000000D03*
X138700000Y-97025000D03*
X132700000Y-108450000D03*
X153450000Y-99750000D03*
X153425000Y-97050000D03*
X162850000Y-103725000D03*
X162540000Y-88792500D03*
%TO.N,+5V*%
X161900000Y-107050000D03*
X169075000Y-97400000D03*
X162025000Y-100500000D03*
X161900000Y-109350000D03*
%TO.N,+2V5*%
X136325000Y-112325000D03*
%TO.N,+3V3*%
X150200000Y-108325000D03*
X144950000Y-95100000D03*
X157550000Y-96575000D03*
X174200000Y-97700000D03*
X136150000Y-93575000D03*
X143450000Y-103325000D03*
X173300000Y-95250000D03*
X174225000Y-95775000D03*
X150125000Y-109125000D03*
X156900000Y-107675000D03*
X168125000Y-93875000D03*
X156925000Y-108950000D03*
X168200000Y-96675000D03*
X148475000Y-92675000D03*
X146825000Y-92550000D03*
X136150000Y-95500000D03*
X144675000Y-102300000D03*
%TO.N,dac_out*%
X139875000Y-104775000D03*
%TO.N,vco_in*%
X155972699Y-93924588D03*
X158950000Y-101575000D03*
%TO.N,adc_in1*%
X137140000Y-101990000D03*
X144175000Y-103875000D03*
%TO.N,adc_in2*%
X150540000Y-72690000D03*
X144600000Y-104725000D03*
X153130000Y-72640000D03*
X137860000Y-102750000D03*
%TO.N,adc_in4*%
X138010000Y-101100000D03*
X147075000Y-106600000D03*
%TO.N,adc_in3*%
X152010000Y-78500000D03*
X151240000Y-74450000D03*
X145350000Y-105475000D03*
X138810000Y-103250000D03*
X151230000Y-71660000D03*
%TD*%
%TO.N,/baseband/I1_conn*%
D33*
X170000000Y-74150000D02*
X167750000Y-71900000D01*
X167750000Y-71900000D02*
X167100000Y-71900000D01*
%TO.N,Net-(C1-Pad2)*%
X165200000Y-71900000D02*
X163600000Y-71900000D01*
X163600000Y-71900000D02*
X163575000Y-71875000D01*
%TO.N,/baseband/Q1_conn*%
X167635000Y-74325000D02*
X167200000Y-74325000D01*
X170000000Y-76690000D02*
X167635000Y-74325000D01*
%TO.N,Net-(C2-Pad2)*%
X165300000Y-74325000D02*
X163625000Y-74325000D01*
X163625000Y-74325000D02*
X163600000Y-74300000D01*
%TO.N,Net-(U1--IN_A)*%
X152225000Y-71875000D02*
X161750000Y-71875000D01*
X146750000Y-76575000D02*
X148775000Y-76575000D01*
X148850000Y-76650000D02*
X150050000Y-77850000D01*
X148775000Y-76575000D02*
X148850000Y-76650000D01*
X150600000Y-77850000D02*
X151575000Y-77850000D01*
X152050000Y-77375000D02*
X152050000Y-72050000D01*
X151575000Y-77850000D02*
X152050000Y-77375000D01*
X152050000Y-72050000D02*
X152225000Y-71875000D01*
X150050000Y-77850000D02*
X150600000Y-77850000D01*
%TO.N,Net-(U1-VOUTA)*%
X146775000Y-80250000D02*
X145749000Y-79224000D01*
X150550000Y-76600000D02*
X150550000Y-75325000D01*
X150550000Y-75325000D02*
X150000000Y-74775000D01*
X148850000Y-74800000D02*
X146800000Y-74800000D01*
X150000000Y-74775000D02*
X149975000Y-74800000D01*
X145749000Y-75751000D02*
X146750000Y-74750000D01*
X146800000Y-74800000D02*
X146750000Y-74750000D01*
X145749000Y-79224000D02*
X145749000Y-75751000D01*
X149975000Y-74800000D02*
X148850000Y-74800000D01*
%TO.N,Net-(U1--IN_B)*%
X143110000Y-78350000D02*
X142330000Y-79130000D01*
X144575000Y-76775000D02*
X144500000Y-76700000D01*
X144575000Y-78350000D02*
X144575000Y-76775000D01*
X144575000Y-78350000D02*
X143110000Y-78350000D01*
X142500000Y-76700000D02*
X142425000Y-76775000D01*
X144500000Y-76700000D02*
X142500000Y-76700000D01*
%TO.N,Net-(U1-VOUTB)*%
X141487500Y-75812500D02*
X141487500Y-75762500D01*
X144500000Y-74875000D02*
X142425000Y-74875000D01*
X142001340Y-77862500D02*
X141399000Y-77260160D01*
X141487500Y-75812500D02*
X142425000Y-74875000D01*
X141399000Y-75901000D02*
X141487500Y-75812500D01*
X142387500Y-77862500D02*
X142001340Y-77862500D01*
X141487500Y-75762500D02*
X140525000Y-74800000D01*
X141399000Y-77260160D02*
X141399000Y-75901000D01*
%TO.N,Net-(U2--IN_A)*%
X162132500Y-78175000D02*
X162315000Y-77992500D01*
X158875000Y-78175000D02*
X158800000Y-78100000D01*
X163016000Y-77291500D02*
X162315000Y-77992500D01*
X161775000Y-74300000D02*
X163016000Y-75541000D01*
X160875000Y-78175000D02*
X158875000Y-78175000D01*
X163016000Y-75541000D02*
X163016000Y-77291500D01*
X160875000Y-78175000D02*
X162132500Y-78175000D01*
%TO.N,Net-(U2-VOUTA)*%
X162365000Y-76692500D02*
X162365000Y-76690000D01*
X157774000Y-79264840D02*
X157774000Y-80624000D01*
X161925000Y-76250000D02*
X161900000Y-76275000D01*
X157800000Y-77275000D02*
X157800000Y-79238840D01*
X161900000Y-76275000D02*
X160875000Y-76275000D01*
X162365000Y-76690000D02*
X161925000Y-76250000D01*
X160875000Y-76275000D02*
X158800000Y-76275000D01*
X157774000Y-80624000D02*
X158800000Y-81650000D01*
X157800000Y-79238840D02*
X157774000Y-79264840D01*
X158800000Y-76275000D02*
X157800000Y-77275000D01*
%TO.N,Net-(U2-VOUTB)*%
X154925000Y-74225000D02*
X154925000Y-76000000D01*
X153075000Y-77850000D02*
X154750000Y-76175000D01*
X154925000Y-76000000D02*
X154750000Y-76175000D01*
X156750000Y-76175000D02*
X156800000Y-76225000D01*
X154750000Y-76175000D02*
X156750000Y-76175000D01*
X153075000Y-77975000D02*
X153075000Y-77850000D01*
%TO.N,Net-(U2--IN_B)*%
X154775000Y-78050000D02*
X154750000Y-78075000D01*
X156750000Y-79800000D02*
X156750000Y-78100000D01*
X153600000Y-79800000D02*
X153050000Y-79250000D01*
X156750000Y-78100000D02*
X156800000Y-78050000D01*
X156750000Y-79800000D02*
X153600000Y-79800000D01*
X156800000Y-78050000D02*
X154775000Y-78050000D01*
%TO.N,Net-(C7-Pad2)*%
X147801000Y-79376000D02*
X146775000Y-78350000D01*
X147801000Y-80735160D02*
X147801000Y-79376000D01*
X144575000Y-80175000D02*
X145451000Y-81051000D01*
X145451000Y-81051000D02*
X147485160Y-81051000D01*
X147485160Y-81051000D02*
X147801000Y-80735160D01*
%TO.N,Net-(C8-Pad2)*%
X157576000Y-82451000D02*
X156750000Y-81625000D01*
X159826000Y-80776000D02*
X159826000Y-82135160D01*
X159826000Y-82135160D02*
X159510160Y-82451000D01*
X159510160Y-82451000D02*
X157576000Y-82451000D01*
X158800000Y-79750000D02*
X159826000Y-80776000D01*
%TO.N,Net-(C9-Pad2)*%
X166800000Y-86075000D02*
X166800000Y-87775000D01*
X166800000Y-87775000D02*
X166825000Y-87800000D01*
%TO.N,/baseband/I2_conn*%
X170000000Y-84310000D02*
X166935000Y-84310000D01*
X166935000Y-84310000D02*
X166800000Y-84175000D01*
%TO.N,/baseband/Q2_conn*%
X167580000Y-81770000D02*
X167150000Y-82200000D01*
X170000000Y-81770000D02*
X167580000Y-81770000D01*
%TO.N,Net-(C10-Pad2)*%
X163625000Y-82200000D02*
X163600000Y-82225000D01*
X165250000Y-82200000D02*
X163625000Y-82200000D01*
%TO.N,Net-(U3-VOUTA)*%
X148675000Y-83125000D02*
X146875000Y-83125000D01*
X145874000Y-85449660D02*
X145874000Y-84126000D01*
X148900000Y-83050000D02*
X148750000Y-83050000D01*
X145674000Y-85649660D02*
X145874000Y-85449660D01*
X146700000Y-88475000D02*
X145674000Y-87449000D01*
X150525000Y-84675000D02*
X148900000Y-83050000D01*
X145674000Y-87449000D02*
X145674000Y-85649660D01*
X150525000Y-84800000D02*
X150525000Y-84675000D01*
X145874000Y-84126000D02*
X146875000Y-83125000D01*
X148750000Y-83050000D02*
X148675000Y-83125000D01*
%TO.N,Net-(U3--IN_A)*%
X150050000Y-86100000D02*
X148900000Y-84950000D01*
X166825000Y-89625000D02*
X165125000Y-91325000D01*
X155725000Y-91325000D02*
X150500000Y-86100000D01*
X165125000Y-91325000D02*
X155725000Y-91325000D01*
X148900000Y-84950000D02*
X146875000Y-84950000D01*
X150500000Y-86100000D02*
X150050000Y-86100000D01*
%TO.N,Net-(U3-VOUTB)*%
X142575000Y-82950000D02*
X142725000Y-83100000D01*
X141100000Y-86425000D02*
X141100000Y-84725000D01*
X141100000Y-84725000D02*
X142725000Y-83100000D01*
X142725000Y-83100000D02*
X144800000Y-83100000D01*
X142575000Y-81250000D02*
X142575000Y-82950000D01*
X144800000Y-83100000D02*
X144850000Y-83150000D01*
%TO.N,Net-(U3--IN_B)*%
X144850000Y-86400000D02*
X144650000Y-86600000D01*
X142750000Y-84975000D02*
X142725000Y-85000000D01*
X144850000Y-84975000D02*
X144850000Y-86400000D01*
X144650000Y-86600000D02*
X143925000Y-87325000D01*
X143925000Y-87325000D02*
X141100000Y-87325000D01*
X144850000Y-84975000D02*
X142750000Y-84975000D01*
%TO.N,Net-(U4-VOUTA)*%
X157924000Y-87249000D02*
X157924000Y-88824000D01*
X159050000Y-84450000D02*
X158049000Y-85451000D01*
X161592500Y-84967500D02*
X161050000Y-84425000D01*
X157924000Y-88824000D02*
X158950000Y-89850000D01*
X158049000Y-87124000D02*
X157924000Y-87249000D01*
X162465000Y-84967500D02*
X161592500Y-84967500D01*
X161050000Y-84425000D02*
X158975000Y-84425000D01*
X158049000Y-85451000D02*
X158049000Y-87124000D01*
%TO.N,Net-(U4--IN_A)*%
X161775000Y-82225000D02*
X163116000Y-83566000D01*
X159100000Y-86325000D02*
X159050000Y-86275000D01*
X161050000Y-86325000D02*
X159100000Y-86325000D01*
X161050000Y-86325000D02*
X162447500Y-86325000D01*
X162447500Y-86325000D02*
X162465000Y-86342500D01*
X163116000Y-83566000D02*
X163116000Y-85691500D01*
X163116000Y-85691500D02*
X162465000Y-86342500D01*
%TO.N,Net-(U4-VOUTB)*%
X154975000Y-84425000D02*
X156875000Y-84425000D01*
X153150000Y-86250000D02*
X154975000Y-84425000D01*
X156875000Y-84425000D02*
X156925000Y-84375000D01*
X154350000Y-82400000D02*
X154350000Y-83800000D01*
X153100000Y-86250000D02*
X153150000Y-86250000D01*
X154350000Y-83800000D02*
X154975000Y-84425000D01*
%TO.N,Net-(U4--IN_B)*%
X156925000Y-86275000D02*
X155000000Y-86275000D01*
X156675000Y-87925000D02*
X156675000Y-86525000D01*
X153525000Y-87925000D02*
X153125000Y-87525000D01*
X155000000Y-86275000D02*
X154975000Y-86250000D01*
X156675000Y-86525000D02*
X156925000Y-86275000D01*
X156675000Y-87925000D02*
X153525000Y-87925000D01*
%TO.N,Net-(C15-Pad2)*%
X146700000Y-86575000D02*
X147726000Y-87601000D01*
X147726000Y-88960160D02*
X147410160Y-89276000D01*
X147410160Y-89276000D02*
X145501000Y-89276000D01*
X147726000Y-87601000D02*
X147726000Y-88960160D01*
X145501000Y-89276000D02*
X144650000Y-88425000D01*
%TO.N,Net-(C16-Pad2)*%
X158950000Y-87950000D02*
X159976000Y-88976000D01*
X159976000Y-90335160D02*
X159660160Y-90651000D01*
X159976000Y-88976000D02*
X159976000Y-90335160D01*
X159660160Y-90651000D02*
X157576000Y-90651000D01*
X157576000Y-90651000D02*
X156675000Y-89750000D01*
%TO.N,GND*%
D34*
X164975000Y-107050000D02*
X164050000Y-107050000D01*
X162250000Y-97625000D02*
X162925000Y-97625000D01*
X141200000Y-95425000D02*
X140725000Y-95425000D01*
X163225000Y-102250000D02*
X163125000Y-102250000D01*
D33*
X148650000Y-96350000D02*
X147975000Y-97025000D01*
D34*
X137675000Y-105700000D02*
X137650000Y-105725000D01*
X145600000Y-93350000D02*
X145925000Y-93025000D01*
X167295000Y-103045000D02*
X166325000Y-102075000D01*
X149875000Y-110475000D02*
X150250000Y-110100000D01*
X167870000Y-111250000D02*
X167850000Y-111250000D01*
X141598292Y-97900000D02*
X141500000Y-97900000D01*
X172050000Y-102610000D02*
X172090000Y-102610000D01*
X135450000Y-89550000D02*
X136250000Y-88750000D01*
X172050000Y-102450000D02*
X171250000Y-101650000D01*
X145600000Y-93950000D02*
X144800000Y-93150000D01*
X136250000Y-88750000D02*
X136250000Y-88450000D01*
X145600000Y-93950000D02*
X145600000Y-93350000D01*
X171350000Y-111950000D02*
X171350000Y-112225000D01*
X171000000Y-97000000D02*
X170525000Y-97000000D01*
X137740000Y-80540000D02*
X136310000Y-80540000D01*
X171280000Y-77950000D02*
X172100000Y-77950000D01*
X149050000Y-110475000D02*
X149600000Y-111025000D01*
D33*
X155150000Y-106550000D02*
X155150000Y-105350000D01*
D34*
X163350000Y-109775000D02*
X163350000Y-110350000D01*
D33*
X156175000Y-97625000D02*
X155650000Y-97100000D01*
D34*
X169475000Y-100375000D02*
X170075000Y-100975000D01*
X172050000Y-102610000D02*
X172050000Y-102450000D01*
X149050000Y-110475000D02*
X149875000Y-110475000D01*
X132950000Y-108450000D02*
X132700000Y-108450000D01*
X172050000Y-111250000D02*
X172900000Y-112100000D01*
X163350000Y-110500000D02*
X162850000Y-111000000D01*
X167811000Y-110646000D02*
X168879000Y-110646000D01*
X159950000Y-111200000D02*
X159950000Y-111375000D01*
X162250000Y-97030000D02*
X160570000Y-95350000D01*
X167295000Y-110130000D02*
X167811000Y-110646000D01*
X155975000Y-110425000D02*
X155975000Y-110575000D01*
X170080000Y-79230000D02*
X171275000Y-80425000D01*
X159950000Y-107100000D02*
X159950000Y-107025000D01*
X167825000Y-103200000D02*
X169050000Y-103200000D01*
X159950000Y-107025000D02*
X160550000Y-106425000D01*
X141700000Y-95925000D02*
X141700000Y-97700000D01*
X153225000Y-110900000D02*
X153225000Y-111275000D01*
X169475000Y-100900000D02*
X169025000Y-101350000D01*
X162250000Y-97625000D02*
X162250000Y-97030000D01*
X139825000Y-109325000D02*
X139800000Y-109300000D01*
X143775000Y-107125000D02*
X143400000Y-106750000D01*
D33*
X148000000Y-101975000D02*
X148000000Y-102450000D01*
D34*
X171500000Y-96500000D02*
X171000000Y-97000000D01*
X141700000Y-97700000D02*
X141500000Y-97900000D01*
X170000000Y-79230000D02*
X171280000Y-77950000D01*
X132375000Y-83900000D02*
X132225000Y-83900000D01*
X133500000Y-109000000D02*
X132950000Y-108450000D01*
X168879000Y-110646000D02*
X168975000Y-110550000D01*
X141700000Y-95925000D02*
X141200000Y-95425000D01*
X162250000Y-97625000D02*
X162750000Y-98125000D01*
X132300000Y-82875000D02*
X132300000Y-82700000D01*
X141125000Y-96500000D02*
X140700000Y-96500000D01*
X138865000Y-105700000D02*
X137675000Y-105700000D01*
X162750000Y-98125000D02*
X163300000Y-98125000D01*
X137740000Y-80540000D02*
X136240000Y-80540000D01*
D33*
X157575000Y-97625000D02*
X156175000Y-97625000D01*
D34*
X139900000Y-97275000D02*
X139900000Y-97075000D01*
X159950000Y-107100000D02*
X159950000Y-106800000D01*
X172090000Y-102610000D02*
X172925000Y-101775000D01*
X141425000Y-97825000D02*
X141500000Y-97900000D01*
X171500000Y-96500000D02*
X171275000Y-96275000D01*
X154450000Y-111125000D02*
X154450000Y-111250000D01*
X153725000Y-110400000D02*
X153225000Y-110900000D01*
X143298292Y-99600000D02*
X141598292Y-97900000D01*
D33*
X147825000Y-102625000D02*
X146225000Y-102625000D01*
D34*
X167870000Y-102610000D02*
X168240000Y-102610000D01*
X143775000Y-107125000D02*
X144325000Y-106575000D01*
X170550000Y-96275000D02*
X170500000Y-96225000D01*
X163125000Y-102250000D02*
X162750000Y-102625000D01*
X170075000Y-100975000D02*
X170075000Y-101325000D01*
X172050000Y-111250000D02*
X171350000Y-111950000D01*
X135450000Y-89550000D02*
X136350000Y-90450000D01*
X143700000Y-99600000D02*
X143298292Y-99600000D01*
X139350000Y-97825000D02*
X139900000Y-97275000D01*
D33*
X148000000Y-102450000D02*
X147825000Y-102625000D01*
D34*
X139350000Y-97825000D02*
X141425000Y-97825000D01*
X136240000Y-80540000D02*
X135675000Y-79975000D01*
X142525000Y-102325000D02*
X142550000Y-102350000D01*
X171375000Y-99425000D02*
X170375000Y-99425000D01*
D33*
X148650000Y-95200000D02*
X148650000Y-96350000D01*
D34*
X170000000Y-79230000D02*
X170080000Y-79230000D01*
X141700000Y-95925000D02*
X141125000Y-96500000D01*
X132725000Y-111550000D02*
X133225000Y-111050000D01*
D33*
X148650000Y-105400000D02*
X148650000Y-106550000D01*
X148025000Y-104775000D02*
X148650000Y-105400000D01*
D34*
X147875000Y-91425000D02*
X146700000Y-91425000D01*
X167875000Y-111250000D02*
X168700000Y-112075000D01*
X167295000Y-103730000D02*
X167295000Y-103045000D01*
X141850000Y-102325000D02*
X142525000Y-102325000D01*
X167850000Y-111250000D02*
X167025000Y-112075000D01*
X143775000Y-110675000D02*
X143500000Y-110400000D01*
X171275000Y-96275000D02*
X170550000Y-96275000D01*
X171275000Y-80425000D02*
X171925000Y-80425000D01*
X143775000Y-111225000D02*
X143775000Y-110675000D01*
X159950000Y-111475000D02*
X159425000Y-112000000D01*
X132850000Y-83425000D02*
X132375000Y-83900000D01*
X167295000Y-103730000D02*
X167825000Y-103200000D01*
X168240000Y-102610000D02*
X168700000Y-102150000D01*
X141000000Y-109325000D02*
X139825000Y-109325000D01*
X132950000Y-109550000D02*
X132700000Y-109550000D01*
X163225000Y-102250000D02*
X162775000Y-101800000D01*
X133500000Y-111050000D02*
X133225000Y-111050000D01*
X133500000Y-109000000D02*
X132950000Y-109550000D01*
X159950000Y-111375000D02*
X160550000Y-111975000D01*
X162775000Y-101800000D02*
X162775000Y-101775000D01*
X159950000Y-106800000D02*
X159512500Y-106362500D01*
X139350000Y-97825000D02*
X138700000Y-97175000D01*
X143775000Y-110825000D02*
X144175000Y-110425000D01*
X167295000Y-110130000D02*
X166295000Y-110130000D01*
D33*
X155150000Y-105350000D02*
X155775000Y-104725000D01*
D34*
X163350000Y-110350000D02*
X163950000Y-110950000D01*
X155500000Y-110900000D02*
X155500000Y-111225000D01*
X143775000Y-111225000D02*
X143775000Y-110825000D01*
X171925000Y-80425000D02*
X171975000Y-80375000D01*
X143400000Y-106750000D02*
X143400000Y-106275000D01*
X136310000Y-80540000D02*
X135650000Y-81200000D01*
X133225000Y-111050000D02*
X132725000Y-110550000D01*
X159950000Y-111200000D02*
X159950000Y-111475000D01*
X162925000Y-97625000D02*
X163300000Y-97250000D01*
X163275000Y-104350000D02*
X163275000Y-104150000D01*
X149600000Y-111025000D02*
X150100000Y-111025000D01*
X163350000Y-109775000D02*
X163350000Y-110500000D01*
X132850000Y-83425000D02*
X132300000Y-82875000D01*
X155975000Y-110425000D02*
X155500000Y-110900000D01*
X155975000Y-110575000D02*
X156625000Y-111225000D01*
X162900000Y-104725000D02*
X162850000Y-104725000D01*
X141850000Y-102325000D02*
X141225000Y-102325000D01*
X144325000Y-106575000D02*
X144325000Y-106300000D01*
X167870000Y-111250000D02*
X167875000Y-111250000D01*
X169475000Y-100375000D02*
X169475000Y-100900000D01*
X141000000Y-109325000D02*
X141950000Y-109325000D01*
X159512500Y-106362500D02*
X159450000Y-106300000D01*
X141225000Y-102325000D02*
X141200000Y-102350000D01*
X163275000Y-104150000D02*
X162850000Y-103725000D01*
X163275000Y-104350000D02*
X162900000Y-104725000D01*
X146700000Y-91425000D02*
X146575000Y-91300000D01*
X136350000Y-90450000D02*
X136350000Y-90525000D01*
X138700000Y-97175000D02*
X138700000Y-97025000D01*
X153725000Y-110400000D02*
X154450000Y-111125000D01*
X172900000Y-112100000D02*
X172900000Y-112200000D01*
X166295000Y-110130000D02*
X166275000Y-110150000D01*
%TO.N,+5V*%
X140251922Y-105873078D02*
X140251922Y-107715292D01*
X162025000Y-100500000D02*
X164525000Y-100500000D01*
X161250000Y-112825000D02*
X142600000Y-112825000D01*
X167375000Y-98400000D02*
X169400000Y-98400000D01*
X172037499Y-98475000D02*
X171375000Y-98475000D01*
D35*
X167375000Y-98400000D02*
X167375000Y-97625000D01*
D34*
X138999000Y-110911500D02*
X139137500Y-111050000D01*
X140825000Y-111050000D02*
X141000000Y-111225000D01*
D35*
X166225000Y-97600000D02*
X165900000Y-97925000D01*
D34*
X142600000Y-112825000D02*
X141000000Y-111225000D01*
X161900000Y-112175000D02*
X161250000Y-112825000D01*
D35*
X169475000Y-98475000D02*
X168600000Y-97600000D01*
D34*
X172488500Y-98926001D02*
X172037499Y-98475000D01*
X169475000Y-98475000D02*
X171375000Y-98475000D01*
X134750000Y-83425000D02*
X137395000Y-83425000D01*
D35*
X167400000Y-97600000D02*
X166225000Y-97600000D01*
D34*
X171375000Y-100375000D02*
X172037499Y-100375000D01*
X139137500Y-111050000D02*
X140825000Y-111050000D01*
X138999000Y-108968214D02*
X138999000Y-110911500D01*
X140251922Y-107715292D02*
X138999000Y-108968214D01*
X172488500Y-99923999D02*
X172488500Y-98926001D01*
X137395000Y-83425000D02*
X137740000Y-83080000D01*
X161900000Y-109350000D02*
X161900000Y-112175000D01*
D35*
X167375000Y-97625000D02*
X167400000Y-97600000D01*
D34*
X141375000Y-104750000D02*
X140251922Y-105873078D01*
X169400000Y-98400000D02*
X169475000Y-98475000D01*
D35*
X165900000Y-99125000D02*
X164525000Y-100500000D01*
X165900000Y-97925000D02*
X165900000Y-99125000D01*
X168600000Y-97600000D02*
X167400000Y-97600000D01*
D34*
X172037499Y-100375000D02*
X172488500Y-99923999D01*
X162700000Y-107050000D02*
X161900000Y-107050000D01*
%TO.N,+2V5*%
X135325000Y-111050000D02*
X135325000Y-109075000D01*
X138865000Y-106650000D02*
X136325000Y-109190000D01*
X136325000Y-111050000D02*
X136325000Y-112325000D01*
X135325000Y-109075000D02*
X135400000Y-109000000D01*
X136325000Y-111050000D02*
X135325000Y-111050000D01*
X137312500Y-111050000D02*
X136325000Y-111050000D01*
X136325000Y-109190000D02*
X136325000Y-111050000D01*
%TO.N,/MCU/RCC_OSC_IN*%
D33*
X143700000Y-96025000D02*
X143600000Y-95925000D01*
X143700000Y-97900000D02*
X143700000Y-96025000D01*
X146225000Y-99125000D02*
X144925000Y-99125000D01*
X144925000Y-99125000D02*
X143700000Y-97900000D01*
%TO.N,/MCU/RCC_OSC_OUT*%
X139475000Y-99600000D02*
X139350000Y-99725000D01*
X142401000Y-100501000D02*
X141500000Y-99600000D01*
X144385160Y-100501000D02*
X142401000Y-100501000D01*
X141500000Y-99600000D02*
X139475000Y-99600000D01*
X146225000Y-99625000D02*
X144701000Y-99625000D01*
X144701000Y-100185160D02*
X144385160Y-100501000D01*
X144701000Y-99625000D02*
X144701000Y-100185160D01*
%TO.N,VCC*%
D36*
X167824534Y-109330000D02*
X167295000Y-109330000D01*
D34*
X166665900Y-104530000D02*
X167295000Y-104530000D01*
X166269000Y-103394000D02*
X166269000Y-104133100D01*
D36*
X167295000Y-104530000D02*
X167833281Y-104530000D01*
D34*
X166269000Y-104133100D02*
X166665900Y-104530000D01*
X165700000Y-100525000D02*
X167375000Y-100525000D01*
X167344000Y-109379000D02*
X167642860Y-109379000D01*
D36*
X168622000Y-105318719D02*
X168622000Y-108532534D01*
D34*
X165125000Y-102250000D02*
X165125000Y-101100000D01*
X165125000Y-102250000D02*
X166269000Y-103394000D01*
X165125000Y-101100000D02*
X165700000Y-100525000D01*
X167295000Y-109330000D02*
X167344000Y-109379000D01*
D36*
X167833281Y-104530000D02*
X168622000Y-105318719D01*
D34*
X167642860Y-109379000D02*
X167740860Y-109281000D01*
D36*
X168622000Y-108532534D02*
X167824534Y-109330000D01*
%TO.N,/MCU/VCAP*%
X154650000Y-107575000D02*
X154650000Y-106550000D01*
X153725000Y-108500000D02*
X154650000Y-107575000D01*
%TO.N,+3V3*%
D34*
X155975000Y-108525000D02*
X156825000Y-107675000D01*
X136150000Y-93850000D02*
X136150000Y-93575000D01*
X143750000Y-102325000D02*
X143750000Y-103025000D01*
X143750000Y-102325000D02*
X144650000Y-102325000D01*
D35*
X173650000Y-98475000D02*
X174200000Y-97925000D01*
D34*
X135450000Y-94550000D02*
X136150000Y-95250000D01*
X149950000Y-108575000D02*
X150200000Y-108325000D01*
D36*
X146225000Y-103125000D02*
X144550000Y-103125000D01*
D34*
X147100000Y-92550000D02*
X146825000Y-92550000D01*
D35*
X174200000Y-97925000D02*
X174200000Y-97700000D01*
D36*
X144550000Y-103125000D02*
X143750000Y-102325000D01*
D35*
X173400000Y-96500000D02*
X173400000Y-95350000D01*
X173400000Y-95350000D02*
X173300000Y-95250000D01*
D34*
X149050000Y-108575000D02*
X149600000Y-109125000D01*
D36*
X148150000Y-95200000D02*
X148150000Y-93600000D01*
D35*
X168190000Y-96665000D02*
X168200000Y-96675000D01*
D34*
X173650000Y-96750000D02*
X173400000Y-96500000D01*
D35*
X174125000Y-95775000D02*
X174225000Y-95775000D01*
D34*
X144650000Y-102325000D02*
X144675000Y-102300000D01*
D35*
X168190000Y-95350000D02*
X168190000Y-96665000D01*
D34*
X147875000Y-93325000D02*
X148475000Y-92725000D01*
X156825000Y-107675000D02*
X156900000Y-107675000D01*
D36*
X145600000Y-95850000D02*
X147500000Y-95850000D01*
D34*
X136150000Y-95250000D02*
X136150000Y-95500000D01*
D36*
X148150000Y-93600000D02*
X147875000Y-93325000D01*
X146225000Y-96475000D02*
X145600000Y-95850000D01*
X147500000Y-95850000D02*
X148150000Y-95200000D01*
D34*
X155975000Y-106774000D02*
X155751000Y-106550000D01*
X173650000Y-98475000D02*
X173650000Y-96750000D01*
D35*
X157575000Y-97074000D02*
X159799000Y-97074000D01*
D34*
X147875000Y-93325000D02*
X147100000Y-92550000D01*
X149600000Y-109125000D02*
X150125000Y-109125000D01*
D36*
X146225000Y-97125000D02*
X146225000Y-96475000D01*
D34*
X155975000Y-108525000D02*
X156500000Y-108525000D01*
D36*
X149150000Y-106550000D02*
X149150000Y-108475000D01*
D34*
X155975000Y-108525000D02*
X155975000Y-106774000D01*
D36*
X144950000Y-95100000D02*
X145600000Y-95750000D01*
X157575000Y-96600000D02*
X157550000Y-96575000D01*
X145600000Y-95750000D02*
X145600000Y-95850000D01*
D34*
X143750000Y-103025000D02*
X143450000Y-103325000D01*
X135450000Y-94550000D02*
X136150000Y-93850000D01*
X172224000Y-95324000D02*
X168216000Y-95324000D01*
D36*
X157575000Y-97125000D02*
X157575000Y-96600000D01*
D34*
X156500000Y-108525000D02*
X156925000Y-108950000D01*
D35*
X159799000Y-97074000D02*
X160350000Y-97625000D01*
D34*
X168216000Y-95324000D02*
X168190000Y-95350000D01*
X148475000Y-92725000D02*
X148475000Y-92675000D01*
D36*
X149150000Y-108475000D02*
X149050000Y-108575000D01*
D35*
X173400000Y-96500000D02*
X174125000Y-95775000D01*
D34*
X173400000Y-96500000D02*
X172224000Y-95324000D01*
X149050000Y-108575000D02*
X149950000Y-108575000D01*
D36*
X168190000Y-93940000D02*
X168125000Y-93875000D01*
X168190000Y-95350000D02*
X168190000Y-93940000D01*
%TO.N,/MCU/VCO*%
D33*
X142577116Y-112022884D02*
X142601000Y-111999000D01*
X149650000Y-106550000D02*
X149650000Y-107358824D01*
X133775000Y-106675000D02*
X132749000Y-105649000D01*
X142281000Y-104412638D02*
X142281000Y-105744000D01*
X132749000Y-105649000D02*
X132749000Y-104289840D01*
X136000000Y-106675000D02*
X136050000Y-106625000D01*
X140547638Y-103974000D02*
X140727638Y-104154000D01*
X132749000Y-104289840D02*
X133064840Y-103974000D01*
X142281000Y-105744000D02*
X141375000Y-106650000D01*
X142022362Y-104154000D02*
X142281000Y-104412638D01*
X150901000Y-111144654D02*
X149970654Y-112075000D01*
X133775000Y-106675000D02*
X136000000Y-106675000D01*
X149970654Y-112075000D02*
X142629232Y-112075000D01*
X149965176Y-107674000D02*
X150469654Y-107674000D01*
X140727638Y-104154000D02*
X142022362Y-104154000D01*
X142629232Y-112075000D02*
X142577116Y-112022884D01*
X133064840Y-103974000D02*
X140547638Y-103974000D01*
X149650000Y-107358824D02*
X149965176Y-107674000D01*
X142601000Y-111999000D02*
X142601000Y-107876000D01*
X150469654Y-107674000D02*
X150901000Y-108105346D01*
X141375000Y-106650000D02*
X142601000Y-107876000D01*
X150901000Y-108105346D02*
X150901000Y-111144654D01*
%TO.N,dac_out*%
X136050000Y-104800000D02*
X138815000Y-104800000D01*
X138815000Y-104800000D02*
X138865000Y-104750000D01*
X139850000Y-104750000D02*
X139875000Y-104775000D01*
X138865000Y-104750000D02*
X139850000Y-104750000D01*
X136025000Y-104775000D02*
X136050000Y-104800000D01*
X133775000Y-104775000D02*
X136025000Y-104775000D01*
%TO.N,vco_in*%
X139425000Y-78000000D02*
X137740000Y-78000000D01*
X151050000Y-90200000D02*
X140575000Y-90200000D01*
X158900000Y-101625000D02*
X158950000Y-101575000D01*
X139525000Y-89150000D02*
X139525000Y-78100000D01*
X155972699Y-93924588D02*
X151899588Y-93924588D01*
X139525000Y-78100000D02*
X139425000Y-78000000D01*
X140575000Y-90200000D02*
X139525000Y-89150000D01*
X151300000Y-90450000D02*
X151050000Y-90200000D01*
X151899588Y-93924588D02*
X151300000Y-93325000D01*
X151300000Y-93325000D02*
X151300000Y-90450000D01*
X157575000Y-101625000D02*
X158900000Y-101625000D01*
%TO.N,/MCU/SWCLK*%
X163110000Y-94147919D02*
X162136081Y-93174000D01*
X157676000Y-93174000D02*
X155650000Y-95200000D01*
X162136081Y-93174000D02*
X157676000Y-93174000D01*
X163110000Y-95350000D02*
X163110000Y-94147919D01*
%TO.N,/MCU/SWDIO*%
X164499000Y-96501000D02*
X164537500Y-96462500D01*
X159088840Y-98125000D02*
X160788840Y-99825000D01*
X157575000Y-98125000D02*
X159088840Y-98125000D01*
X164200000Y-99825000D02*
X164537500Y-99487500D01*
X160788840Y-99825000D02*
X164200000Y-99825000D01*
X164537500Y-96462500D02*
X165650000Y-95350000D01*
X164537500Y-99487500D02*
X164537500Y-96462500D01*
%TO.N,Net-(J4-CC1)*%
X166686176Y-108180000D02*
X167295000Y-108180000D01*
X165175000Y-109691176D02*
X166686176Y-108180000D01*
X165175000Y-109775000D02*
X165175000Y-109691176D01*
%TO.N,Net-(J4-D--PadA7)*%
X167295000Y-107680000D02*
X166686176Y-107680000D01*
X166419000Y-106947176D02*
X166686176Y-106680000D01*
X166686176Y-106680000D02*
X167295000Y-106680000D01*
X166419000Y-107412824D02*
X166419000Y-106947176D01*
X164975000Y-108000000D02*
X165295000Y-107680000D01*
X165295000Y-107680000D02*
X167295000Y-107680000D01*
X166686176Y-107680000D02*
X166419000Y-107412824D01*
%TO.N,Net-(J4-CC2)*%
X165930000Y-105180000D02*
X167295000Y-105180000D01*
X165100000Y-104350000D02*
X165930000Y-105180000D01*
%TO.N,Net-(J4-D+-PadA6)*%
X167903824Y-106180000D02*
X168171000Y-106447176D01*
X167903824Y-107180000D02*
X167295000Y-107180000D01*
X168171000Y-106912824D02*
X167903824Y-107180000D01*
X165055000Y-106180000D02*
X167295000Y-106180000D01*
X164975000Y-106100000D02*
X165055000Y-106180000D01*
X167295000Y-106180000D02*
X167903824Y-106180000D01*
X168171000Y-106447176D02*
X168171000Y-106912824D01*
%TO.N,adc_in1*%
X144425000Y-103625000D02*
X144175000Y-103875000D01*
X136522900Y-101990000D02*
X130920000Y-96387100D01*
X146225000Y-103625000D02*
X144425000Y-103625000D01*
X137140000Y-101990000D02*
X136522900Y-101990000D01*
X137600000Y-74800000D02*
X138700000Y-74800000D01*
X130920000Y-81480000D02*
X137600000Y-74800000D01*
X130920000Y-96387100D02*
X130920000Y-81480000D01*
%TO.N,adc_in2*%
X130350000Y-80740000D02*
X130350000Y-96850000D01*
X146225000Y-104125000D02*
X145175000Y-104125000D01*
X153130000Y-74195000D02*
X153100000Y-74225000D01*
X130350000Y-96850000D02*
X136250000Y-102750000D01*
X150450000Y-72690000D02*
X138400000Y-72690000D01*
X136250000Y-102750000D02*
X137860000Y-102750000D01*
X138400000Y-72690000D02*
X130350000Y-80740000D01*
X144737500Y-104587500D02*
X144600000Y-104725000D01*
X144737500Y-104562500D02*
X144725000Y-104575000D01*
X144737500Y-104562500D02*
X144737500Y-104587500D01*
X145175000Y-104125000D02*
X144737500Y-104562500D01*
X137860000Y-102750000D02*
X138041514Y-102750000D01*
X153130000Y-72640000D02*
X153130000Y-74195000D01*
X138041514Y-102750000D02*
X138041593Y-102749921D01*
%TO.N,adc_in4*%
X138030000Y-101100000D02*
X138010000Y-101100000D01*
X147125000Y-106550000D02*
X147075000Y-106600000D01*
X148150000Y-106550000D02*
X147125000Y-106550000D01*
X140760000Y-81240000D02*
X140750000Y-81250000D01*
X138891000Y-76849000D02*
X140760000Y-78718000D01*
X136730000Y-101100000D02*
X131551000Y-95921000D01*
X136589000Y-76849000D02*
X138891000Y-76849000D01*
X138010000Y-101100000D02*
X136730000Y-101100000D01*
X131551000Y-95921000D02*
X131551000Y-81887000D01*
X140760000Y-78718000D02*
X140760000Y-81240000D01*
X131551000Y-81887000D02*
X136589000Y-76849000D01*
%TO.N,adc_in3*%
X151245000Y-71665000D02*
X137705000Y-71665000D01*
X152010000Y-81885000D02*
X152010000Y-78580000D01*
X136890000Y-72480000D02*
X129730000Y-79640000D01*
X151240000Y-74520000D02*
X151240000Y-74450000D01*
X129730000Y-79640000D02*
X129730000Y-80320000D01*
X151240000Y-74450000D02*
X151240000Y-71670000D01*
X136243000Y-103573000D02*
X136420000Y-103573000D01*
X145375000Y-105475000D02*
X145350000Y-105475000D01*
X151230000Y-74530000D02*
X151240000Y-74520000D01*
X129730000Y-80320000D02*
X129730000Y-97060000D01*
X151240000Y-71670000D02*
X151245000Y-71665000D01*
X146225000Y-104625000D02*
X145375000Y-105475000D01*
X152525000Y-82400000D02*
X152010000Y-81885000D01*
X137705000Y-71665000D02*
X136890000Y-72480000D01*
X151245000Y-71665000D02*
X151290000Y-71620000D01*
X129730000Y-97060000D02*
X136243000Y-103573000D01*
X138487000Y-103573000D02*
X138780000Y-103280000D01*
X138060000Y-103573000D02*
X138487000Y-103573000D01*
X136420000Y-103573000D02*
X138060000Y-103573000D01*
%TO.N,/MCU/BOOT0*%
X150150000Y-93400000D02*
X149950000Y-93200000D01*
X150150000Y-95200000D02*
X150150000Y-93400000D01*
%TO.N,/MCU/SW_BOOT0*%
X139426000Y-90624000D02*
X138000000Y-92050000D01*
X149199000Y-90624000D02*
X139426000Y-90624000D01*
X138000000Y-92050000D02*
X135450000Y-92050000D01*
X149950000Y-91375000D02*
X149199000Y-90624000D01*
%TO.N,/MCU/button_record*%
X158651000Y-102392176D02*
X158651000Y-106799000D01*
X158651000Y-106799000D02*
X158350000Y-107100000D01*
X158350000Y-107100000D02*
X158350000Y-111200000D01*
X157575000Y-102125000D02*
X158383824Y-102125000D01*
X158383824Y-102125000D02*
X158651000Y-102392176D01*
%TO.N,/MCU/nRST*%
X140400000Y-101900000D02*
X140400000Y-103050000D01*
X144242176Y-101299000D02*
X141001000Y-101299000D01*
X141001000Y-101299000D02*
X140400000Y-101900000D01*
X140400000Y-103050000D02*
X141100000Y-103750000D01*
X146225000Y-100125000D02*
X145416176Y-100125000D01*
X145416176Y-100125000D02*
X144242176Y-101299000D01*
X145375000Y-107125000D02*
X145375000Y-111225000D01*
X145375000Y-106429346D02*
X145375000Y-107125000D01*
X141100000Y-103750000D02*
X142695654Y-103750000D01*
X142695654Y-103750000D02*
X145375000Y-106429346D01*
%TO.N,/MCU/USB_OTG_FS_DM*%
X162700000Y-108000000D02*
X161475000Y-108000000D01*
X161475000Y-108000000D02*
X161201000Y-107726000D01*
X158651000Y-99892176D02*
X158633824Y-99875000D01*
X158651000Y-99951000D02*
X158651000Y-99892176D01*
X158432824Y-99174000D02*
X157874000Y-99174000D01*
X158651000Y-99857824D02*
X158651000Y-99392176D01*
X157825000Y-99125000D02*
X157575000Y-99125000D01*
X161201000Y-102501000D02*
X158651000Y-99951000D01*
X157575000Y-99174000D02*
X157575000Y-99125000D01*
X161201000Y-107726000D02*
X161201000Y-102501000D01*
X158633824Y-99875000D02*
X158651000Y-99857824D01*
X157874000Y-99174000D02*
X157825000Y-99125000D01*
X158651000Y-99392176D02*
X158432824Y-99174000D01*
%TO.N,/MCU/USB_OTG_FS_DP*%
X161602000Y-105002000D02*
X161602000Y-102252000D01*
X162700000Y-106100000D02*
X161602000Y-105002000D01*
X157975000Y-98625000D02*
X157575000Y-98625000D01*
X158432824Y-98674000D02*
X158024000Y-98674000D01*
X158598924Y-98773000D02*
X158531824Y-98773000D01*
X158024000Y-98674000D02*
X157975000Y-98625000D01*
X159052000Y-99702000D02*
X159052000Y-99226076D01*
X158531824Y-98773000D02*
X158432824Y-98674000D01*
X161602000Y-102252000D02*
X159052000Y-99702000D01*
X159052000Y-99226076D02*
X158598924Y-98773000D01*
%TD*%
M02*
