%TF.GenerationSoftware,KiCad,Pcbnew,10.0.0-10.0.0~ubuntu24.04.1*%
%TF.CreationDate,2026-03-31T07:03:56+02:00*%
%TF.ProjectId,k_lc7,6b5f6c63-372e-46b6-9963-61645f706362,rev?*%
%TF.SameCoordinates,Original*%
%TF.FileFunction,Copper,L2,Inr*%
%TF.FilePolarity,Positive*%
%FSLAX46Y46*%
G04 Gerber Fmt 4.6, Leading zero omitted, Abs format (unit mm)*
G04 Created by KiCad (PCBNEW 10.0.0-10.0.0~ubuntu24.04.1) date 2026-03-31 07:03:56*
%MOMM*%
%LPD*%
G01*
G04 APERTURE LIST*
%TA.AperFunction,HeatsinkPad*%
%ADD10O,2.100000X1.000000*%
%TD*%
%TA.AperFunction,HeatsinkPad*%
%ADD11O,1.800000X1.000000*%
%TD*%
%TA.AperFunction,ComponentPad*%
%ADD12R,1.700000X1.700000*%
%TD*%
%TA.AperFunction,ComponentPad*%
%ADD13C,1.700000*%
%TD*%
%TA.AperFunction,ViaPad*%
%ADD14C,0.700000*%
%TD*%
G04 APERTURE END LIST*
D10*
%TO.N,GND*%
%TO.C,J4*%
X167870000Y-111250000D03*
D11*
X172050000Y-111250000D03*
D10*
X167870000Y-102610000D03*
D11*
X172050000Y-102610000D03*
%TD*%
D12*
%TO.N,+3V3*%
%TO.C,J3*%
X168190000Y-95350000D03*
D13*
%TO.N,/MCU/SWDIO*%
X165650000Y-95350000D03*
%TO.N,/MCU/SWCLK*%
X163110000Y-95350000D03*
%TO.N,GND*%
X160570000Y-95350000D03*
%TD*%
D12*
%TO.N,vco_in*%
%TO.C,J2*%
X137740000Y-78000000D03*
D13*
%TO.N,GND*%
X137740000Y-80540000D03*
%TO.N,+5V*%
X137740000Y-83080000D03*
%TD*%
D12*
%TO.N,dac_out*%
%TO.C,J1*%
X170000000Y-86850000D03*
D13*
%TO.N,/baseband/I2_conn*%
X170000000Y-84310000D03*
%TO.N,/baseband/Q2_conn*%
X170000000Y-81770000D03*
%TO.N,GND*%
X170000000Y-79230000D03*
%TO.N,/baseband/Q1_conn*%
X170000000Y-76690000D03*
%TO.N,/baseband/I1_conn*%
X170000000Y-74150000D03*
%TD*%
D14*
%TO.N,Net-(U1--IN_A)*%
X150600000Y-77850000D03*
%TO.N,Net-(U1-VOUTA)*%
X150550000Y-76600000D03*
%TO.N,Net-(U1--IN_B)*%
X142330000Y-79130000D03*
%TO.N,Net-(U1-VOUTB)*%
X142387500Y-77862500D03*
%TO.N,Net-(U2--IN_A)*%
X162315000Y-77992500D03*
%TO.N,Net-(U2-VOUTA)*%
X162365000Y-76692500D03*
%TO.N,Net-(U2-VOUTB)*%
X153075000Y-77975000D03*
%TO.N,Net-(U2--IN_B)*%
X153050000Y-79250000D03*
%TO.N,Net-(U3-VOUTA)*%
X150525000Y-84800000D03*
%TO.N,Net-(U3--IN_A)*%
X150500000Y-86100000D03*
%TO.N,Net-(U3-VOUTB)*%
X141100000Y-86425000D03*
%TO.N,Net-(U3--IN_B)*%
X141100000Y-87325000D03*
%TO.N,Net-(U4-VOUTA)*%
X162465000Y-84967500D03*
%TO.N,Net-(U4--IN_A)*%
X162465000Y-86342500D03*
%TO.N,Net-(U4-VOUTB)*%
X153100000Y-86250000D03*
%TO.N,Net-(U4--IN_B)*%
X153125000Y-87525000D03*
%TO.N,GND*%
X159512500Y-106362500D03*
X136250000Y-88450000D03*
X163350000Y-98125000D03*
X161450000Y-93850000D03*
X168700000Y-112075000D03*
X150250000Y-110100000D03*
X163950000Y-110950000D03*
X172100000Y-77950000D03*
X172925000Y-101775000D03*
X143500000Y-110400000D03*
X171975000Y-80375000D03*
X153275000Y-111300000D03*
X150100000Y-111025000D03*
X160690000Y-81817500D03*
X168700000Y-102150000D03*
X148000000Y-101975000D03*
X150725000Y-99750000D03*
X163300000Y-97250000D03*
X156625000Y-111225000D03*
X150425000Y-88625000D03*
X142550000Y-102350000D03*
X132725000Y-110550000D03*
X150700000Y-102025000D03*
X135650000Y-81200000D03*
X162775000Y-101775000D03*
X135675000Y-79975000D03*
X132700000Y-109550000D03*
X162850000Y-111000000D03*
X140700000Y-96500000D03*
X139800000Y-109300000D03*
X144325000Y-106300000D03*
X153400000Y-104775000D03*
X164050000Y-107050000D03*
X166275000Y-110150000D03*
X144175000Y-110425000D03*
X155700000Y-99750000D03*
X149000000Y-81300000D03*
X145925000Y-93025000D03*
X140725000Y-95425000D03*
X150450000Y-80375000D03*
X153450000Y-102075000D03*
X160690000Y-89892500D03*
X162750000Y-102625000D03*
X139900000Y-97075000D03*
X132725000Y-111550000D03*
X160550000Y-111975000D03*
X132300000Y-82700000D03*
X144800000Y-93150000D03*
X171350000Y-112225000D03*
X141200000Y-102350000D03*
X167025000Y-112075000D03*
X155750000Y-102100000D03*
X170075000Y-101325000D03*
X169025000Y-101350000D03*
X155500000Y-111225000D03*
X160550000Y-106425000D03*
X148025000Y-104775000D03*
X162850000Y-104725000D03*
X150650000Y-97100000D03*
X170500000Y-96225000D03*
X168975000Y-110550000D03*
X166325000Y-102075000D03*
X147975000Y-97025000D03*
X155775000Y-104725000D03*
X141950000Y-109325000D03*
X155650000Y-97100000D03*
X136350000Y-90525000D03*
X148000000Y-99775000D03*
X143400000Y-106275000D03*
X159425000Y-112000000D03*
X171250000Y-101650000D03*
X148300000Y-89525000D03*
X159675000Y-93825000D03*
X170375000Y-99425000D03*
X162190000Y-80942500D03*
X132225000Y-83900000D03*
X150800000Y-104800000D03*
X146575000Y-91300000D03*
X169050000Y-103200000D03*
X172900000Y-112200000D03*
X154450000Y-111250000D03*
X137650000Y-105725000D03*
X170525000Y-97000000D03*
X138700000Y-97025000D03*
X132700000Y-108450000D03*
X153450000Y-99750000D03*
X153425000Y-97050000D03*
X162850000Y-103725000D03*
X162540000Y-88792500D03*
%TO.N,+5V*%
X161900000Y-107050000D03*
X169075000Y-97400000D03*
X162025000Y-100500000D03*
X161900000Y-109350000D03*
%TO.N,+2V5*%
X136325000Y-112325000D03*
%TO.N,+3V3*%
X150200000Y-108325000D03*
X144950000Y-95100000D03*
X157550000Y-96575000D03*
X174200000Y-97700000D03*
X136150000Y-93575000D03*
X143450000Y-103325000D03*
X173300000Y-95250000D03*
X174225000Y-95775000D03*
X150125000Y-109125000D03*
X156900000Y-107675000D03*
X168125000Y-93875000D03*
X156925000Y-108950000D03*
X168200000Y-96675000D03*
X148475000Y-92675000D03*
X146825000Y-92550000D03*
X136150000Y-95500000D03*
X144675000Y-102300000D03*
%TO.N,dac_out*%
X139875000Y-104775000D03*
%TO.N,vco_in*%
X155972699Y-93924588D03*
X158950000Y-101575000D03*
%TO.N,adc_in1*%
X137140000Y-101990000D03*
X144175000Y-103875000D03*
%TO.N,adc_in2*%
X150540000Y-72690000D03*
X144600000Y-104725000D03*
X153130000Y-72640000D03*
X137860000Y-102750000D03*
%TO.N,adc_in4*%
X138010000Y-101100000D03*
X147075000Y-106600000D03*
%TO.N,adc_in3*%
X152010000Y-78500000D03*
X151240000Y-74450000D03*
X145350000Y-105475000D03*
X138810000Y-103250000D03*
X151230000Y-71660000D03*
%TD*%
%TA.AperFunction,Conductor*%
%TO.N,GND*%
G36*
X174617539Y-70220185D02*
G01*
X174663294Y-70272989D01*
X174674500Y-70324500D01*
X174674500Y-94855035D01*
X174654815Y-94922074D01*
X174602011Y-94967829D01*
X174532853Y-94977773D01*
X174503048Y-94969596D01*
X174473086Y-94957185D01*
X174473074Y-94957182D01*
X174308771Y-94924500D01*
X174308767Y-94924500D01*
X174168602Y-94924500D01*
X174101563Y-94904815D01*
X174055808Y-94852011D01*
X174054040Y-94847950D01*
X174053704Y-94847140D01*
X174053704Y-94847139D01*
X174053703Y-94847137D01*
X174053701Y-94847134D01*
X174053699Y-94847130D01*
X173960626Y-94707838D01*
X173960623Y-94707834D01*
X173842162Y-94589373D01*
X173702860Y-94496295D01*
X173548082Y-94432184D01*
X173548074Y-94432182D01*
X173383771Y-94399500D01*
X173383767Y-94399500D01*
X173216233Y-94399500D01*
X173216228Y-94399500D01*
X173051925Y-94432182D01*
X173051917Y-94432184D01*
X172897139Y-94496295D01*
X172757837Y-94589373D01*
X172639373Y-94707837D01*
X172546295Y-94847139D01*
X172482184Y-95001917D01*
X172482182Y-95001925D01*
X172449500Y-95166228D01*
X172449500Y-95333771D01*
X172482182Y-95498074D01*
X172482184Y-95498082D01*
X172546295Y-95652860D01*
X172639373Y-95792162D01*
X172757837Y-95910626D01*
X172817512Y-95950499D01*
X172897137Y-96003703D01*
X172897138Y-96003703D01*
X172897139Y-96003704D01*
X172932201Y-96018227D01*
X173051918Y-96067816D01*
X173164969Y-96090303D01*
X173216228Y-96100499D01*
X173216232Y-96100500D01*
X173356398Y-96100500D01*
X173423437Y-96120185D01*
X173469192Y-96172989D01*
X173470960Y-96177050D01*
X173471295Y-96177860D01*
X173564373Y-96317162D01*
X173682837Y-96435626D01*
X173727203Y-96465270D01*
X173822137Y-96528703D01*
X173976918Y-96592816D01*
X174080383Y-96613396D01*
X174142293Y-96645780D01*
X174176867Y-96706496D01*
X174173128Y-96776265D01*
X174132262Y-96832937D01*
X174080383Y-96856630D01*
X173951923Y-96882182D01*
X173951917Y-96882184D01*
X173797139Y-96946295D01*
X173657837Y-97039373D01*
X173539373Y-97157837D01*
X173446295Y-97297139D01*
X173382184Y-97451917D01*
X173382182Y-97451925D01*
X173349500Y-97616228D01*
X173349500Y-97783771D01*
X173382182Y-97948074D01*
X173382184Y-97948082D01*
X173446295Y-98102860D01*
X173539373Y-98242162D01*
X173657837Y-98360626D01*
X173725499Y-98405836D01*
X173797137Y-98453703D01*
X173951918Y-98517816D01*
X174116228Y-98550499D01*
X174116232Y-98550500D01*
X174116233Y-98550500D01*
X174283768Y-98550500D01*
X174283769Y-98550499D01*
X174448082Y-98517816D01*
X174503049Y-98495047D01*
X174572516Y-98487579D01*
X174634995Y-98518853D01*
X174670648Y-98578942D01*
X174674500Y-98609609D01*
X174674500Y-113075500D01*
X174654815Y-113142539D01*
X174602011Y-113188294D01*
X174550500Y-113199500D01*
X136952651Y-113199500D01*
X136885612Y-113179815D01*
X136839857Y-113127011D01*
X136829913Y-113057853D01*
X136858938Y-112994297D01*
X136864970Y-112987819D01*
X136985623Y-112867165D01*
X136985626Y-112867162D01*
X137078703Y-112727863D01*
X137142816Y-112573082D01*
X137175500Y-112408767D01*
X137175500Y-112241233D01*
X137142816Y-112076918D01*
X137078703Y-111922137D01*
X137047537Y-111875494D01*
X136985626Y-111782837D01*
X136867165Y-111664376D01*
X136867161Y-111664373D01*
X136797984Y-111618151D01*
X136727863Y-111571297D01*
X136727858Y-111571295D01*
X136573082Y-111507184D01*
X136573074Y-111507182D01*
X136408771Y-111474500D01*
X136408767Y-111474500D01*
X136241233Y-111474500D01*
X136241228Y-111474500D01*
X136076925Y-111507182D01*
X136076917Y-111507184D01*
X135922139Y-111571295D01*
X135782837Y-111664373D01*
X135664373Y-111782837D01*
X135571295Y-111922139D01*
X135507184Y-112076917D01*
X135507182Y-112076925D01*
X135474500Y-112241228D01*
X135474500Y-112408771D01*
X135507182Y-112573074D01*
X135507184Y-112573082D01*
X135571295Y-112727860D01*
X135664373Y-112867162D01*
X135785030Y-112987819D01*
X135818515Y-113049142D01*
X135813531Y-113118834D01*
X135771659Y-113174767D01*
X135706195Y-113199184D01*
X135697349Y-113199500D01*
X129524500Y-113199500D01*
X129457461Y-113179815D01*
X129411706Y-113127011D01*
X129400500Y-113075500D01*
X129400500Y-111000000D01*
X166350138Y-111000000D01*
X167153012Y-111000000D01*
X167135795Y-111009940D01*
X167079940Y-111065795D01*
X167040444Y-111134204D01*
X167020000Y-111210504D01*
X167020000Y-111289496D01*
X167040444Y-111365796D01*
X167079940Y-111434205D01*
X167135795Y-111490060D01*
X167153012Y-111500000D01*
X166350138Y-111500000D01*
X166358430Y-111541690D01*
X166358430Y-111541692D01*
X166433807Y-111723671D01*
X166433814Y-111723684D01*
X166543248Y-111887462D01*
X166543251Y-111887466D01*
X166682533Y-112026748D01*
X166682537Y-112026751D01*
X166846315Y-112136185D01*
X166846328Y-112136192D01*
X167028306Y-112211569D01*
X167028318Y-112211572D01*
X167221504Y-112249999D01*
X167221508Y-112250000D01*
X167620000Y-112250000D01*
X167620000Y-111550000D01*
X168120000Y-111550000D01*
X168120000Y-112250000D01*
X168518492Y-112250000D01*
X168518495Y-112249999D01*
X168711681Y-112211572D01*
X168711693Y-112211569D01*
X168893671Y-112136192D01*
X168893684Y-112136185D01*
X169057462Y-112026751D01*
X169057466Y-112026748D01*
X169196748Y-111887466D01*
X169196751Y-111887462D01*
X169306185Y-111723684D01*
X169306192Y-111723671D01*
X169381569Y-111541692D01*
X169381569Y-111541690D01*
X169389862Y-111500000D01*
X168586988Y-111500000D01*
X168604205Y-111490060D01*
X168660060Y-111434205D01*
X168699556Y-111365796D01*
X168720000Y-111289496D01*
X168720000Y-111210504D01*
X168699556Y-111134204D01*
X168660060Y-111065795D01*
X168604205Y-111009940D01*
X168586988Y-111000000D01*
X169389862Y-111000000D01*
X170680138Y-111000000D01*
X171483012Y-111000000D01*
X171465795Y-111009940D01*
X171409940Y-111065795D01*
X171370444Y-111134204D01*
X171350000Y-111210504D01*
X171350000Y-111289496D01*
X171370444Y-111365796D01*
X171409940Y-111434205D01*
X171465795Y-111490060D01*
X171483012Y-111500000D01*
X170680138Y-111500000D01*
X170688430Y-111541690D01*
X170688430Y-111541692D01*
X170763807Y-111723671D01*
X170763814Y-111723684D01*
X170873248Y-111887462D01*
X170873251Y-111887466D01*
X171012533Y-112026748D01*
X171012537Y-112026751D01*
X171176315Y-112136185D01*
X171176328Y-112136192D01*
X171358306Y-112211569D01*
X171358318Y-112211572D01*
X171551504Y-112249999D01*
X171551508Y-112250000D01*
X171800000Y-112250000D01*
X171800000Y-111550000D01*
X172300000Y-111550000D01*
X172300000Y-112250000D01*
X172548492Y-112250000D01*
X172548495Y-112249999D01*
X172741681Y-112211572D01*
X172741693Y-112211569D01*
X172923671Y-112136192D01*
X172923684Y-112136185D01*
X173087462Y-112026751D01*
X173087466Y-112026748D01*
X173226748Y-111887466D01*
X173226751Y-111887462D01*
X173336185Y-111723684D01*
X173336192Y-111723671D01*
X173411569Y-111541692D01*
X173411569Y-111541690D01*
X173419862Y-111500000D01*
X172616988Y-111500000D01*
X172634205Y-111490060D01*
X172690060Y-111434205D01*
X172729556Y-111365796D01*
X172750000Y-111289496D01*
X172750000Y-111210504D01*
X172729556Y-111134204D01*
X172690060Y-111065795D01*
X172634205Y-111009940D01*
X172616988Y-111000000D01*
X173419862Y-111000000D01*
X173411569Y-110958309D01*
X173411569Y-110958307D01*
X173336192Y-110776328D01*
X173336185Y-110776315D01*
X173226751Y-110612537D01*
X173226748Y-110612533D01*
X173087466Y-110473251D01*
X173087462Y-110473248D01*
X172923684Y-110363814D01*
X172923671Y-110363807D01*
X172741693Y-110288430D01*
X172741681Y-110288427D01*
X172548495Y-110250000D01*
X172300000Y-110250000D01*
X172300000Y-110950000D01*
X171800000Y-110950000D01*
X171800000Y-110250000D01*
X171551504Y-110250000D01*
X171358318Y-110288427D01*
X171358306Y-110288430D01*
X171176328Y-110363807D01*
X171176315Y-110363814D01*
X171012537Y-110473248D01*
X171012533Y-110473251D01*
X170873251Y-110612533D01*
X170873248Y-110612537D01*
X170763814Y-110776315D01*
X170763807Y-110776328D01*
X170688430Y-110958307D01*
X170688430Y-110958309D01*
X170680138Y-111000000D01*
X169389862Y-111000000D01*
X169381569Y-110958309D01*
X169381569Y-110958307D01*
X169306192Y-110776328D01*
X169306185Y-110776315D01*
X169196751Y-110612537D01*
X169196748Y-110612533D01*
X169057466Y-110473251D01*
X169057462Y-110473248D01*
X168893684Y-110363814D01*
X168893674Y-110363809D01*
X168884157Y-110359867D01*
X168829754Y-110316026D01*
X168807689Y-110249731D01*
X168824969Y-110182032D01*
X168828648Y-110176597D01*
X168830512Y-110173367D01*
X168830515Y-110173365D01*
X168906281Y-110042135D01*
X168945500Y-109895766D01*
X168945500Y-109744234D01*
X168906281Y-109597865D01*
X168830515Y-109466635D01*
X168723365Y-109359485D01*
X168657750Y-109321602D01*
X168592136Y-109283719D01*
X168518950Y-109264109D01*
X168445766Y-109244500D01*
X168294234Y-109244500D01*
X168147863Y-109283719D01*
X168016635Y-109359485D01*
X168016632Y-109359487D01*
X167909487Y-109466632D01*
X167909485Y-109466635D01*
X167833719Y-109597863D01*
X167794500Y-109744234D01*
X167794500Y-109895765D01*
X167833719Y-110042136D01*
X167869265Y-110103703D01*
X167909485Y-110173365D01*
X168016635Y-110280515D01*
X168058000Y-110304397D01*
X168106216Y-110354964D01*
X168120000Y-110411784D01*
X168120000Y-110950000D01*
X167620000Y-110950000D01*
X167620000Y-110250000D01*
X167221504Y-110250000D01*
X167028318Y-110288427D01*
X167028306Y-110288430D01*
X166846328Y-110363807D01*
X166846315Y-110363814D01*
X166682537Y-110473248D01*
X166682533Y-110473251D01*
X166543251Y-110612533D01*
X166543248Y-110612537D01*
X166433814Y-110776315D01*
X166433807Y-110776328D01*
X166358430Y-110958307D01*
X166358430Y-110958309D01*
X166350138Y-111000000D01*
X129400500Y-111000000D01*
X129400500Y-109041228D01*
X149274500Y-109041228D01*
X149274500Y-109208771D01*
X149307182Y-109373074D01*
X149307184Y-109373082D01*
X149371295Y-109527860D01*
X149464373Y-109667162D01*
X149582837Y-109785626D01*
X149605098Y-109800500D01*
X149722137Y-109878703D01*
X149876918Y-109942816D01*
X150041228Y-109975499D01*
X150041232Y-109975500D01*
X150041233Y-109975500D01*
X150208768Y-109975500D01*
X150208769Y-109975499D01*
X150373082Y-109942816D01*
X150527863Y-109878703D01*
X150667162Y-109785626D01*
X150785626Y-109667162D01*
X150878703Y-109527863D01*
X150942816Y-109373082D01*
X150975500Y-109208767D01*
X150975500Y-109041233D01*
X150942816Y-108876918D01*
X150934233Y-108856197D01*
X150926763Y-108786728D01*
X150945691Y-108739852D01*
X150953703Y-108727863D01*
X151017816Y-108573082D01*
X151050500Y-108408767D01*
X151050500Y-108241233D01*
X151017816Y-108076918D01*
X150968227Y-107957201D01*
X150953704Y-107922139D01*
X150939245Y-107900500D01*
X150917406Y-107867815D01*
X150860626Y-107782837D01*
X150742162Y-107664373D01*
X150632692Y-107591228D01*
X156049500Y-107591228D01*
X156049500Y-107758771D01*
X156082182Y-107923074D01*
X156082184Y-107923082D01*
X156146295Y-108077860D01*
X156239373Y-108217162D01*
X156259582Y-108237371D01*
X156293067Y-108298694D01*
X156288083Y-108368386D01*
X156267763Y-108403706D01*
X156264377Y-108407831D01*
X156171295Y-108547139D01*
X156107184Y-108701917D01*
X156107182Y-108701925D01*
X156074500Y-108866228D01*
X156074500Y-109033771D01*
X156107182Y-109198074D01*
X156107184Y-109198082D01*
X156171295Y-109352860D01*
X156264373Y-109492162D01*
X156382837Y-109610626D01*
X156467450Y-109667162D01*
X156522137Y-109703703D01*
X156676918Y-109767816D01*
X156841228Y-109800499D01*
X156841232Y-109800500D01*
X156841233Y-109800500D01*
X157008768Y-109800500D01*
X157008769Y-109800499D01*
X157173082Y-109767816D01*
X157327863Y-109703703D01*
X157467162Y-109610626D01*
X157585626Y-109492162D01*
X157678703Y-109352863D01*
X157714589Y-109266228D01*
X161049500Y-109266228D01*
X161049500Y-109433771D01*
X161082182Y-109598074D01*
X161082184Y-109598082D01*
X161146295Y-109752860D01*
X161239373Y-109892162D01*
X161357837Y-110010626D01*
X161450494Y-110072537D01*
X161497137Y-110103703D01*
X161651918Y-110167816D01*
X161816228Y-110200499D01*
X161816232Y-110200500D01*
X161816233Y-110200500D01*
X161983768Y-110200500D01*
X161983769Y-110200499D01*
X162148082Y-110167816D01*
X162302863Y-110103703D01*
X162442162Y-110010626D01*
X162560626Y-109892162D01*
X162653703Y-109752863D01*
X162717816Y-109598082D01*
X162750500Y-109433767D01*
X162750500Y-109266233D01*
X162717816Y-109101918D01*
X162653703Y-108947137D01*
X162606781Y-108876913D01*
X162560626Y-108807837D01*
X162442162Y-108689373D01*
X162302860Y-108596295D01*
X162148082Y-108532184D01*
X162148074Y-108532182D01*
X161983771Y-108499500D01*
X161983767Y-108499500D01*
X161816233Y-108499500D01*
X161816228Y-108499500D01*
X161651925Y-108532182D01*
X161651917Y-108532184D01*
X161497139Y-108596295D01*
X161357837Y-108689373D01*
X161239373Y-108807837D01*
X161146295Y-108947139D01*
X161082184Y-109101917D01*
X161082182Y-109101925D01*
X161049500Y-109266228D01*
X157714589Y-109266228D01*
X157742816Y-109198082D01*
X157775500Y-109033767D01*
X157775500Y-108866233D01*
X157742816Y-108701918D01*
X157678703Y-108547137D01*
X157646873Y-108499500D01*
X157585626Y-108407837D01*
X157565417Y-108387628D01*
X157531932Y-108326305D01*
X157536916Y-108256613D01*
X157557246Y-108221281D01*
X157560625Y-108217163D01*
X157560626Y-108217162D01*
X157653703Y-108077863D01*
X157717816Y-107923082D01*
X157750500Y-107758767D01*
X157750500Y-107591233D01*
X157717816Y-107426918D01*
X157653703Y-107272137D01*
X157622537Y-107225494D01*
X157560626Y-107132837D01*
X157442162Y-107014373D01*
X157370107Y-106966228D01*
X161049500Y-106966228D01*
X161049500Y-107133771D01*
X161082182Y-107298074D01*
X161082184Y-107298082D01*
X161146295Y-107452860D01*
X161239373Y-107592162D01*
X161357837Y-107710626D01*
X161429886Y-107758767D01*
X161497137Y-107803703D01*
X161651918Y-107867816D01*
X161816228Y-107900499D01*
X161816232Y-107900500D01*
X161816233Y-107900500D01*
X161983768Y-107900500D01*
X161983769Y-107900499D01*
X162148082Y-107867816D01*
X162302863Y-107803703D01*
X162442162Y-107710626D01*
X162560626Y-107592162D01*
X162653703Y-107452863D01*
X162717816Y-107298082D01*
X162750500Y-107133767D01*
X162750500Y-106966233D01*
X162717816Y-106801918D01*
X162653703Y-106647137D01*
X162622537Y-106600494D01*
X162560626Y-106507837D01*
X162442162Y-106389373D01*
X162302860Y-106296295D01*
X162148082Y-106232184D01*
X162148074Y-106232182D01*
X161983771Y-106199500D01*
X161983767Y-106199500D01*
X161816233Y-106199500D01*
X161816228Y-106199500D01*
X161651925Y-106232182D01*
X161651917Y-106232184D01*
X161497139Y-106296295D01*
X161357837Y-106389373D01*
X161239373Y-106507837D01*
X161146295Y-106647139D01*
X161082184Y-106801917D01*
X161082182Y-106801925D01*
X161049500Y-106966228D01*
X157370107Y-106966228D01*
X157302860Y-106921295D01*
X157148082Y-106857184D01*
X157148074Y-106857182D01*
X156983771Y-106824500D01*
X156983767Y-106824500D01*
X156816233Y-106824500D01*
X156816228Y-106824500D01*
X156651925Y-106857182D01*
X156651917Y-106857184D01*
X156497139Y-106921295D01*
X156357837Y-107014373D01*
X156239373Y-107132837D01*
X156146295Y-107272139D01*
X156082184Y-107426917D01*
X156082182Y-107426925D01*
X156049500Y-107591228D01*
X150632692Y-107591228D01*
X150602860Y-107571295D01*
X150448082Y-107507184D01*
X150448074Y-107507182D01*
X150283771Y-107474500D01*
X150283767Y-107474500D01*
X150116233Y-107474500D01*
X150116228Y-107474500D01*
X149951925Y-107507182D01*
X149951917Y-107507184D01*
X149797139Y-107571295D01*
X149657837Y-107664373D01*
X149539373Y-107782837D01*
X149446295Y-107922139D01*
X149382184Y-108076917D01*
X149382182Y-108076925D01*
X149349500Y-108241228D01*
X149349500Y-108408771D01*
X149382182Y-108573074D01*
X149382185Y-108573086D01*
X149390767Y-108593804D01*
X149398236Y-108663273D01*
X149379310Y-108710145D01*
X149371295Y-108722139D01*
X149307184Y-108876917D01*
X149307182Y-108876925D01*
X149274500Y-109041228D01*
X129400500Y-109041228D01*
X129400500Y-106516228D01*
X146224500Y-106516228D01*
X146224500Y-106683771D01*
X146257182Y-106848074D01*
X146257184Y-106848082D01*
X146321295Y-107002860D01*
X146414373Y-107142162D01*
X146532837Y-107260626D01*
X146625494Y-107322537D01*
X146672137Y-107353703D01*
X146826918Y-107417816D01*
X146991228Y-107450499D01*
X146991232Y-107450500D01*
X146991233Y-107450500D01*
X147158768Y-107450500D01*
X147158769Y-107450499D01*
X147323082Y-107417816D01*
X147477863Y-107353703D01*
X147617162Y-107260626D01*
X147735626Y-107142162D01*
X147828703Y-107002863D01*
X147892816Y-106848082D01*
X147925500Y-106683767D01*
X147925500Y-106516233D01*
X147892816Y-106351918D01*
X147828703Y-106197137D01*
X147797537Y-106150494D01*
X147735626Y-106057837D01*
X147617162Y-105939373D01*
X147477860Y-105846295D01*
X147323082Y-105782184D01*
X147323074Y-105782182D01*
X147158771Y-105749500D01*
X147158767Y-105749500D01*
X146991233Y-105749500D01*
X146991228Y-105749500D01*
X146826925Y-105782182D01*
X146826917Y-105782184D01*
X146672139Y-105846295D01*
X146532837Y-105939373D01*
X146414373Y-106057837D01*
X146321295Y-106197139D01*
X146257184Y-106351917D01*
X146257182Y-106351925D01*
X146224500Y-106516228D01*
X129400500Y-106516228D01*
X129400500Y-101906228D01*
X136289500Y-101906228D01*
X136289500Y-102073771D01*
X136322182Y-102238074D01*
X136322184Y-102238082D01*
X136386295Y-102392860D01*
X136479373Y-102532162D01*
X136597837Y-102650626D01*
X136676010Y-102702859D01*
X136737137Y-102743703D01*
X136891918Y-102807816D01*
X136927705Y-102814934D01*
X136989615Y-102847316D01*
X137024191Y-102908031D01*
X137025132Y-102912359D01*
X137042182Y-102998076D01*
X137042184Y-102998082D01*
X137106295Y-103152860D01*
X137199373Y-103292162D01*
X137317837Y-103410626D01*
X137398466Y-103464500D01*
X137457137Y-103503703D01*
X137457138Y-103503703D01*
X137457139Y-103503704D01*
X137464087Y-103506582D01*
X137611918Y-103567816D01*
X137776228Y-103600499D01*
X137776232Y-103600500D01*
X137949859Y-103600500D01*
X137949859Y-103602005D01*
X138011197Y-103613635D01*
X138057812Y-103655131D01*
X138149373Y-103792161D01*
X138149376Y-103792165D01*
X138267837Y-103910626D01*
X138339663Y-103958618D01*
X138407137Y-104003703D01*
X138561918Y-104067816D01*
X138726228Y-104100499D01*
X138726232Y-104100500D01*
X138726233Y-104100500D01*
X138893768Y-104100500D01*
X138893769Y-104100499D01*
X139058082Y-104067816D01*
X139058087Y-104067813D01*
X139060763Y-104067003D01*
X139062238Y-104066989D01*
X139064057Y-104066628D01*
X139064125Y-104066972D01*
X139130630Y-104066377D01*
X139189744Y-104103623D01*
X139219337Y-104166916D01*
X139210013Y-104236161D01*
X139199864Y-104254552D01*
X139121298Y-104372134D01*
X139121296Y-104372138D01*
X139057184Y-104526917D01*
X139057182Y-104526925D01*
X139024500Y-104691228D01*
X139024500Y-104858771D01*
X139057182Y-105023074D01*
X139057184Y-105023082D01*
X139121295Y-105177860D01*
X139214373Y-105317162D01*
X139332837Y-105435626D01*
X139425494Y-105497537D01*
X139472137Y-105528703D01*
X139626918Y-105592816D01*
X139791228Y-105625499D01*
X139791232Y-105625500D01*
X139791233Y-105625500D01*
X139958768Y-105625500D01*
X139958769Y-105625499D01*
X140123082Y-105592816D01*
X140277863Y-105528703D01*
X140417162Y-105435626D01*
X140535626Y-105317162D01*
X140628703Y-105177863D01*
X140692816Y-105023082D01*
X140725500Y-104858767D01*
X140725500Y-104691233D01*
X140692816Y-104526918D01*
X140628703Y-104372137D01*
X140565709Y-104277860D01*
X140535626Y-104232837D01*
X140417162Y-104114373D01*
X140277860Y-104021295D01*
X140123082Y-103957184D01*
X140123074Y-103957182D01*
X139958771Y-103924500D01*
X139958767Y-103924500D01*
X139791233Y-103924500D01*
X139791228Y-103924500D01*
X139626912Y-103957184D01*
X139624220Y-103958001D01*
X139622742Y-103958014D01*
X139620943Y-103958372D01*
X139620875Y-103958030D01*
X139554353Y-103958618D01*
X139495244Y-103921363D01*
X139465660Y-103858066D01*
X139474993Y-103788822D01*
X139485129Y-103770456D01*
X139563703Y-103652863D01*
X139627816Y-103498082D01*
X139660500Y-103333767D01*
X139660500Y-103241228D01*
X142599500Y-103241228D01*
X142599500Y-103408771D01*
X142632182Y-103573074D01*
X142632184Y-103573082D01*
X142696295Y-103727860D01*
X142789373Y-103867162D01*
X142907837Y-103985626D01*
X143000494Y-104047537D01*
X143047137Y-104078703D01*
X143201918Y-104142816D01*
X143256710Y-104153714D01*
X143315027Y-104165315D01*
X143376938Y-104197700D01*
X143405396Y-104239478D01*
X143421293Y-104277856D01*
X143421295Y-104277860D01*
X143514373Y-104417162D01*
X143632835Y-104535624D01*
X143632838Y-104535626D01*
X143694391Y-104576754D01*
X143739195Y-104630365D01*
X143749500Y-104679856D01*
X143749500Y-104808771D01*
X143782182Y-104973074D01*
X143782184Y-104973082D01*
X143846295Y-105127860D01*
X143939373Y-105267162D01*
X144057837Y-105385626D01*
X144066229Y-105391233D01*
X144197137Y-105478703D01*
X144351918Y-105542816D01*
X144378188Y-105548041D01*
X144421013Y-105556560D01*
X144482924Y-105588945D01*
X144517498Y-105649660D01*
X144518439Y-105653985D01*
X144532182Y-105723076D01*
X144532184Y-105723082D01*
X144596295Y-105877860D01*
X144689373Y-106017162D01*
X144807837Y-106135626D01*
X144899895Y-106197137D01*
X144947137Y-106228703D01*
X144947138Y-106228703D01*
X144947139Y-106228704D01*
X144982201Y-106243227D01*
X145101918Y-106292816D01*
X145266228Y-106325499D01*
X145266232Y-106325500D01*
X145266233Y-106325500D01*
X145433768Y-106325500D01*
X145433769Y-106325499D01*
X145598082Y-106292816D01*
X145752863Y-106228703D01*
X145892162Y-106135626D01*
X146010626Y-106017162D01*
X146103703Y-105877863D01*
X146167816Y-105723082D01*
X146200500Y-105558767D01*
X146200500Y-105391233D01*
X146167816Y-105226918D01*
X146103703Y-105072137D01*
X146070920Y-105023074D01*
X146010626Y-104932837D01*
X145892162Y-104814373D01*
X145752860Y-104721295D01*
X145598082Y-104657184D01*
X145598076Y-104657182D01*
X145528985Y-104643439D01*
X145467074Y-104611054D01*
X145432500Y-104550338D01*
X145431560Y-104546013D01*
X145417817Y-104476925D01*
X145417816Y-104476918D01*
X145353703Y-104322137D01*
X145322537Y-104275494D01*
X145260626Y-104182837D01*
X145142163Y-104064374D01*
X145134431Y-104059208D01*
X145134431Y-104059207D01*
X145080609Y-104023245D01*
X145035804Y-103969633D01*
X145025500Y-103920143D01*
X145025500Y-103791232D01*
X145025499Y-103791228D01*
X145004694Y-103686635D01*
X144992816Y-103626918D01*
X144928703Y-103472137D01*
X144897537Y-103425494D01*
X144835626Y-103332837D01*
X144834829Y-103332040D01*
X144834545Y-103331521D01*
X144831761Y-103328128D01*
X144832404Y-103327599D01*
X144801344Y-103270717D01*
X144806328Y-103201025D01*
X144848200Y-103145092D01*
X144898316Y-103122742D01*
X144923082Y-103117816D01*
X145077863Y-103053703D01*
X145217162Y-102960626D01*
X145335626Y-102842162D01*
X145428703Y-102702863D01*
X145492816Y-102548082D01*
X145525500Y-102383767D01*
X145525500Y-102216233D01*
X145492816Y-102051918D01*
X145428703Y-101897137D01*
X145379221Y-101823082D01*
X145335626Y-101757837D01*
X145217165Y-101639376D01*
X145217157Y-101639370D01*
X145140689Y-101588276D01*
X145140639Y-101588243D01*
X145077860Y-101546295D01*
X144944916Y-101491228D01*
X158099500Y-101491228D01*
X158099500Y-101658771D01*
X158132182Y-101823074D01*
X158132184Y-101823082D01*
X158196295Y-101977860D01*
X158289373Y-102117162D01*
X158407837Y-102235626D01*
X158489557Y-102290229D01*
X158547137Y-102328703D01*
X158701918Y-102392816D01*
X158866228Y-102425499D01*
X158866232Y-102425500D01*
X158866233Y-102425500D01*
X159033768Y-102425500D01*
X159033769Y-102425499D01*
X159198082Y-102392816D01*
X159277306Y-102360000D01*
X166350138Y-102360000D01*
X167153012Y-102360000D01*
X167135795Y-102369940D01*
X167079940Y-102425795D01*
X167040444Y-102494204D01*
X167020000Y-102570504D01*
X167020000Y-102649496D01*
X167040444Y-102725796D01*
X167079940Y-102794205D01*
X167135795Y-102850060D01*
X167153012Y-102860000D01*
X166350138Y-102860000D01*
X166358430Y-102901690D01*
X166358430Y-102901692D01*
X166433807Y-103083671D01*
X166433814Y-103083684D01*
X166543248Y-103247462D01*
X166543251Y-103247466D01*
X166682533Y-103386748D01*
X166682537Y-103386751D01*
X166846315Y-103496185D01*
X166846328Y-103496192D01*
X167028306Y-103571569D01*
X167028318Y-103571572D01*
X167221504Y-103609999D01*
X167221508Y-103610000D01*
X167620000Y-103610000D01*
X167620000Y-102910000D01*
X168120000Y-102910000D01*
X168120000Y-103448215D01*
X168100315Y-103515254D01*
X168058002Y-103555601D01*
X168016638Y-103579483D01*
X168016632Y-103579487D01*
X167909487Y-103686632D01*
X167909485Y-103686635D01*
X167833719Y-103817863D01*
X167796390Y-103957182D01*
X167794500Y-103964234D01*
X167794500Y-104115766D01*
X167812471Y-104182837D01*
X167833719Y-104262136D01*
X167868361Y-104322137D01*
X167909485Y-104393365D01*
X168016635Y-104500515D01*
X168147865Y-104576281D01*
X168294234Y-104615500D01*
X168294236Y-104615500D01*
X168445764Y-104615500D01*
X168445766Y-104615500D01*
X168592135Y-104576281D01*
X168723365Y-104500515D01*
X168830515Y-104393365D01*
X168906281Y-104262135D01*
X168945500Y-104115766D01*
X168945500Y-103964234D01*
X168906281Y-103817865D01*
X168830515Y-103686635D01*
X168830513Y-103686633D01*
X168826451Y-103679597D01*
X168828654Y-103678325D01*
X168808041Y-103625022D01*
X168822073Y-103556576D01*
X168870882Y-103506582D01*
X168884163Y-103500129D01*
X168893682Y-103496186D01*
X168893684Y-103496185D01*
X169057462Y-103386751D01*
X169057466Y-103386748D01*
X169196748Y-103247466D01*
X169196751Y-103247462D01*
X169306185Y-103083684D01*
X169306192Y-103083671D01*
X169381569Y-102901692D01*
X169381569Y-102901690D01*
X169389862Y-102860000D01*
X168586988Y-102860000D01*
X168604205Y-102850060D01*
X168660060Y-102794205D01*
X168699556Y-102725796D01*
X168720000Y-102649496D01*
X168720000Y-102570504D01*
X168699556Y-102494204D01*
X168660060Y-102425795D01*
X168604205Y-102369940D01*
X168586988Y-102360000D01*
X169389862Y-102360000D01*
X170680138Y-102360000D01*
X171483012Y-102360000D01*
X171465795Y-102369940D01*
X171409940Y-102425795D01*
X171370444Y-102494204D01*
X171350000Y-102570504D01*
X171350000Y-102649496D01*
X171370444Y-102725796D01*
X171409940Y-102794205D01*
X171465795Y-102850060D01*
X171483012Y-102860000D01*
X170680138Y-102860000D01*
X170688430Y-102901690D01*
X170688430Y-102901692D01*
X170763807Y-103083671D01*
X170763814Y-103083684D01*
X170873248Y-103247462D01*
X170873251Y-103247466D01*
X171012533Y-103386748D01*
X171012537Y-103386751D01*
X171176315Y-103496185D01*
X171176328Y-103496192D01*
X171358306Y-103571569D01*
X171358318Y-103571572D01*
X171551504Y-103609999D01*
X171551508Y-103610000D01*
X171800000Y-103610000D01*
X171800000Y-102910000D01*
X172300000Y-102910000D01*
X172300000Y-103610000D01*
X172548492Y-103610000D01*
X172548495Y-103609999D01*
X172741681Y-103571572D01*
X172741693Y-103571569D01*
X172923671Y-103496192D01*
X172923684Y-103496185D01*
X173087462Y-103386751D01*
X173087466Y-103386748D01*
X173226748Y-103247466D01*
X173226751Y-103247462D01*
X173336185Y-103083684D01*
X173336192Y-103083671D01*
X173411569Y-102901692D01*
X173411569Y-102901690D01*
X173419862Y-102860000D01*
X172616988Y-102860000D01*
X172634205Y-102850060D01*
X172690060Y-102794205D01*
X172729556Y-102725796D01*
X172750000Y-102649496D01*
X172750000Y-102570504D01*
X172729556Y-102494204D01*
X172690060Y-102425795D01*
X172634205Y-102369940D01*
X172616988Y-102360000D01*
X173419862Y-102360000D01*
X173411569Y-102318309D01*
X173411569Y-102318307D01*
X173336192Y-102136328D01*
X173336185Y-102136315D01*
X173226751Y-101972537D01*
X173226748Y-101972533D01*
X173087466Y-101833251D01*
X173087462Y-101833248D01*
X172923684Y-101723814D01*
X172923671Y-101723807D01*
X172741693Y-101648430D01*
X172741681Y-101648427D01*
X172548495Y-101610000D01*
X172300000Y-101610000D01*
X172300000Y-102310000D01*
X171800000Y-102310000D01*
X171800000Y-101610000D01*
X171551504Y-101610000D01*
X171358318Y-101648427D01*
X171358306Y-101648430D01*
X171176328Y-101723807D01*
X171176315Y-101723814D01*
X171012537Y-101833248D01*
X171012533Y-101833251D01*
X170873251Y-101972533D01*
X170873248Y-101972537D01*
X170763814Y-102136315D01*
X170763807Y-102136328D01*
X170688430Y-102318307D01*
X170688430Y-102318309D01*
X170680138Y-102360000D01*
X169389862Y-102360000D01*
X169381569Y-102318309D01*
X169381569Y-102318307D01*
X169306192Y-102136328D01*
X169306185Y-102136315D01*
X169196751Y-101972537D01*
X169196748Y-101972533D01*
X169057466Y-101833251D01*
X169057462Y-101833248D01*
X168893684Y-101723814D01*
X168893671Y-101723807D01*
X168711693Y-101648430D01*
X168711681Y-101648427D01*
X168518495Y-101610000D01*
X168120000Y-101610000D01*
X168120000Y-102310000D01*
X167620000Y-102310000D01*
X167620000Y-101610000D01*
X167221504Y-101610000D01*
X167028318Y-101648427D01*
X167028306Y-101648430D01*
X166846328Y-101723807D01*
X166846315Y-101723814D01*
X166682537Y-101833248D01*
X166682533Y-101833251D01*
X166543251Y-101972533D01*
X166543248Y-101972537D01*
X166433814Y-102136315D01*
X166433807Y-102136328D01*
X166358430Y-102318307D01*
X166358430Y-102318309D01*
X166350138Y-102360000D01*
X159277306Y-102360000D01*
X159352863Y-102328703D01*
X159492162Y-102235626D01*
X159610626Y-102117162D01*
X159703703Y-101977863D01*
X159767816Y-101823082D01*
X159800500Y-101658767D01*
X159800500Y-101491233D01*
X159767816Y-101326918D01*
X159708520Y-101183767D01*
X159703704Y-101172139D01*
X159696011Y-101160626D01*
X159644967Y-101084233D01*
X159610626Y-101032837D01*
X159492162Y-100914373D01*
X159352860Y-100821295D01*
X159198082Y-100757184D01*
X159198074Y-100757182D01*
X159033771Y-100724500D01*
X159033767Y-100724500D01*
X158866233Y-100724500D01*
X158866228Y-100724500D01*
X158701925Y-100757182D01*
X158701917Y-100757184D01*
X158547139Y-100821295D01*
X158407837Y-100914373D01*
X158289373Y-101032837D01*
X158196295Y-101172139D01*
X158132184Y-101326917D01*
X158132182Y-101326925D01*
X158099500Y-101491228D01*
X144944916Y-101491228D01*
X144923082Y-101482184D01*
X144923074Y-101482182D01*
X144758771Y-101449500D01*
X144758767Y-101449500D01*
X144591233Y-101449500D01*
X144591228Y-101449500D01*
X144426925Y-101482182D01*
X144426917Y-101482184D01*
X144272139Y-101546295D01*
X144132837Y-101639373D01*
X144014373Y-101757837D01*
X143921295Y-101897139D01*
X143857184Y-102051917D01*
X143857182Y-102051925D01*
X143824500Y-102216228D01*
X143824500Y-102381235D01*
X143804815Y-102448274D01*
X143752011Y-102494029D01*
X143682853Y-102503973D01*
X143676309Y-102502853D01*
X143643339Y-102496295D01*
X143533767Y-102474500D01*
X143366233Y-102474500D01*
X143366228Y-102474500D01*
X143201925Y-102507182D01*
X143201917Y-102507184D01*
X143047139Y-102571295D01*
X142907837Y-102664373D01*
X142789373Y-102782837D01*
X142696295Y-102922139D01*
X142632184Y-103076917D01*
X142632182Y-103076925D01*
X142599500Y-103241228D01*
X139660500Y-103241228D01*
X139660500Y-103166233D01*
X139627816Y-103001918D01*
X139563703Y-102847137D01*
X139494591Y-102743704D01*
X139470626Y-102707837D01*
X139352162Y-102589373D01*
X139212860Y-102496295D01*
X139058082Y-102432184D01*
X139058074Y-102432182D01*
X138893771Y-102399500D01*
X138893767Y-102399500D01*
X138726233Y-102399500D01*
X138720142Y-102399500D01*
X138720142Y-102398000D01*
X138658778Y-102386351D01*
X138612188Y-102344868D01*
X138520626Y-102207838D01*
X138520623Y-102207834D01*
X138402165Y-102089376D01*
X138402158Y-102089371D01*
X138381415Y-102075510D01*
X138336610Y-102021897D01*
X138327904Y-101952572D01*
X138358060Y-101889545D01*
X138402857Y-101857847D01*
X138412863Y-101853703D01*
X138552162Y-101760626D01*
X138670626Y-101642162D01*
X138763703Y-101502863D01*
X138827816Y-101348082D01*
X138860500Y-101183767D01*
X138860500Y-101016233D01*
X138827816Y-100851918D01*
X138763703Y-100697137D01*
X138687952Y-100583768D01*
X138670626Y-100557837D01*
X138552162Y-100439373D01*
X138517523Y-100416228D01*
X161174500Y-100416228D01*
X161174500Y-100583771D01*
X161207182Y-100748074D01*
X161207184Y-100748082D01*
X161271295Y-100902860D01*
X161364373Y-101042162D01*
X161482837Y-101160626D01*
X161575494Y-101222537D01*
X161622137Y-101253703D01*
X161776918Y-101317816D01*
X161929037Y-101348074D01*
X161941228Y-101350499D01*
X161941232Y-101350500D01*
X161941233Y-101350500D01*
X162108768Y-101350500D01*
X162108769Y-101350499D01*
X162273082Y-101317816D01*
X162427863Y-101253703D01*
X162567162Y-101160626D01*
X162685626Y-101042162D01*
X162778703Y-100902863D01*
X162842816Y-100748082D01*
X162875500Y-100583767D01*
X162875500Y-100416233D01*
X162842816Y-100251918D01*
X162778703Y-100097137D01*
X162747537Y-100050494D01*
X162685626Y-99957837D01*
X162567162Y-99839373D01*
X162427860Y-99746295D01*
X162273082Y-99682184D01*
X162273074Y-99682182D01*
X162108771Y-99649500D01*
X162108767Y-99649500D01*
X161941233Y-99649500D01*
X161941228Y-99649500D01*
X161776925Y-99682182D01*
X161776917Y-99682184D01*
X161622139Y-99746295D01*
X161482837Y-99839373D01*
X161364373Y-99957837D01*
X161271295Y-100097139D01*
X161207184Y-100251917D01*
X161207182Y-100251925D01*
X161174500Y-100416228D01*
X138517523Y-100416228D01*
X138412860Y-100346295D01*
X138258082Y-100282184D01*
X138258074Y-100282182D01*
X138093771Y-100249500D01*
X138093767Y-100249500D01*
X137926233Y-100249500D01*
X137926228Y-100249500D01*
X137761925Y-100282182D01*
X137761917Y-100282184D01*
X137607139Y-100346295D01*
X137467837Y-100439373D01*
X137349373Y-100557837D01*
X137256295Y-100697139D01*
X137192184Y-100851917D01*
X137192182Y-100851925D01*
X137159500Y-101016228D01*
X137159500Y-101017194D01*
X137159357Y-101017679D01*
X137158903Y-101022294D01*
X137158027Y-101022207D01*
X137139815Y-101084233D01*
X137087011Y-101129988D01*
X137059691Y-101138811D01*
X136891925Y-101172182D01*
X136891917Y-101172184D01*
X136737139Y-101236295D01*
X136597837Y-101329373D01*
X136479373Y-101447837D01*
X136386295Y-101587139D01*
X136322184Y-101741917D01*
X136322182Y-101741925D01*
X136289500Y-101906228D01*
X129400500Y-101906228D01*
X129400500Y-96491228D01*
X156699500Y-96491228D01*
X156699500Y-96658771D01*
X156732182Y-96823074D01*
X156732184Y-96823082D01*
X156796295Y-96977860D01*
X156889373Y-97117162D01*
X157007837Y-97235626D01*
X157099895Y-97297137D01*
X157147137Y-97328703D01*
X157301918Y-97392816D01*
X157466228Y-97425499D01*
X157466232Y-97425500D01*
X157466233Y-97425500D01*
X157633768Y-97425500D01*
X157633769Y-97425499D01*
X157798082Y-97392816D01*
X157952863Y-97328703D01*
X158092162Y-97235626D01*
X158210626Y-97117162D01*
X158303703Y-96977863D01*
X158367816Y-96823082D01*
X158400500Y-96658767D01*
X158400500Y-96491233D01*
X158390747Y-96442200D01*
X158390747Y-96442198D01*
X158372507Y-96350500D01*
X158367816Y-96326918D01*
X158303703Y-96172137D01*
X158268990Y-96120185D01*
X158210626Y-96032837D01*
X158092162Y-95914373D01*
X157952860Y-95821295D01*
X157798082Y-95757184D01*
X157798074Y-95757182D01*
X157633771Y-95724500D01*
X157633767Y-95724500D01*
X157466233Y-95724500D01*
X157466228Y-95724500D01*
X157301925Y-95757182D01*
X157301917Y-95757184D01*
X157147139Y-95821295D01*
X157007837Y-95914373D01*
X156889373Y-96032837D01*
X156796295Y-96172139D01*
X156732184Y-96326917D01*
X156732182Y-96326925D01*
X156699500Y-96491228D01*
X129400500Y-96491228D01*
X129400500Y-95518995D01*
X131999499Y-95518995D01*
X132026418Y-95654322D01*
X132026421Y-95654332D01*
X132079221Y-95781804D01*
X132079228Y-95781817D01*
X132155885Y-95896541D01*
X132155888Y-95896545D01*
X132253454Y-95994111D01*
X132253458Y-95994114D01*
X132368182Y-96070771D01*
X132368195Y-96070778D01*
X132495667Y-96123578D01*
X132495672Y-96123580D01*
X132495676Y-96123580D01*
X132495677Y-96123581D01*
X132631004Y-96150500D01*
X132631007Y-96150500D01*
X132768995Y-96150500D01*
X132860041Y-96132389D01*
X132904328Y-96123580D01*
X133031811Y-96070775D01*
X133146542Y-95994114D01*
X133244114Y-95896542D01*
X133320775Y-95781811D01*
X133373580Y-95654328D01*
X133400500Y-95518993D01*
X133400500Y-95381007D01*
X133400500Y-95381004D01*
X133373581Y-95245677D01*
X133373580Y-95245676D01*
X133373580Y-95245672D01*
X133347938Y-95183767D01*
X133320778Y-95118195D01*
X133320771Y-95118182D01*
X133244114Y-95003458D01*
X133244111Y-95003454D01*
X133146545Y-94905888D01*
X133146541Y-94905885D01*
X133031817Y-94829228D01*
X133031804Y-94829221D01*
X132904332Y-94776421D01*
X132904322Y-94776418D01*
X132768995Y-94749500D01*
X132768993Y-94749500D01*
X132631007Y-94749500D01*
X132631005Y-94749500D01*
X132495677Y-94776418D01*
X132495667Y-94776421D01*
X132368195Y-94829221D01*
X132368182Y-94829228D01*
X132253458Y-94905885D01*
X132253454Y-94905888D01*
X132155888Y-95003454D01*
X132155885Y-95003458D01*
X132079228Y-95118182D01*
X132079221Y-95118195D01*
X132026421Y-95245667D01*
X132026418Y-95245677D01*
X131999500Y-95381004D01*
X131999500Y-95381007D01*
X131999500Y-95518993D01*
X131999500Y-95518995D01*
X131999499Y-95518995D01*
X129400500Y-95518995D01*
X129400500Y-93491228D01*
X135299500Y-93491228D01*
X135299500Y-93658771D01*
X135332182Y-93823074D01*
X135332184Y-93823082D01*
X135396295Y-93977860D01*
X135489373Y-94117162D01*
X135607837Y-94235626D01*
X135700494Y-94297537D01*
X135747137Y-94328703D01*
X135901918Y-94392816D01*
X135951369Y-94402652D01*
X136017882Y-94415883D01*
X136079793Y-94448268D01*
X136114367Y-94508983D01*
X136110628Y-94578753D01*
X136069762Y-94635425D01*
X136017882Y-94659117D01*
X135901925Y-94682182D01*
X135901917Y-94682184D01*
X135747139Y-94746295D01*
X135607837Y-94839373D01*
X135489373Y-94957837D01*
X135396295Y-95097139D01*
X135332184Y-95251917D01*
X135332182Y-95251925D01*
X135299500Y-95416228D01*
X135299500Y-95583771D01*
X135332182Y-95748074D01*
X135332184Y-95748082D01*
X135396295Y-95902860D01*
X135489373Y-96042162D01*
X135607837Y-96160626D01*
X135700494Y-96222537D01*
X135747137Y-96253703D01*
X135901918Y-96317816D01*
X136066228Y-96350499D01*
X136066232Y-96350500D01*
X136066233Y-96350500D01*
X136233768Y-96350500D01*
X136233769Y-96350499D01*
X136398082Y-96317816D01*
X136552863Y-96253703D01*
X136692162Y-96160626D01*
X136810626Y-96042162D01*
X136903703Y-95902863D01*
X136967816Y-95748082D01*
X137000500Y-95583767D01*
X137000500Y-95416233D01*
X136967816Y-95251918D01*
X136903703Y-95097137D01*
X136849641Y-95016228D01*
X144099500Y-95016228D01*
X144099500Y-95183771D01*
X144132182Y-95348074D01*
X144132184Y-95348082D01*
X144196295Y-95502860D01*
X144289373Y-95642162D01*
X144407837Y-95760626D01*
X144484200Y-95811650D01*
X144547137Y-95853703D01*
X144701918Y-95917816D01*
X144866228Y-95950499D01*
X144866232Y-95950500D01*
X144866233Y-95950500D01*
X145033768Y-95950500D01*
X145033769Y-95950499D01*
X145198082Y-95917816D01*
X145352863Y-95853703D01*
X145492162Y-95760626D01*
X145610626Y-95642162D01*
X145703703Y-95502863D01*
X145767816Y-95348082D01*
X145786944Y-95251918D01*
X145788568Y-95243753D01*
X159220000Y-95243753D01*
X159220000Y-95456246D01*
X159253242Y-95666127D01*
X159253242Y-95666130D01*
X159318904Y-95868217D01*
X159415375Y-96057550D01*
X159454728Y-96111716D01*
X160087037Y-95479408D01*
X160104075Y-95542993D01*
X160169901Y-95657007D01*
X160262993Y-95750099D01*
X160377007Y-95815925D01*
X160440590Y-95832962D01*
X159808282Y-96465269D01*
X159808282Y-96465270D01*
X159862449Y-96504624D01*
X160051782Y-96601095D01*
X160253870Y-96666757D01*
X160463754Y-96700000D01*
X160676246Y-96700000D01*
X160886127Y-96666757D01*
X160886130Y-96666757D01*
X161088217Y-96601095D01*
X161277554Y-96504622D01*
X161331716Y-96465270D01*
X161331717Y-96465270D01*
X160699408Y-95832962D01*
X160762993Y-95815925D01*
X160877007Y-95750099D01*
X160970099Y-95657007D01*
X161035925Y-95542993D01*
X161052962Y-95479408D01*
X161685270Y-96111717D01*
X161685270Y-96111716D01*
X161724622Y-96057555D01*
X161729232Y-96048507D01*
X161777205Y-95997709D01*
X161845025Y-95980912D01*
X161911161Y-96003447D01*
X161950204Y-96048504D01*
X161954949Y-96057817D01*
X162079890Y-96229786D01*
X162230213Y-96380109D01*
X162402179Y-96505048D01*
X162402181Y-96505049D01*
X162402184Y-96505051D01*
X162591588Y-96601557D01*
X162793757Y-96667246D01*
X163003713Y-96700500D01*
X163003714Y-96700500D01*
X163216286Y-96700500D01*
X163216287Y-96700500D01*
X163426243Y-96667246D01*
X163628412Y-96601557D01*
X163817816Y-96505051D01*
X163872572Y-96465269D01*
X163989786Y-96380109D01*
X163989788Y-96380106D01*
X163989792Y-96380104D01*
X164140104Y-96229792D01*
X164140106Y-96229788D01*
X164140109Y-96229786D01*
X164265048Y-96057820D01*
X164265050Y-96057817D01*
X164265051Y-96057816D01*
X164269514Y-96049054D01*
X164317488Y-95998259D01*
X164385308Y-95981463D01*
X164451444Y-96003999D01*
X164490486Y-96049056D01*
X164494951Y-96057820D01*
X164619890Y-96229786D01*
X164770213Y-96380109D01*
X164942179Y-96505048D01*
X164942181Y-96505049D01*
X164942184Y-96505051D01*
X165131588Y-96601557D01*
X165333757Y-96667246D01*
X165543713Y-96700500D01*
X165543714Y-96700500D01*
X165756286Y-96700500D01*
X165756287Y-96700500D01*
X165966243Y-96667246D01*
X166168412Y-96601557D01*
X166357816Y-96505051D01*
X166529792Y-96380104D01*
X166643329Y-96266566D01*
X166704648Y-96233084D01*
X166774340Y-96238068D01*
X166830274Y-96279939D01*
X166847189Y-96310917D01*
X166896202Y-96442328D01*
X166896206Y-96442335D01*
X166982452Y-96557544D01*
X166982455Y-96557547D01*
X167097664Y-96643793D01*
X167097671Y-96643797D01*
X167123995Y-96653615D01*
X167232517Y-96694091D01*
X167248323Y-96695790D01*
X167312871Y-96722526D01*
X167352721Y-96779918D01*
X167356684Y-96794888D01*
X167382182Y-96923074D01*
X167382184Y-96923082D01*
X167446295Y-97077860D01*
X167539373Y-97217162D01*
X167657837Y-97335626D01*
X167743430Y-97392817D01*
X167797137Y-97428703D01*
X167951918Y-97492816D01*
X168116228Y-97525499D01*
X168116232Y-97525500D01*
X168116233Y-97525500D01*
X168131037Y-97525500D01*
X168198076Y-97545185D01*
X168243831Y-97597989D01*
X168252653Y-97625305D01*
X168257182Y-97648074D01*
X168257184Y-97648082D01*
X168321295Y-97802860D01*
X168414373Y-97942162D01*
X168532837Y-98060626D01*
X168596045Y-98102860D01*
X168672137Y-98153703D01*
X168826918Y-98217816D01*
X168949315Y-98242162D01*
X168991228Y-98250499D01*
X168991232Y-98250500D01*
X168991233Y-98250500D01*
X169158768Y-98250500D01*
X169158769Y-98250499D01*
X169323082Y-98217816D01*
X169477863Y-98153703D01*
X169617162Y-98060626D01*
X169735626Y-97942162D01*
X169828703Y-97802863D01*
X169892816Y-97648082D01*
X169925500Y-97483767D01*
X169925500Y-97316233D01*
X169892816Y-97151918D01*
X169828703Y-96997137D01*
X169779221Y-96923082D01*
X169735626Y-96857837D01*
X169617165Y-96739376D01*
X169617161Y-96739373D01*
X169488815Y-96653615D01*
X169444010Y-96600003D01*
X169435303Y-96530678D01*
X169458440Y-96476202D01*
X169483796Y-96442331D01*
X169534091Y-96307483D01*
X169540500Y-96247873D01*
X169540499Y-94452128D01*
X169534091Y-94392517D01*
X169532810Y-94389083D01*
X169483797Y-94257671D01*
X169483793Y-94257664D01*
X169397547Y-94142455D01*
X169397544Y-94142452D01*
X169282335Y-94056206D01*
X169282328Y-94056202D01*
X169147483Y-94005908D01*
X169086243Y-93999324D01*
X169021692Y-93972585D01*
X168981845Y-93915192D01*
X168975500Y-93876035D01*
X168975500Y-93791232D01*
X168975499Y-93791228D01*
X168952681Y-93676513D01*
X168942816Y-93626918D01*
X168886613Y-93491233D01*
X168878704Y-93472139D01*
X168785626Y-93332837D01*
X168667162Y-93214373D01*
X168527860Y-93121295D01*
X168373082Y-93057184D01*
X168373074Y-93057182D01*
X168208771Y-93024500D01*
X168208767Y-93024500D01*
X168041233Y-93024500D01*
X168041228Y-93024500D01*
X167876925Y-93057182D01*
X167876917Y-93057184D01*
X167722139Y-93121295D01*
X167582837Y-93214373D01*
X167464373Y-93332837D01*
X167371295Y-93472139D01*
X167307184Y-93626917D01*
X167307182Y-93626925D01*
X167274500Y-93791228D01*
X167274500Y-93904154D01*
X167254815Y-93971193D01*
X167202011Y-94016948D01*
X167193834Y-94020336D01*
X167097669Y-94056203D01*
X167097664Y-94056206D01*
X166982455Y-94142452D01*
X166982452Y-94142455D01*
X166896206Y-94257664D01*
X166896203Y-94257669D01*
X166847189Y-94389083D01*
X166805317Y-94445016D01*
X166739853Y-94469433D01*
X166671580Y-94454581D01*
X166643326Y-94433430D01*
X166529786Y-94319890D01*
X166357820Y-94194951D01*
X166168414Y-94098444D01*
X166168413Y-94098443D01*
X166168412Y-94098443D01*
X165966243Y-94032754D01*
X165966241Y-94032753D01*
X165966240Y-94032753D01*
X165804957Y-94007208D01*
X165756287Y-93999500D01*
X165543713Y-93999500D01*
X165495042Y-94007208D01*
X165333760Y-94032753D01*
X165131585Y-94098444D01*
X164942179Y-94194951D01*
X164770213Y-94319890D01*
X164619890Y-94470213D01*
X164494949Y-94642182D01*
X164490484Y-94650946D01*
X164442509Y-94701742D01*
X164374688Y-94718536D01*
X164308553Y-94695998D01*
X164269516Y-94650946D01*
X164265050Y-94642182D01*
X164140109Y-94470213D01*
X163989786Y-94319890D01*
X163817820Y-94194951D01*
X163628414Y-94098444D01*
X163628413Y-94098443D01*
X163628412Y-94098443D01*
X163426243Y-94032754D01*
X163426241Y-94032753D01*
X163426240Y-94032753D01*
X163264957Y-94007208D01*
X163216287Y-93999500D01*
X163003713Y-93999500D01*
X162955042Y-94007208D01*
X162793760Y-94032753D01*
X162591585Y-94098444D01*
X162402179Y-94194951D01*
X162230213Y-94319890D01*
X162079890Y-94470213D01*
X161954949Y-94642182D01*
X161950202Y-94651499D01*
X161902227Y-94702293D01*
X161834405Y-94719087D01*
X161768271Y-94696548D01*
X161729234Y-94651495D01*
X161724626Y-94642452D01*
X161685270Y-94588282D01*
X161685269Y-94588282D01*
X161052962Y-95220590D01*
X161035925Y-95157007D01*
X160970099Y-95042993D01*
X160877007Y-94949901D01*
X160762993Y-94884075D01*
X160699409Y-94867037D01*
X161331716Y-94234728D01*
X161277550Y-94195375D01*
X161088217Y-94098904D01*
X160886129Y-94033242D01*
X160676246Y-94000000D01*
X160463754Y-94000000D01*
X160253872Y-94033242D01*
X160253869Y-94033242D01*
X160051782Y-94098904D01*
X159862439Y-94195380D01*
X159808282Y-94234727D01*
X159808282Y-94234728D01*
X160440591Y-94867037D01*
X160377007Y-94884075D01*
X160262993Y-94949901D01*
X160169901Y-95042993D01*
X160104075Y-95157007D01*
X160087037Y-95220591D01*
X159454728Y-94588282D01*
X159454727Y-94588282D01*
X159415380Y-94642439D01*
X159318904Y-94831782D01*
X159253242Y-95033869D01*
X159253242Y-95033872D01*
X159220000Y-95243753D01*
X145788568Y-95243753D01*
X145794344Y-95214719D01*
X145794349Y-95214691D01*
X145800500Y-95183765D01*
X145800500Y-95016232D01*
X145800499Y-95016228D01*
X145788885Y-94957842D01*
X145767816Y-94851918D01*
X145705839Y-94702293D01*
X145703704Y-94697139D01*
X145693711Y-94682184D01*
X145662468Y-94635425D01*
X145610626Y-94557837D01*
X145492162Y-94439373D01*
X145352860Y-94346295D01*
X145198082Y-94282184D01*
X145198074Y-94282182D01*
X145033771Y-94249500D01*
X145033767Y-94249500D01*
X144866233Y-94249500D01*
X144866228Y-94249500D01*
X144701925Y-94282182D01*
X144701917Y-94282184D01*
X144547139Y-94346295D01*
X144407837Y-94439373D01*
X144289373Y-94557837D01*
X144196295Y-94697139D01*
X144132184Y-94851917D01*
X144132182Y-94851925D01*
X144099500Y-95016228D01*
X136849641Y-95016228D01*
X136823946Y-94977773D01*
X136810629Y-94957842D01*
X136810623Y-94957834D01*
X136692162Y-94839373D01*
X136552860Y-94746295D01*
X136398082Y-94682184D01*
X136398074Y-94682182D01*
X136282117Y-94659117D01*
X136220206Y-94626733D01*
X136185632Y-94566017D01*
X136189371Y-94496247D01*
X136230237Y-94439575D01*
X136282117Y-94415883D01*
X136323564Y-94407638D01*
X136398082Y-94392816D01*
X136552863Y-94328703D01*
X136692162Y-94235626D01*
X136810626Y-94117162D01*
X136903703Y-93977863D01*
X136960470Y-93840816D01*
X155122199Y-93840816D01*
X155122199Y-94008359D01*
X155154881Y-94172662D01*
X155154883Y-94172670D01*
X155218994Y-94327448D01*
X155312072Y-94466750D01*
X155430536Y-94585214D01*
X155492674Y-94626733D01*
X155569836Y-94678291D01*
X155569837Y-94678291D01*
X155569838Y-94678292D01*
X155579234Y-94682184D01*
X155724617Y-94742404D01*
X155888927Y-94775087D01*
X155888931Y-94775088D01*
X155888932Y-94775088D01*
X156056467Y-94775088D01*
X156056468Y-94775087D01*
X156220781Y-94742404D01*
X156375562Y-94678291D01*
X156514861Y-94585214D01*
X156633325Y-94466750D01*
X156726402Y-94327451D01*
X156764438Y-94235626D01*
X156764890Y-94234534D01*
X156781110Y-94195375D01*
X156790515Y-94172670D01*
X156823199Y-94008355D01*
X156823199Y-93840821D01*
X156790515Y-93676506D01*
X156726402Y-93521725D01*
X156664247Y-93428704D01*
X156633325Y-93382425D01*
X156514861Y-93263961D01*
X156375559Y-93170883D01*
X156220781Y-93106772D01*
X156220773Y-93106770D01*
X156056470Y-93074088D01*
X156056466Y-93074088D01*
X155888932Y-93074088D01*
X155888927Y-93074088D01*
X155724624Y-93106770D01*
X155724616Y-93106772D01*
X155569838Y-93170883D01*
X155430536Y-93263961D01*
X155312072Y-93382425D01*
X155218994Y-93521727D01*
X155154883Y-93676505D01*
X155154881Y-93676513D01*
X155122199Y-93840816D01*
X136960470Y-93840816D01*
X136967816Y-93823082D01*
X137000500Y-93658767D01*
X137000500Y-93491233D01*
X136967816Y-93326918D01*
X136903703Y-93172137D01*
X136840709Y-93077860D01*
X136810626Y-93032837D01*
X136692162Y-92914373D01*
X136552860Y-92821295D01*
X136398082Y-92757184D01*
X136398074Y-92757182D01*
X136233771Y-92724500D01*
X136233767Y-92724500D01*
X136066233Y-92724500D01*
X136066228Y-92724500D01*
X135901925Y-92757182D01*
X135901917Y-92757184D01*
X135747139Y-92821295D01*
X135607837Y-92914373D01*
X135489373Y-93032837D01*
X135396295Y-93172139D01*
X135332184Y-93326917D01*
X135332182Y-93326925D01*
X135299500Y-93491228D01*
X129400500Y-93491228D01*
X129400500Y-92466228D01*
X145974500Y-92466228D01*
X145974500Y-92633771D01*
X146007182Y-92798074D01*
X146007184Y-92798082D01*
X146071295Y-92952860D01*
X146164373Y-93092162D01*
X146282837Y-93210626D01*
X146375494Y-93272537D01*
X146422137Y-93303703D01*
X146576918Y-93367816D01*
X146741228Y-93400499D01*
X146741232Y-93400500D01*
X146741233Y-93400500D01*
X146908768Y-93400500D01*
X146908769Y-93400499D01*
X147073082Y-93367816D01*
X147227863Y-93303703D01*
X147367162Y-93210626D01*
X147485626Y-93092162D01*
X147505879Y-93061850D01*
X147559490Y-93017045D01*
X147628815Y-93008336D01*
X147691843Y-93038490D01*
X147716631Y-93073442D01*
X147718422Y-93072485D01*
X147721295Y-93077860D01*
X147814373Y-93217162D01*
X147932837Y-93335626D01*
X147981015Y-93367817D01*
X148072137Y-93428703D01*
X148226918Y-93492816D01*
X148372255Y-93521725D01*
X148391228Y-93525499D01*
X148391232Y-93525500D01*
X148391233Y-93525500D01*
X148558768Y-93525500D01*
X148558769Y-93525499D01*
X148723082Y-93492816D01*
X148877863Y-93428703D01*
X149017162Y-93335626D01*
X149135626Y-93217162D01*
X149228703Y-93077863D01*
X149292816Y-92923082D01*
X149325500Y-92758767D01*
X149325500Y-92591233D01*
X149292816Y-92426918D01*
X149228703Y-92272137D01*
X149191636Y-92216662D01*
X149135626Y-92132837D01*
X149017162Y-92014373D01*
X148877860Y-91921295D01*
X148723082Y-91857184D01*
X148723074Y-91857182D01*
X148558771Y-91824500D01*
X148558767Y-91824500D01*
X148391233Y-91824500D01*
X148391228Y-91824500D01*
X148226925Y-91857182D01*
X148226917Y-91857184D01*
X148072139Y-91921295D01*
X147932837Y-92014373D01*
X147814376Y-92132834D01*
X147814371Y-92132840D01*
X147794118Y-92163151D01*
X147740505Y-92207956D01*
X147671180Y-92216662D01*
X147608153Y-92186506D01*
X147583414Y-92151533D01*
X147581578Y-92152515D01*
X147578704Y-92147139D01*
X147569148Y-92132838D01*
X147547537Y-92100494D01*
X147485626Y-92007837D01*
X147367162Y-91889373D01*
X147227860Y-91796295D01*
X147073082Y-91732184D01*
X147073074Y-91732182D01*
X146908771Y-91699500D01*
X146908767Y-91699500D01*
X146741233Y-91699500D01*
X146741228Y-91699500D01*
X146576925Y-91732182D01*
X146576917Y-91732184D01*
X146422139Y-91796295D01*
X146282837Y-91889373D01*
X146164373Y-92007837D01*
X146071295Y-92147139D01*
X146007184Y-92301917D01*
X146007182Y-92301925D01*
X145974500Y-92466228D01*
X129400500Y-92466228D01*
X129400500Y-88718995D01*
X131999499Y-88718995D01*
X132026418Y-88854322D01*
X132026421Y-88854332D01*
X132079221Y-88981804D01*
X132079228Y-88981817D01*
X132155885Y-89096541D01*
X132155888Y-89096545D01*
X132253454Y-89194111D01*
X132253458Y-89194114D01*
X132368182Y-89270771D01*
X132368195Y-89270778D01*
X132495667Y-89323578D01*
X132495672Y-89323580D01*
X132495676Y-89323580D01*
X132495677Y-89323581D01*
X132631004Y-89350500D01*
X132631007Y-89350500D01*
X132768995Y-89350500D01*
X132860041Y-89332389D01*
X132904328Y-89323580D01*
X133031811Y-89270775D01*
X133146542Y-89194114D01*
X133244114Y-89096542D01*
X133320775Y-88981811D01*
X133373580Y-88854328D01*
X133400500Y-88718993D01*
X133400500Y-88581007D01*
X133400500Y-88581004D01*
X133373581Y-88445677D01*
X133373580Y-88445676D01*
X133373580Y-88445672D01*
X133344514Y-88375500D01*
X133320778Y-88318195D01*
X133320771Y-88318182D01*
X133244114Y-88203458D01*
X133244111Y-88203454D01*
X133146545Y-88105888D01*
X133146541Y-88105885D01*
X133031817Y-88029228D01*
X133031804Y-88029221D01*
X132904332Y-87976421D01*
X132904322Y-87976418D01*
X132768995Y-87949500D01*
X132768993Y-87949500D01*
X132631007Y-87949500D01*
X132631005Y-87949500D01*
X132495677Y-87976418D01*
X132495667Y-87976421D01*
X132368195Y-88029221D01*
X132368182Y-88029228D01*
X132253458Y-88105885D01*
X132253454Y-88105888D01*
X132155888Y-88203454D01*
X132155885Y-88203458D01*
X132079228Y-88318182D01*
X132079221Y-88318195D01*
X132026421Y-88445667D01*
X132026418Y-88445677D01*
X131999500Y-88581004D01*
X131999500Y-88581007D01*
X131999500Y-88718993D01*
X131999500Y-88718995D01*
X131999499Y-88718995D01*
X129400500Y-88718995D01*
X129400500Y-86341228D01*
X140249500Y-86341228D01*
X140249500Y-86508771D01*
X140282182Y-86673074D01*
X140282185Y-86673086D01*
X140346165Y-86827548D01*
X140353634Y-86897017D01*
X140346165Y-86922452D01*
X140282185Y-87076913D01*
X140282182Y-87076925D01*
X140249500Y-87241228D01*
X140249500Y-87408771D01*
X140282182Y-87573074D01*
X140282184Y-87573082D01*
X140346295Y-87727860D01*
X140439373Y-87867162D01*
X140557837Y-87985626D01*
X140650494Y-88047537D01*
X140697137Y-88078703D01*
X140851918Y-88142816D01*
X141016228Y-88175499D01*
X141016232Y-88175500D01*
X141016233Y-88175500D01*
X141183768Y-88175500D01*
X141183769Y-88175499D01*
X141348082Y-88142816D01*
X141502863Y-88078703D01*
X141642162Y-87985626D01*
X141760626Y-87867162D01*
X141853703Y-87727863D01*
X141917816Y-87573082D01*
X141950500Y-87408767D01*
X141950500Y-87241233D01*
X141917816Y-87076918D01*
X141853834Y-86922453D01*
X141846365Y-86852984D01*
X141853834Y-86827547D01*
X141866785Y-86796281D01*
X141917816Y-86673082D01*
X141950500Y-86508767D01*
X141950500Y-86341233D01*
X141917816Y-86176918D01*
X141853703Y-86022137D01*
X141849755Y-86016228D01*
X149649500Y-86016228D01*
X149649500Y-86183771D01*
X149682182Y-86348074D01*
X149682184Y-86348082D01*
X149746295Y-86502860D01*
X149839373Y-86642162D01*
X149957837Y-86760626D01*
X150050494Y-86822537D01*
X150097137Y-86853703D01*
X150251918Y-86917816D01*
X150416228Y-86950499D01*
X150416232Y-86950500D01*
X150416233Y-86950500D01*
X150583768Y-86950500D01*
X150583769Y-86950499D01*
X150748082Y-86917816D01*
X150902863Y-86853703D01*
X151042162Y-86760626D01*
X151160626Y-86642162D01*
X151253703Y-86502863D01*
X151317816Y-86348082D01*
X151350500Y-86183767D01*
X151350500Y-86166228D01*
X152249500Y-86166228D01*
X152249500Y-86333771D01*
X152282182Y-86498074D01*
X152282184Y-86498082D01*
X152346295Y-86652860D01*
X152439373Y-86792162D01*
X152459582Y-86812371D01*
X152493067Y-86873694D01*
X152488083Y-86943386D01*
X152467763Y-86978706D01*
X152464377Y-86982831D01*
X152371295Y-87122139D01*
X152307184Y-87276917D01*
X152307182Y-87276925D01*
X152274500Y-87441228D01*
X152274500Y-87608771D01*
X152307182Y-87773074D01*
X152307184Y-87773082D01*
X152371295Y-87927860D01*
X152464373Y-88067162D01*
X152582837Y-88185626D01*
X152605098Y-88200500D01*
X152722137Y-88278703D01*
X152876918Y-88342816D01*
X153041228Y-88375499D01*
X153041232Y-88375500D01*
X153041233Y-88375500D01*
X153208768Y-88375500D01*
X153208769Y-88375499D01*
X153373082Y-88342816D01*
X153527863Y-88278703D01*
X153667162Y-88185626D01*
X153785626Y-88067162D01*
X153878703Y-87927863D01*
X153942816Y-87773082D01*
X153975500Y-87608767D01*
X153975500Y-87441233D01*
X153942816Y-87276918D01*
X153878703Y-87122137D01*
X153847537Y-87075494D01*
X153785626Y-86982837D01*
X153765417Y-86962628D01*
X153731932Y-86901305D01*
X153736916Y-86831613D01*
X153757246Y-86796281D01*
X153760625Y-86792163D01*
X153760626Y-86792162D01*
X153853703Y-86652863D01*
X153917816Y-86498082D01*
X153950500Y-86333767D01*
X153950500Y-86166233D01*
X153917816Y-86001918D01*
X153855686Y-85851925D01*
X153853704Y-85847139D01*
X153760626Y-85707837D01*
X153642162Y-85589373D01*
X153502860Y-85496295D01*
X153348082Y-85432184D01*
X153348074Y-85432182D01*
X153183771Y-85399500D01*
X153183767Y-85399500D01*
X153016233Y-85399500D01*
X153016228Y-85399500D01*
X152851925Y-85432182D01*
X152851917Y-85432184D01*
X152697139Y-85496295D01*
X152557837Y-85589373D01*
X152439373Y-85707837D01*
X152346295Y-85847139D01*
X152282184Y-86001917D01*
X152282182Y-86001925D01*
X152249500Y-86166228D01*
X151350500Y-86166228D01*
X151350500Y-86016233D01*
X151317816Y-85851918D01*
X151253703Y-85697137D01*
X151181698Y-85589374D01*
X151160626Y-85557837D01*
X151152969Y-85550180D01*
X151119484Y-85488857D01*
X151124468Y-85419165D01*
X151152967Y-85374820D01*
X151185626Y-85342162D01*
X151278703Y-85202863D01*
X151342816Y-85048082D01*
X151375500Y-84883767D01*
X151375500Y-84883728D01*
X161614500Y-84883728D01*
X161614500Y-85051271D01*
X161647182Y-85215574D01*
X161647184Y-85215582D01*
X161711295Y-85370360D01*
X161804373Y-85509662D01*
X161862030Y-85567319D01*
X161895515Y-85628642D01*
X161890531Y-85698334D01*
X161862030Y-85742681D01*
X161804376Y-85800334D01*
X161804373Y-85800337D01*
X161711295Y-85939639D01*
X161647184Y-86094417D01*
X161647182Y-86094425D01*
X161614500Y-86258728D01*
X161614500Y-86426271D01*
X161647182Y-86590574D01*
X161647184Y-86590582D01*
X161711295Y-86745360D01*
X161804373Y-86884662D01*
X161922837Y-87003126D01*
X162015494Y-87065037D01*
X162062137Y-87096203D01*
X162216918Y-87160316D01*
X162381228Y-87192999D01*
X162381232Y-87193000D01*
X162381233Y-87193000D01*
X162548768Y-87193000D01*
X162548769Y-87192999D01*
X162713082Y-87160316D01*
X162867863Y-87096203D01*
X163007162Y-87003126D01*
X163125626Y-86884662D01*
X163218703Y-86745363D01*
X163282816Y-86590582D01*
X163315500Y-86426267D01*
X163315500Y-86258733D01*
X163282816Y-86094418D01*
X163223880Y-85952135D01*
X163218704Y-85939639D01*
X163125626Y-85800337D01*
X163067970Y-85742681D01*
X163034485Y-85681358D01*
X163039469Y-85611666D01*
X163067970Y-85567319D01*
X163125623Y-85509665D01*
X163125626Y-85509662D01*
X163134556Y-85496297D01*
X163218703Y-85370363D01*
X163282816Y-85215582D01*
X163315500Y-85051267D01*
X163315500Y-84883733D01*
X163282816Y-84719418D01*
X163218703Y-84564637D01*
X163187537Y-84517994D01*
X163125626Y-84425337D01*
X163007162Y-84306873D01*
X162867860Y-84213795D01*
X162713082Y-84149684D01*
X162713074Y-84149682D01*
X162548771Y-84117000D01*
X162548767Y-84117000D01*
X162381233Y-84117000D01*
X162381228Y-84117000D01*
X162216925Y-84149682D01*
X162216917Y-84149684D01*
X162062139Y-84213795D01*
X161922837Y-84306873D01*
X161804373Y-84425337D01*
X161711295Y-84564639D01*
X161647184Y-84719417D01*
X161647182Y-84719425D01*
X161614500Y-84883728D01*
X151375500Y-84883728D01*
X151375500Y-84716233D01*
X151342816Y-84551918D01*
X151278703Y-84397137D01*
X151218391Y-84306874D01*
X151185626Y-84257837D01*
X151067162Y-84139373D01*
X150927860Y-84046295D01*
X150773082Y-83982184D01*
X150773074Y-83982182D01*
X150608771Y-83949500D01*
X150608767Y-83949500D01*
X150441233Y-83949500D01*
X150441228Y-83949500D01*
X150276925Y-83982182D01*
X150276917Y-83982184D01*
X150122139Y-84046295D01*
X149982837Y-84139373D01*
X149864373Y-84257837D01*
X149771295Y-84397139D01*
X149707184Y-84551917D01*
X149707182Y-84551925D01*
X149674500Y-84716228D01*
X149674500Y-84883771D01*
X149707182Y-85048074D01*
X149707184Y-85048082D01*
X149771295Y-85202860D01*
X149864373Y-85342162D01*
X149872030Y-85349819D01*
X149905515Y-85411142D01*
X149900531Y-85480834D01*
X149872030Y-85525181D01*
X149839376Y-85557834D01*
X149839373Y-85557837D01*
X149746295Y-85697139D01*
X149682184Y-85851917D01*
X149682182Y-85851925D01*
X149649500Y-86016228D01*
X141849755Y-86016228D01*
X141806916Y-85952116D01*
X141760626Y-85882837D01*
X141642162Y-85764373D01*
X141502860Y-85671295D01*
X141348082Y-85607184D01*
X141348074Y-85607182D01*
X141183771Y-85574500D01*
X141183767Y-85574500D01*
X141016233Y-85574500D01*
X141016228Y-85574500D01*
X140851925Y-85607182D01*
X140851917Y-85607184D01*
X140697139Y-85671295D01*
X140557837Y-85764373D01*
X140439373Y-85882837D01*
X140346295Y-86022139D01*
X140282184Y-86176917D01*
X140282182Y-86176925D01*
X140249500Y-86341228D01*
X129400500Y-86341228D01*
X129400500Y-77102135D01*
X136389500Y-77102135D01*
X136389500Y-78897870D01*
X136389501Y-78897876D01*
X136395908Y-78957483D01*
X136446202Y-79092328D01*
X136446206Y-79092335D01*
X136532452Y-79207544D01*
X136532455Y-79207547D01*
X136647664Y-79293793D01*
X136647671Y-79293797D01*
X136692618Y-79310561D01*
X136782517Y-79344091D01*
X136842127Y-79350500D01*
X136852685Y-79350499D01*
X136919723Y-79370179D01*
X136940372Y-79386818D01*
X137610591Y-80057037D01*
X137547007Y-80074075D01*
X137432993Y-80139901D01*
X137339901Y-80232993D01*
X137274075Y-80347007D01*
X137257037Y-80410591D01*
X136624728Y-79778282D01*
X136624727Y-79778282D01*
X136585380Y-79832439D01*
X136488904Y-80021782D01*
X136423242Y-80223869D01*
X136423242Y-80223872D01*
X136390000Y-80433753D01*
X136390000Y-80646246D01*
X136423242Y-80856127D01*
X136423242Y-80856130D01*
X136488904Y-81058217D01*
X136585375Y-81247550D01*
X136624728Y-81301716D01*
X137257037Y-80669408D01*
X137274075Y-80732993D01*
X137339901Y-80847007D01*
X137432993Y-80940099D01*
X137547007Y-81005925D01*
X137610590Y-81022962D01*
X136978282Y-81655269D01*
X136978282Y-81655270D01*
X137032452Y-81694626D01*
X137032451Y-81694626D01*
X137041495Y-81699234D01*
X137092292Y-81747208D01*
X137109087Y-81815029D01*
X137086550Y-81881164D01*
X137041499Y-81920202D01*
X137032182Y-81924949D01*
X136860213Y-82049890D01*
X136709890Y-82200213D01*
X136584951Y-82372179D01*
X136488444Y-82561585D01*
X136422753Y-82763760D01*
X136389500Y-82973713D01*
X136389500Y-83186286D01*
X136422753Y-83396239D01*
X136488444Y-83598414D01*
X136584951Y-83787820D01*
X136709890Y-83959786D01*
X136860213Y-84110109D01*
X137032179Y-84235048D01*
X137032181Y-84235049D01*
X137032184Y-84235051D01*
X137221588Y-84331557D01*
X137423757Y-84397246D01*
X137633713Y-84430500D01*
X137633714Y-84430500D01*
X137846286Y-84430500D01*
X137846287Y-84430500D01*
X138056243Y-84397246D01*
X138258412Y-84331557D01*
X138447816Y-84235051D01*
X138490949Y-84203713D01*
X138619786Y-84110109D01*
X138619788Y-84110106D01*
X138619792Y-84110104D01*
X138770104Y-83959792D01*
X138770106Y-83959788D01*
X138770109Y-83959786D01*
X138879086Y-83809789D01*
X138895051Y-83787816D01*
X138991557Y-83598412D01*
X139057246Y-83396243D01*
X139090500Y-83186287D01*
X139090500Y-82973713D01*
X139057246Y-82763757D01*
X138991557Y-82561588D01*
X138895051Y-82372184D01*
X138895049Y-82372181D01*
X138895048Y-82372179D01*
X138770109Y-82200213D01*
X138619786Y-82049890D01*
X138447817Y-81924949D01*
X138438504Y-81920204D01*
X138387707Y-81872230D01*
X138370912Y-81804409D01*
X138393449Y-81738274D01*
X138401173Y-81728415D01*
X138481900Y-81635453D01*
X137869408Y-81022962D01*
X137932993Y-81005925D01*
X138047007Y-80940099D01*
X138140099Y-80847007D01*
X138205925Y-80732993D01*
X138222962Y-80669408D01*
X138855270Y-81301717D01*
X138855270Y-81301716D01*
X138894622Y-81247554D01*
X138991095Y-81058217D01*
X139056757Y-80856130D01*
X139056757Y-80856127D01*
X139090000Y-80646246D01*
X139090000Y-80433753D01*
X139056757Y-80223872D01*
X139056757Y-80223869D01*
X138991095Y-80021782D01*
X138894624Y-79832449D01*
X138855270Y-79778282D01*
X138855269Y-79778282D01*
X138222962Y-80410590D01*
X138205925Y-80347007D01*
X138140099Y-80232993D01*
X138047007Y-80139901D01*
X137932993Y-80074075D01*
X137869409Y-80057037D01*
X138539627Y-79386818D01*
X138600950Y-79353333D01*
X138627307Y-79350499D01*
X138637872Y-79350499D01*
X138697483Y-79344091D01*
X138832331Y-79293796D01*
X138947546Y-79207546D01*
X139033796Y-79092331D01*
X139050991Y-79046228D01*
X141479500Y-79046228D01*
X141479500Y-79213771D01*
X141512182Y-79378074D01*
X141512184Y-79378082D01*
X141576295Y-79532860D01*
X141669373Y-79672162D01*
X141787837Y-79790626D01*
X141850415Y-79832439D01*
X141927137Y-79883703D01*
X142081918Y-79947816D01*
X142246228Y-79980499D01*
X142246232Y-79980500D01*
X142246233Y-79980500D01*
X142413768Y-79980500D01*
X142413769Y-79980499D01*
X142578082Y-79947816D01*
X142732863Y-79883703D01*
X142872162Y-79790626D01*
X142990626Y-79672162D01*
X143083703Y-79532863D01*
X143147816Y-79378082D01*
X143180500Y-79213767D01*
X143180500Y-79046233D01*
X143147816Y-78881918D01*
X143091601Y-78746204D01*
X143083704Y-78727139D01*
X143070807Y-78707838D01*
X142996823Y-78597113D01*
X142975946Y-78530436D01*
X142994431Y-78463056D01*
X143012243Y-78440544D01*
X143048126Y-78404662D01*
X143141203Y-78265363D01*
X143205316Y-78110582D01*
X143238000Y-77946267D01*
X143238000Y-77778733D01*
X143205316Y-77614418D01*
X143141203Y-77459637D01*
X143077728Y-77364640D01*
X143048126Y-77320337D01*
X142929662Y-77201873D01*
X142790360Y-77108795D01*
X142635582Y-77044684D01*
X142635574Y-77044682D01*
X142471271Y-77012000D01*
X142471267Y-77012000D01*
X142303733Y-77012000D01*
X142303728Y-77012000D01*
X142139425Y-77044682D01*
X142139417Y-77044684D01*
X141984639Y-77108795D01*
X141845337Y-77201873D01*
X141726873Y-77320337D01*
X141633795Y-77459639D01*
X141569684Y-77614417D01*
X141569682Y-77614425D01*
X141537000Y-77778728D01*
X141537000Y-77946271D01*
X141569682Y-78110574D01*
X141569684Y-78110582D01*
X141633795Y-78265360D01*
X141720675Y-78395385D01*
X141741553Y-78462063D01*
X141723068Y-78529443D01*
X141705254Y-78551957D01*
X141669376Y-78587834D01*
X141669373Y-78587837D01*
X141576295Y-78727139D01*
X141512184Y-78881917D01*
X141512182Y-78881925D01*
X141479500Y-79046228D01*
X139050991Y-79046228D01*
X139052508Y-79042162D01*
X139069424Y-78996808D01*
X139084091Y-78957482D01*
X139087799Y-78922993D01*
X139090500Y-78897873D01*
X139090499Y-77102128D01*
X139084091Y-77042517D01*
X139070560Y-77006239D01*
X139033797Y-76907671D01*
X139033793Y-76907664D01*
X138947547Y-76792455D01*
X138947544Y-76792452D01*
X138832335Y-76706206D01*
X138832328Y-76706202D01*
X138697482Y-76655908D01*
X138697483Y-76655908D01*
X138637883Y-76649501D01*
X138637881Y-76649500D01*
X138637873Y-76649500D01*
X138637864Y-76649500D01*
X136842129Y-76649500D01*
X136842123Y-76649501D01*
X136782516Y-76655908D01*
X136647671Y-76706202D01*
X136647664Y-76706206D01*
X136532455Y-76792452D01*
X136532452Y-76792455D01*
X136446206Y-76907664D01*
X136446202Y-76907671D01*
X136395908Y-77042517D01*
X136390227Y-77095363D01*
X136389501Y-77102123D01*
X136389500Y-77102135D01*
X129400500Y-77102135D01*
X129400500Y-76516228D01*
X149699500Y-76516228D01*
X149699500Y-76683771D01*
X149732182Y-76848074D01*
X149732184Y-76848082D01*
X149796295Y-77002860D01*
X149889373Y-77142162D01*
X149913748Y-77166537D01*
X149947233Y-77227860D01*
X149942249Y-77297552D01*
X149929170Y-77323108D01*
X149846295Y-77447140D01*
X149782184Y-77601917D01*
X149782182Y-77601925D01*
X149749500Y-77766228D01*
X149749500Y-77933771D01*
X149782182Y-78098074D01*
X149782184Y-78098082D01*
X149846295Y-78252860D01*
X149939373Y-78392162D01*
X150057837Y-78510626D01*
X150119694Y-78551957D01*
X150197137Y-78603703D01*
X150351918Y-78667816D01*
X150516228Y-78700499D01*
X150516232Y-78700500D01*
X150516233Y-78700500D01*
X150683768Y-78700500D01*
X150683769Y-78700499D01*
X150848082Y-78667816D01*
X151002863Y-78603703D01*
X151002862Y-78603703D01*
X151008491Y-78601372D01*
X151009219Y-78603130D01*
X151068951Y-78590679D01*
X151134200Y-78615664D01*
X151175585Y-78671959D01*
X151180648Y-78690090D01*
X151192182Y-78748076D01*
X151192184Y-78748082D01*
X151256295Y-78902860D01*
X151349373Y-79042162D01*
X151467837Y-79160626D01*
X151476229Y-79166233D01*
X151607137Y-79253703D01*
X151761918Y-79317816D01*
X151926223Y-79350498D01*
X151926228Y-79350499D01*
X151926232Y-79350500D01*
X152099859Y-79350500D01*
X152099859Y-79353075D01*
X152157469Y-79363967D01*
X152208207Y-79412003D01*
X152222657Y-79450191D01*
X152232182Y-79498076D01*
X152232184Y-79498082D01*
X152296295Y-79652860D01*
X152389373Y-79792162D01*
X152507837Y-79910626D01*
X152563498Y-79947817D01*
X152647137Y-80003703D01*
X152801918Y-80067816D01*
X152966228Y-80100499D01*
X152966232Y-80100500D01*
X152966233Y-80100500D01*
X153133768Y-80100500D01*
X153133769Y-80100499D01*
X153298082Y-80067816D01*
X153452863Y-80003703D01*
X153592162Y-79910626D01*
X153710626Y-79792162D01*
X153803703Y-79652863D01*
X153867816Y-79498082D01*
X153900500Y-79333767D01*
X153900500Y-79166233D01*
X153900500Y-79166232D01*
X153895893Y-79143070D01*
X153895893Y-79143067D01*
X153867817Y-79001925D01*
X153867816Y-79001918D01*
X153803703Y-78847137D01*
X153737512Y-78748076D01*
X153710623Y-78707833D01*
X153707242Y-78703713D01*
X153679931Y-78639402D01*
X153691725Y-78570535D01*
X153715419Y-78537369D01*
X153735626Y-78517162D01*
X153767557Y-78469374D01*
X153828703Y-78377863D01*
X153892816Y-78223082D01*
X153925500Y-78058767D01*
X153925500Y-77908728D01*
X161464500Y-77908728D01*
X161464500Y-78076271D01*
X161497182Y-78240574D01*
X161497184Y-78240582D01*
X161561295Y-78395360D01*
X161654373Y-78534662D01*
X161772837Y-78653126D01*
X161865494Y-78715037D01*
X161912137Y-78746203D01*
X161912138Y-78746203D01*
X161912139Y-78746204D01*
X161916673Y-78748082D01*
X162066918Y-78810316D01*
X162231228Y-78842999D01*
X162231232Y-78843000D01*
X162231233Y-78843000D01*
X162398768Y-78843000D01*
X162398769Y-78842999D01*
X162563082Y-78810316D01*
X162717863Y-78746203D01*
X162857162Y-78653126D01*
X162975626Y-78534662D01*
X163068703Y-78395363D01*
X163132816Y-78240582D01*
X163165500Y-78076267D01*
X163165500Y-77908733D01*
X163132816Y-77744418D01*
X163068703Y-77589637D01*
X162981841Y-77459639D01*
X162975623Y-77450333D01*
X162972242Y-77446213D01*
X162944931Y-77381902D01*
X162956725Y-77313035D01*
X162980418Y-77279870D01*
X163025626Y-77234662D01*
X163034556Y-77221297D01*
X163118703Y-77095363D01*
X163182816Y-76940582D01*
X163215500Y-76776267D01*
X163215500Y-76608733D01*
X163182816Y-76444418D01*
X163118703Y-76289637D01*
X163056898Y-76197139D01*
X163025626Y-76150337D01*
X162907162Y-76031873D01*
X162767860Y-75938795D01*
X162613082Y-75874684D01*
X162613074Y-75874682D01*
X162448771Y-75842000D01*
X162448767Y-75842000D01*
X162281233Y-75842000D01*
X162281228Y-75842000D01*
X162116925Y-75874682D01*
X162116917Y-75874684D01*
X161962139Y-75938795D01*
X161822837Y-76031873D01*
X161704373Y-76150337D01*
X161611295Y-76289639D01*
X161547184Y-76444417D01*
X161547182Y-76444425D01*
X161514500Y-76608728D01*
X161514500Y-76776271D01*
X161547182Y-76940574D01*
X161547184Y-76940582D01*
X161611295Y-77095360D01*
X161704376Y-77234666D01*
X161707758Y-77238787D01*
X161735068Y-77303099D01*
X161723273Y-77371966D01*
X161699583Y-77405127D01*
X161654373Y-77450337D01*
X161561295Y-77589639D01*
X161497184Y-77744417D01*
X161497182Y-77744425D01*
X161464500Y-77908728D01*
X153925500Y-77908728D01*
X153925500Y-77891233D01*
X153892816Y-77726918D01*
X153828703Y-77572137D01*
X153753533Y-77459637D01*
X153735626Y-77432837D01*
X153617162Y-77314373D01*
X153477860Y-77221295D01*
X153323082Y-77157184D01*
X153323074Y-77157182D01*
X153158771Y-77124500D01*
X153158767Y-77124500D01*
X152991233Y-77124500D01*
X152991228Y-77124500D01*
X152826925Y-77157182D01*
X152826917Y-77157184D01*
X152672139Y-77221295D01*
X152532837Y-77314373D01*
X152414373Y-77432837D01*
X152321297Y-77572136D01*
X152313314Y-77591409D01*
X152269471Y-77645811D01*
X152203176Y-77667874D01*
X152174564Y-77665571D01*
X152121427Y-77655002D01*
X152093767Y-77649500D01*
X151926233Y-77649500D01*
X151926228Y-77649500D01*
X151761925Y-77682182D01*
X151761917Y-77682184D01*
X151601509Y-77748628D01*
X151600783Y-77746877D01*
X151541001Y-77759316D01*
X151475760Y-77734306D01*
X151434398Y-77677995D01*
X151429352Y-77659914D01*
X151417816Y-77601918D01*
X151355029Y-77450338D01*
X151353704Y-77447139D01*
X151353085Y-77446213D01*
X151290887Y-77353126D01*
X151260626Y-77307837D01*
X151236251Y-77283462D01*
X151202766Y-77222139D01*
X151207750Y-77152447D01*
X151220830Y-77126890D01*
X151222427Y-77124500D01*
X151303703Y-77002863D01*
X151367816Y-76848082D01*
X151400500Y-76683767D01*
X151400500Y-76516233D01*
X151367816Y-76351918D01*
X151303703Y-76197137D01*
X151272432Y-76150337D01*
X151210626Y-76057837D01*
X151092162Y-75939373D01*
X150952860Y-75846295D01*
X150798082Y-75782184D01*
X150798074Y-75782182D01*
X150633771Y-75749500D01*
X150633767Y-75749500D01*
X150466233Y-75749500D01*
X150466228Y-75749500D01*
X150301925Y-75782182D01*
X150301917Y-75782184D01*
X150147139Y-75846295D01*
X150007837Y-75939373D01*
X149889373Y-76057837D01*
X149796295Y-76197139D01*
X149732184Y-76351917D01*
X149732182Y-76351925D01*
X149699500Y-76516228D01*
X129400500Y-76516228D01*
X129400500Y-72606228D01*
X149689500Y-72606228D01*
X149689500Y-72773771D01*
X149722182Y-72938074D01*
X149722184Y-72938082D01*
X149786295Y-73092860D01*
X149879373Y-73232162D01*
X149997837Y-73350626D01*
X150090494Y-73412537D01*
X150137137Y-73443703D01*
X150291918Y-73507816D01*
X150431830Y-73535646D01*
X150456228Y-73540499D01*
X150456232Y-73540500D01*
X150456233Y-73540500D01*
X150623766Y-73540500D01*
X150623767Y-73540500D01*
X150648168Y-73535646D01*
X150717758Y-73541872D01*
X150772936Y-73584734D01*
X150796182Y-73650623D01*
X150780115Y-73718621D01*
X150741252Y-73760364D01*
X150697840Y-73789371D01*
X150697834Y-73789376D01*
X150579373Y-73907837D01*
X150486295Y-74047139D01*
X150422184Y-74201917D01*
X150422182Y-74201925D01*
X150389500Y-74366228D01*
X150389500Y-74533771D01*
X150422182Y-74698074D01*
X150422184Y-74698082D01*
X150486295Y-74852860D01*
X150579373Y-74992162D01*
X150697837Y-75110626D01*
X150790494Y-75172537D01*
X150837137Y-75203703D01*
X150991918Y-75267816D01*
X151156228Y-75300499D01*
X151156232Y-75300500D01*
X151156233Y-75300500D01*
X151323768Y-75300500D01*
X151323769Y-75300499D01*
X151488082Y-75267816D01*
X151642863Y-75203703D01*
X151782162Y-75110626D01*
X151900626Y-74992162D01*
X151993703Y-74852863D01*
X152057816Y-74698082D01*
X152090500Y-74533767D01*
X152090500Y-74366233D01*
X152057816Y-74201918D01*
X151993703Y-74047137D01*
X151991415Y-74043713D01*
X168649500Y-74043713D01*
X168649500Y-74256287D01*
X168682754Y-74466243D01*
X168704695Y-74533771D01*
X168748444Y-74668414D01*
X168844951Y-74857820D01*
X168969890Y-75029786D01*
X169120213Y-75180109D01*
X169292182Y-75305050D01*
X169300946Y-75309516D01*
X169351742Y-75357491D01*
X169368536Y-75425312D01*
X169345998Y-75491447D01*
X169300946Y-75530484D01*
X169292182Y-75534949D01*
X169120213Y-75659890D01*
X168969890Y-75810213D01*
X168844951Y-75982179D01*
X168748444Y-76171585D01*
X168682753Y-76373760D01*
X168649500Y-76583713D01*
X168649500Y-76796286D01*
X168682218Y-77002863D01*
X168682754Y-77006243D01*
X168746318Y-77201873D01*
X168748444Y-77208414D01*
X168844951Y-77397820D01*
X168969890Y-77569786D01*
X169120213Y-77720109D01*
X169292179Y-77845048D01*
X169292181Y-77845049D01*
X169292184Y-77845051D01*
X169301493Y-77849794D01*
X169352290Y-77897766D01*
X169369087Y-77965587D01*
X169346552Y-78031722D01*
X169301505Y-78070760D01*
X169292446Y-78075376D01*
X169292440Y-78075380D01*
X169238282Y-78114727D01*
X169238282Y-78114728D01*
X169870591Y-78747037D01*
X169807007Y-78764075D01*
X169692993Y-78829901D01*
X169599901Y-78922993D01*
X169534075Y-79037007D01*
X169517037Y-79100591D01*
X168884728Y-78468282D01*
X168884727Y-78468282D01*
X168845380Y-78522439D01*
X168748904Y-78711782D01*
X168683242Y-78913869D01*
X168683242Y-78913872D01*
X168650000Y-79123753D01*
X168650000Y-79336246D01*
X168683242Y-79546127D01*
X168683242Y-79546130D01*
X168748904Y-79748217D01*
X168845375Y-79937550D01*
X168884728Y-79991716D01*
X169517036Y-79359407D01*
X169534075Y-79422993D01*
X169599901Y-79537007D01*
X169692993Y-79630099D01*
X169807007Y-79695925D01*
X169870590Y-79712962D01*
X169238282Y-80345269D01*
X169238282Y-80345270D01*
X169292452Y-80384626D01*
X169292451Y-80384626D01*
X169301495Y-80389234D01*
X169352292Y-80437208D01*
X169369087Y-80505029D01*
X169346550Y-80571164D01*
X169301499Y-80610202D01*
X169292182Y-80614949D01*
X169120213Y-80739890D01*
X168969890Y-80890213D01*
X168844951Y-81062179D01*
X168748444Y-81251585D01*
X168682753Y-81453760D01*
X168653976Y-81635453D01*
X168649500Y-81663713D01*
X168649500Y-81876287D01*
X168682754Y-82086243D01*
X168719785Y-82200213D01*
X168748444Y-82288414D01*
X168844951Y-82477820D01*
X168969890Y-82649786D01*
X169120213Y-82800109D01*
X169292182Y-82925050D01*
X169300946Y-82929516D01*
X169351742Y-82977491D01*
X169368536Y-83045312D01*
X169345998Y-83111447D01*
X169300946Y-83150484D01*
X169292182Y-83154949D01*
X169120213Y-83279890D01*
X168969890Y-83430213D01*
X168844951Y-83602179D01*
X168748444Y-83791585D01*
X168682753Y-83993760D01*
X168659690Y-84139374D01*
X168649500Y-84203713D01*
X168649500Y-84416287D01*
X168682754Y-84626243D01*
X168713028Y-84719417D01*
X168748444Y-84828414D01*
X168844951Y-85017820D01*
X168969890Y-85189786D01*
X169083430Y-85303326D01*
X169116915Y-85364649D01*
X169111931Y-85434341D01*
X169070059Y-85490274D01*
X169039083Y-85507189D01*
X168907669Y-85556203D01*
X168907664Y-85556206D01*
X168792455Y-85642452D01*
X168792452Y-85642455D01*
X168706206Y-85757664D01*
X168706202Y-85757671D01*
X168655908Y-85892517D01*
X168649501Y-85952116D01*
X168649501Y-85952123D01*
X168649500Y-85952135D01*
X168649500Y-87747870D01*
X168649501Y-87747876D01*
X168655908Y-87807483D01*
X168706202Y-87942328D01*
X168706206Y-87942335D01*
X168792452Y-88057544D01*
X168792455Y-88057547D01*
X168907664Y-88143793D01*
X168907671Y-88143797D01*
X169042517Y-88194091D01*
X169042516Y-88194091D01*
X169049444Y-88194835D01*
X169102127Y-88200500D01*
X170897872Y-88200499D01*
X170957483Y-88194091D01*
X171092331Y-88143796D01*
X171207546Y-88057546D01*
X171293796Y-87942331D01*
X171344091Y-87807483D01*
X171350500Y-87747873D01*
X171350499Y-85952128D01*
X171344091Y-85892517D01*
X171328951Y-85851925D01*
X171293797Y-85757671D01*
X171293793Y-85757664D01*
X171207547Y-85642455D01*
X171207544Y-85642452D01*
X171092335Y-85556206D01*
X171092328Y-85556202D01*
X170960917Y-85507189D01*
X170904983Y-85465318D01*
X170880566Y-85399853D01*
X170895418Y-85331580D01*
X170916563Y-85303332D01*
X171030104Y-85189792D01*
X171155051Y-85017816D01*
X171251557Y-84828412D01*
X171317246Y-84626243D01*
X171350500Y-84416287D01*
X171350500Y-84203713D01*
X171317246Y-83993757D01*
X171251557Y-83791588D01*
X171155051Y-83602184D01*
X171155049Y-83602181D01*
X171155048Y-83602179D01*
X171030109Y-83430213D01*
X170879786Y-83279890D01*
X170707820Y-83154951D01*
X170707115Y-83154591D01*
X170699054Y-83150485D01*
X170648259Y-83102512D01*
X170631463Y-83034692D01*
X170653999Y-82968556D01*
X170699054Y-82929515D01*
X170707816Y-82925051D01*
X170729789Y-82909086D01*
X170879786Y-82800109D01*
X170879788Y-82800106D01*
X170879792Y-82800104D01*
X171030104Y-82649792D01*
X171030106Y-82649788D01*
X171030109Y-82649786D01*
X171155048Y-82477820D01*
X171155047Y-82477820D01*
X171155051Y-82477816D01*
X171251557Y-82288412D01*
X171317246Y-82086243D01*
X171350500Y-81876287D01*
X171350500Y-81663713D01*
X171317246Y-81453757D01*
X171251557Y-81251588D01*
X171155051Y-81062184D01*
X171155049Y-81062181D01*
X171155048Y-81062179D01*
X171030109Y-80890213D01*
X170879786Y-80739890D01*
X170707817Y-80614949D01*
X170698504Y-80610204D01*
X170647707Y-80562230D01*
X170630912Y-80494409D01*
X170653449Y-80428274D01*
X170698507Y-80389232D01*
X170707555Y-80384622D01*
X170761716Y-80345270D01*
X170761717Y-80345270D01*
X170129408Y-79712962D01*
X170192993Y-79695925D01*
X170307007Y-79630099D01*
X170400099Y-79537007D01*
X170465925Y-79422993D01*
X170482962Y-79359408D01*
X171115270Y-79991717D01*
X171115270Y-79991716D01*
X171154622Y-79937554D01*
X171251095Y-79748217D01*
X171316757Y-79546130D01*
X171316757Y-79546127D01*
X171350000Y-79336246D01*
X171350000Y-79123753D01*
X171316757Y-78913872D01*
X171316757Y-78913869D01*
X171251095Y-78711782D01*
X171154624Y-78522449D01*
X171115270Y-78468282D01*
X171115269Y-78468282D01*
X170482962Y-79100590D01*
X170465925Y-79037007D01*
X170400099Y-78922993D01*
X170307007Y-78829901D01*
X170192993Y-78764075D01*
X170129409Y-78747037D01*
X170761716Y-78114728D01*
X170707547Y-78075373D01*
X170707547Y-78075372D01*
X170698500Y-78070763D01*
X170647706Y-78022788D01*
X170630912Y-77954966D01*
X170653451Y-77888832D01*
X170698508Y-77849793D01*
X170707816Y-77845051D01*
X170799097Y-77778732D01*
X170879786Y-77720109D01*
X170879788Y-77720106D01*
X170879792Y-77720104D01*
X171030104Y-77569792D01*
X171030106Y-77569788D01*
X171030109Y-77569786D01*
X171155048Y-77397820D01*
X171155047Y-77397820D01*
X171155051Y-77397816D01*
X171251557Y-77208412D01*
X171317246Y-77006243D01*
X171350500Y-76796287D01*
X171350500Y-76583713D01*
X171317246Y-76373757D01*
X171251557Y-76171588D01*
X171155051Y-75982184D01*
X171155049Y-75982181D01*
X171155048Y-75982179D01*
X171030109Y-75810213D01*
X170879786Y-75659890D01*
X170707820Y-75534951D01*
X170707115Y-75534591D01*
X170699054Y-75530485D01*
X170648259Y-75482512D01*
X170631463Y-75414692D01*
X170653999Y-75348556D01*
X170699054Y-75309515D01*
X170707816Y-75305051D01*
X170759067Y-75267815D01*
X170879786Y-75180109D01*
X170879788Y-75180106D01*
X170879792Y-75180104D01*
X171030104Y-75029792D01*
X171030106Y-75029788D01*
X171030109Y-75029786D01*
X171155048Y-74857820D01*
X171155047Y-74857820D01*
X171155051Y-74857816D01*
X171251557Y-74668412D01*
X171317246Y-74466243D01*
X171350500Y-74256287D01*
X171350500Y-74043713D01*
X171317246Y-73833757D01*
X171251557Y-73631588D01*
X171155051Y-73442184D01*
X171155049Y-73442181D01*
X171155048Y-73442179D01*
X171030109Y-73270213D01*
X170879786Y-73119890D01*
X170707820Y-72994951D01*
X170518414Y-72898444D01*
X170518413Y-72898443D01*
X170518412Y-72898443D01*
X170316243Y-72832754D01*
X170316241Y-72832753D01*
X170316240Y-72832753D01*
X170154957Y-72807208D01*
X170106287Y-72799500D01*
X169893713Y-72799500D01*
X169845042Y-72807208D01*
X169683760Y-72832753D01*
X169481585Y-72898444D01*
X169292179Y-72994951D01*
X169120213Y-73119890D01*
X168969890Y-73270213D01*
X168844951Y-73442179D01*
X168748444Y-73631585D01*
X168682753Y-73833760D01*
X168649500Y-74043713D01*
X151991415Y-74043713D01*
X151900626Y-73907837D01*
X151782162Y-73789373D01*
X151642860Y-73696295D01*
X151488082Y-73632184D01*
X151488074Y-73632182D01*
X151323771Y-73599500D01*
X151323767Y-73599500D01*
X151156233Y-73599500D01*
X151131828Y-73604354D01*
X151062237Y-73598125D01*
X151007060Y-73555261D01*
X150983817Y-73489371D01*
X150999886Y-73421374D01*
X151038747Y-73379635D01*
X151082162Y-73350626D01*
X151200626Y-73232162D01*
X151293703Y-73092863D01*
X151357816Y-72938082D01*
X151390500Y-72773767D01*
X151390500Y-72606233D01*
X151390500Y-72600141D01*
X151392343Y-72600141D01*
X151400668Y-72556228D01*
X152279500Y-72556228D01*
X152279500Y-72723771D01*
X152312182Y-72888074D01*
X152312184Y-72888082D01*
X152376295Y-73042860D01*
X152469373Y-73182162D01*
X152587837Y-73300626D01*
X152662665Y-73350624D01*
X152727137Y-73393703D01*
X152881918Y-73457816D01*
X153040557Y-73489371D01*
X153046228Y-73490499D01*
X153046232Y-73490500D01*
X153046233Y-73490500D01*
X153213768Y-73490500D01*
X153213769Y-73490499D01*
X153378082Y-73457816D01*
X153532863Y-73393703D01*
X153672162Y-73300626D01*
X153790626Y-73182162D01*
X153883703Y-73042863D01*
X153947816Y-72888082D01*
X153980500Y-72723767D01*
X153980500Y-72556233D01*
X153947816Y-72391918D01*
X153883703Y-72237137D01*
X153824035Y-72147838D01*
X153790626Y-72097837D01*
X153672162Y-71979373D01*
X153532860Y-71886295D01*
X153378082Y-71822184D01*
X153378074Y-71822182D01*
X153213771Y-71789500D01*
X153213767Y-71789500D01*
X153046233Y-71789500D01*
X153046228Y-71789500D01*
X152881925Y-71822182D01*
X152881917Y-71822184D01*
X152727139Y-71886295D01*
X152587837Y-71979373D01*
X152469373Y-72097837D01*
X152376295Y-72237139D01*
X152312184Y-72391917D01*
X152312182Y-72391925D01*
X152279500Y-72556228D01*
X151400668Y-72556228D01*
X151403749Y-72539974D01*
X151438600Y-72503198D01*
X151442101Y-72498157D01*
X151445019Y-72496425D01*
X151451810Y-72489260D01*
X151467238Y-72481669D01*
X151475327Y-72478363D01*
X151478082Y-72477816D01*
X151632863Y-72413703D01*
X151772162Y-72320626D01*
X151890626Y-72202162D01*
X151983703Y-72062863D01*
X152047816Y-71908082D01*
X152080500Y-71743767D01*
X152080500Y-71576233D01*
X152047816Y-71411918D01*
X151983703Y-71257137D01*
X151952537Y-71210494D01*
X151890626Y-71117837D01*
X151772162Y-70999373D01*
X151632860Y-70906295D01*
X151478082Y-70842184D01*
X151478074Y-70842182D01*
X151313771Y-70809500D01*
X151313767Y-70809500D01*
X151146233Y-70809500D01*
X151146228Y-70809500D01*
X150981925Y-70842182D01*
X150981917Y-70842184D01*
X150827139Y-70906295D01*
X150687837Y-70999373D01*
X150569373Y-71117837D01*
X150476295Y-71257139D01*
X150412184Y-71411917D01*
X150412182Y-71411925D01*
X150379500Y-71576228D01*
X150379500Y-71749858D01*
X150377664Y-71749858D01*
X150366235Y-71810055D01*
X150318160Y-71860756D01*
X150297502Y-71869747D01*
X150297546Y-71869853D01*
X150137139Y-71936295D01*
X149997837Y-72029373D01*
X149879373Y-72147837D01*
X149786295Y-72287139D01*
X149722184Y-72441917D01*
X149722182Y-72441925D01*
X149689500Y-72606228D01*
X129400500Y-72606228D01*
X129400500Y-70324500D01*
X129420185Y-70257461D01*
X129472989Y-70211706D01*
X129524500Y-70200500D01*
X174550500Y-70200500D01*
X174617539Y-70220185D01*
G37*
%TD.AperFunction*%
%TD*%
M02*
