%TF.GenerationSoftware,KiCad,Pcbnew,10.0.0-10.0.0~ubuntu24.04.1*%
%TF.CreationDate,2026-03-31T06:42:46+02:00*%
%TF.ProjectId,main_board,6d61696e-5f62-46f6-9172-642e6b696361,rev?*%
%TF.SameCoordinates,Original*%
%TF.FileFunction,Copper,L6,Bot*%
%TF.FilePolarity,Positive*%
%FSLAX46Y46*%
G04 Gerber Fmt 4.6, Leading zero omitted, Abs format (unit mm)*
G04 Created by KiCad (PCBNEW 10.0.0-10.0.0~ubuntu24.04.1) date 2026-03-31 06:42:46*
%MOMM*%
%LPD*%
G01*
G04 APERTURE LIST*
G04 Aperture macros list*
%AMRoundRect*
0 Rectangle with rounded corners*
0 $1 Rounding radius*
0 $2 $3 $4 $5 $6 $7 $8 $9 X,Y pos of 4 corners*
0 Add a 4 corners polygon primitive as box body*
4,1,4,$2,$3,$4,$5,$6,$7,$8,$9,$2,$3,0*
0 Add four circle primitives for the rounded corners*
1,1,$1+$1,$2,$3*
1,1,$1+$1,$4,$5*
1,1,$1+$1,$6,$7*
1,1,$1+$1,$8,$9*
0 Add four rect primitives between the rounded corners*
20,1,$1+$1,$2,$3,$4,$5,0*
20,1,$1+$1,$4,$5,$6,$7,0*
20,1,$1+$1,$6,$7,$8,$9,0*
20,1,$1+$1,$8,$9,$2,$3,0*%
G04 Aperture macros list end*
%TA.AperFunction,ComponentPad*%
%ADD10R,1.700000X1.700000*%
%TD*%
%TA.AperFunction,ComponentPad*%
%ADD11C,1.700000*%
%TD*%
%TA.AperFunction,SMDPad,CuDef*%
%ADD12RoundRect,0.225000X-0.225000X-0.250000X0.225000X-0.250000X0.225000X0.250000X-0.225000X0.250000X0*%
%TD*%
%TA.AperFunction,SMDPad,CuDef*%
%ADD13RoundRect,0.200000X0.200000X0.275000X-0.200000X0.275000X-0.200000X-0.275000X0.200000X-0.275000X0*%
%TD*%
%TA.AperFunction,SMDPad,CuDef*%
%ADD14RoundRect,0.050000X0.300000X-0.050000X0.300000X0.050000X-0.300000X0.050000X-0.300000X-0.050000X0*%
%TD*%
%TA.AperFunction,SMDPad,CuDef*%
%ADD15RoundRect,0.218750X-0.218750X-0.381250X0.218750X-0.381250X0.218750X0.381250X-0.218750X0.381250X0*%
%TD*%
%TA.AperFunction,SMDPad,CuDef*%
%ADD16RoundRect,0.225000X0.225000X0.250000X-0.225000X0.250000X-0.225000X-0.250000X0.225000X-0.250000X0*%
%TD*%
%TA.AperFunction,SMDPad,CuDef*%
%ADD17RoundRect,0.225000X0.250000X-0.225000X0.250000X0.225000X-0.250000X0.225000X-0.250000X-0.225000X0*%
%TD*%
%TA.AperFunction,SMDPad,CuDef*%
%ADD18RoundRect,0.200000X0.275000X-0.200000X0.275000X0.200000X-0.275000X0.200000X-0.275000X-0.200000X0*%
%TD*%
%TA.AperFunction,SMDPad,CuDef*%
%ADD19RoundRect,0.225000X-0.250000X0.225000X-0.250000X-0.225000X0.250000X-0.225000X0.250000X0.225000X0*%
%TD*%
%TA.AperFunction,ViaPad*%
%ADD20C,0.450000*%
%TD*%
%TA.AperFunction,ViaPad*%
%ADD21C,0.600000*%
%TD*%
%TA.AperFunction,Conductor*%
%ADD22C,0.120000*%
%TD*%
%TA.AperFunction,Conductor*%
%ADD23C,0.200000*%
%TD*%
%TA.AperFunction,Conductor*%
%ADD24C,0.600000*%
%TD*%
%TA.AperFunction,Conductor*%
%ADD25C,0.500000*%
%TD*%
%TA.AperFunction,Conductor*%
%ADD26C,0.116000*%
%TD*%
G04 APERTURE END LIST*
D10*
%TO.P,P2,1,1*%
%TO.N,/FPGA/FPGA_UART_TX*%
X222110000Y-96470000D03*
D11*
%TO.P,P2,2,2*%
%TO.N,/FPGA/FPGA_UART_RX*%
X222110000Y-93930000D03*
%TO.P,P2,3,3*%
%TO.N,GND*%
X222110000Y-91390000D03*
%TD*%
D10*
%TO.P,P1,1,1*%
%TO.N,/USB3/USB_UART_TX*%
X143280000Y-33150000D03*
D11*
%TO.P,P1,2,2*%
%TO.N,/USB3/USB_UART_RX*%
X140740000Y-33150000D03*
%TO.P,P1,3,3*%
%TO.N,GND*%
X138200000Y-33150000D03*
%TD*%
D10*
%TO.P,J3,1,Pin_1*%
%TO.N,/USB3/USB_TCK*%
X149180000Y-61150000D03*
D11*
%TO.P,J3,2,Pin_2*%
%TO.N,GND*%
X146640000Y-61150000D03*
%TO.P,J3,3,Pin_3*%
%TO.N,/USB3/USB_TDO*%
X149180000Y-58610000D03*
%TO.P,J3,4,Pin_4*%
%TO.N,+3V3*%
X146640000Y-58610000D03*
%TO.P,J3,5,Pin_5*%
%TO.N,/USB3/USB_TMS*%
X149180000Y-56070000D03*
%TO.P,J3,6,Pin_6*%
%TO.N,unconnected-(J3-Pin_6-Pad6)*%
X146640000Y-56070000D03*
%TO.P,J3,7,Pin_7*%
%TO.N,/USB3/USB_TDI*%
X149180000Y-53530000D03*
%TO.P,J3,8,Pin_8*%
%TO.N,unconnected-(J3-Pin_8-Pad8)*%
X146640000Y-53530000D03*
%TO.P,J3,9,Pin_9*%
%TO.N,/USB3/USB_~{TRST}*%
X149180000Y-50990000D03*
%TO.P,J3,10,Pin_10*%
%TO.N,GND*%
X146640000Y-50990000D03*
%TD*%
D10*
%TO.P,J7,1,Pin_1*%
%TO.N,/FPGA/FPGA_TCK*%
X149300000Y-81410000D03*
D11*
%TO.P,J7,2,Pin_2*%
%TO.N,GND*%
X146760000Y-81410000D03*
%TO.P,J7,3,Pin_3*%
%TO.N,/FPGA/FPGA_TDO*%
X149300000Y-78870000D03*
%TO.P,J7,4,Pin_4*%
%TO.N,+3V3*%
X146760000Y-78870000D03*
%TO.P,J7,5,Pin_5*%
%TO.N,/FPGA/FPGA_TMS*%
X149300000Y-76330000D03*
%TO.P,J7,6,Pin_6*%
%TO.N,unconnected-(J7-Pin_6-Pad6)*%
X146760000Y-76330000D03*
%TO.P,J7,7,Pin_7*%
%TO.N,unconnected-(J7-Pin_7-Pad7)*%
X149300000Y-73790000D03*
%TO.P,J7,8,Pin_8*%
%TO.N,unconnected-(J7-Pin_8-Pad8)*%
X146760000Y-73790000D03*
%TO.P,J7,9,Pin_9*%
%TO.N,/FPGA/FPGA_TDI*%
X149300000Y-71250000D03*
%TO.P,J7,10,Pin_10*%
%TO.N,GND*%
X146760000Y-71250000D03*
%TD*%
D12*
%TO.P,C37,1*%
%TO.N,GND*%
X215630000Y-52590000D03*
%TO.P,C37,2*%
%TO.N,Net-(U7A-CVDDQ)*%
X217180000Y-52590000D03*
%TD*%
D13*
%TO.P,R14,1,1*%
%TO.N,Net-(U7A-VBATT)*%
X213760000Y-59030000D03*
%TO.P,R14,2,2*%
%TO.N,+3V3*%
X212110000Y-59030000D03*
%TD*%
D14*
%TO.P,J4,1,1*%
%TO.N,+5V*%
X169500000Y-146310000D03*
%TO.P,J4,2,2*%
X172580000Y-146310000D03*
%TO.P,J4,3,3*%
X169500000Y-145910000D03*
%TO.P,J4,4,4*%
X172580000Y-145910000D03*
%TO.P,J4,5,5*%
X169500000Y-145510000D03*
%TO.P,J4,6,6*%
X172580000Y-145510000D03*
%TO.P,J4,7,7*%
X169500000Y-145110000D03*
%TO.P,J4,8,8*%
X172580000Y-145110000D03*
%TO.P,J4,9,9*%
X169500000Y-144710000D03*
%TO.P,J4,10,10*%
X172580000Y-144710000D03*
%TO.P,J4,11,11*%
%TO.N,GND*%
X169500000Y-144310000D03*
%TO.P,J4,12,12*%
X172580000Y-144310000D03*
%TO.P,J4,13,13*%
X169500000Y-143910000D03*
%TO.P,J4,14,14*%
X172580000Y-143910000D03*
%TO.P,J4,15,15*%
%TO.N,/extension/CAM2_CLK_N*%
X169500000Y-143510000D03*
%TO.P,J4,16,16*%
%TO.N,/extension/XVS0*%
X172580000Y-143510000D03*
%TO.P,J4,17,17*%
%TO.N,/extension/CAM2_CLK_P*%
X169500000Y-143110000D03*
%TO.P,J4,18,18*%
%TO.N,/extension/XVS1*%
X172580000Y-143110000D03*
%TO.P,J4,19,19*%
%TO.N,GND*%
X169500000Y-142710000D03*
%TO.P,J4,20,20*%
X172580000Y-142710000D03*
%TO.P,J4,21,21*%
%TO.N,/extension/CAM2_D2_N*%
X169500000Y-142310000D03*
%TO.P,J4,22,22*%
%TO.N,SCL_1V8*%
X172580000Y-142310000D03*
%TO.P,J4,23,23*%
%TO.N,/extension/CAM2_D2_P*%
X169500000Y-141910000D03*
%TO.P,J4,24,24*%
%TO.N,SDA_1V8*%
X172580000Y-141910000D03*
%TO.P,J4,25,25*%
%TO.N,GND*%
X169500000Y-141510000D03*
%TO.P,J4,26,26*%
X172580000Y-141510000D03*
%TO.P,J4,27,27*%
%TO.N,/extension/CAM2_D4_N*%
X169500000Y-141110000D03*
%TO.P,J4,28,28*%
%TO.N,ENABLE_XTAL*%
X172580000Y-141110000D03*
%TO.P,J4,29,29*%
%TO.N,/extension/CAM2_D4_P*%
X169500000Y-140710000D03*
%TO.P,J4,30,30*%
%TO.N,ENABLE_XCLR*%
X172580000Y-140710000D03*
%TO.P,J4,31,31*%
%TO.N,GND*%
X169500000Y-140310000D03*
%TO.P,J4,32,32*%
%TO.N,ENABLE_PWR*%
X172580000Y-140310000D03*
%TO.P,J4,33,33*%
%TO.N,/extension/CAM2_D3_P*%
X169500000Y-139910000D03*
%TO.P,J4,34,34*%
%TO.N,GND*%
X172580000Y-139910000D03*
%TO.P,J4,35,35*%
%TO.N,/extension/CAM2_D3_N*%
X169500000Y-139510000D03*
%TO.P,J4,36,36*%
%TO.N,GND*%
X172580000Y-139510000D03*
%TO.P,J4,37,37*%
X169500000Y-139110000D03*
%TO.P,J4,38,38*%
X172580000Y-139110000D03*
%TO.P,J4,39,39*%
%TO.N,/extension/CAM2_D1_P*%
X169500000Y-138710000D03*
%TO.P,J4,40,40*%
%TO.N,GND*%
X172580000Y-138710000D03*
%TO.P,J4,41,41*%
%TO.N,/extension/CAM2_D1_N*%
X169500000Y-138310000D03*
%TO.P,J4,42,42*%
%TO.N,GND*%
X172580000Y-138310000D03*
%TO.P,J4,43,43*%
X169500000Y-137910000D03*
%TO.P,J4,44,44*%
X172580000Y-137910000D03*
%TO.P,J4,45,45*%
%TO.N,/extension/CAM1_CLK_N*%
X169500000Y-137510000D03*
%TO.P,J4,46,46*%
%TO.N,GND*%
X172580000Y-137510000D03*
%TO.P,J4,47,47*%
%TO.N,/extension/CAM1_CLK_P*%
X169500000Y-137110000D03*
%TO.P,J4,48,48*%
%TO.N,GND*%
X172580000Y-137110000D03*
%TO.P,J4,49,49*%
X169500000Y-136710000D03*
%TO.P,J4,50,50*%
X172580000Y-136710000D03*
%TO.P,J4,51,51*%
%TO.N,/extension/CAM1_D2_N*%
X169500000Y-136310000D03*
%TO.P,J4,52,52*%
%TO.N,/extension/CAM1_D1_N*%
X172580000Y-136310000D03*
%TO.P,J4,53,53*%
%TO.N,/extension/CAM1_D2_P*%
X169500000Y-135910000D03*
%TO.P,J4,54,54*%
%TO.N,/extension/CAM1_D1_P*%
X172580000Y-135910000D03*
%TO.P,J4,55,55*%
%TO.N,GND*%
X169500000Y-135510000D03*
%TO.P,J4,56,56*%
X172580000Y-135510000D03*
%TO.P,J4,57,57*%
%TO.N,/extension/CAM1_D4_N*%
X169500000Y-135110000D03*
%TO.P,J4,58,58*%
%TO.N,/extension/CAM1_D3_N*%
X172580000Y-135110000D03*
%TO.P,J4,59,59*%
%TO.N,/extension/CAM1_D4_P*%
X169500000Y-134710000D03*
%TO.P,J4,60,60*%
%TO.N,/extension/CAM1_D3_P*%
X172580000Y-134710000D03*
%TD*%
D15*
%TO.P,FB2,1,1*%
%TO.N,+1V8*%
X215345000Y-54260000D03*
%TO.P,FB2,2,2*%
%TO.N,Net-(U7A-CVDDQ)*%
X217470000Y-54260000D03*
%TD*%
D16*
%TO.P,C50,1*%
%TO.N,GND*%
X213695000Y-60560000D03*
%TO.P,C50,2*%
%TO.N,+3V3*%
X212145000Y-60560000D03*
%TD*%
D12*
%TO.P,C44,1*%
%TO.N,GND*%
X215605000Y-51050000D03*
%TO.P,C44,2*%
%TO.N,Net-(U7A-CVDDQ)*%
X217155000Y-51050000D03*
%TD*%
D17*
%TO.P,C52,1*%
%TO.N,GND*%
X218680000Y-52555000D03*
%TO.P,C52,2*%
%TO.N,+1V8*%
X218680000Y-51005000D03*
%TD*%
D18*
%TO.P,R10,1,1*%
%TO.N,+1V8*%
X212560000Y-56415000D03*
%TO.P,R10,2,2*%
%TO.N,Net-(U7A-RESET#)*%
X212560000Y-54765000D03*
%TD*%
D19*
%TO.P,C58,1*%
%TO.N,GND*%
X154940000Y-121730000D03*
%TO.P,C58,2*%
%TO.N,+1V2_LDO*%
X154940000Y-123280000D03*
%TD*%
D20*
%TO.N,GND*%
X205760000Y-99750000D03*
X217190000Y-65640000D03*
X213970000Y-90240000D03*
X172810000Y-86170000D03*
X212929000Y-130211000D03*
X167060000Y-83730000D03*
X156260000Y-122350000D03*
X170150000Y-100260000D03*
X171870000Y-143900000D03*
X208510000Y-77720000D03*
X173200000Y-137500000D03*
X206094000Y-126971000D03*
X219670000Y-52320000D03*
X211595000Y-77775000D03*
X204609000Y-147599000D03*
X205190000Y-45430000D03*
X221030000Y-39360000D03*
X162630000Y-124340000D03*
X216659000Y-125581000D03*
X197779000Y-129701000D03*
X216714000Y-129346000D03*
X218470000Y-49170000D03*
X203121000Y-143739000D03*
X156260000Y-120820000D03*
X170140000Y-93750000D03*
X200539000Y-145839000D03*
X181050000Y-123250000D03*
X211520000Y-87750000D03*
X166990000Y-100740000D03*
X213350899Y-114593820D03*
X205860000Y-73890000D03*
X206920000Y-46660000D03*
X164530000Y-93750000D03*
X197959000Y-120321000D03*
X216659000Y-126911000D03*
X211570000Y-82730000D03*
X221877500Y-35170000D03*
X203419000Y-143249000D03*
X166990000Y-107320000D03*
X205870000Y-94730000D03*
X178710000Y-123290000D03*
X221947500Y-36480000D03*
X207029000Y-141879000D03*
X172710000Y-88740000D03*
X206079000Y-122121000D03*
X173310000Y-138320000D03*
X197959000Y-118121000D03*
X167391458Y-123609906D03*
X179680000Y-124350000D03*
X172890000Y-123800000D03*
X211500000Y-97240000D03*
X221947500Y-38840000D03*
X221020000Y-36400000D03*
X171860000Y-141520000D03*
X219330000Y-49290000D03*
X223660899Y-117523820D03*
X165530000Y-122520000D03*
X210430000Y-41230000D03*
X167080000Y-86230000D03*
X206139000Y-124911000D03*
X216670899Y-113403820D03*
X220080000Y-49300000D03*
X214190899Y-114593820D03*
X213990000Y-75220000D03*
X170110000Y-143900000D03*
X214100000Y-99740000D03*
X207799000Y-133569000D03*
X197909000Y-123501000D03*
X171950000Y-139500000D03*
X214080000Y-94760000D03*
X216210000Y-49530000D03*
X208440000Y-82740000D03*
X170290000Y-141510000D03*
X223690899Y-119283820D03*
X211360000Y-132000000D03*
X218720000Y-58540000D03*
X181870000Y-121900000D03*
X172800000Y-81170000D03*
X220970000Y-34100000D03*
X172730000Y-96260000D03*
X221530000Y-48140000D03*
X211219000Y-123501000D03*
X177510000Y-119880000D03*
X218980000Y-104180000D03*
X172810000Y-83740000D03*
X160530000Y-119830000D03*
X215409912Y-104354298D03*
X176610000Y-116630000D03*
X161780000Y-120910000D03*
X216759000Y-121241000D03*
X172950000Y-78760000D03*
X200559000Y-148179000D03*
X205840000Y-73260000D03*
X167070000Y-78740000D03*
X205440000Y-44400000D03*
X223660899Y-116623820D03*
X206154000Y-129761000D03*
X172590000Y-74230000D03*
X166990000Y-106740000D03*
X168800000Y-144340000D03*
X172660000Y-91250000D03*
X200549000Y-146699000D03*
X216650000Y-117930000D03*
X213360000Y-50690000D03*
X168720000Y-136710000D03*
X197899000Y-124471000D03*
X197789000Y-128151000D03*
X162650000Y-121870000D03*
X225420000Y-80760000D03*
X205830000Y-104740000D03*
X223680899Y-120993820D03*
X197779000Y-129121000D03*
X218680000Y-53500000D03*
X206059000Y-121151000D03*
X167764459Y-124001634D03*
X210920000Y-45180000D03*
X221020000Y-38760000D03*
X170180000Y-106740000D03*
X173250000Y-139910000D03*
X222007500Y-40550000D03*
X205420000Y-46680000D03*
X160460000Y-124320000D03*
X165580000Y-120630000D03*
X172680000Y-100760000D03*
X209020000Y-53760000D03*
X208550000Y-75240000D03*
X215240000Y-83620000D03*
X164440000Y-96250000D03*
X167200000Y-91580000D03*
X177480000Y-124420000D03*
X208400000Y-97230000D03*
X164670000Y-123410000D03*
X206129000Y-117251000D03*
X200549000Y-147379000D03*
X208450000Y-93260000D03*
X220820000Y-49280000D03*
X201349000Y-153289000D03*
X223650899Y-115983820D03*
X197929000Y-121251000D03*
X221937500Y-35880000D03*
X222590000Y-82350000D03*
X206190000Y-48240000D03*
X213360000Y-49910000D03*
X208750000Y-35080000D03*
X220990000Y-35510000D03*
X200579000Y-144239000D03*
X209530000Y-35140000D03*
X164390000Y-72660000D03*
X200559000Y-145099000D03*
X163690000Y-126370000D03*
X206019000Y-122961000D03*
X214070000Y-85250000D03*
X167009900Y-99249900D03*
X159490000Y-123260000D03*
X207639000Y-142729000D03*
X215940899Y-114603820D03*
X221967500Y-38100000D03*
X208370000Y-102240000D03*
X213330000Y-51490000D03*
X206089251Y-118082345D03*
X197759000Y-126611000D03*
X218660000Y-57600000D03*
X215290000Y-84910000D03*
X223550899Y-114693820D03*
X167030000Y-105250000D03*
X207789000Y-134379000D03*
X212929000Y-130911000D03*
X164680000Y-122900000D03*
X206119000Y-125821000D03*
X223140000Y-104090000D03*
X175500000Y-125260000D03*
X161830000Y-123220000D03*
X172600000Y-75250000D03*
X221020000Y-32720000D03*
X173310000Y-144290000D03*
X164380000Y-76250000D03*
X224670000Y-80730000D03*
X159510000Y-120950000D03*
X164370000Y-75700000D03*
X216759000Y-119791000D03*
X222840899Y-121023820D03*
X173260000Y-142690000D03*
X220290000Y-59810000D03*
X223660899Y-118153820D03*
X163964867Y-118042497D03*
X154070000Y-121240000D03*
X212520000Y-46740000D03*
X201469000Y-134919000D03*
X172700000Y-103750000D03*
X164430000Y-81250000D03*
X179750000Y-119860000D03*
X201289000Y-150829000D03*
X162650000Y-119900000D03*
X214130000Y-44390000D03*
X216669000Y-124601000D03*
X170170000Y-99250000D03*
X211530000Y-92220000D03*
X205900000Y-80250000D03*
X206134000Y-130671000D03*
X222760899Y-114713820D03*
X205380000Y-53130000D03*
X177580000Y-121880000D03*
X205750000Y-85240000D03*
X217010000Y-49530000D03*
X206034000Y-127811000D03*
X213200000Y-131970000D03*
X214740000Y-62730000D03*
X216940000Y-119240000D03*
X216980000Y-55410000D03*
X158260000Y-124390000D03*
X170130000Y-105250000D03*
X206240000Y-46780000D03*
X170170000Y-107330000D03*
X181000000Y-120940000D03*
X197779000Y-127501000D03*
X218820000Y-55420000D03*
X189540000Y-124150000D03*
X213550000Y-62590000D03*
X168740000Y-135510000D03*
X214795000Y-37885000D03*
X173210000Y-135510000D03*
X216659000Y-123131000D03*
X216689000Y-127811000D03*
X163700000Y-126990000D03*
X221080000Y-40810000D03*
X216669000Y-123931000D03*
X214830000Y-37120000D03*
X217380000Y-131910000D03*
X203160000Y-142740000D03*
X181870000Y-119930000D03*
X221090000Y-40070000D03*
X211229000Y-118881000D03*
X197939000Y-117231000D03*
X181850000Y-124370000D03*
X173150000Y-136730000D03*
X222680899Y-111233820D03*
X158290000Y-119850000D03*
X221887500Y-34430000D03*
X217180000Y-104240000D03*
X178430000Y-126500000D03*
X170280000Y-140310000D03*
X158360000Y-121850000D03*
X175430000Y-122920000D03*
X216650899Y-117113820D03*
X216699000Y-128481000D03*
X211480000Y-102240000D03*
X206039000Y-120321000D03*
X223550899Y-111233820D03*
X221977500Y-39730000D03*
X179150000Y-126520000D03*
X221957500Y-37250000D03*
X197879000Y-121961000D03*
X156270000Y-123330000D03*
X221540000Y-48900000D03*
X171950000Y-138710000D03*
X208440000Y-92220000D03*
X214210000Y-104760000D03*
X172140000Y-123810000D03*
X171940000Y-137900000D03*
X211140000Y-33340000D03*
X197869000Y-125981000D03*
X170190000Y-102250000D03*
X172620000Y-72670000D03*
X176590000Y-117210000D03*
X223710899Y-115213820D03*
X197899000Y-125051000D03*
X197969000Y-118771000D03*
X173240000Y-139110000D03*
X214900899Y-114623820D03*
X160660000Y-128780000D03*
X219120000Y-131910000D03*
X216670899Y-112713820D03*
X221997500Y-41140000D03*
X167101498Y-88733646D03*
X162320000Y-114670000D03*
X167000034Y-102249423D03*
X172680000Y-99730000D03*
X197749000Y-130631000D03*
X204539000Y-146029000D03*
X197959000Y-119741000D03*
X205780000Y-90260000D03*
X217610000Y-49150000D03*
X220960000Y-34690000D03*
X168700000Y-137760000D03*
X208990000Y-44280000D03*
X170350000Y-139110000D03*
X205890000Y-92790000D03*
X215410000Y-49530000D03*
X214760000Y-61830000D03*
X168840000Y-142680000D03*
X221000000Y-37140000D03*
X214420000Y-50340000D03*
X216749000Y-120421000D03*
X213990000Y-80250000D03*
X220580000Y-52310000D03*
X211299000Y-128191000D03*
X167020000Y-103760000D03*
X208440000Y-87750000D03*
X197899000Y-122851000D03*
X205820000Y-72560000D03*
X178730000Y-120980000D03*
X221010000Y-37990000D03*
X164370000Y-74250000D03*
X217300000Y-40660000D03*
X201469000Y-135749000D03*
D21*
%TO.N,+5V*%
X173620000Y-145510000D03*
D20*
%TO.N,+12V*%
X196920000Y-124530000D03*
X198342000Y-140040000D03*
%TO.N,+3V3*%
X145810000Y-36340000D03*
X212990000Y-44280000D03*
D21*
X201680000Y-115290000D03*
D20*
%TO.N,+2V5*%
X180000000Y-142150000D03*
X196000000Y-77450000D03*
X205040000Y-51020000D03*
X185970000Y-123850000D03*
X207820000Y-54100000D03*
X173818901Y-122191008D03*
X178950000Y-146920000D03*
%TO.N,+1V2*%
X200429000Y-131201000D03*
X210960000Y-51500000D03*
X217740000Y-34910000D03*
X217690000Y-34050000D03*
X213360000Y-52330000D03*
X217750000Y-38800000D03*
X194510000Y-63350000D03*
X204200000Y-62520000D03*
X217700000Y-36450000D03*
X200750000Y-54900000D03*
X217760000Y-35650000D03*
X216130000Y-43920000D03*
X217719581Y-37144157D03*
X217720000Y-37870000D03*
X222330000Y-31910000D03*
X217690000Y-33250000D03*
X195910000Y-36490000D03*
X218490000Y-43590000D03*
X210030000Y-55190000D03*
X203200000Y-49530000D03*
X208200000Y-42540000D03*
X203170000Y-48400000D03*
X217790000Y-39590000D03*
X217690000Y-32360000D03*
%TO.N,+1V8*%
X216270000Y-56420000D03*
X196470385Y-42897145D03*
X219240000Y-111230000D03*
X216300000Y-59910000D03*
X221330000Y-79780000D03*
X145790000Y-45470000D03*
%TO.N,+1V2_LDO*%
X219630000Y-117300000D03*
X179280000Y-117950000D03*
X155850000Y-122910000D03*
%TO.N,Net-(U7A-AVDD)*%
X214400000Y-49530000D03*
X213330000Y-47580000D03*
X224382461Y-43268531D03*
X214480000Y-45350000D03*
%TO.N,Net-(U7A-XTALOUT)*%
X214840000Y-35620000D03*
X212560000Y-49900000D03*
%TO.N,Net-(U7A-CVDDQ)*%
X213330000Y-48380000D03*
%TO.N,Net-(U7A-XTALIN)*%
X208220000Y-37230000D03*
X211940000Y-48540000D03*
%TO.N,Net-(D1-A2)*%
X215280000Y-110330000D03*
X208590000Y-105250000D03*
%TO.N,/extension/CAM1_CLK_P*%
X175470000Y-123880000D03*
%TO.N,/extension/CAM1_D3_P*%
X179850000Y-126340000D03*
%TO.N,MIPI1_LP_B_P*%
X184420000Y-122020000D03*
X167080000Y-93360000D03*
%TO.N,MIPI1_LP_B_N*%
X167070000Y-92570000D03*
X184070000Y-122480000D03*
%TO.N,MIPI1_HS_A_N*%
X167100000Y-97650000D03*
X184770000Y-97880000D03*
%TO.N,/extension/CAM1_D1_N*%
X184020000Y-124240000D03*
%TO.N,/extension/CAM1_D4_N*%
X170130000Y-135180000D03*
%TO.N,MIPI1_HS_D_P*%
X177330000Y-117910000D03*
X177450000Y-106840000D03*
%TO.N,MIPI1_HS_B_N*%
X183020000Y-103850000D03*
X172930000Y-93910000D03*
%TO.N,MIPI1_LP_D_N*%
X175390000Y-120290000D03*
X163830000Y-93800000D03*
%TO.N,MIPI1_LP_A_P*%
X193350000Y-122090000D03*
X178710000Y-104460000D03*
%TO.N,MIPI1_HS_C_P*%
X170040000Y-95850000D03*
X179510000Y-113680000D03*
%TO.N,/extension/CAM1_D1_P*%
X184010000Y-125090000D03*
%TO.N,/extension/CAM1_D2_N*%
X170140000Y-136400000D03*
%TO.N,MIPI1_LP_E_N*%
X172760000Y-92740000D03*
X175022621Y-121298762D03*
%TO.N,MIPI1_LP_A_N*%
X178690000Y-105280000D03*
X193350000Y-122791603D03*
%TO.N,MIPI1_LP_C_N*%
X164410000Y-96880000D03*
X183980000Y-121500000D03*
%TO.N,MIPI1_HS_E_N*%
X167190000Y-89970000D03*
X161328800Y-99000000D03*
%TO.N,MIPI1_LP_D_P*%
X163210000Y-93780000D03*
X174690000Y-120340000D03*
%TO.N,/extension/CAM1_D3_N*%
X180660000Y-126350000D03*
%TO.N,/extension/CAM1_D2_P*%
X170140000Y-135790000D03*
%TO.N,/extension/CAM1_D4_P*%
X170130000Y-134590000D03*
%TO.N,MIPI1_LP_C_P*%
X164430000Y-97560000D03*
X183940000Y-120910000D03*
%TO.N,MIPI1_HS_D_N*%
X178170000Y-117900000D03*
X178150000Y-106870000D03*
%TO.N,MIPI1_HS_C_N*%
X180085003Y-113680000D03*
X170050000Y-95130000D03*
%TO.N,/extension/CAM1_CLK_N*%
X175490000Y-124470000D03*
%TO.N,MIPI1_HS_B_P*%
X172930000Y-95020000D03*
X183050000Y-103240000D03*
%TO.N,MIPI1_HS_A_P*%
X184442021Y-98352289D03*
X167110000Y-98310000D03*
%TO.N,MIPI1_HS_E_P*%
X160880000Y-99480000D03*
X167190000Y-90870000D03*
%TO.N,MIPI1_LP_E_P*%
X175000000Y-122000000D03*
X173390000Y-92760000D03*
%TO.N,/extension/CAM2_D4_N*%
X166960000Y-123990000D03*
%TO.N,/extension/CAM2_D2_N*%
X170020000Y-142310000D03*
%TO.N,MIPI2_HS_A_P*%
X160690000Y-92840000D03*
X164520000Y-92370000D03*
%TO.N,/extension/CAM2_D3_N*%
X165528800Y-121210000D03*
%TO.N,MIPI2_LP_D_P*%
X158660000Y-126825003D03*
X173700000Y-87730000D03*
%TO.N,/extension/CAM2_D1_N*%
X162730000Y-117992499D03*
%TO.N,/extension/CAM2_D2_P*%
X168950000Y-141880000D03*
%TO.N,MIPI2_HS_A_N*%
X164520000Y-91570000D03*
X161100000Y-92360000D03*
%TO.N,MIPI2_HS_C_P*%
X170120000Y-89890000D03*
X152827857Y-90432978D03*
%TO.N,MIPI2_LP_B_N*%
X160860000Y-117420000D03*
X173850000Y-90730000D03*
%TO.N,MIPI2_LP_E_N*%
X170063017Y-86682249D03*
X159670000Y-126300000D03*
%TO.N,MIPI2_HS_E_N*%
X170100000Y-91510000D03*
X148120000Y-101910000D03*
%TO.N,MIPI2_LP_B_P*%
X173270000Y-90750000D03*
X160035967Y-117400052D03*
%TO.N,MIPI2_LP_C_N*%
X164200000Y-86600000D03*
X159735003Y-117890000D03*
%TO.N,MIPI2_HS_E_P*%
X147680000Y-102560000D03*
X170080000Y-92370000D03*
%TO.N,MIPI2_HS_B_N*%
X158600000Y-90330000D03*
X164460000Y-89040000D03*
%TO.N,/extension/CAM2_CLK_P*%
X162985140Y-126987225D03*
%TO.N,MIPI2_LP_A_P*%
X167820000Y-87180000D03*
X161170000Y-117930000D03*
%TO.N,MIPI2_LP_E_P*%
X160231310Y-126175264D03*
X170051339Y-87257133D03*
%TO.N,/extension/CAM2_D3_P*%
X165538800Y-121940000D03*
%TO.N,/extension/CAM2_D1_P*%
X163304636Y-118013023D03*
%TO.N,/extension/CAM2_D4_P*%
X167370000Y-124420000D03*
%TO.N,MIPI2_HS_C_N*%
X170120000Y-89040000D03*
X153150000Y-89940000D03*
%TO.N,MIPI2_LP_C_P*%
X163625100Y-86610847D03*
X159160000Y-117890000D03*
%TO.N,/extension/CAM2_CLK_N*%
X162960000Y-126410000D03*
%TO.N,MIPI2_LP_D_N*%
X158660000Y-126250000D03*
X172980000Y-87720000D03*
%TO.N,MIPI2_HS_D_P*%
X164140000Y-85870000D03*
X149890000Y-87750000D03*
%TO.N,MIPI2_HS_D_N*%
X150150000Y-87180000D03*
X164110000Y-85140000D03*
%TO.N,MIPI2_LP_A_N*%
X161820000Y-117970000D03*
X168410000Y-87150000D03*
%TO.N,MIPI2_HS_B_P*%
X164500000Y-89880000D03*
X158155068Y-90754932D03*
%TO.N,/USB3/USB_TCK*%
X210160000Y-48340000D03*
%TO.N,/USB3/USB_~{TRST}*%
X152200000Y-58580000D03*
X213270000Y-53020000D03*
%TO.N,/USB3/USB_TDI*%
X210940000Y-49880000D03*
%TO.N,/USB3/USB_TMS*%
X210970000Y-50720000D03*
X151710000Y-52910000D03*
%TO.N,/USB3/USB_TDO*%
X212495001Y-52244999D03*
%TO.N,ENABLE_XCLR*%
X207830000Y-49980000D03*
X195280000Y-128840000D03*
X187220000Y-67810000D03*
X171960000Y-140690000D03*
X195300000Y-127540000D03*
%TO.N,ENABLE_PWR*%
X204210000Y-97450000D03*
D21*
X215568539Y-118321461D03*
D20*
X207750000Y-48370000D03*
X187890000Y-76010000D03*
%TO.N,ENABLE_XTAL*%
X195320000Y-129560000D03*
X208620000Y-49090000D03*
X173230000Y-141150000D03*
X194400000Y-127470000D03*
X186370000Y-68080000D03*
%TO.N,FPGA_D30*%
X214770000Y-78800000D03*
X210910000Y-47610000D03*
%TO.N,FPGA_D28*%
X214740000Y-77320000D03*
X209440000Y-47590000D03*
%TO.N,FPGA_D14*%
X205740000Y-74740000D03*
X206970000Y-50740000D03*
%TO.N,FPGA_D24*%
X209430000Y-46780000D03*
X186800000Y-57600000D03*
%TO.N,RESET_FPGA*%
X211580000Y-90740000D03*
X208630000Y-49890000D03*
%TO.N,FPGA_D25*%
X173110000Y-57720000D03*
X179350000Y-49270000D03*
%TO.N,FPGA_D17*%
X185980000Y-49900000D03*
X178200000Y-57980000D03*
%TO.N,FPGA_CLK*%
X186870000Y-66090000D03*
X202160000Y-49710000D03*
%TO.N,FPGA_D26*%
X187400000Y-62000000D03*
X208620000Y-45960000D03*
%TO.N,FPGA_D16*%
X199340000Y-44980000D03*
X187510000Y-58850000D03*
%TO.N,FPGA_D29*%
X222040000Y-59691000D03*
X213610000Y-43080000D03*
%TO.N,FPGA_D31*%
X214800000Y-78200000D03*
X210970000Y-46740000D03*
%TO.N,FPGA_D27*%
X172560000Y-58350000D03*
X178445000Y-49325000D03*
%TO.N,FPGA_D15*%
X208600000Y-50710000D03*
X208550000Y-74230000D03*
%TO.N,FPGA_D2*%
X173280000Y-82100000D03*
X210180000Y-49940000D03*
%TO.N,FrameSync*%
X159870000Y-67520000D03*
X164220000Y-83670000D03*
%TO.N,FPGA_D13*%
X169220000Y-68430000D03*
X188460000Y-51840000D03*
%TO.N,LineSync*%
X177180000Y-51100000D03*
X164200000Y-82840000D03*
%TO.N,/FPGA/FPGA_TCK*%
X173330000Y-73750000D03*
%TO.N,FPGA_D8*%
X186180000Y-54180000D03*
X169680000Y-80660000D03*
%TO.N,FPGA_D4*%
X208610000Y-51500000D03*
X207640000Y-56060000D03*
%TO.N,FPGA_D12*%
X167970000Y-67610000D03*
X182210000Y-53140000D03*
%TO.N,FPGA_D21*%
X162120000Y-78970000D03*
X180335000Y-49285000D03*
%TO.N,/FPGA/FPGA_TDO*%
X163850193Y-73741417D03*
%TO.N,FPGA_D1*%
X169870000Y-82770000D03*
X209410000Y-51520000D03*
%TO.N,FPGA_D20*%
X172650000Y-64010000D03*
X188255000Y-48575000D03*
%TO.N,FPGA_D10*%
X184400000Y-54930000D03*
X173000000Y-76000000D03*
%TO.N,/FPGA/FPGA_TMS*%
X173090000Y-73220000D03*
%TO.N,FPGA_D6*%
X196250000Y-55540000D03*
X167130000Y-80820000D03*
%TO.N,/FPGA/FPGA_TDI*%
X164180000Y-73200000D03*
%TO.N,FPGA_D3*%
X177870000Y-81770000D03*
X201140000Y-58240000D03*
%TO.N,FPGA_D18*%
X182275000Y-49395000D03*
X163320000Y-78250000D03*
%TO.N,FPGA_D11*%
X187180000Y-52450000D03*
X185530000Y-61990000D03*
%TO.N,FPGA_D9*%
X201470000Y-55030000D03*
X179045000Y-80305000D03*
%TO.N,FPGA_D5*%
X209430000Y-50680000D03*
X167975000Y-83415000D03*
%TO.N,FPGA_D0*%
X201900000Y-58250000D03*
X179575000Y-81645000D03*
%TO.N,FPGA_D22*%
X174070000Y-60370000D03*
X207010000Y-42410000D03*
%TO.N,FPGA_D23*%
X173610000Y-76670000D03*
X207840000Y-45990000D03*
%TO.N,FPGA_D19*%
X162670000Y-77750000D03*
X181420000Y-49340000D03*
%TO.N,FPGA_D7*%
X203580000Y-56800000D03*
X207770000Y-50720000D03*
%TO.N,/USB3/USB_UART_TX*%
X212580000Y-45140000D03*
%TO.N,/USB3/USB_UART_RX*%
X211620000Y-47550000D03*
%TO.N,Net-(U2-FB)*%
X209159000Y-123601000D03*
X212459000Y-122971000D03*
%TO.N,Net-(U3-FB)*%
X212439000Y-127511000D03*
X209049000Y-128171000D03*
%TO.N,Net-(U7A-RESET#)*%
X212540000Y-47560000D03*
X213120000Y-55450000D03*
%TO.N,Net-(U7A-R_USB2)*%
X214440000Y-64100000D03*
X212580000Y-51520000D03*
%TO.N,Net-(U7A-R_USB3)*%
X213370000Y-45820000D03*
X214430000Y-33320000D03*
%TO.N,Net-(U7A-VBATT)*%
X212210000Y-55520000D03*
%TO.N,/USB3/PMOD1*%
X199700000Y-42950000D03*
X207860000Y-46820000D03*
%TO.N,/USB3/SDA_1V8*%
X218880000Y-75020000D03*
X211740000Y-52290000D03*
%TO.N,/USB3/SCL_1V8*%
X217960000Y-76160000D03*
X211770000Y-51510000D03*
%TO.N,/USB3/PMOD2*%
X204240000Y-47150000D03*
X143590000Y-41520000D03*
%TO.N,/USB3/FX3_SSRX_P*%
X215350000Y-46910000D03*
X216680000Y-46450000D03*
%TD*%
%TO.N,GND*%
D22*
X172580000Y-137110000D02*
X172770000Y-137110000D01*
D23*
X169500000Y-143910000D02*
X170100000Y-143910000D01*
X154560000Y-121730000D02*
X154070000Y-121240000D01*
X169500000Y-137910000D02*
X168850000Y-137910000D01*
X172580000Y-143910000D02*
X171880000Y-143910000D01*
D22*
X218680000Y-52555000D02*
X218680000Y-53500000D01*
D23*
X169500000Y-142710000D02*
X168870000Y-142710000D01*
X173310000Y-138320000D02*
X173300000Y-138310000D01*
X169500000Y-141510000D02*
X170290000Y-141510000D01*
D22*
X213695000Y-60560000D02*
X213695000Y-60765000D01*
D23*
X172580000Y-144310000D02*
X173300000Y-144310000D01*
X173210000Y-135510000D02*
X172580000Y-135510000D01*
X171870000Y-141510000D02*
X171860000Y-141520000D01*
X154940000Y-121730000D02*
X154560000Y-121730000D01*
D22*
X215630000Y-51075000D02*
X215605000Y-51050000D01*
D23*
X168870000Y-142710000D02*
X168840000Y-142680000D01*
D22*
X215130000Y-51050000D02*
X214420000Y-50340000D01*
D23*
X173190000Y-137510000D02*
X173200000Y-137500000D01*
X172580000Y-137510000D02*
X173190000Y-137510000D01*
D22*
X172770000Y-137110000D02*
X173150000Y-136730000D01*
D23*
X172580000Y-142710000D02*
X173240000Y-142710000D01*
X172580000Y-136710000D02*
X173130000Y-136710000D01*
D22*
X172580000Y-137110000D02*
X172810000Y-137110000D01*
D23*
X169500000Y-140310000D02*
X170280000Y-140310000D01*
X172580000Y-139510000D02*
X171960000Y-139510000D01*
X172580000Y-141510000D02*
X171870000Y-141510000D01*
D22*
X172810000Y-137110000D02*
X173200000Y-137500000D01*
D23*
X171880000Y-143910000D02*
X171870000Y-143900000D01*
X173300000Y-138310000D02*
X172580000Y-138310000D01*
X168850000Y-137910000D02*
X168700000Y-137760000D01*
X169500000Y-136710000D02*
X168720000Y-136710000D01*
D22*
X213695000Y-60765000D02*
X214760000Y-61830000D01*
D23*
X171950000Y-137910000D02*
X171940000Y-137900000D01*
X169500000Y-144310000D02*
X168830000Y-144310000D01*
D22*
X215630000Y-52590000D02*
X215630000Y-51075000D01*
D23*
X173130000Y-136710000D02*
X173150000Y-136730000D01*
X172580000Y-138710000D02*
X171950000Y-138710000D01*
D22*
X215605000Y-51050000D02*
X215130000Y-51050000D01*
D23*
X172580000Y-139910000D02*
X173250000Y-139910000D01*
X169500000Y-139110000D02*
X170350000Y-139110000D01*
X170100000Y-143910000D02*
X170110000Y-143900000D01*
X168830000Y-144310000D02*
X168800000Y-144340000D01*
X173240000Y-142710000D02*
X173260000Y-142690000D01*
X173300000Y-144310000D02*
X173310000Y-144300000D01*
X171960000Y-139510000D02*
X171950000Y-139500000D01*
X169500000Y-135510000D02*
X168740000Y-135510000D01*
X172580000Y-137910000D02*
X171950000Y-137910000D01*
X173240000Y-139110000D02*
X172580000Y-139110000D01*
%TO.N,+5V*%
D24*
X172580000Y-145510000D02*
X173620000Y-145510000D01*
X169500000Y-145110000D02*
X169500000Y-144831000D01*
X172580000Y-145510000D02*
X172580000Y-144831000D01*
X169500000Y-145510000D02*
X169500000Y-145110000D01*
X172580000Y-146310000D02*
X172580000Y-145910000D01*
X172580000Y-145910000D02*
X172580000Y-145110000D01*
X169500000Y-145910000D02*
X169500000Y-145510000D01*
X169500000Y-145510000D02*
X172580000Y-145510000D01*
X169500000Y-146310000D02*
X169500000Y-145910000D01*
%TO.N,+12V*%
D25*
X196900000Y-138598000D02*
X198342000Y-140040000D01*
X196900000Y-124550000D02*
X196900000Y-138598000D01*
X196920000Y-124530000D02*
X196900000Y-124550000D01*
%TO.N,+3V3*%
D22*
X145810000Y-36340000D02*
X145810000Y-37940000D01*
X147671000Y-39801000D02*
X147671000Y-57579000D01*
X212110000Y-59030000D02*
X212110000Y-60525000D01*
X147671000Y-57579000D02*
X146640000Y-58610000D01*
X212110000Y-60525000D02*
X212145000Y-60560000D01*
X212145000Y-60560000D02*
X212145000Y-81573758D01*
X201680000Y-92038758D02*
X201680000Y-115290000D01*
X212145000Y-81573758D02*
X201680000Y-92038758D01*
X145810000Y-37940000D02*
X147671000Y-39801000D01*
%TO.N,+2V5*%
D23*
X180000000Y-142150000D02*
X179950000Y-142150000D01*
X179950000Y-142150000D02*
X178950000Y-143150000D01*
X174998893Y-123371000D02*
X178153189Y-123371000D01*
X178153189Y-123371000D02*
X178523189Y-123741000D01*
X185970000Y-123832000D02*
X185970000Y-123850000D01*
X178950000Y-143150000D02*
X178950000Y-146920000D01*
X178523189Y-123741000D02*
X185879000Y-123741000D01*
X185879000Y-123741000D02*
X185970000Y-123832000D01*
X173818901Y-122191008D02*
X174998893Y-123371000D01*
%TO.N,+1V2*%
X212636811Y-52741000D02*
X211553189Y-52741000D01*
X213047811Y-52330000D02*
X212636811Y-52741000D01*
X213360000Y-52330000D02*
X213047811Y-52330000D01*
X211553189Y-52741000D02*
X210960000Y-52147811D01*
X210960000Y-52147811D02*
X210960000Y-51500000D01*
%TO.N,+1V8*%
D22*
X217041242Y-55930000D02*
X216290000Y-55930000D01*
X218088500Y-53707106D02*
X218088500Y-54882742D01*
X212990000Y-72960000D02*
X212990000Y-79830000D01*
X216300000Y-59910000D02*
X216300000Y-69831242D01*
X216300000Y-69831242D02*
X213171242Y-72960000D01*
X218024000Y-53642606D02*
X218088500Y-53707106D01*
X212990000Y-104980000D02*
X219240000Y-111230000D01*
X218024000Y-51661000D02*
X218024000Y-53642606D01*
X212990000Y-79830000D02*
X212990000Y-104980000D01*
X218088500Y-54882742D02*
X217041242Y-55930000D01*
D23*
X221330000Y-79780000D02*
X213040000Y-79780000D01*
X213040000Y-79780000D02*
X212990000Y-79830000D01*
D22*
X215345000Y-54260000D02*
X215345000Y-54985000D01*
D23*
X212805000Y-56415000D02*
X216300000Y-59910000D01*
D22*
X218680000Y-51005000D02*
X218024000Y-51661000D01*
X213171242Y-72960000D02*
X212990000Y-72960000D01*
X216270000Y-56420000D02*
X216270000Y-55950000D01*
X216270000Y-55950000D02*
X216290000Y-55930000D01*
X215345000Y-54985000D02*
X216290000Y-55930000D01*
D23*
X212560000Y-56415000D02*
X212805000Y-56415000D01*
%TO.N,+1V2_LDO*%
X210974000Y-120836000D02*
X208398000Y-123412000D01*
X154940000Y-123070000D02*
X153260000Y-121390000D01*
X153260000Y-117860000D02*
X154360000Y-116760000D01*
X218549000Y-118381000D02*
X216681189Y-118381000D01*
X155480000Y-123280000D02*
X155850000Y-122910000D01*
X203797811Y-123412000D02*
X201185811Y-120800000D01*
X175100189Y-116760000D02*
X177650189Y-119310000D01*
X182432603Y-123242603D02*
X179300000Y-120110000D01*
X179280000Y-118180000D02*
X179300000Y-118200000D01*
X153260000Y-121390000D02*
X153260000Y-117860000D01*
X177650189Y-119310000D02*
X179300000Y-119310000D01*
X179300000Y-118200000D02*
X179300000Y-119310000D01*
X216681189Y-118381000D02*
X214226189Y-120836000D01*
X195979414Y-120800000D02*
X193536811Y-123242603D01*
X154360000Y-116760000D02*
X175100189Y-116760000D01*
X219630000Y-117300000D02*
X218549000Y-118381000D01*
X193536811Y-123242603D02*
X182432603Y-123242603D01*
X214226189Y-120836000D02*
X210974000Y-120836000D01*
X208398000Y-123412000D02*
X203797811Y-123412000D01*
X154940000Y-123280000D02*
X155480000Y-123280000D01*
X179300000Y-120110000D02*
X179300000Y-119310000D01*
X179280000Y-117950000D02*
X179280000Y-118180000D01*
X201185811Y-120800000D02*
X195979414Y-120800000D01*
X154940000Y-123280000D02*
X154940000Y-123070000D01*
%TO.N,Net-(U7A-CVDDQ)*%
D22*
X217155000Y-52565000D02*
X217180000Y-52590000D01*
X217155000Y-51050000D02*
X216455000Y-50350000D01*
X213510000Y-48380000D02*
X213330000Y-48380000D01*
X216455000Y-50350000D02*
X215200000Y-50350000D01*
X214811000Y-49359758D02*
X214570242Y-49119000D01*
X214570242Y-49119000D02*
X214249000Y-49119000D01*
X217180000Y-52590000D02*
X217180000Y-53970000D01*
X215200000Y-50350000D02*
X214811000Y-49961000D01*
X214249000Y-49119000D02*
X213510000Y-48380000D01*
X214811000Y-49961000D02*
X214811000Y-49359758D01*
X217180000Y-53970000D02*
X217470000Y-54260000D01*
X217155000Y-51050000D02*
X217155000Y-52565000D01*
%TO.N,Net-(D1-A2)*%
D23*
X210200000Y-105250000D02*
X215280000Y-110330000D01*
X208590000Y-105250000D02*
X210200000Y-105250000D01*
%TO.N,/extension/CAM1_CLK_P*%
D26*
X174546260Y-127987068D02*
X174546260Y-128145068D01*
X174546260Y-126407068D02*
X174546260Y-126565068D01*
X174339061Y-128352267D02*
X172886000Y-128352267D01*
X172886000Y-127779869D02*
X174339061Y-127779869D01*
X172461200Y-133234932D02*
X171551200Y-134144932D01*
X171551200Y-136708800D02*
X171550000Y-136710000D01*
X172461200Y-125684932D02*
X174089932Y-124056200D01*
X171313368Y-137201200D02*
X170116201Y-137201200D01*
X172886000Y-129359869D02*
X174339061Y-129359869D01*
X171550000Y-136964568D02*
X171313368Y-137201200D01*
X174546260Y-129567068D02*
X174546260Y-129725068D01*
X170116201Y-137201200D02*
X170025001Y-137110000D01*
X172461199Y-131937068D02*
X172461200Y-133234932D01*
X172461199Y-127197068D02*
X172461199Y-127355068D01*
X171551200Y-134144932D02*
X171551200Y-136708800D01*
X172461199Y-130357068D02*
X172461199Y-130515068D01*
X174339061Y-129932267D02*
X172886000Y-129932267D01*
X175470000Y-123880000D02*
X175293800Y-124056200D01*
X174339094Y-131512267D02*
X172886000Y-131512267D01*
X172886000Y-126199869D02*
X174339061Y-126199869D01*
X172461200Y-125684932D02*
X172461199Y-125775068D01*
X171550000Y-136710000D02*
X171550000Y-136964568D01*
X175293800Y-124056200D02*
X174089932Y-124056200D01*
X174546293Y-131147068D02*
X174546293Y-131305068D01*
X172461199Y-128777068D02*
X172461199Y-128935068D01*
X174339061Y-126772267D02*
X172886000Y-126772267D01*
X172886000Y-130939869D02*
X174339094Y-130939869D01*
X170025001Y-137110000D02*
X169500000Y-137110000D01*
X172461199Y-127355068D02*
G75*
G03*
X172886000Y-127779901I424801J-32D01*
G01*
X174339094Y-130939869D02*
G75*
G02*
X174546331Y-131147068I6J-207231D01*
G01*
X174339061Y-129359869D02*
G75*
G02*
X174546331Y-129567068I39J-207231D01*
G01*
X172886000Y-131512267D02*
G75*
G03*
X172461167Y-131937068I0J-424833D01*
G01*
X174546260Y-126565068D02*
G75*
G02*
X174339061Y-126772260I-207160J-32D01*
G01*
X172461199Y-125775068D02*
G75*
G03*
X172886000Y-126199901I424801J-32D01*
G01*
X172886000Y-128352267D02*
G75*
G03*
X172461167Y-128777068I0J-424833D01*
G01*
X172461199Y-128935068D02*
G75*
G03*
X172886000Y-129359901I424801J-32D01*
G01*
X172886000Y-126772267D02*
G75*
G03*
X172461167Y-127197068I0J-424833D01*
G01*
X172886000Y-129932267D02*
G75*
G03*
X172461167Y-130357068I0J-424833D01*
G01*
X174546260Y-128145068D02*
G75*
G02*
X174339061Y-128352260I-207160J-32D01*
G01*
X174546260Y-129725068D02*
G75*
G02*
X174339061Y-129932260I-207160J-32D01*
G01*
X174339061Y-126199869D02*
G75*
G02*
X174546331Y-126407068I39J-207231D01*
G01*
X172461199Y-130515068D02*
G75*
G03*
X172886000Y-130939901I424801J-32D01*
G01*
X174339061Y-127779869D02*
G75*
G02*
X174546331Y-127987068I39J-207231D01*
G01*
X174546293Y-131305068D02*
G75*
G02*
X174339094Y-131512293I-207193J-32D01*
G01*
%TO.N,/extension/CAM1_D3_P*%
X179263750Y-128873418D02*
X181256249Y-128873418D01*
X179263747Y-129405818D02*
X181256249Y-129405818D01*
X179263747Y-130373418D02*
X181256249Y-130373418D01*
X181447449Y-129064618D02*
X181447449Y-129214618D01*
X178854947Y-131314618D02*
X178854947Y-131464618D01*
X179314932Y-134801200D02*
X178954808Y-134801200D01*
X180151200Y-133964932D02*
X179314932Y-134801200D01*
X173196201Y-134801200D02*
X178051350Y-134801200D01*
X180151200Y-132814618D02*
X180151200Y-133964932D01*
X179263747Y-131873418D02*
X181256249Y-131873418D01*
X181447449Y-127564618D02*
X181447449Y-127714618D01*
X179263750Y-127905818D02*
X181256249Y-127905818D01*
X179263747Y-130905818D02*
X181256249Y-130905818D01*
X180151200Y-126641200D02*
X180151200Y-126964618D01*
X181447449Y-132064618D02*
X181447449Y-132214618D01*
X178651350Y-134497742D02*
X178354808Y-134497742D01*
X173105001Y-134710000D02*
X172580000Y-134710000D01*
X173196201Y-134801200D02*
X173105001Y-134710000D01*
X178854950Y-128314618D02*
X178854950Y-128464618D01*
X179850000Y-126340000D02*
X180151200Y-126641200D01*
X181447449Y-130564618D02*
X181447449Y-130714618D01*
X181256249Y-132405818D02*
X180560000Y-132405818D01*
X180560000Y-127373418D02*
X181256249Y-127373418D01*
X178854947Y-129814618D02*
X178854947Y-129964618D01*
X181256249Y-131873418D02*
G75*
G02*
X181447382Y-132064618I-49J-191182D01*
G01*
X179263750Y-127905818D02*
G75*
G03*
X178855018Y-128314618I50J-408782D01*
G01*
X180560000Y-132405818D02*
G75*
G03*
X180151218Y-132814618I0J-408782D01*
G01*
X181256249Y-130373418D02*
G75*
G02*
X181447382Y-130564618I-49J-191182D01*
G01*
X178854947Y-129964618D02*
G75*
G03*
X179263747Y-130373353I408753J18D01*
G01*
X180151200Y-126964618D02*
G75*
G03*
X180560000Y-127373400I408800J18D01*
G01*
X178854950Y-128464618D02*
G75*
G03*
X179263750Y-128873450I408850J18D01*
G01*
X181447449Y-132214618D02*
G75*
G02*
X181256249Y-132405849I-191249J18D01*
G01*
X179263747Y-130905818D02*
G75*
G03*
X178854918Y-131314618I-47J-408782D01*
G01*
X179263747Y-129405818D02*
G75*
G03*
X178854918Y-129814618I-47J-408782D01*
G01*
X178354808Y-134497742D02*
G75*
G03*
X178203042Y-134649471I-8J-151758D01*
G01*
X181447449Y-127714618D02*
G75*
G02*
X181256249Y-127905849I-191249J18D01*
G01*
X181256249Y-127373418D02*
G75*
G02*
X181447382Y-127564618I-49J-191182D01*
G01*
X178803079Y-134649471D02*
G75*
G03*
X178651350Y-134497821I-151679J-29D01*
G01*
X181256249Y-128873418D02*
G75*
G02*
X181447382Y-129064618I-49J-191182D01*
G01*
X178954808Y-134801200D02*
G75*
G02*
X178803100Y-134649471I-8J151700D01*
G01*
X178854947Y-131464618D02*
G75*
G03*
X179263747Y-131873353I408753J18D01*
G01*
X181447449Y-130714618D02*
G75*
G02*
X181256249Y-130905849I-191249J18D01*
G01*
X181447449Y-129214618D02*
G75*
G02*
X181256249Y-129405849I-191249J18D01*
G01*
X178203079Y-134649471D02*
G75*
G02*
X178051350Y-134801179I-151679J-29D01*
G01*
%TO.N,MIPI1_HS_A_N*%
X184250000Y-97880000D02*
X184246200Y-97876200D01*
X184246200Y-97876200D02*
X167326200Y-97876200D01*
X167326200Y-97876200D02*
X167100000Y-97650000D01*
X184770000Y-97880000D02*
X184250000Y-97880000D01*
%TO.N,/extension/CAM1_D1_N*%
X173196201Y-136218800D02*
X181488551Y-136218800D01*
X185050000Y-128808307D02*
X184652437Y-128808307D01*
X184652437Y-129590707D02*
X185050000Y-129590707D01*
X173196201Y-136218800D02*
X173105001Y-136310000D01*
X183528551Y-136458800D02*
X183528551Y-136617788D01*
X182688551Y-136218800D02*
X182568551Y-136218800D01*
X185558800Y-132099507D02*
X185558800Y-134815068D01*
X185558800Y-124974932D02*
X185558800Y-126299507D01*
X184823868Y-124240000D02*
X185558800Y-124974932D01*
X173105001Y-136310000D02*
X172580000Y-136310000D01*
X184652437Y-127590707D02*
X185050000Y-127590707D01*
X185558800Y-128099507D02*
X185558800Y-128299507D01*
X184155068Y-136218800D02*
X183768551Y-136218800D01*
X183288551Y-136857788D02*
X183168551Y-136857788D01*
X185558800Y-130099507D02*
X185558800Y-130299507D01*
X185050000Y-126808307D02*
X184652437Y-126808307D01*
X184361237Y-129099507D02*
X184361237Y-129299507D01*
X182088551Y-136857764D02*
X181968551Y-136857764D01*
X181728551Y-136617764D02*
X181728551Y-136458800D01*
X182328551Y-136458800D02*
X182328551Y-136617764D01*
X184652445Y-131590707D02*
X185050000Y-131590707D01*
X184361237Y-127099507D02*
X184361237Y-127299507D01*
X185050000Y-130808307D02*
X184652445Y-130808307D01*
X184361245Y-131099507D02*
X184361245Y-131299507D01*
X182928551Y-136617788D02*
X182928551Y-136458800D01*
X184020000Y-124240000D02*
X184823868Y-124240000D01*
X185558800Y-134815068D02*
X184155068Y-136218800D01*
X185050000Y-131590707D02*
G75*
G02*
X185558793Y-132099507I0J-508793D01*
G01*
X184361245Y-131299507D02*
G75*
G03*
X184652445Y-131590655I291155J7D01*
G01*
X183168551Y-136857788D02*
G75*
G02*
X182928512Y-136617788I-51J239988D01*
G01*
X184361237Y-127299507D02*
G75*
G03*
X184652437Y-127590663I291163J7D01*
G01*
X184652437Y-128808307D02*
G75*
G03*
X184361207Y-129099507I-37J-291193D01*
G01*
X182928551Y-136458800D02*
G75*
G03*
X182688551Y-136218849I-239951J0D01*
G01*
X185050000Y-127590707D02*
G75*
G02*
X185558793Y-128099507I0J-508793D01*
G01*
X185558800Y-128299507D02*
G75*
G02*
X185050000Y-128808300I-508800J7D01*
G01*
X184652445Y-130808307D02*
G75*
G03*
X184361207Y-131099507I-45J-291193D01*
G01*
X183768551Y-136218800D02*
G75*
G03*
X183528500Y-136458800I-51J-240000D01*
G01*
X185050000Y-129590707D02*
G75*
G02*
X185558793Y-130099507I0J-508793D01*
G01*
X181968551Y-136857764D02*
G75*
G02*
X181728536Y-136617764I-51J239964D01*
G01*
X185558800Y-130299507D02*
G75*
G02*
X185050000Y-130808300I-508800J7D01*
G01*
X182568551Y-136218800D02*
G75*
G03*
X182328500Y-136458800I-51J-240000D01*
G01*
X184652437Y-126808307D02*
G75*
G03*
X184361207Y-127099507I-37J-291193D01*
G01*
X183528551Y-136617788D02*
G75*
G02*
X183288551Y-136857751I-239951J-12D01*
G01*
X185558800Y-126299507D02*
G75*
G02*
X185050000Y-126808300I-508800J7D01*
G01*
X182328551Y-136617764D02*
G75*
G02*
X182088551Y-136857751I-239951J-36D01*
G01*
X184361237Y-129299507D02*
G75*
G03*
X184652437Y-129590663I291163J7D01*
G01*
X181728551Y-136458800D02*
G75*
G03*
X181488551Y-136218849I-239951J0D01*
G01*
%TO.N,/extension/CAM1_D4_N*%
X170025001Y-135110000D02*
X170125001Y-135210000D01*
X169500000Y-135110000D02*
X170025001Y-135110000D01*
%TO.N,MIPI1_HS_D_P*%
X187233732Y-116887857D02*
X187233732Y-115972143D01*
X184016132Y-115972143D02*
X184016132Y-116887857D01*
X190561200Y-113131346D02*
X190561200Y-107365068D01*
X181233732Y-116887851D02*
X181233732Y-115972134D01*
X182016132Y-115972143D02*
X182016132Y-116887851D01*
X190297641Y-113371346D02*
X190321200Y-113371346D01*
X188016132Y-115972134D02*
X188016132Y-116887857D01*
X180088629Y-108005239D02*
X177941371Y-108005239D01*
X183233732Y-116887857D02*
X183233732Y-115972143D01*
X189233732Y-116030000D02*
X189233732Y-115972134D01*
X190321200Y-113971346D02*
X190297641Y-113971346D01*
X186016132Y-115972143D02*
X186016132Y-116887857D01*
X190057641Y-113731346D02*
X190057641Y-113611346D01*
X187724932Y-117179057D02*
X187524932Y-117179057D01*
X182724932Y-115463343D02*
X182524932Y-115463343D01*
X188724932Y-115463334D02*
X188524932Y-115463334D01*
X177941371Y-108005239D02*
X177706200Y-107770068D01*
X186724932Y-115463343D02*
X186524932Y-115463343D01*
X189524932Y-116321200D02*
X190561200Y-115284932D01*
X190561200Y-107365068D02*
X189524932Y-106328800D01*
X183724932Y-117179057D02*
X183524932Y-117179057D01*
X185233732Y-116887857D02*
X185233732Y-115972143D01*
X177646200Y-117593800D02*
X177330000Y-117910000D01*
X181724932Y-117179051D02*
X181524932Y-117179051D01*
X184724932Y-115463343D02*
X184524932Y-115463343D01*
X178494932Y-116321200D02*
X179724932Y-116321200D01*
X189524932Y-106328800D02*
X181765068Y-106328800D01*
X177706200Y-107770068D02*
X177706200Y-107096200D01*
X180724932Y-115463334D02*
X180524932Y-115463334D01*
X180016132Y-115972134D02*
X180016132Y-116030000D01*
X185724932Y-117179057D02*
X185524932Y-117179057D01*
X178494932Y-116321200D02*
X177646200Y-117169932D01*
X190561200Y-115284932D02*
X190561200Y-114211346D01*
X181765068Y-106328800D02*
X180088629Y-108005239D01*
X177706200Y-107096200D02*
X177450000Y-106840000D01*
X177646200Y-117169932D02*
X177646200Y-117593800D01*
X190057641Y-113611346D02*
G75*
G02*
X190297641Y-113371341I239959J46D01*
G01*
X190561200Y-114211346D02*
G75*
G03*
X190321200Y-113971300I-240000J46D01*
G01*
X189233732Y-115972134D02*
G75*
G03*
X188724932Y-115463268I-508832J34D01*
G01*
X181233732Y-115972134D02*
G75*
G03*
X180724932Y-115463268I-508832J34D01*
G01*
X189524932Y-116321200D02*
G75*
G02*
X189233700Y-116030000I-32J291200D01*
G01*
X182524932Y-115463343D02*
G75*
G03*
X182016143Y-115972143I-32J-508757D01*
G01*
X185233732Y-115972143D02*
G75*
G03*
X184724932Y-115463268I-508832J43D01*
G01*
X185524932Y-117179057D02*
G75*
G02*
X185233743Y-116887857I-32J291157D01*
G01*
X180524932Y-115463334D02*
G75*
G03*
X180016134Y-115972134I-32J-508766D01*
G01*
X184524932Y-115463343D02*
G75*
G03*
X184016143Y-115972143I-32J-508757D01*
G01*
X187233732Y-115972143D02*
G75*
G03*
X186724932Y-115463268I-508832J43D01*
G01*
X188524932Y-115463334D02*
G75*
G03*
X188016134Y-115972134I-32J-508766D01*
G01*
X190321200Y-113371346D02*
G75*
G03*
X190561246Y-113131346I0J240046D01*
G01*
X186016132Y-116887857D02*
G75*
G02*
X185724932Y-117179132I-291232J-43D01*
G01*
X183524932Y-117179057D02*
G75*
G02*
X183233743Y-116887857I-32J291157D01*
G01*
X180016132Y-116030000D02*
G75*
G02*
X179724932Y-116321232I-291232J0D01*
G01*
X184016132Y-116887857D02*
G75*
G02*
X183724932Y-117179132I-291232J-43D01*
G01*
X183233732Y-115972143D02*
G75*
G03*
X182724932Y-115463268I-508832J43D01*
G01*
X182016132Y-116887851D02*
G75*
G02*
X181724932Y-117179032I-291232J51D01*
G01*
X186524932Y-115463343D02*
G75*
G03*
X186016143Y-115972143I-32J-508757D01*
G01*
X187524932Y-117179057D02*
G75*
G02*
X187233743Y-116887857I-32J291157D01*
G01*
X190297641Y-113971346D02*
G75*
G02*
X190057554Y-113731346I-41J240046D01*
G01*
X188016132Y-116887857D02*
G75*
G02*
X187724932Y-117179132I-291232J-43D01*
G01*
X181524932Y-117179051D02*
G75*
G02*
X181233649Y-116887851I-32J291251D01*
G01*
%TO.N,MIPI1_HS_B_N*%
X175655300Y-93838793D02*
X175655300Y-95092207D01*
X177535300Y-93838793D02*
X177535300Y-95092207D01*
X179415300Y-93838793D02*
X179415300Y-95092207D01*
X181295300Y-93838793D02*
X181295300Y-95092207D01*
X182016700Y-95092207D02*
X182016700Y-93838793D01*
X180622000Y-93353493D02*
X180810000Y-93353493D01*
X176376700Y-95092207D02*
X176376700Y-93838793D01*
X187848800Y-95894932D02*
X187848800Y-101775068D01*
X179682000Y-95358907D02*
X179870000Y-95358907D01*
X172930000Y-93910000D02*
X173376200Y-94356200D01*
X178256700Y-95092207D02*
X178256700Y-93838793D01*
X183175300Y-93838793D02*
X183175300Y-95092207D01*
X183896700Y-95092207D02*
X183896700Y-93838793D01*
X183231200Y-103638800D02*
X183020000Y-103850000D01*
X174496700Y-94089500D02*
X174496700Y-93838793D01*
X181562000Y-95358907D02*
X181750000Y-95358907D01*
X174982000Y-93353493D02*
X175170000Y-93353493D01*
X173376200Y-94356200D02*
X174230000Y-94356200D01*
X183442000Y-95358907D02*
X183630000Y-95358907D01*
X185322000Y-94356200D02*
X186310068Y-94356200D01*
X182502000Y-93353493D02*
X182690000Y-93353493D01*
X180136700Y-95092207D02*
X180136700Y-93838793D01*
X184382000Y-93353493D02*
X184570000Y-93353493D01*
X186310068Y-94356200D02*
X187848800Y-95894932D01*
X185985068Y-103638800D02*
X183231200Y-103638800D01*
X176862000Y-93353493D02*
X177050000Y-93353493D01*
X175922000Y-95358907D02*
X176110000Y-95358907D01*
X177802000Y-95358907D02*
X177990000Y-95358907D01*
X187848800Y-101775068D02*
X185985068Y-103638800D01*
X185055300Y-93838793D02*
X185055300Y-94089500D01*
X178742000Y-93353493D02*
X178930000Y-93353493D01*
X182690000Y-93353493D02*
G75*
G02*
X183175307Y-93838793I0J-485307D01*
G01*
X176376700Y-93838793D02*
G75*
G02*
X176862000Y-93353500I485300J-7D01*
G01*
X180810000Y-93353493D02*
G75*
G02*
X181295307Y-93838793I0J-485307D01*
G01*
X178256700Y-93838793D02*
G75*
G02*
X178742000Y-93353500I485300J-7D01*
G01*
X178930000Y-93353493D02*
G75*
G02*
X179415307Y-93838793I0J-485307D01*
G01*
X183175300Y-95092207D02*
G75*
G03*
X183442000Y-95358900I266700J7D01*
G01*
X175655300Y-95092207D02*
G75*
G03*
X175922000Y-95358900I266700J7D01*
G01*
X179415300Y-95092207D02*
G75*
G03*
X179682000Y-95358900I266700J7D01*
G01*
X174230000Y-94356200D02*
G75*
G03*
X174496700Y-94089500I0J266700D01*
G01*
X181750000Y-95358907D02*
G75*
G03*
X182016707Y-95092207I0J266707D01*
G01*
X175170000Y-93353493D02*
G75*
G02*
X175655307Y-93838793I0J-485307D01*
G01*
X182016700Y-93838793D02*
G75*
G02*
X182502000Y-93353500I485300J-7D01*
G01*
X177050000Y-93353493D02*
G75*
G02*
X177535307Y-93838793I0J-485307D01*
G01*
X183630000Y-95358907D02*
G75*
G03*
X183896707Y-95092207I0J266707D01*
G01*
X180136700Y-93838793D02*
G75*
G02*
X180622000Y-93353500I485300J-7D01*
G01*
X185055300Y-94089500D02*
G75*
G03*
X185322000Y-94356200I266700J0D01*
G01*
X179870000Y-95358907D02*
G75*
G03*
X180136707Y-95092207I0J266707D01*
G01*
X174496700Y-93838793D02*
G75*
G02*
X174982000Y-93353500I485300J-7D01*
G01*
X183896700Y-93838793D02*
G75*
G02*
X184382000Y-93353500I485300J-7D01*
G01*
X184570000Y-93353493D02*
G75*
G02*
X185055307Y-93838793I0J-485307D01*
G01*
X176110000Y-95358907D02*
G75*
G03*
X176376707Y-95092207I0J266707D01*
G01*
X177990000Y-95358907D02*
G75*
G03*
X178256707Y-95092207I0J266707D01*
G01*
X177535300Y-95092207D02*
G75*
G03*
X177802000Y-95358900I266700J7D01*
G01*
X181295300Y-95092207D02*
G75*
G03*
X181562000Y-95358900I266700J7D01*
G01*
%TO.N,MIPI1_LP_A_P*%
X193495376Y-116040000D02*
X193258800Y-116040000D01*
X192246457Y-112001096D02*
X193573543Y-112001096D01*
X191955257Y-112292296D02*
X191955257Y-112492296D01*
X192246457Y-110783496D02*
X193573543Y-110783496D01*
X193018800Y-121758800D02*
X193350000Y-122090000D01*
X178710000Y-104460000D02*
X179001200Y-104751200D01*
X193018800Y-114292296D02*
X193018800Y-115200000D01*
X191955257Y-110292296D02*
X191955257Y-110492296D01*
X194082343Y-111292296D02*
X194082343Y-111492296D01*
X192246457Y-110001096D02*
X193573543Y-110001096D01*
X193018800Y-116280000D02*
X193018800Y-116400000D01*
X192246457Y-112783496D02*
X193573549Y-112783496D01*
X194082343Y-109292296D02*
X194082343Y-109492296D01*
X193018800Y-106844932D02*
X193018800Y-108492296D01*
X193310000Y-108783496D02*
X193573543Y-108783496D01*
X193573549Y-114001096D02*
X193310000Y-114001096D01*
X194082349Y-113292296D02*
X194082349Y-113492296D01*
X193258800Y-115440000D02*
X193495376Y-115440000D01*
X193018800Y-117480000D02*
X193018800Y-121758800D01*
X179001200Y-104751200D02*
X190925068Y-104751200D01*
X190925068Y-104751200D02*
X193018800Y-106844932D01*
X193258800Y-116640000D02*
X193495401Y-116640000D01*
X193495401Y-117240000D02*
X193258800Y-117240000D01*
X193735376Y-115680000D02*
X193735376Y-115800000D01*
X193735401Y-116880000D02*
X193735401Y-117000000D01*
X194082343Y-109492296D02*
G75*
G02*
X193573543Y-110001143I-508843J-4D01*
G01*
X193735376Y-115800000D02*
G75*
G02*
X193495376Y-116039976I-239976J0D01*
G01*
X194082349Y-113492296D02*
G75*
G02*
X193573549Y-114001149I-508849J-4D01*
G01*
X193573543Y-108783496D02*
G75*
G02*
X194082304Y-109292296I-43J-508804D01*
G01*
X193018800Y-116400000D02*
G75*
G03*
X193258800Y-116640000I240000J0D01*
G01*
X191955257Y-110492296D02*
G75*
G03*
X192246457Y-110783543I291243J-4D01*
G01*
X194082343Y-111492296D02*
G75*
G02*
X193573543Y-112001143I-508843J-4D01*
G01*
X193258800Y-116040000D02*
G75*
G03*
X193018800Y-116280000I0J-240000D01*
G01*
X193495401Y-116640000D02*
G75*
G02*
X193735400Y-116880000I-1J-240000D01*
G01*
X192246457Y-112001096D02*
G75*
G03*
X191955296Y-112292296I43J-291204D01*
G01*
X193573549Y-112783496D02*
G75*
G02*
X194082304Y-113292296I-49J-508804D01*
G01*
X193018800Y-108492296D02*
G75*
G03*
X193310000Y-108783500I291200J-4D01*
G01*
X193573543Y-110783496D02*
G75*
G02*
X194082304Y-111292296I-43J-508804D01*
G01*
X193310000Y-114001096D02*
G75*
G03*
X193018796Y-114292296I0J-291204D01*
G01*
X193735401Y-117000000D02*
G75*
G02*
X193495401Y-117240001I-240001J0D01*
G01*
X193258800Y-117240000D02*
G75*
G03*
X193018800Y-117480000I0J-240000D01*
G01*
X193495376Y-115440000D02*
G75*
G02*
X193735400Y-115680000I24J-240000D01*
G01*
X192246457Y-110001096D02*
G75*
G03*
X191955296Y-110292296I43J-291204D01*
G01*
X191955257Y-112492296D02*
G75*
G03*
X192246457Y-112783543I291243J-4D01*
G01*
X193018800Y-115200000D02*
G75*
G03*
X193258800Y-115440000I240000J0D01*
G01*
%TO.N,MIPI1_HS_C_P*%
X171905068Y-115091200D02*
X172325182Y-115091200D01*
X165760000Y-105738800D02*
X164739733Y-105738800D01*
X167229459Y-110993723D02*
X166508031Y-111715150D01*
X166168799Y-109933063D02*
X165447390Y-110654471D01*
X179688702Y-114077430D02*
X179688702Y-113858702D01*
X166168800Y-108180000D02*
X166168800Y-109354932D01*
X165760000Y-107238800D02*
X164739733Y-107238800D01*
X164739733Y-103271200D02*
X165760000Y-103271200D01*
X167568650Y-113046248D02*
X167674716Y-113152314D01*
X165823853Y-111030934D02*
X166545261Y-110309525D01*
X178674932Y-115091200D02*
X179688702Y-114077430D01*
X173165182Y-114593749D02*
X173165182Y-114851200D01*
X164548533Y-105930000D02*
X164548533Y-106080000D01*
X167945113Y-113152314D02*
X168666581Y-112430845D01*
X169350779Y-113115043D02*
X168629310Y-113836511D01*
X166168800Y-106680000D02*
X166168800Y-106830000D01*
X170305371Y-113491505D02*
X171905068Y-115091200D01*
X165760000Y-102738800D02*
X164739733Y-102738800D01*
X164739733Y-106271200D02*
X165760000Y-106271200D01*
X168290119Y-112054383D02*
X167568650Y-112775851D01*
X166508031Y-111985548D02*
X166614097Y-112091614D01*
X168629310Y-114106908D02*
X168735376Y-114212974D01*
X164548533Y-107430000D02*
X164548533Y-107580000D01*
X165447390Y-110924868D02*
X165553456Y-111030934D01*
X166884494Y-112091614D02*
X167605921Y-111370186D01*
X166168800Y-97525068D02*
X166168800Y-102330000D01*
X173405182Y-115091200D02*
X178674932Y-115091200D01*
X172805182Y-114353749D02*
X172925182Y-114353749D01*
X167123391Y-110309525D02*
X167229459Y-110415592D01*
X169244711Y-112430845D02*
X169350779Y-112536912D01*
X166168800Y-105180000D02*
X166168800Y-105330000D01*
X170040000Y-95850000D02*
X169793800Y-95603800D01*
X169793800Y-95603800D02*
X168090068Y-95603800D01*
X164548533Y-102930000D02*
X164548533Y-103080000D01*
X164739733Y-107771200D02*
X165760000Y-107771200D01*
X179688702Y-113858702D02*
X179510000Y-113680000D01*
X164548533Y-104430000D02*
X164548533Y-104580000D01*
X166168800Y-109354932D02*
X166168799Y-109354932D01*
X165760000Y-104238800D02*
X164739733Y-104238800D01*
X166168800Y-103680000D02*
X166168800Y-103830000D01*
X172565182Y-114851200D02*
X172565182Y-114593749D01*
X164739733Y-104771200D02*
X165760000Y-104771200D01*
X169005773Y-114212974D02*
X169727241Y-113491505D01*
X168184052Y-111370186D02*
X168290119Y-111476252D01*
X168090068Y-95603800D02*
X166168800Y-97525068D01*
X165760000Y-104771200D02*
G75*
G02*
X166168800Y-105180000I0J-408800D01*
G01*
X167229459Y-110415592D02*
G75*
G02*
X167229502Y-110993765I-289059J-289108D01*
G01*
X166614097Y-112091614D02*
G75*
G03*
X166884494Y-112091615I135199J135199D01*
G01*
X166168800Y-103830000D02*
G75*
G02*
X165760000Y-104238800I-408800J0D01*
G01*
X172925182Y-114353749D02*
G75*
G02*
X173165151Y-114593749I18J-239951D01*
G01*
X166168799Y-109354932D02*
G75*
G02*
X166168802Y-109933065I-289099J-289068D01*
G01*
X172565182Y-114593749D02*
G75*
G02*
X172805182Y-114353682I240018J49D01*
G01*
X164739733Y-105738800D02*
G75*
G03*
X164548500Y-105930000I-33J-191200D01*
G01*
X172325182Y-115091200D02*
G75*
G03*
X172565200Y-114851200I18J240000D01*
G01*
X165447390Y-110654471D02*
G75*
G03*
X165447359Y-110924898I135210J-135229D01*
G01*
X168290119Y-111476252D02*
G75*
G02*
X168290102Y-112054365I-289019J-289048D01*
G01*
X165760000Y-103271200D02*
G75*
G02*
X166168800Y-103680000I0J-408800D01*
G01*
X166508031Y-111715150D02*
G75*
G03*
X166508080Y-111985499I135169J-135150D01*
G01*
X164739733Y-104238800D02*
G75*
G03*
X164548500Y-104430000I-33J-191200D01*
G01*
X166168800Y-102330000D02*
G75*
G02*
X165760000Y-102738800I-408800J0D01*
G01*
X166545261Y-110309525D02*
G75*
G02*
X167123391Y-110309525I289065J-289064D01*
G01*
X164739733Y-102738800D02*
G75*
G03*
X164548500Y-102930000I-33J-191200D01*
G01*
X169727241Y-113491505D02*
G75*
G02*
X170305371Y-113491505I289065J-289064D01*
G01*
X169350779Y-112536912D02*
G75*
G02*
X169350802Y-113115065I-289079J-289088D01*
G01*
X167605921Y-111370186D02*
G75*
G02*
X168184053Y-111370185I289066J-289065D01*
G01*
X168735376Y-114212974D02*
G75*
G03*
X169005773Y-114212975I135199J135199D01*
G01*
X164739733Y-107238800D02*
G75*
G03*
X164548500Y-107430000I-33J-191200D01*
G01*
X166168800Y-106830000D02*
G75*
G02*
X165760000Y-107238800I-408800J0D01*
G01*
X165553456Y-111030934D02*
G75*
G03*
X165823853Y-111030935I135199J135199D01*
G01*
X167674716Y-113152314D02*
G75*
G03*
X167945113Y-113152315I135199J135199D01*
G01*
X164548533Y-107580000D02*
G75*
G03*
X164739733Y-107771167I191167J0D01*
G01*
X166168800Y-105330000D02*
G75*
G02*
X165760000Y-105738800I-408800J0D01*
G01*
X173165182Y-114851200D02*
G75*
G03*
X173405182Y-115091218I240018J0D01*
G01*
X168666581Y-112430845D02*
G75*
G02*
X169244711Y-112430845I289065J-289064D01*
G01*
X167568650Y-112775851D02*
G75*
G03*
X167568699Y-113046198I135150J-135149D01*
G01*
X165760000Y-106271200D02*
G75*
G02*
X166168800Y-106680000I0J-408800D01*
G01*
X164548533Y-106080000D02*
G75*
G03*
X164739733Y-106271167I191167J0D01*
G01*
X168629310Y-113836511D02*
G75*
G03*
X168629319Y-114106898I135190J-135189D01*
G01*
X164548533Y-104580000D02*
G75*
G03*
X164739733Y-104771167I191167J0D01*
G01*
X165760000Y-107771200D02*
G75*
G02*
X166168800Y-108180000I0J-408800D01*
G01*
X164548533Y-103080000D02*
G75*
G03*
X164739733Y-103271167I191167J0D01*
G01*
%TO.N,/extension/CAM1_D1_P*%
X185341200Y-132099507D02*
X185341200Y-134724932D01*
X184652437Y-127808307D02*
X185050000Y-127808307D01*
X184652445Y-131808307D02*
X185050000Y-131808307D01*
X185341200Y-130099507D02*
X185341200Y-130299507D01*
X185341200Y-125065068D02*
X185341200Y-126299507D01*
X184652437Y-129808307D02*
X185050000Y-129808307D01*
X185050000Y-128590707D02*
X184652437Y-128590707D01*
X184064932Y-136001200D02*
X173196201Y-136001200D01*
X185050000Y-126590707D02*
X184652437Y-126590707D01*
X185341200Y-128099507D02*
X185341200Y-128299507D01*
X173196201Y-136001200D02*
X173105001Y-135910000D01*
X184143637Y-129099507D02*
X184143637Y-129299507D01*
X184143645Y-131099507D02*
X184143645Y-131299507D01*
X185036132Y-124760000D02*
X185341200Y-125065068D01*
X184143637Y-127099507D02*
X184143637Y-127299507D01*
X185050000Y-130590707D02*
X184652445Y-130590707D01*
X184010000Y-125090000D02*
X184340000Y-124760000D01*
X184340000Y-124760000D02*
X185036132Y-124760000D01*
X185341200Y-134724932D02*
X184064932Y-136001200D01*
X173105001Y-135910000D02*
X172580000Y-135910000D01*
X184652445Y-130590707D02*
G75*
G03*
X184143607Y-131099507I-45J-508793D01*
G01*
X184143637Y-129299507D02*
G75*
G03*
X184652437Y-129808263I508763J7D01*
G01*
X185341200Y-126299507D02*
G75*
G02*
X185050000Y-126590700I-291200J7D01*
G01*
X185050000Y-127808307D02*
G75*
G02*
X185341193Y-128099507I0J-291193D01*
G01*
X184652437Y-126590707D02*
G75*
G03*
X184143607Y-127099507I-37J-508793D01*
G01*
X185050000Y-131808307D02*
G75*
G02*
X185341193Y-132099507I0J-291193D01*
G01*
X184652437Y-128590707D02*
G75*
G03*
X184143607Y-129099507I-37J-508793D01*
G01*
X184143645Y-131299507D02*
G75*
G03*
X184652445Y-131808255I508755J7D01*
G01*
X185050000Y-129808307D02*
G75*
G02*
X185341193Y-130099507I0J-291193D01*
G01*
X185341200Y-128299507D02*
G75*
G02*
X185050000Y-128590700I-291200J7D01*
G01*
X185341200Y-130299507D02*
G75*
G02*
X185050000Y-130590700I-291200J7D01*
G01*
X184143637Y-127299507D02*
G75*
G03*
X184652437Y-127808263I508763J7D01*
G01*
%TO.N,/extension/CAM1_D2_N*%
X170140000Y-136400000D02*
X170110000Y-136400000D01*
X170115001Y-136400000D02*
X170025001Y-136310000D01*
X170025001Y-136310000D02*
X169500000Y-136310000D01*
X170140000Y-136400000D02*
X170115001Y-136400000D01*
%TO.N,MIPI1_LP_A_N*%
X192246457Y-109783496D02*
X193573543Y-109783496D01*
X178690000Y-105280000D02*
X179001200Y-104968800D01*
X191737657Y-110292296D02*
X191737657Y-110492296D01*
X192246457Y-113001096D02*
X193573549Y-113001096D01*
X193274003Y-122791603D02*
X192801200Y-122318800D01*
X192801200Y-106935068D02*
X192801200Y-108492296D01*
X193864749Y-113292296D02*
X193864749Y-113492296D01*
X193864743Y-109292296D02*
X193864743Y-109492296D01*
X193350000Y-122791603D02*
X193274003Y-122791603D01*
X193864743Y-111292296D02*
X193864743Y-111492296D01*
X193573549Y-113783496D02*
X193310000Y-113783496D01*
X190834932Y-104968800D02*
X192801200Y-106935068D01*
X179001200Y-104968800D02*
X190834932Y-104968800D01*
X193310000Y-109001096D02*
X193573543Y-109001096D01*
X192246457Y-111783496D02*
X193573543Y-111783496D01*
X192246457Y-111001096D02*
X193573543Y-111001096D01*
X192801200Y-114292296D02*
X192801200Y-122318800D01*
X191737657Y-112292296D02*
X191737657Y-112492296D01*
X193864743Y-109492296D02*
G75*
G02*
X193573543Y-109783543I-291243J-4D01*
G01*
X193310000Y-113783496D02*
G75*
G03*
X192801196Y-114292296I0J-508804D01*
G01*
X191737657Y-110492296D02*
G75*
G03*
X192246457Y-111001143I508843J-4D01*
G01*
X193573549Y-113001096D02*
G75*
G02*
X193864704Y-113292296I-49J-291204D01*
G01*
X192246457Y-109783496D02*
G75*
G03*
X191737696Y-110292296I43J-508804D01*
G01*
X192246457Y-111783496D02*
G75*
G03*
X191737696Y-112292296I43J-508804D01*
G01*
X193864749Y-113492296D02*
G75*
G02*
X193573549Y-113783549I-291249J-4D01*
G01*
X193573543Y-109001096D02*
G75*
G02*
X193864704Y-109292296I-43J-291204D01*
G01*
X192801200Y-108492296D02*
G75*
G03*
X193310000Y-109001100I508800J-4D01*
G01*
X191737657Y-112492296D02*
G75*
G03*
X192246457Y-113001143I508843J-4D01*
G01*
X193864743Y-111492296D02*
G75*
G02*
X193573543Y-111783543I-291243J-4D01*
G01*
X193573543Y-111001096D02*
G75*
G02*
X193864704Y-111292296I-43J-291204D01*
G01*
%TO.N,MIPI1_HS_E_N*%
X161328800Y-99000000D02*
X161591200Y-99262400D01*
X162881200Y-96080090D02*
X165511200Y-93450090D01*
X166848800Y-90311200D02*
X167190000Y-89970000D01*
X162881200Y-98885991D02*
X162881200Y-96080090D01*
X161591200Y-99262400D02*
X162504791Y-99262400D01*
X162504791Y-99262400D02*
X162881200Y-98885991D01*
X165511200Y-91114932D02*
X166314932Y-90311200D01*
X166314932Y-90311200D02*
X166848800Y-90311200D01*
X165511200Y-93450090D02*
X165511200Y-91114932D01*
%TO.N,/extension/CAM1_D3_N*%
X179263747Y-131655818D02*
X181256249Y-131655818D01*
X180368800Y-126641200D02*
X180368800Y-126964618D01*
X179405068Y-135018800D02*
X173196201Y-135018800D01*
X180368800Y-132814618D02*
X180368800Y-134055068D01*
X179263750Y-128655818D02*
X181256249Y-128655818D01*
X173105001Y-135110000D02*
X172580000Y-135110000D01*
X179263747Y-129623418D02*
X181256249Y-129623418D01*
X179263747Y-131123418D02*
X181256249Y-131123418D01*
X181665049Y-127564618D02*
X181665049Y-127714618D01*
X179263750Y-128123418D02*
X181256249Y-128123418D01*
X181256249Y-132623418D02*
X180560000Y-132623418D01*
X180660000Y-126350000D02*
X180368800Y-126641200D01*
X173196201Y-135018800D02*
X173105001Y-135110000D01*
X179263747Y-130155818D02*
X181256249Y-130155818D01*
X181665049Y-129064618D02*
X181665049Y-129214618D01*
X180368800Y-134055068D02*
X179405068Y-135018800D01*
X181665049Y-132064618D02*
X181665049Y-132214618D01*
X179072547Y-129814618D02*
X179072547Y-129964618D01*
X179072550Y-128314618D02*
X179072550Y-128464618D01*
X181665049Y-130564618D02*
X181665049Y-130714618D01*
X180560000Y-127155818D02*
X181256249Y-127155818D01*
X179072547Y-131314618D02*
X179072547Y-131464618D01*
X181256249Y-127155818D02*
G75*
G02*
X181664982Y-127564618I-49J-408782D01*
G01*
X181256249Y-128655818D02*
G75*
G02*
X181664982Y-129064618I-49J-408782D01*
G01*
X181665049Y-130714618D02*
G75*
G02*
X181256249Y-131123449I-408849J18D01*
G01*
X179072550Y-128464618D02*
G75*
G03*
X179263750Y-128655750I191150J18D01*
G01*
X181665049Y-129214618D02*
G75*
G02*
X181256249Y-129623449I-408849J18D01*
G01*
X179263750Y-128123418D02*
G75*
G03*
X179072518Y-128314618I-50J-191182D01*
G01*
X181665049Y-127714618D02*
G75*
G02*
X181256249Y-128123449I-408849J18D01*
G01*
X179072547Y-131464618D02*
G75*
G03*
X179263747Y-131655753I191153J18D01*
G01*
X179263747Y-129623418D02*
G75*
G03*
X179072518Y-129814618I-47J-191182D01*
G01*
X179072547Y-129964618D02*
G75*
G03*
X179263747Y-130155753I191153J18D01*
G01*
X181665049Y-132214618D02*
G75*
G02*
X181256249Y-132623449I-408849J18D01*
G01*
X180560000Y-132623418D02*
G75*
G03*
X180368818Y-132814618I0J-191182D01*
G01*
X179263747Y-131123418D02*
G75*
G03*
X179072518Y-131314618I-47J-191182D01*
G01*
X181256249Y-131655818D02*
G75*
G02*
X181664982Y-132064618I-49J-408782D01*
G01*
X181256249Y-130155818D02*
G75*
G02*
X181664982Y-130564618I-49J-408782D01*
G01*
X180368800Y-126964618D02*
G75*
G03*
X180560000Y-127155800I191200J18D01*
G01*
%TO.N,/extension/CAM1_D2_P*%
X170025001Y-135910000D02*
X170120000Y-135815001D01*
X169500000Y-135910000D02*
X170025001Y-135910000D01*
%TO.N,/extension/CAM1_D4_P*%
X170025001Y-134710000D02*
X170145001Y-134590000D01*
X169500000Y-134710000D02*
X170025001Y-134710000D01*
%TO.N,MIPI1_HS_D_N*%
X187016132Y-116887857D02*
X187016132Y-115972143D01*
X185724932Y-117396657D02*
X185524932Y-117396657D01*
X177923800Y-107096200D02*
X177923800Y-107679932D01*
X178031507Y-107787639D02*
X179998493Y-107787639D01*
X180724932Y-115680934D02*
X180524932Y-115680934D01*
X184724932Y-115680943D02*
X184524932Y-115680943D01*
X188724932Y-115680934D02*
X188524932Y-115680934D01*
X186233732Y-115972143D02*
X186233732Y-116887857D01*
X189615068Y-116538800D02*
X190778800Y-115375068D01*
X184233732Y-115972143D02*
X184233732Y-116887857D01*
X178585068Y-116538800D02*
X179724932Y-116538800D01*
X187724932Y-117396657D02*
X187524932Y-117396657D01*
X188233732Y-115972134D02*
X188233732Y-116887857D01*
X189615068Y-116538800D02*
X189524932Y-116538800D01*
X189016132Y-116030000D02*
X189016132Y-115972134D01*
X182724932Y-115680943D02*
X182524932Y-115680943D01*
X183016132Y-116887857D02*
X183016132Y-115972143D01*
X186724932Y-115680943D02*
X186524932Y-115680943D01*
X177863800Y-117593800D02*
X178170000Y-117900000D01*
X180233732Y-115972134D02*
X180233732Y-116030000D01*
X179998493Y-107787639D02*
X181674932Y-106111200D01*
X189615068Y-106111200D02*
X190778800Y-107274932D01*
X178150000Y-106870000D02*
X177923800Y-107096200D01*
X181674932Y-106111200D02*
X189615068Y-106111200D01*
X183724932Y-117396657D02*
X183524932Y-117396657D01*
X185016132Y-116887857D02*
X185016132Y-115972143D01*
X177923800Y-107679932D02*
X178031507Y-107787639D01*
X181724932Y-117396651D02*
X181524932Y-117396651D01*
X182233732Y-115972143D02*
X182233732Y-116887851D01*
X178585068Y-116538800D02*
X177863800Y-117260068D01*
X181016132Y-116887851D02*
X181016132Y-115972134D01*
X190778800Y-107274932D02*
X190778800Y-115375068D01*
X177863800Y-117260068D02*
X177863800Y-117593800D01*
X183524932Y-117396657D02*
G75*
G02*
X183016143Y-116887857I-32J508757D01*
G01*
X187016132Y-115972143D02*
G75*
G03*
X186724932Y-115680868I-291232J43D01*
G01*
X186524932Y-115680943D02*
G75*
G03*
X186233743Y-115972143I-32J-291157D01*
G01*
X180524932Y-115680934D02*
G75*
G03*
X180233734Y-115972134I-32J-291166D01*
G01*
X189524932Y-116538800D02*
G75*
G02*
X189016100Y-116030000I-32J508800D01*
G01*
X187524932Y-117396657D02*
G75*
G02*
X187016143Y-116887857I-32J508757D01*
G01*
X180233732Y-116030000D02*
G75*
G02*
X179724932Y-116538832I-508832J0D01*
G01*
X188233732Y-116887857D02*
G75*
G02*
X187724932Y-117396732I-508832J-43D01*
G01*
X185016132Y-115972143D02*
G75*
G03*
X184724932Y-115680868I-291232J43D01*
G01*
X185524932Y-117396657D02*
G75*
G02*
X185016143Y-116887857I-32J508757D01*
G01*
X182524932Y-115680943D02*
G75*
G03*
X182233743Y-115972143I-32J-291157D01*
G01*
X184524932Y-115680943D02*
G75*
G03*
X184233743Y-115972143I-32J-291157D01*
G01*
X184233732Y-116887857D02*
G75*
G02*
X183724932Y-117396732I-508832J-43D01*
G01*
X189016132Y-115972134D02*
G75*
G03*
X188724932Y-115680868I-291232J34D01*
G01*
X183016132Y-115972143D02*
G75*
G03*
X182724932Y-115680868I-291232J43D01*
G01*
X186233732Y-116887857D02*
G75*
G02*
X185724932Y-117396732I-508832J-43D01*
G01*
X181524932Y-117396651D02*
G75*
G02*
X181016149Y-116887851I-32J508751D01*
G01*
X182233732Y-116887851D02*
G75*
G02*
X181724932Y-117396732I-508832J-49D01*
G01*
X188524932Y-115680934D02*
G75*
G03*
X188233734Y-115972134I-32J-291166D01*
G01*
X181016132Y-115972134D02*
G75*
G03*
X180724932Y-115680868I-291232J34D01*
G01*
%TO.N,MIPI1_HS_C_N*%
X169090844Y-112584711D02*
X169196912Y-112690779D01*
X167038360Y-112245480D02*
X167759787Y-111524052D01*
X165951200Y-106680000D02*
X165951200Y-106830000D01*
X167999932Y-95386200D02*
X165951200Y-97434932D01*
X168136252Y-111900516D02*
X167414783Y-112621984D01*
X165760000Y-107021200D02*
X164739733Y-107021200D01*
X170151504Y-113645371D02*
X171814932Y-115308800D01*
X168098979Y-113306180D02*
X168820447Y-112584711D01*
X170050000Y-95130000D02*
X169793800Y-95386200D01*
X164330933Y-102930000D02*
X164330933Y-103080000D01*
X165293523Y-111078734D02*
X165399589Y-111184800D01*
X165951200Y-109445068D02*
X166014932Y-109508799D01*
X171814932Y-115308800D02*
X178765068Y-115308800D01*
X164739733Y-106488800D02*
X165760000Y-106488800D01*
X168030185Y-111524052D02*
X168136252Y-111630119D01*
X165951200Y-97434932D02*
X165951200Y-102330000D01*
X169159639Y-114366840D02*
X169881107Y-113645371D01*
X165951200Y-108180000D02*
X165951200Y-109445068D01*
X165951200Y-105180000D02*
X165951200Y-105330000D01*
X166969524Y-110463391D02*
X167075592Y-110569459D01*
X169196912Y-112961176D02*
X168475443Y-113682644D01*
X164330933Y-105930000D02*
X164330933Y-106080000D01*
X165760000Y-105521200D02*
X164739733Y-105521200D01*
X166014932Y-109779196D02*
X165293523Y-110500604D01*
X164739733Y-104988800D02*
X165760000Y-104988800D01*
X166354164Y-112139414D02*
X166460230Y-112245480D01*
X164739733Y-107988800D02*
X165760000Y-107988800D01*
X165951200Y-103680000D02*
X165951200Y-103830000D01*
X178765068Y-115308800D02*
X179906302Y-114167566D01*
X164739733Y-103488800D02*
X165760000Y-103488800D01*
X167414783Y-113200114D02*
X167520849Y-113306180D01*
X165760000Y-104021200D02*
X164739733Y-104021200D01*
X179906302Y-113858701D02*
X180085003Y-113680000D01*
X169793800Y-95386200D02*
X167999932Y-95386200D01*
X164330933Y-104430000D02*
X164330933Y-104580000D01*
X164330933Y-107430000D02*
X164330933Y-107580000D01*
X167075592Y-110839856D02*
X166354164Y-111561283D01*
X179906302Y-114167566D02*
X179906302Y-113858701D01*
X165760000Y-102521200D02*
X164739733Y-102521200D01*
X168475443Y-114260774D02*
X168581509Y-114366840D01*
X165977719Y-111184800D02*
X166699127Y-110463391D01*
X165760000Y-104988800D02*
G75*
G02*
X165951200Y-105180000I0J-191200D01*
G01*
X169196912Y-112690779D02*
G75*
G02*
X169196935Y-112961198I-135212J-135221D01*
G01*
X165951200Y-103830000D02*
G75*
G02*
X165760000Y-104021200I-191200J0D01*
G01*
X168820447Y-112584711D02*
G75*
G02*
X169090844Y-112584710I135199J-135199D01*
G01*
X166699127Y-110463391D02*
G75*
G02*
X166969524Y-110463390I135199J-135199D01*
G01*
X164739733Y-105521200D02*
G75*
G03*
X164330900Y-105930000I-33J-408800D01*
G01*
X165760000Y-107988800D02*
G75*
G02*
X165951200Y-108180000I0J-191200D01*
G01*
X169881107Y-113645371D02*
G75*
G02*
X170151504Y-113645370I135199J-135199D01*
G01*
X165760000Y-103488800D02*
G75*
G02*
X165951200Y-103680000I0J-191200D01*
G01*
X168136252Y-111630119D02*
G75*
G02*
X168136235Y-111900498I-135152J-135181D01*
G01*
X168581509Y-114366840D02*
G75*
G03*
X169159639Y-114366840I289065J289064D01*
G01*
X164739733Y-102521200D02*
G75*
G03*
X164330900Y-102930000I-33J-408800D01*
G01*
X167075592Y-110569459D02*
G75*
G02*
X167075635Y-110839898I-135192J-135241D01*
G01*
X165760000Y-106488800D02*
G75*
G02*
X165951200Y-106680000I0J-191200D01*
G01*
X167414783Y-112621984D02*
G75*
G03*
X167414832Y-113200065I289017J-289016D01*
G01*
X165951200Y-105330000D02*
G75*
G02*
X165760000Y-105521200I-191200J0D01*
G01*
X165951200Y-102330000D02*
G75*
G02*
X165760000Y-102521200I-191200J0D01*
G01*
X168475443Y-113682644D02*
G75*
G03*
X168475452Y-114260765I289057J-289056D01*
G01*
X164739733Y-104021200D02*
G75*
G03*
X164330900Y-104430000I-33J-408800D01*
G01*
X165399589Y-111184800D02*
G75*
G03*
X165977719Y-111184800I289065J289064D01*
G01*
X165951200Y-106830000D02*
G75*
G02*
X165760000Y-107021200I-191200J0D01*
G01*
X165293523Y-110500604D02*
G75*
G03*
X165293492Y-111078765I289077J-289096D01*
G01*
X164330933Y-107580000D02*
G75*
G03*
X164739733Y-107988767I408767J0D01*
G01*
X166460230Y-112245480D02*
G75*
G03*
X167038360Y-112245480I289065J289064D01*
G01*
X164330933Y-106080000D02*
G75*
G03*
X164739733Y-106488767I408767J0D01*
G01*
X164330933Y-103080000D02*
G75*
G03*
X164739733Y-103488767I408767J0D01*
G01*
X167520849Y-113306180D02*
G75*
G03*
X168098979Y-113306180I289065J289064D01*
G01*
X164330933Y-104580000D02*
G75*
G03*
X164739733Y-104988767I408767J0D01*
G01*
X164739733Y-107021200D02*
G75*
G03*
X164330900Y-107430000I-33J-408800D01*
G01*
X167759787Y-111524052D02*
G75*
G02*
X168030185Y-111524052I135199J-135200D01*
G01*
X166014932Y-109508799D02*
G75*
G02*
X166014935Y-109779198I-135232J-135201D01*
G01*
X166354164Y-111561283D02*
G75*
G03*
X166354212Y-112139365I289036J-289017D01*
G01*
%TO.N,/extension/CAM1_CLK_N*%
X174763862Y-129567068D02*
X174763862Y-129725068D01*
X172678801Y-127197068D02*
X172678801Y-127355068D01*
X172678800Y-133325068D02*
X171768800Y-134235068D01*
X174339061Y-130149869D02*
X172886000Y-130149869D01*
X172678800Y-125775068D02*
X174180068Y-124273800D01*
X171768800Y-134235068D02*
X171768800Y-137053504D01*
X172886000Y-127562267D02*
X174339061Y-127562267D01*
X174763895Y-131147068D02*
X174763895Y-131305068D01*
X174763862Y-126407068D02*
X174763862Y-126565068D01*
X172678801Y-131937068D02*
X172678801Y-132095068D01*
X174339061Y-128569869D02*
X172886000Y-128569869D01*
X171403504Y-137418800D02*
X170116201Y-137418800D01*
X170025001Y-137510000D02*
X169500000Y-137510000D01*
X172886000Y-125982267D02*
X174339061Y-125982267D01*
X170116201Y-137418800D02*
X170025001Y-137510000D01*
X171768800Y-137053504D02*
X171403504Y-137418800D01*
X172678800Y-133325068D02*
X172678801Y-132095068D01*
X175293800Y-124273800D02*
X174180068Y-124273800D01*
X172678801Y-128777068D02*
X172678801Y-128935068D01*
X172678800Y-125775068D02*
X172678801Y-125775068D01*
X175490000Y-124470000D02*
X175293800Y-124273800D01*
X174763862Y-127987068D02*
X174763862Y-128145068D01*
X172886000Y-129142267D02*
X174339061Y-129142267D01*
X174339061Y-126989869D02*
X172886000Y-126989869D01*
X172678801Y-130357068D02*
X172678801Y-130515068D01*
X174339094Y-131729869D02*
X172886000Y-131729869D01*
X172886000Y-130722267D02*
X174339094Y-130722267D01*
X174339061Y-129142267D02*
G75*
G02*
X174763933Y-129567068I39J-424833D01*
G01*
X172678801Y-127355068D02*
G75*
G03*
X172886000Y-127562299I207199J-32D01*
G01*
X174763862Y-128145068D02*
G75*
G02*
X174339061Y-128569862I-424762J-32D01*
G01*
X174339094Y-130722267D02*
G75*
G02*
X174763933Y-131147068I6J-424833D01*
G01*
X172886000Y-126989869D02*
G75*
G03*
X172678769Y-127197068I0J-207231D01*
G01*
X172678801Y-130515068D02*
G75*
G03*
X172886000Y-130722299I207199J-32D01*
G01*
X172886000Y-131729869D02*
G75*
G03*
X172678769Y-131937068I0J-207231D01*
G01*
X172678801Y-125775068D02*
G75*
G03*
X172886000Y-125982299I207199J-32D01*
G01*
X172886000Y-128569869D02*
G75*
G03*
X172678769Y-128777068I0J-207231D01*
G01*
X172678801Y-128935068D02*
G75*
G03*
X172886000Y-129142299I207199J-32D01*
G01*
X172886000Y-130149869D02*
G75*
G03*
X172678769Y-130357068I0J-207231D01*
G01*
X174763862Y-129725068D02*
G75*
G02*
X174339061Y-130149862I-424762J-32D01*
G01*
X174763895Y-131305068D02*
G75*
G02*
X174339094Y-131729895I-424795J-32D01*
G01*
X174763862Y-126565068D02*
G75*
G02*
X174339061Y-126989862I-424762J-32D01*
G01*
X174339061Y-125982267D02*
G75*
G02*
X174763933Y-126407068I39J-424833D01*
G01*
X174339061Y-127562267D02*
G75*
G02*
X174763933Y-127987068I39J-424833D01*
G01*
%TO.N,MIPI1_HS_B_P*%
X187631200Y-101684932D02*
X185895932Y-103420200D01*
X177316700Y-93838793D02*
X177316700Y-95092207D01*
X182235300Y-95092207D02*
X182235300Y-93838793D01*
X187631200Y-97373547D02*
X187631200Y-101684932D01*
X179196700Y-93838793D02*
X179196700Y-95092207D01*
X175436700Y-93838793D02*
X175436700Y-95092207D01*
X180355300Y-95092207D02*
X180355300Y-93838793D01*
X181076700Y-93838793D02*
X181076700Y-95092207D01*
X184115300Y-95092207D02*
X184115300Y-93838793D01*
X176595300Y-95092207D02*
X176595300Y-93838793D01*
X182502000Y-93572093D02*
X182690000Y-93572093D01*
X186220932Y-94574800D02*
X187631200Y-95985068D01*
X178475300Y-95092207D02*
X178475300Y-93838793D01*
X185322000Y-94574800D02*
X186220932Y-94574800D01*
X184836700Y-93838793D02*
X184836700Y-94089500D01*
X183442000Y-95577507D02*
X183630000Y-95577507D01*
X184382000Y-93572093D02*
X184570000Y-93572093D01*
X182956700Y-93838793D02*
X182956700Y-95092207D01*
X181562000Y-95577507D02*
X181750000Y-95577507D01*
X172930000Y-95020000D02*
X173375200Y-94574800D01*
X180622000Y-93572093D02*
X180810000Y-93572093D01*
X174715300Y-94089500D02*
X174715300Y-93838793D01*
X178742000Y-93572093D02*
X178930000Y-93572093D01*
X177802000Y-95577507D02*
X177990000Y-95577507D01*
X174982000Y-93572093D02*
X175170000Y-93572093D01*
X187416478Y-96773547D02*
X187416478Y-97158825D01*
X176862000Y-93572093D02*
X177050000Y-93572093D01*
X187631200Y-95985068D02*
X187631200Y-96558825D01*
X175922000Y-95577507D02*
X176110000Y-95577507D01*
X185895932Y-103420200D02*
X183230200Y-103420200D01*
X173375200Y-94574800D02*
X174230000Y-94574800D01*
X179682000Y-95577507D02*
X179870000Y-95577507D01*
X183230200Y-103420200D02*
X183050000Y-103240000D01*
X181076700Y-95092207D02*
G75*
G03*
X181562000Y-95577500I485300J7D01*
G01*
X178930000Y-93572093D02*
G75*
G02*
X179196707Y-93838793I0J-266707D01*
G01*
X187416478Y-97158825D02*
G75*
G03*
X187523839Y-97266122I107322J25D01*
G01*
X175436700Y-95092207D02*
G75*
G03*
X175922000Y-95577500I485300J7D01*
G01*
X183630000Y-95577507D02*
G75*
G03*
X184115307Y-95092207I0J485307D01*
G01*
X176595300Y-93838793D02*
G75*
G02*
X176862000Y-93572100I266700J-7D01*
G01*
X176110000Y-95577507D02*
G75*
G03*
X176595307Y-95092207I0J485307D01*
G01*
X174230000Y-94574800D02*
G75*
G03*
X174715300Y-94089500I0J485300D01*
G01*
X187523839Y-97266186D02*
G75*
G02*
X187631114Y-97373547I-39J-107314D01*
G01*
X180355300Y-93838793D02*
G75*
G02*
X180622000Y-93572100I266700J-7D01*
G01*
X178475300Y-93838793D02*
G75*
G02*
X178742000Y-93572100I266700J-7D01*
G01*
X184115300Y-93838793D02*
G75*
G02*
X184382000Y-93572100I266700J-7D01*
G01*
X180810000Y-93572093D02*
G75*
G02*
X181076707Y-93838793I0J-266707D01*
G01*
X177050000Y-93572093D02*
G75*
G02*
X177316707Y-93838793I0J-266707D01*
G01*
X182690000Y-93572093D02*
G75*
G02*
X182956707Y-93838793I0J-266707D01*
G01*
X182235300Y-93838793D02*
G75*
G02*
X182502000Y-93572100I266700J-7D01*
G01*
X187631200Y-96558825D02*
G75*
G02*
X187523839Y-96666200I-107400J25D01*
G01*
X184570000Y-93572093D02*
G75*
G02*
X184836707Y-93838793I0J-266707D01*
G01*
X182956700Y-95092207D02*
G75*
G03*
X183442000Y-95577500I485300J7D01*
G01*
X177990000Y-95577507D02*
G75*
G03*
X178475307Y-95092207I0J485307D01*
G01*
X175170000Y-93572093D02*
G75*
G02*
X175436707Y-93838793I0J-266707D01*
G01*
X177316700Y-95092207D02*
G75*
G03*
X177802000Y-95577500I485300J7D01*
G01*
X184836700Y-94089500D02*
G75*
G03*
X185322000Y-94574800I485300J0D01*
G01*
X179870000Y-95577507D02*
G75*
G03*
X180355307Y-95092207I0J485307D01*
G01*
X174715300Y-93838793D02*
G75*
G02*
X174982000Y-93572100I266700J-7D01*
G01*
X179196700Y-95092207D02*
G75*
G03*
X179682000Y-95577500I485300J7D01*
G01*
X187523839Y-96666186D02*
G75*
G03*
X187416486Y-96773547I-39J-107314D01*
G01*
X181750000Y-95577507D02*
G75*
G03*
X182235307Y-95092207I0J485307D01*
G01*
%TO.N,MIPI1_HS_A_P*%
X184183532Y-98093800D02*
X167326200Y-98093800D01*
X184442021Y-98352289D02*
X184183532Y-98093800D01*
X167326200Y-98093800D02*
X167110000Y-98310000D01*
%TO.N,MIPI1_HS_E_P*%
X163098800Y-98976127D02*
X163098800Y-96170226D01*
X163098800Y-96170226D02*
X165728800Y-93540226D01*
X166405068Y-90528800D02*
X166848800Y-90528800D01*
X165728800Y-93540226D02*
X165728800Y-91205068D01*
X162594927Y-99480000D02*
X163098800Y-98976127D01*
X166848800Y-90528800D02*
X167190000Y-90870000D01*
X165728800Y-91205068D02*
X166405068Y-90528800D01*
X160880000Y-99480000D02*
X162594927Y-99480000D01*
%TO.N,/extension/CAM2_D4_N*%
X163781200Y-129404932D02*
X164016153Y-129169984D01*
X165277384Y-129711660D02*
X164735707Y-129169983D01*
X165288945Y-127897188D02*
X165288945Y-127897189D01*
X166344932Y-141018800D02*
X168883799Y-141018800D01*
X163781200Y-129404932D02*
X163781200Y-138455068D01*
X165830623Y-129570237D02*
X165689200Y-129711661D01*
X166960000Y-126226132D02*
X166703159Y-126482973D01*
X166703159Y-127202528D02*
X167244791Y-127744160D01*
X168974999Y-141110000D02*
X169500000Y-141110000D01*
X165430368Y-127755769D02*
X165288945Y-127897188D01*
X163781200Y-138455068D02*
X166344932Y-141018800D01*
X166703159Y-126482973D02*
X166703160Y-126482974D01*
X168883799Y-141018800D02*
X168974999Y-141110000D01*
X167244792Y-128155976D02*
X167103369Y-128297400D01*
X166960000Y-123990000D02*
X166960000Y-126226132D01*
X166691553Y-128297399D02*
X166149922Y-127755768D01*
X165288944Y-128616743D02*
X165830622Y-129158421D01*
X166703160Y-126482974D02*
G75*
G03*
X166703110Y-127202577I359740J-359826D01*
G01*
X166149922Y-127755768D02*
G75*
G03*
X165430322Y-127755723I-359822J-359732D01*
G01*
X164735707Y-129169983D02*
G75*
G03*
X164016123Y-129169953I-359807J-359817D01*
G01*
X165689200Y-129711661D02*
G75*
G02*
X165277392Y-129711653I-205900J205861D01*
G01*
X165288945Y-127897189D02*
G75*
G03*
X165288910Y-128616777I359755J-359811D01*
G01*
X167103369Y-128297400D02*
G75*
G02*
X166691592Y-128297361I-205869J205900D01*
G01*
X167244791Y-127744160D02*
G75*
G02*
X167244824Y-128156008I-205891J-205940D01*
G01*
X165830622Y-129158421D02*
G75*
G02*
X165830594Y-129570208I-205922J-205879D01*
G01*
%TO.N,/extension/CAM2_D2_N*%
X169500000Y-142310000D02*
X170020000Y-142310000D01*
%TO.N,MIPI2_HS_A_P*%
X164228800Y-92078800D02*
X164520000Y-92370000D01*
X163093868Y-92840000D02*
X163855068Y-92078800D01*
X163855068Y-92078800D02*
X164228800Y-92078800D01*
X160690000Y-92840000D02*
X163093868Y-92840000D01*
%TO.N,/extension/CAM2_D3_N*%
X165789000Y-121470200D02*
X167755480Y-121470200D01*
X168155068Y-139601200D02*
X168883799Y-139601200D01*
X169678600Y-129210547D02*
X169614573Y-129274573D01*
X167480100Y-130688787D02*
X167412468Y-130621155D01*
X165318800Y-133570347D02*
X165318800Y-136764932D01*
X165318800Y-136764932D02*
X168155068Y-139601200D01*
X165587176Y-132035403D02*
X165445754Y-132176824D01*
X166859934Y-131173688D02*
X166927565Y-131241319D01*
X167001356Y-130621155D02*
X166859934Y-130762576D01*
X168200359Y-130688787D02*
X168341779Y-130547364D01*
X168415628Y-129206999D02*
X168274206Y-129348420D01*
X168883799Y-139601200D02*
X168974999Y-139510000D01*
X165528800Y-121210000D02*
X165789000Y-121470200D01*
X168894314Y-129274573D02*
X168826740Y-129206999D01*
X165318800Y-133570347D02*
X165513351Y-133375792D01*
X169678600Y-123393321D02*
X169678600Y-129210547D01*
X166786145Y-132103001D02*
X166927565Y-131961578D01*
X165445754Y-132587936D02*
X165513351Y-132655533D01*
X168274206Y-129759532D02*
X168341779Y-129827105D01*
X166065886Y-132103001D02*
X165998288Y-132035403D01*
X168974999Y-139510000D02*
X169500000Y-139510000D01*
X167755480Y-121470200D02*
X169678600Y-123393321D01*
X168200359Y-130688787D02*
G75*
G02*
X167480099Y-130688788I-360130J360128D01*
G01*
X165445754Y-132176824D02*
G75*
G03*
X165445734Y-132587956I205546J-205576D01*
G01*
X168274206Y-129348420D02*
G75*
G03*
X168274182Y-129759556I205594J-205580D01*
G01*
X165998288Y-132035403D02*
G75*
G03*
X165587176Y-132035403I-205556J-205556D01*
G01*
X166859934Y-130762576D02*
G75*
G03*
X166859966Y-131173656I205566J-205524D01*
G01*
X166927565Y-131241319D02*
G75*
G02*
X166927517Y-131961530I-360165J-360081D01*
G01*
X168341779Y-129827105D02*
G75*
G02*
X168341745Y-130547330I-360179J-360095D01*
G01*
X165513351Y-132655533D02*
G75*
G02*
X165513389Y-133375829I-360151J-360167D01*
G01*
X169614573Y-129274573D02*
G75*
G02*
X168894315Y-129274573I-360129J360128D01*
G01*
X168826740Y-129206999D02*
G75*
G03*
X168415628Y-129206999I-205556J-205556D01*
G01*
X167412468Y-130621155D02*
G75*
G03*
X167001356Y-130621155I-205556J-205556D01*
G01*
X166786145Y-132103001D02*
G75*
G02*
X166065887Y-132103001I-360129J360128D01*
G01*
%TO.N,/extension/CAM2_D1_N*%
X168425480Y-138400200D02*
X168884799Y-138400200D01*
X167151028Y-137125748D02*
X168425480Y-138400200D01*
X167151028Y-136535748D02*
X167151028Y-137125748D01*
X162900000Y-117410000D02*
X165590000Y-117410000D01*
X167149800Y-134718173D02*
X167149800Y-136534520D01*
X167149800Y-136534520D02*
X167151028Y-136535748D01*
X168974999Y-138310000D02*
X169500000Y-138310000D01*
X162730000Y-117992499D02*
X162730000Y-117580000D01*
X171169800Y-130698172D02*
X167149800Y-134718173D01*
X162730000Y-117580000D02*
X162900000Y-117410000D01*
X171169800Y-122989800D02*
X171169800Y-130698172D01*
X168884799Y-138400200D02*
X168974999Y-138310000D01*
X165590000Y-117410000D02*
X171169800Y-122989800D01*
%TO.N,/extension/CAM2_D2_P*%
X169500000Y-141910000D02*
X168980000Y-141910000D01*
X168980000Y-141910000D02*
X168950000Y-141880000D01*
%TO.N,MIPI2_HS_A_N*%
X161362400Y-92622400D02*
X161100000Y-92360000D01*
X164228800Y-91861200D02*
X163764932Y-91861200D01*
X163003732Y-92622400D02*
X161362400Y-92622400D01*
X164520000Y-91570000D02*
X164228800Y-91861200D01*
X163764932Y-91861200D02*
X163003732Y-92622400D01*
%TO.N,MIPI2_HS_C_P*%
X157021068Y-86812386D02*
X157175068Y-86812386D01*
X161441869Y-87662000D02*
X161441869Y-87011585D01*
X162630000Y-88078800D02*
X167834932Y-88078800D01*
X161994267Y-87011585D02*
X161994267Y-87662000D01*
X169329932Y-89573800D02*
X169803800Y-89573800D01*
X162411068Y-88078801D02*
X162630000Y-88078800D01*
X158914267Y-87011585D02*
X158914267Y-87662000D01*
X154050890Y-90432978D02*
X156405068Y-88078800D01*
X152827857Y-90432978D02*
X154050890Y-90432978D01*
X160871068Y-88078801D02*
X161025068Y-88078801D01*
X158561068Y-86812386D02*
X158715068Y-86812386D01*
X160454267Y-87011585D02*
X160454267Y-87662000D01*
X156405068Y-88078800D02*
X156405068Y-88078801D01*
X167834932Y-88078800D02*
X169329932Y-89573800D01*
X159901869Y-87662000D02*
X159901869Y-87011585D01*
X156821869Y-87662000D02*
X156821869Y-87011585D01*
X161641068Y-86812386D02*
X161795068Y-86812386D01*
X158361869Y-87662000D02*
X158361869Y-87011585D01*
X169803800Y-89573800D02*
X170120000Y-89890000D01*
X160101068Y-86812386D02*
X160255068Y-86812386D01*
X157374267Y-87011585D02*
X157374267Y-87662000D01*
X159331068Y-88078801D02*
X159485068Y-88078801D01*
X157791068Y-88078801D02*
X157945068Y-88078801D01*
X158914267Y-87662000D02*
G75*
G03*
X159331068Y-88078833I416833J0D01*
G01*
X156405068Y-88078801D02*
G75*
G03*
X156821901Y-87662000I32J416801D01*
G01*
X161025068Y-88078801D02*
G75*
G03*
X161441901Y-87662000I32J416801D01*
G01*
X159901869Y-87011585D02*
G75*
G02*
X160101068Y-86812369I199231J-15D01*
G01*
X158361869Y-87011585D02*
G75*
G02*
X158561068Y-86812369I199231J-15D01*
G01*
X160255068Y-86812386D02*
G75*
G02*
X160454314Y-87011585I32J-199214D01*
G01*
X157175068Y-86812386D02*
G75*
G02*
X157374314Y-87011585I32J-199214D01*
G01*
X157945068Y-88078801D02*
G75*
G03*
X158361901Y-87662000I32J416801D01*
G01*
X161795068Y-86812386D02*
G75*
G02*
X161994314Y-87011585I32J-199214D01*
G01*
X160454267Y-87662000D02*
G75*
G03*
X160871068Y-88078833I416833J0D01*
G01*
X159485068Y-88078801D02*
G75*
G03*
X159901901Y-87662000I32J416801D01*
G01*
X161994267Y-87662000D02*
G75*
G03*
X162411068Y-88078833I416833J0D01*
G01*
X161441869Y-87011585D02*
G75*
G02*
X161641068Y-86812369I199231J-15D01*
G01*
X158715068Y-86812386D02*
G75*
G02*
X158914314Y-87011585I32J-199214D01*
G01*
X156821869Y-87011585D02*
G75*
G02*
X157021068Y-86812369I199231J-15D01*
G01*
X157374267Y-87662000D02*
G75*
G03*
X157791068Y-88078833I416833J0D01*
G01*
%TO.N,MIPI2_HS_E_N*%
X169394932Y-91841200D02*
X169768800Y-91841200D01*
X148552400Y-102342400D02*
X151068620Y-102342400D01*
X152004150Y-102342400D02*
X162703732Y-102342400D01*
X165001200Y-100044932D02*
X165001200Y-96234932D01*
X169768800Y-91841200D02*
X170100000Y-91510000D01*
X165001200Y-96234932D02*
X169394932Y-91841200D01*
X151404150Y-102006870D02*
X151668620Y-102006870D01*
X148120000Y-101910000D02*
X148552400Y-102342400D01*
X162703732Y-102342400D02*
X165001200Y-100044932D01*
X151836385Y-102174635D02*
G75*
G03*
X152004150Y-102342315I167715J35D01*
G01*
X151668620Y-102006870D02*
G75*
G02*
X151836330Y-102174635I-20J-167730D01*
G01*
X151236385Y-102174635D02*
G75*
G02*
X151404150Y-102006885I167715J35D01*
G01*
X151068620Y-102342400D02*
G75*
G03*
X151236400Y-102174635I-20J167800D01*
G01*
%TO.N,MIPI2_HS_E_P*%
X169768800Y-92058800D02*
X170080000Y-92370000D01*
X147680000Y-102560000D02*
X162793868Y-102560000D01*
X162793868Y-102560000D02*
X165218800Y-100135068D01*
X165218800Y-100135068D02*
X165218800Y-96325068D01*
X169485068Y-92058800D02*
X169768800Y-92058800D01*
X165218800Y-96325068D02*
X169485068Y-92058800D01*
%TO.N,MIPI2_HS_B_N*%
X162294954Y-90537332D02*
X163501086Y-89331200D01*
X158600000Y-90330000D02*
X158807332Y-90537332D01*
X164168800Y-89331200D02*
X164460000Y-89040000D01*
X160383650Y-90537332D02*
X162294954Y-90537332D01*
X163501086Y-89331200D02*
X164168800Y-89331200D01*
X159823650Y-90376276D02*
X160222594Y-90376276D01*
X158807332Y-90537332D02*
X159662594Y-90537332D01*
X160222594Y-90376276D02*
G75*
G02*
X160303124Y-90456804I6J-80524D01*
G01*
X159743122Y-90456804D02*
G75*
G02*
X159823650Y-90376322I80478J4D01*
G01*
X160303122Y-90456804D02*
G75*
G03*
X160383650Y-90537278I80478J4D01*
G01*
X159662594Y-90537332D02*
G75*
G03*
X159743132Y-90456804I6J80532D01*
G01*
%TO.N,/extension/CAM2_CLK_P*%
X162130000Y-133856612D02*
X161802456Y-133856612D01*
X161802456Y-132639012D02*
X162130000Y-132639012D01*
X161802456Y-130639012D02*
X162130000Y-130639012D01*
X162130000Y-129856612D02*
X161802456Y-129856612D01*
X161511256Y-132147812D02*
X161511256Y-132347812D01*
X162638800Y-127038933D02*
X162638800Y-129347812D01*
X168974999Y-143110000D02*
X168883799Y-143201200D01*
X164235068Y-143201200D02*
X162638800Y-141604932D01*
X162638800Y-137147812D02*
X162638800Y-141604932D01*
X162130000Y-131856612D02*
X161802456Y-131856612D01*
X162130000Y-135856612D02*
X161802456Y-135856612D01*
X162638800Y-135147812D02*
X162638800Y-135347812D01*
X161802456Y-136639012D02*
X162130000Y-136639012D01*
X162690508Y-126987225D02*
X162985140Y-126987225D01*
X169500000Y-143110000D02*
X168974999Y-143110000D01*
X168883799Y-143201200D02*
X164235068Y-143201200D01*
X162638800Y-133147812D02*
X162638800Y-133347812D01*
X162690508Y-126987225D02*
X162638800Y-127038933D01*
X162638800Y-131147812D02*
X162638800Y-131347812D01*
X161511256Y-130147812D02*
X161511256Y-130347812D01*
X161802456Y-134639012D02*
X162130000Y-134639012D01*
X161511256Y-136147812D02*
X161511256Y-136347812D01*
X161511256Y-134147812D02*
X161511256Y-134347812D01*
X161511256Y-134347812D02*
G75*
G03*
X161802456Y-134639044I291244J12D01*
G01*
X162130000Y-136639012D02*
G75*
G02*
X162638788Y-137147812I0J-508788D01*
G01*
X161511256Y-132347812D02*
G75*
G03*
X161802456Y-132639044I291244J12D01*
G01*
X162130000Y-130639012D02*
G75*
G02*
X162638788Y-131147812I0J-508788D01*
G01*
X162638800Y-129347812D02*
G75*
G02*
X162130000Y-129856600I-508800J12D01*
G01*
X161802456Y-135856612D02*
G75*
G03*
X161511312Y-136147812I44J-291188D01*
G01*
X161802456Y-129856612D02*
G75*
G03*
X161511312Y-130147812I44J-291188D01*
G01*
X161511256Y-136347812D02*
G75*
G03*
X161802456Y-136639044I291244J12D01*
G01*
X162130000Y-134639012D02*
G75*
G02*
X162638788Y-135147812I0J-508788D01*
G01*
X161802456Y-133856612D02*
G75*
G03*
X161511312Y-134147812I44J-291188D01*
G01*
X162638800Y-133347812D02*
G75*
G02*
X162130000Y-133856600I-508800J12D01*
G01*
X162130000Y-132639012D02*
G75*
G02*
X162638788Y-133147812I0J-508788D01*
G01*
X162638800Y-135347812D02*
G75*
G02*
X162130000Y-135856600I-508800J12D01*
G01*
X161511256Y-130347812D02*
G75*
G03*
X161802456Y-130639044I291244J12D01*
G01*
X161802456Y-131856612D02*
G75*
G03*
X161511312Y-132147812I44J-291188D01*
G01*
X162638800Y-131347812D02*
G75*
G02*
X162130000Y-131856600I-508800J12D01*
G01*
%TO.N,/extension/CAM2_D3_P*%
X165101200Y-133478800D02*
X165358778Y-133221219D01*
X166846783Y-130466582D02*
X166705361Y-130608003D01*
X168119633Y-129914106D02*
X168187206Y-129981679D01*
X165101200Y-136855068D02*
X168064932Y-139818800D01*
X165432603Y-131880830D02*
X165291181Y-132022251D01*
X169460000Y-123483868D02*
X167664932Y-121688800D01*
X169048888Y-129120000D02*
X168981314Y-129052426D01*
X167634674Y-130534214D02*
X167567042Y-130466582D01*
X168064932Y-139818800D02*
X168883799Y-139818800D01*
X168974999Y-139910000D02*
X169500000Y-139910000D01*
X168045786Y-130534214D02*
X168187206Y-130392791D01*
X165101200Y-133478800D02*
X165101200Y-136855068D01*
X169460000Y-129120000D02*
X169460000Y-123483868D01*
X166631572Y-131948427D02*
X166631572Y-131948428D01*
X168261055Y-129052426D02*
X168119633Y-129193847D01*
X167664932Y-121688800D02*
X165790000Y-121688800D01*
X166220460Y-131948428D02*
X166152862Y-131880830D01*
X166772992Y-131807005D02*
X166631572Y-131948427D01*
X166705361Y-131328262D02*
X166772992Y-131395893D01*
X165291181Y-132742510D02*
X165358778Y-132810107D01*
X168883799Y-139818800D02*
X168974999Y-139910000D01*
X165790000Y-121688800D02*
X165538800Y-121940000D01*
X165291181Y-132022251D02*
G75*
G03*
X165291161Y-132742530I360119J-360149D01*
G01*
X168187206Y-129981679D02*
G75*
G02*
X168187171Y-130392756I-205606J-205521D01*
G01*
X166152862Y-131880830D02*
G75*
G03*
X165432602Y-131880829I-360130J-360128D01*
G01*
X167567042Y-130466582D02*
G75*
G03*
X166846784Y-130466582I-360129J-360128D01*
G01*
X168045786Y-130534214D02*
G75*
G02*
X167634674Y-130534214I-205556J205556D01*
G01*
X169460000Y-129120000D02*
G75*
G02*
X169048888Y-129120000I-205556J205556D01*
G01*
X168981314Y-129052426D02*
G75*
G03*
X168261054Y-129052425I-360130J-360128D01*
G01*
X165358778Y-132810107D02*
G75*
G02*
X165358815Y-133221256I-205578J-205593D01*
G01*
X166631572Y-131948428D02*
G75*
G02*
X166220460Y-131948428I-205556J205556D01*
G01*
X166772992Y-131395893D02*
G75*
G02*
X166772943Y-131806956I-205592J-205507D01*
G01*
X168119633Y-129193847D02*
G75*
G03*
X168119609Y-129914129I360167J-360153D01*
G01*
X166705361Y-130608003D02*
G75*
G03*
X166705393Y-131328229I360139J-360097D01*
G01*
%TO.N,/extension/CAM2_D1_P*%
X166574831Y-118784830D02*
X170951200Y-123161200D01*
X168334932Y-138618800D02*
X168883799Y-138618800D01*
X163710000Y-117630000D02*
X165420000Y-117630000D01*
X168974999Y-138710000D02*
X169500000Y-138710000D01*
X165673971Y-118837164D02*
X165758823Y-118922016D01*
X163304636Y-118013023D02*
X163367659Y-117950000D01*
X166932428Y-136626296D02*
X166932428Y-137216296D01*
X166932428Y-137216296D02*
X168334932Y-138618800D01*
X163367659Y-117950000D02*
X163390000Y-117950000D01*
X165420000Y-117630000D02*
X165811157Y-118021157D01*
X166931200Y-136625068D02*
X166932428Y-136626296D01*
X165811157Y-118360568D02*
X165673971Y-118497753D01*
X166098235Y-118922016D02*
X166235420Y-118784830D01*
X163390000Y-117950000D02*
X163710000Y-117630000D01*
X170951200Y-130607625D02*
X166931200Y-134627625D01*
X170951200Y-123161200D02*
X170951200Y-130607625D01*
X166931200Y-134627625D02*
X166931200Y-136625068D01*
X168883799Y-138618800D02*
X168974999Y-138710000D01*
X165673971Y-118497753D02*
G75*
G03*
X165673929Y-118837205I169729J-169747D01*
G01*
X165811157Y-118021157D02*
G75*
G02*
X165811195Y-118360606I-169657J-169743D01*
G01*
X165758823Y-118922016D02*
G75*
G03*
X166098235Y-118922016I169706J169704D01*
G01*
X166235420Y-118784830D02*
G75*
G02*
X166574831Y-118784829I169706J-169707D01*
G01*
%TO.N,/extension/CAM2_D4_P*%
X163998800Y-129495068D02*
X164170021Y-129323851D01*
X165442812Y-128051056D02*
X165584236Y-127909636D01*
X167177600Y-124612400D02*
X167177600Y-126316268D01*
X167177600Y-126316268D02*
X166857027Y-126636841D01*
X163998800Y-129495068D02*
X163998800Y-130740000D01*
X166435068Y-140801200D02*
X168883799Y-140801200D01*
X163998800Y-138364932D02*
X166435068Y-140801200D01*
X164185248Y-130926448D02*
X164185248Y-131340000D01*
X168974999Y-140710000D02*
X169500000Y-140710000D01*
X167370000Y-124420000D02*
X167177600Y-124612400D01*
X166537683Y-128451268D02*
X165996052Y-127909637D01*
X166857027Y-127048659D02*
X167398659Y-127590291D01*
X165123514Y-129865529D02*
X164581837Y-129323852D01*
X165984489Y-129724106D02*
X165843068Y-129865528D01*
X168883799Y-140801200D02*
X168974999Y-140710000D01*
X165442812Y-128462874D02*
X165984490Y-129004552D01*
X163998800Y-131526448D02*
X163998800Y-138364932D01*
X167398658Y-128309845D02*
X167257237Y-128451267D01*
X166857027Y-126636841D02*
G75*
G03*
X166856977Y-127048709I205873J-205959D01*
G01*
X165843068Y-129865528D02*
G75*
G02*
X165123523Y-129865520I-359768J359828D01*
G01*
X164185248Y-131340000D02*
G75*
G02*
X164092024Y-131433248I-93248J0D01*
G01*
X165442812Y-128051056D02*
G75*
G03*
X165442777Y-128462909I205888J-205944D01*
G01*
X167257237Y-128451267D02*
G75*
G02*
X166537724Y-128451228I-359737J359767D01*
G01*
X164092024Y-131433224D02*
G75*
G03*
X163998824Y-131526448I-24J-93176D01*
G01*
X164092024Y-130833224D02*
G75*
G02*
X164185176Y-130926448I-24J-93176D01*
G01*
X164581837Y-129323852D02*
G75*
G03*
X164169993Y-129323822I-205937J-205948D01*
G01*
X163998800Y-130740000D02*
G75*
G03*
X164092024Y-130833200I93200J0D01*
G01*
X167398659Y-127590291D02*
G75*
G02*
X167398691Y-128309878I-359759J-359809D01*
G01*
X165996052Y-127909637D02*
G75*
G03*
X165584192Y-127909592I-205952J-205863D01*
G01*
X165984490Y-129004552D02*
G75*
G02*
X165984461Y-129724077I-359790J-359748D01*
G01*
%TO.N,MIPI2_HS_C_N*%
X157021068Y-86594784D02*
X157175068Y-86594784D01*
X156314932Y-87861200D02*
X156405068Y-87861199D01*
X162411068Y-87861199D02*
X167925068Y-87861200D01*
X160101068Y-86594784D02*
X160255068Y-86594784D01*
X157791068Y-87861199D02*
X157945068Y-87861199D01*
X161224267Y-87662000D02*
X161224267Y-87011585D01*
X159131869Y-87011585D02*
X159131869Y-87662000D01*
X162211869Y-87011585D02*
X162211869Y-87662000D01*
X158144267Y-87662000D02*
X158144267Y-87011585D01*
X169420068Y-89356200D02*
X169803800Y-89356200D01*
X169803800Y-89356200D02*
X170120000Y-89040000D01*
X153960754Y-90215378D02*
X156314932Y-87861200D01*
X159331068Y-87861199D02*
X159485068Y-87861199D01*
X153150000Y-89940000D02*
X153425378Y-90215378D01*
X161641068Y-86594784D02*
X161795068Y-86594784D01*
X159684267Y-87662000D02*
X159684267Y-87011585D01*
X167925068Y-87861200D02*
X169420068Y-89356200D01*
X157591869Y-87011585D02*
X157591869Y-87662000D01*
X156604267Y-87662000D02*
X156604267Y-87011585D01*
X160871068Y-87861199D02*
X161025068Y-87861199D01*
X158561068Y-86594784D02*
X158715068Y-86594784D01*
X153425378Y-90215378D02*
X153960754Y-90215378D01*
X160671869Y-87011585D02*
X160671869Y-87662000D01*
X158715068Y-86594784D02*
G75*
G02*
X159131916Y-87011585I32J-416816D01*
G01*
X160671869Y-87662000D02*
G75*
G03*
X160871068Y-87861231I199231J0D01*
G01*
X160255068Y-86594784D02*
G75*
G02*
X160671916Y-87011585I32J-416816D01*
G01*
X157175068Y-86594784D02*
G75*
G02*
X157591916Y-87011585I32J-416816D01*
G01*
X159131869Y-87662000D02*
G75*
G03*
X159331068Y-87861231I199231J0D01*
G01*
X161025068Y-87861199D02*
G75*
G03*
X161224299Y-87662000I32J199199D01*
G01*
X158144267Y-87011585D02*
G75*
G02*
X158561068Y-86594767I416833J-15D01*
G01*
X157591869Y-87662000D02*
G75*
G03*
X157791068Y-87861231I199231J0D01*
G01*
X161795068Y-86594784D02*
G75*
G02*
X162211916Y-87011585I32J-416816D01*
G01*
X162211869Y-87662000D02*
G75*
G03*
X162411068Y-87861231I199231J0D01*
G01*
X159485068Y-87861199D02*
G75*
G03*
X159684299Y-87662000I32J199199D01*
G01*
X157945068Y-87861199D02*
G75*
G03*
X158144299Y-87662000I32J199199D01*
G01*
X161224267Y-87011585D02*
G75*
G02*
X161641068Y-86594767I416833J-15D01*
G01*
X159684267Y-87011585D02*
G75*
G02*
X160101068Y-86594767I416833J-15D01*
G01*
X156604267Y-87011585D02*
G75*
G02*
X157021068Y-86594767I416833J-15D01*
G01*
X156405068Y-87861199D02*
G75*
G03*
X156604299Y-87662000I32J199199D01*
G01*
%TO.N,/extension/CAM2_CLK_N*%
X162421200Y-126948800D02*
X162421200Y-129347812D01*
X162130000Y-131639012D02*
X161802456Y-131639012D01*
X161293656Y-136147812D02*
X161293656Y-136347812D01*
X162421200Y-137147812D02*
X162421200Y-141695068D01*
X161802456Y-134856612D02*
X162130000Y-134856612D01*
X161802456Y-132856612D02*
X162130000Y-132856612D01*
X162421200Y-141695068D02*
X164144932Y-143418800D01*
X161802456Y-130856612D02*
X162130000Y-130856612D01*
X161802456Y-136856612D02*
X162130000Y-136856612D01*
X164144932Y-143418800D02*
X168883799Y-143418800D01*
X162960000Y-126410000D02*
X162421200Y-126948800D01*
X162421200Y-131147812D02*
X162421200Y-131347812D01*
X162130000Y-135639012D02*
X161802456Y-135639012D01*
X162421200Y-135147812D02*
X162421200Y-135347812D01*
X162421200Y-133147812D02*
X162421200Y-133347812D01*
X168883799Y-143418800D02*
X168974999Y-143510000D01*
X162130000Y-129639012D02*
X161802456Y-129639012D01*
X168974999Y-143510000D02*
X169500000Y-143510000D01*
X162130000Y-133639012D02*
X161802456Y-133639012D01*
X161293656Y-132147812D02*
X161293656Y-132347812D01*
X161293656Y-130147812D02*
X161293656Y-130347812D01*
X161293656Y-134147812D02*
X161293656Y-134347812D01*
X162130000Y-136856612D02*
G75*
G02*
X162421188Y-137147812I0J-291188D01*
G01*
X162421200Y-131347812D02*
G75*
G02*
X162130000Y-131639000I-291200J12D01*
G01*
X162421200Y-133347812D02*
G75*
G02*
X162130000Y-133639000I-291200J12D01*
G01*
X162130000Y-132856612D02*
G75*
G02*
X162421188Y-133147812I0J-291188D01*
G01*
X162130000Y-134856612D02*
G75*
G02*
X162421188Y-135147812I0J-291188D01*
G01*
X162130000Y-130856612D02*
G75*
G02*
X162421188Y-131147812I0J-291188D01*
G01*
X161802456Y-133639012D02*
G75*
G03*
X161293712Y-134147812I44J-508788D01*
G01*
X161293656Y-134347812D02*
G75*
G03*
X161802456Y-134856644I508844J12D01*
G01*
X161293656Y-136347812D02*
G75*
G03*
X161802456Y-136856644I508844J12D01*
G01*
X161802456Y-131639012D02*
G75*
G03*
X161293712Y-132147812I44J-508788D01*
G01*
X161293656Y-132347812D02*
G75*
G03*
X161802456Y-132856644I508844J12D01*
G01*
X161802456Y-135639012D02*
G75*
G03*
X161293712Y-136147812I44J-508788D01*
G01*
X161802456Y-129639012D02*
G75*
G03*
X161293712Y-130147812I44J-508788D01*
G01*
X162421200Y-135347812D02*
G75*
G02*
X162130000Y-135639000I-291200J12D01*
G01*
X162421200Y-129347812D02*
G75*
G02*
X162130000Y-129639000I-291200J12D01*
G01*
X161293656Y-130347812D02*
G75*
G03*
X161802456Y-130856644I508844J12D01*
G01*
%TO.N,MIPI2_HS_D_P*%
X149890000Y-87750000D02*
X150051000Y-87589000D01*
X151950068Y-87443800D02*
X153795068Y-85598800D01*
X150319414Y-87589000D02*
X150464614Y-87443800D01*
X150051000Y-87589000D02*
X150319414Y-87589000D01*
X150464614Y-87443800D02*
X151950068Y-87443800D01*
X153795068Y-85598800D02*
X163868800Y-85598800D01*
X163868800Y-85598800D02*
X164140000Y-85870000D01*
%TO.N,MIPI2_HS_D_N*%
X163868800Y-85381200D02*
X157070000Y-85381200D01*
X151859932Y-87226200D02*
X150196200Y-87226200D01*
X164110000Y-85140000D02*
X163868800Y-85381200D01*
X153704932Y-85381200D02*
X151859932Y-87226200D01*
X150196200Y-87226200D02*
X150150000Y-87180000D01*
X156901504Y-85212704D02*
X156470000Y-85212704D01*
X153704932Y-85381200D02*
X156301504Y-85381200D01*
X156385752Y-85296952D02*
G75*
G02*
X156301504Y-85381252I-84252J-48D01*
G01*
X156470000Y-85212704D02*
G75*
G03*
X156385704Y-85296952I0J-84296D01*
G01*
X157070000Y-85381200D02*
G75*
G02*
X156985800Y-85296952I0J84200D01*
G01*
X156985752Y-85296952D02*
G75*
G03*
X156901504Y-85212748I-84252J-48D01*
G01*
%TO.N,MIPI2_HS_B_P*%
X164500000Y-89880000D02*
X164168800Y-89548800D01*
X163591222Y-89548800D02*
X162385090Y-90754932D01*
X162385090Y-90754932D02*
X158155068Y-90754932D01*
X164168800Y-89548800D02*
X163591222Y-89548800D01*
%TO.N,ENABLE_XCLR*%
D22*
X171980000Y-140710000D02*
X171960000Y-140690000D01*
X195300000Y-127540000D02*
X195300000Y-128820000D01*
X172580000Y-140710000D02*
X171980000Y-140710000D01*
X195300000Y-128820000D02*
X195280000Y-128840000D01*
%TO.N,ENABLE_PWR*%
X174002811Y-140927000D02*
X204803000Y-140927000D01*
X172631000Y-140361000D02*
X173436811Y-140361000D01*
X219620000Y-116610000D02*
X216240000Y-116610000D01*
X204236890Y-97450000D02*
X216448445Y-109661555D01*
X173436811Y-140361000D02*
X174002811Y-140927000D01*
X216240000Y-116610000D02*
X215048539Y-117801461D01*
X215568539Y-118321461D02*
X215048539Y-117801461D01*
X205401000Y-140329000D02*
X205401000Y-135130242D01*
X216448445Y-110431555D02*
X216448445Y-109661555D01*
X220041000Y-117031000D02*
X219620000Y-116610000D01*
X204236890Y-97450000D02*
X204210000Y-97450000D01*
X212964991Y-113915009D02*
X216448445Y-110431555D01*
X204803000Y-140927000D02*
X205401000Y-140329000D01*
X205401000Y-135130242D02*
X212850000Y-127681242D01*
X220041000Y-118540242D02*
X220041000Y-117031000D01*
X212850000Y-127681242D02*
X212850000Y-125731242D01*
X212850000Y-125731242D02*
X220041000Y-118540242D01*
X172580000Y-140310000D02*
X172631000Y-140361000D01*
X212899899Y-115652820D02*
X212899899Y-113915009D01*
X212899899Y-113915009D02*
X212964991Y-113915009D01*
X215048539Y-117801461D02*
X212899899Y-115652820D01*
%TO.N,ENABLE_XTAL*%
X194400000Y-127470000D02*
X194400000Y-128640000D01*
X173190000Y-141110000D02*
X173230000Y-141150000D01*
X172580000Y-141110000D02*
X173190000Y-141110000D01*
X194400000Y-128640000D02*
X195320000Y-129560000D01*
%TO.N,FPGA_D30*%
D23*
X223400000Y-42000000D02*
X223040000Y-41640000D01*
X210030000Y-43490000D02*
X210030000Y-46730000D01*
X211880000Y-41640000D02*
X210030000Y-43490000D01*
X214770000Y-78800000D02*
X221190000Y-78800000D01*
X221190000Y-78800000D02*
X223400000Y-76590000D01*
X223040000Y-41640000D02*
X211880000Y-41640000D01*
X210030000Y-46730000D02*
X210910000Y-47610000D01*
X223400000Y-76590000D02*
X223400000Y-42000000D01*
%TO.N,FPGA_D28*%
X212860000Y-48762189D02*
X212860000Y-48240000D01*
X210260000Y-47590000D02*
X209440000Y-47590000D01*
X213969000Y-49871189D02*
X212860000Y-48762189D01*
X213969000Y-55779000D02*
X213969000Y-49871189D01*
X214740000Y-77320000D02*
X217900000Y-77320000D01*
X210459000Y-47789000D02*
X210260000Y-47590000D01*
X212680000Y-48060000D02*
X211097811Y-48060000D01*
X212860000Y-48240000D02*
X212680000Y-48060000D01*
X218410000Y-76810000D02*
X218410000Y-60220000D01*
X211097811Y-48060000D02*
X211096811Y-48061000D01*
X211096811Y-48061000D02*
X210723189Y-48061000D01*
X210723189Y-48061000D02*
X210459000Y-47796811D01*
X210459000Y-47796811D02*
X210459000Y-47789000D01*
X218410000Y-60220000D02*
X213969000Y-55779000D01*
X217900000Y-77320000D02*
X218410000Y-76810000D01*
%TO.N,FPGA_D14*%
X202650000Y-52550000D02*
X202640000Y-52550000D01*
X206970000Y-50740000D02*
X206510000Y-50280000D01*
X202640000Y-73890000D02*
X203450000Y-74700000D01*
X205700000Y-74700000D02*
X205740000Y-74740000D01*
X204920000Y-50280000D02*
X202650000Y-52550000D01*
X206510000Y-50280000D02*
X204920000Y-50280000D01*
X202640000Y-52550000D02*
X202640000Y-73890000D01*
X203450000Y-74700000D02*
X205700000Y-74700000D01*
%TO.N,FPGA_D24*%
X208806811Y-45509000D02*
X208799000Y-45509000D01*
X198620000Y-43580000D02*
X206870000Y-43580000D01*
X209071000Y-45773189D02*
X208806811Y-45509000D01*
X209430000Y-46780000D02*
X209430000Y-46140000D01*
X186800000Y-55400000D02*
X198620000Y-43580000D01*
X208799000Y-45509000D02*
X206870000Y-43580000D01*
X209430000Y-46140000D02*
X209071000Y-45781000D01*
X186800000Y-57600000D02*
X186800000Y-55400000D01*
X209071000Y-45781000D02*
X209071000Y-45773189D01*
%TO.N,FPGA_D25*%
X178880000Y-49740000D02*
X178880000Y-51950000D01*
X179350000Y-49270000D02*
X178880000Y-49740000D01*
X178880000Y-51950000D02*
X173110000Y-57720000D01*
%TO.N,FPGA_D17*%
X178200000Y-57886806D02*
X178200000Y-57980000D01*
X185980000Y-50106806D02*
X178200000Y-57886806D01*
X185980000Y-49900000D02*
X185980000Y-50106806D01*
%TO.N,FPGA_CLK*%
X202160000Y-49710000D02*
X202160000Y-50800000D01*
X202160000Y-50800000D02*
X186870000Y-66090000D01*
%TO.N,FPGA_D26*%
X202270000Y-44930000D02*
X207440000Y-44930000D01*
X187400000Y-62000000D02*
X187400000Y-59800000D01*
X208620000Y-45960000D02*
X208470000Y-45960000D01*
X208470000Y-45960000D02*
X207440000Y-44930000D01*
X187400000Y-59800000D02*
X202270000Y-44930000D01*
%TO.N,FPGA_D16*%
X187510000Y-58850000D02*
X187510000Y-56810000D01*
X187510000Y-56810000D02*
X199340000Y-44980000D01*
%TO.N,FPGA_D29*%
X220940000Y-43080000D02*
X213610000Y-43080000D01*
X222040000Y-44180000D02*
X220940000Y-43080000D01*
X222040000Y-59691000D02*
X222040000Y-44180000D01*
%TO.N,FPGA_D31*%
X212600000Y-42400000D02*
X221800000Y-42400000D01*
X210970000Y-46740000D02*
X211420000Y-46290000D01*
X222650000Y-74540000D02*
X218990000Y-78200000D01*
X222650000Y-43250000D02*
X222650000Y-74540000D01*
X218990000Y-78200000D02*
X214800000Y-78200000D01*
X211420000Y-46290000D02*
X211420000Y-43550000D01*
X221800000Y-42400000D02*
X222650000Y-43250000D01*
X211450000Y-43550000D02*
X212600000Y-42400000D01*
X211420000Y-43550000D02*
X211450000Y-43550000D01*
%TO.N,FPGA_D27*%
X178445000Y-49325000D02*
X178130000Y-49640000D01*
X172160000Y-56990000D02*
X172160000Y-58117557D01*
X172392443Y-58350000D02*
X172560000Y-58350000D01*
X178130000Y-49640000D02*
X178130000Y-51020000D01*
X172160000Y-58117557D02*
X172392443Y-58350000D01*
X178130000Y-51020000D02*
X172160000Y-56990000D01*
%TO.N,FPGA_D15*%
X206720000Y-65450000D02*
X208550000Y-67280000D01*
X206720000Y-52590000D02*
X206720000Y-65450000D01*
X208600000Y-50710000D02*
X206720000Y-52590000D01*
X208550000Y-67280000D02*
X208550000Y-74230000D01*
%TO.N,FPGA_D2*%
X179700000Y-78190000D02*
X175790000Y-82100000D01*
X204420000Y-49310000D02*
X179690000Y-74040000D01*
X208131000Y-48639000D02*
X207460000Y-49310000D01*
X175790000Y-82100000D02*
X173280000Y-82100000D01*
X208879000Y-48639000D02*
X208131000Y-48639000D01*
X210180000Y-49940000D02*
X208879000Y-48639000D01*
X179690000Y-78190000D02*
X179700000Y-78190000D01*
X179690000Y-74040000D02*
X179690000Y-78190000D01*
X207460000Y-49310000D02*
X204420000Y-49310000D01*
%TO.N,FrameSync*%
X159870000Y-67520000D02*
X159870000Y-81180000D01*
X159870000Y-81180000D02*
X162360000Y-83670000D01*
X162360000Y-83670000D02*
X164220000Y-83670000D01*
%TO.N,FPGA_D13*%
X169260000Y-68430000D02*
X185840000Y-51850000D01*
X185840000Y-51850000D02*
X188470000Y-51850000D01*
X169220000Y-68430000D02*
X169260000Y-68430000D01*
%TO.N,LineSync*%
X174370000Y-51100000D02*
X177180000Y-51100000D01*
X160970000Y-79610000D02*
X164200000Y-82840000D01*
X160970000Y-64500000D02*
X174370000Y-51100000D01*
X160970000Y-64500000D02*
X160970000Y-79610000D01*
%TO.N,FPGA_D8*%
X186180000Y-54180000D02*
X185560000Y-54180000D01*
X184370000Y-54170000D02*
X169701000Y-68839000D01*
X169701000Y-68839000D02*
X169701000Y-80639000D01*
X169701000Y-80639000D02*
X169680000Y-80660000D01*
X185550000Y-54170000D02*
X184370000Y-54170000D01*
X185560000Y-54180000D02*
X185550000Y-54170000D01*
%TO.N,FPGA_D4*%
X207640000Y-56060000D02*
X207650000Y-56060000D01*
X207650000Y-56060000D02*
X208569000Y-55141000D01*
X208569000Y-51541000D02*
X208610000Y-51500000D01*
X208569000Y-55141000D02*
X208569000Y-51541000D01*
%TO.N,FPGA_D12*%
X167970000Y-67280000D02*
X167970000Y-67610000D01*
X182110000Y-53140000D02*
X167970000Y-67280000D01*
X182210000Y-53140000D02*
X182110000Y-53140000D01*
%TO.N,FPGA_D21*%
X162090000Y-69650000D02*
X162090000Y-78970000D01*
X180335000Y-49285000D02*
X179380000Y-50240000D01*
X179380000Y-50240000D02*
X179380000Y-52360000D01*
X179380000Y-52360000D02*
X162090000Y-69650000D01*
%TO.N,FPGA_D1*%
X209471000Y-54999000D02*
X208900000Y-55570000D01*
X208900000Y-55570000D02*
X208900000Y-73843194D01*
X209471000Y-51581000D02*
X209471000Y-54999000D01*
X170010000Y-82630000D02*
X169870000Y-82770000D01*
X204940000Y-82630000D02*
X170010000Y-82630000D01*
X208900000Y-73843194D02*
X209690000Y-74633194D01*
X209690000Y-74633194D02*
X209690000Y-77880000D01*
X209690000Y-77880000D02*
X204940000Y-82630000D01*
X209410000Y-51520000D02*
X209471000Y-51581000D01*
%TO.N,FPGA_D20*%
X172820000Y-64010000D02*
X172650000Y-64010000D01*
X188255000Y-48575000D02*
X172820000Y-64010000D01*
%TO.N,FPGA_D10*%
X173950000Y-66110000D02*
X173950000Y-75050000D01*
X184400000Y-54930000D02*
X184400000Y-55660000D01*
X184400000Y-55660000D02*
X173950000Y-66110000D01*
X173950000Y-75050000D02*
X173000000Y-76000000D01*
%TO.N,FPGA_D6*%
X170201000Y-80875806D02*
X169895806Y-81181000D01*
X196250000Y-55540000D02*
X195476806Y-55540000D01*
X169895806Y-81181000D02*
X167491000Y-81181000D01*
X170201000Y-80815806D02*
X170201000Y-80875806D01*
X195476806Y-55540000D02*
X170201000Y-80815806D01*
X167491000Y-81181000D02*
X167130000Y-80820000D01*
%TO.N,FPGA_D3*%
X201140000Y-58847811D02*
X201140000Y-58240000D01*
X178347811Y-81640000D02*
X201140000Y-58847811D01*
X178000000Y-81640000D02*
X178347811Y-81640000D01*
X177870000Y-81770000D02*
X178000000Y-81640000D01*
%TO.N,FPGA_D18*%
X181710000Y-51900000D02*
X163340000Y-70270000D01*
X182275000Y-49395000D02*
X181710000Y-49960000D01*
X181710000Y-49960000D02*
X181710000Y-51900000D01*
X163340000Y-70270000D02*
X163340000Y-78230000D01*
X163340000Y-78230000D02*
X163320000Y-78250000D01*
%TO.N,FPGA_D11*%
X187180000Y-52450000D02*
X187180000Y-54566038D01*
X185530000Y-56216038D02*
X185530000Y-61990000D01*
X187180000Y-54566038D02*
X185530000Y-56216038D01*
%TO.N,FPGA_D9*%
X180207037Y-79212963D02*
X179922963Y-79497037D01*
X201470000Y-55030000D02*
X201470000Y-57060000D01*
X179922963Y-79497037D02*
X179922963Y-79507037D01*
X201470000Y-57060000D02*
X180207037Y-78322963D01*
X179125000Y-80305000D02*
X179045000Y-80305000D01*
X180207037Y-78322963D02*
X180207037Y-79212963D01*
X179922963Y-79507037D02*
X179125000Y-80305000D01*
%TO.N,FPGA_D5*%
X167975000Y-83415000D02*
X168140000Y-83580000D01*
X211240000Y-55040000D02*
X210000000Y-53800000D01*
X210000000Y-51150000D02*
X209530000Y-50680000D01*
X168160000Y-84360000D02*
X168450000Y-84650000D01*
X209530000Y-50680000D02*
X209430000Y-50680000D01*
X203373962Y-84650000D02*
X211240000Y-76783962D01*
X211240000Y-76783962D02*
X211240000Y-55040000D01*
X167975000Y-83415000D02*
X168160000Y-83600000D01*
X168450000Y-84650000D02*
X203373962Y-84650000D01*
X168160000Y-83600000D02*
X168160000Y-84360000D01*
X210000000Y-53800000D02*
X210000000Y-51150000D01*
%TO.N,FPGA_D0*%
X201900000Y-58250000D02*
X201590000Y-58560000D01*
X201590000Y-59630000D02*
X179575000Y-81645000D01*
X201590000Y-58560000D02*
X201590000Y-59630000D01*
%TO.N,FPGA_D22*%
X174360000Y-60090000D02*
X192040000Y-42410000D01*
X174070000Y-60370000D02*
X174350000Y-60090000D01*
X192040000Y-42410000D02*
X207010000Y-42410000D01*
X174350000Y-60090000D02*
X174360000Y-60090000D01*
%TO.N,FPGA_D23*%
X204450000Y-45990000D02*
X204300000Y-45990000D01*
X204450000Y-45990000D02*
X204360000Y-45990000D01*
X204300000Y-45990000D02*
X173630000Y-76660000D01*
X207840000Y-45990000D02*
X204450000Y-45990000D01*
%TO.N,FPGA_D19*%
X180790000Y-51860000D02*
X162720000Y-69930000D01*
X181420000Y-49340000D02*
X180790000Y-49970000D01*
X180790000Y-49970000D02*
X180790000Y-51860000D01*
X162720000Y-69930000D02*
X162720000Y-77700000D01*
X162720000Y-77700000D02*
X162670000Y-77750000D01*
%TO.N,FPGA_D7*%
X203580000Y-52270000D02*
X203580000Y-56800000D01*
X207770000Y-50720000D02*
X206730000Y-51760000D01*
X204090000Y-51760000D02*
X203580000Y-52270000D01*
X206730000Y-51760000D02*
X204090000Y-51760000D01*
%TO.N,Net-(U2-FB)*%
X209789000Y-122971000D02*
X209159000Y-123601000D01*
X212459000Y-122971000D02*
X209789000Y-122971000D01*
%TO.N,Net-(U3-FB)*%
X212439000Y-127511000D02*
X209709000Y-127511000D01*
X209709000Y-127511000D02*
X209049000Y-128171000D01*
%TO.N,Net-(U7A-RESET#)*%
D22*
X212560000Y-54765000D02*
X213120000Y-55325000D01*
X213120000Y-55325000D02*
X213120000Y-55450000D01*
%TO.N,Net-(U7A-VBATT)*%
D23*
X211864000Y-57134000D02*
X213760000Y-59030000D01*
X212210000Y-55520000D02*
X211864000Y-55866000D01*
X211864000Y-55866000D02*
X211864000Y-57134000D01*
%TO.N,/USB3/FX3_SSRX_P*%
X215350000Y-46910000D02*
X215780000Y-46480000D01*
X216650000Y-46480000D02*
X216680000Y-46450000D01*
X215780000Y-46480000D02*
X216650000Y-46480000D01*
%TD*%
M02*
