%TF.GenerationSoftware,KiCad,Pcbnew,10.0.0-10.0.0~ubuntu24.04.1*%
%TF.CreationDate,2026-03-31T06:40:46+02:00*%
%TF.ProjectId,sensor_board,73656e73-6f72-45f6-926f-6172642e6b69,rev?*%
%TF.SameCoordinates,Original*%
%TF.FileFunction,Copper,L4,Bot*%
%TF.FilePolarity,Positive*%
%FSLAX46Y46*%
G04 Gerber Fmt 4.6, Leading zero omitted, Abs format (unit mm)*
G04 Created by KiCad (PCBNEW 10.0.0-10.0.0~ubuntu24.04.1) date 2026-03-31 06:40:46*
%MOMM*%
%LPD*%
G01*
G04 APERTURE LIST*
G04 Aperture macros list*
%AMRoundRect*
0 Rectangle with rounded corners*
0 $1 Rounding radius*
0 $2 $3 $4 $5 $6 $7 $8 $9 X,Y pos of 4 corners*
0 Add a 4 corners polygon primitive as box body*
4,1,4,$2,$3,$4,$5,$6,$7,$8,$9,$2,$3,0*
0 Add four circle primitives for the rounded corners*
1,1,$1+$1,$2,$3*
1,1,$1+$1,$4,$5*
1,1,$1+$1,$6,$7*
1,1,$1+$1,$8,$9*
0 Add four rect primitives between the rounded corners*
20,1,$1+$1,$2,$3,$4,$5,0*
20,1,$1+$1,$4,$5,$6,$7,0*
20,1,$1+$1,$6,$7,$8,$9,0*
20,1,$1+$1,$8,$9,$2,$3,0*%
G04 Aperture macros list end*
%TA.AperFunction,SMDPad,CuDef*%
%ADD10RoundRect,0.250000X-0.475000X0.250000X-0.475000X-0.250000X0.475000X-0.250000X0.475000X0.250000X0*%
%TD*%
%TA.AperFunction,SMDPad,CuDef*%
%ADD11RoundRect,0.250000X0.262500X0.450000X-0.262500X0.450000X-0.262500X-0.450000X0.262500X-0.450000X0*%
%TD*%
%TA.AperFunction,SMDPad,CuDef*%
%ADD12RoundRect,0.250000X0.475000X-0.250000X0.475000X0.250000X-0.475000X0.250000X-0.475000X-0.250000X0*%
%TD*%
%TA.AperFunction,SMDPad,CuDef*%
%ADD13RoundRect,0.250000X-0.262500X-0.450000X0.262500X-0.450000X0.262500X0.450000X-0.262500X0.450000X0*%
%TD*%
%TA.AperFunction,SMDPad,CuDef*%
%ADD14RoundRect,0.250000X-0.250000X-0.475000X0.250000X-0.475000X0.250000X0.475000X-0.250000X0.475000X0*%
%TD*%
%TA.AperFunction,SMDPad,CuDef*%
%ADD15RoundRect,0.218750X0.218750X0.381250X-0.218750X0.381250X-0.218750X-0.381250X0.218750X-0.381250X0*%
%TD*%
%TA.AperFunction,SMDPad,CuDef*%
%ADD16RoundRect,0.250000X0.250000X0.475000X-0.250000X0.475000X-0.250000X-0.475000X0.250000X-0.475000X0*%
%TD*%
%TA.AperFunction,SMDPad,CuDef*%
%ADD17RoundRect,0.150000X0.150000X-0.512500X0.150000X0.512500X-0.150000X0.512500X-0.150000X-0.512500X0*%
%TD*%
%TA.AperFunction,SMDPad,CuDef*%
%ADD18RoundRect,0.250000X0.325000X0.250000X-0.325000X0.250000X-0.325000X-0.250000X0.325000X-0.250000X0*%
%TD*%
%TA.AperFunction,SMDPad,CuDef*%
%ADD19RoundRect,0.150000X-0.150000X0.512500X-0.150000X-0.512500X0.150000X-0.512500X0.150000X0.512500X0*%
%TD*%
%TA.AperFunction,SMDPad,CuDef*%
%ADD20RoundRect,0.250000X0.450000X-0.262500X0.450000X0.262500X-0.450000X0.262500X-0.450000X-0.262500X0*%
%TD*%
%TA.AperFunction,SMDPad,CuDef*%
%ADD21RoundRect,0.057500X0.057500X0.272500X-0.057500X0.272500X-0.057500X-0.272500X0.057500X-0.272500X0*%
%TD*%
%TA.AperFunction,SMDPad,CuDef*%
%ADD22R,0.350000X0.660000*%
%TD*%
%TA.AperFunction,SMDPad,CuDef*%
%ADD23R,3.700000X1.200000*%
%TD*%
%TA.AperFunction,ViaPad*%
%ADD24C,0.450000*%
%TD*%
%TA.AperFunction,ViaPad*%
%ADD25C,0.600000*%
%TD*%
%TA.AperFunction,Conductor*%
%ADD26C,0.500000*%
%TD*%
%TA.AperFunction,Conductor*%
%ADD27C,0.200000*%
%TD*%
%TA.AperFunction,Conductor*%
%ADD28C,0.120000*%
%TD*%
%TA.AperFunction,Conductor*%
%ADD29C,0.116000*%
%TD*%
G04 APERTURE END LIST*
D10*
%TO.P,C51,1*%
%TO.N,GND*%
X148800000Y-83870000D03*
%TO.P,C51,2*%
%TO.N,1V05*%
X148800000Y-85770000D03*
%TD*%
%TO.P,C41,1*%
%TO.N,GND*%
X142170000Y-90570000D03*
%TO.P,C41,2*%
%TO.N,2V8*%
X142170000Y-92470000D03*
%TD*%
D11*
%TO.P,R10,1,1*%
%TO.N,GND*%
X152050000Y-93760000D03*
%TO.P,R10,2,2*%
%TO.N,Net-(U5-GPO)*%
X150225000Y-93760000D03*
%TD*%
D12*
%TO.P,C38,1*%
%TO.N,GND*%
X206930000Y-98220000D03*
%TO.P,C38,2*%
%TO.N,1V8*%
X206930000Y-96320000D03*
%TD*%
%TO.P,C17,1*%
%TO.N,Net-(U5-VRLRD)*%
X144220000Y-89330000D03*
%TO.P,C17,2*%
%TO.N,GND*%
X144220000Y-87430000D03*
%TD*%
%TO.P,C64,1*%
%TO.N,Net-(U6-VRLRD)*%
X209170000Y-89190000D03*
%TO.P,C64,2*%
%TO.N,GND*%
X209170000Y-87290000D03*
%TD*%
D13*
%TO.P,R8,1,1*%
%TO.N,Net-(U3-FB)*%
X181477500Y-120050000D03*
%TO.P,R8,2,2*%
%TO.N,1V05*%
X183302500Y-120050000D03*
%TD*%
D14*
%TO.P,C28,1*%
%TO.N,GND*%
X138010000Y-88270000D03*
%TO.P,C28,2*%
%TO.N,2V8*%
X139910000Y-88270000D03*
%TD*%
D12*
%TO.P,C8,1*%
%TO.N,GND*%
X196670000Y-117770000D03*
%TO.P,C8,2*%
%TO.N,+5V*%
X196670000Y-115870000D03*
%TD*%
D15*
%TO.P,FB1,1,1*%
%TO.N,VIN_5V*%
X183490000Y-112880000D03*
%TO.P,FB1,2,2*%
%TO.N,+5V*%
X181365000Y-112880000D03*
%TD*%
D16*
%TO.P,C10,1*%
%TO.N,GND*%
X194040000Y-120350000D03*
%TO.P,C10,2*%
%TO.N,1V8*%
X192140000Y-120350000D03*
%TD*%
D10*
%TO.P,C56,1*%
%TO.N,GND*%
X207180000Y-90680000D03*
%TO.P,C56,2*%
%TO.N,2V8*%
X207180000Y-92580000D03*
%TD*%
%TO.P,C43,1*%
%TO.N,GND*%
X140060000Y-83900000D03*
%TO.P,C43,2*%
%TO.N,1V8*%
X140060000Y-85800000D03*
%TD*%
D12*
%TO.P,C42,1*%
%TO.N,GND*%
X150340000Y-98180000D03*
%TO.P,C42,2*%
%TO.N,1V05*%
X150340000Y-96280000D03*
%TD*%
D14*
%TO.P,C12,1*%
%TO.N,1V8*%
X192160000Y-122460000D03*
%TO.P,C12,2*%
%TO.N,GND*%
X194060000Y-122460000D03*
%TD*%
D12*
%TO.P,C49,1*%
%TO.N,GND*%
X142240000Y-98150000D03*
%TO.P,C49,2*%
%TO.N,1V8*%
X142240000Y-96250000D03*
%TD*%
D14*
%TO.P,C47,1*%
%TO.N,GND*%
X202270000Y-92600000D03*
%TO.P,C47,2*%
%TO.N,2V8*%
X204170000Y-92600000D03*
%TD*%
D13*
%TO.P,R4,1,1*%
%TO.N,Net-(U4-VCC)*%
X174865000Y-98780000D03*
%TO.P,R4,2,2*%
%TO.N,+5V*%
X176690000Y-98780000D03*
%TD*%
D14*
%TO.P,C62,1*%
%TO.N,Net-(U6-VPI)*%
X215380000Y-93290000D03*
%TO.P,C62,2*%
%TO.N,GND*%
X217280000Y-93290000D03*
%TD*%
D17*
%TO.P,U3,1,EN*%
%TO.N,ENABLE_PWR*%
X183340000Y-117075000D03*
%TO.P,U3,2,GND*%
%TO.N,GND*%
X182390000Y-117075000D03*
%TO.P,U3,3,LX*%
%TO.N,Net-(U3-LX)*%
X181440000Y-117075000D03*
%TO.P,U3,4,VIN*%
%TO.N,+5V*%
X181440000Y-114800000D03*
%TO.P,U3,5,FB*%
%TO.N,Net-(U3-FB)*%
X183340000Y-114800000D03*
%TD*%
D12*
%TO.P,C6,1*%
%TO.N,GND*%
X177440000Y-114690000D03*
%TO.P,C6,2*%
%TO.N,+5V*%
X177440000Y-112790000D03*
%TD*%
D10*
%TO.P,C31,1*%
%TO.N,GND*%
X207110000Y-83890000D03*
%TO.P,C31,2*%
%TO.N,1V05*%
X207110000Y-85790000D03*
%TD*%
D12*
%TO.P,C29,1*%
%TO.N,GND*%
X213150000Y-98920000D03*
%TO.P,C29,2*%
%TO.N,1V05*%
X213150000Y-97020000D03*
%TD*%
%TO.P,C7,1*%
%TO.N,GND*%
X188200000Y-117710000D03*
%TO.P,C7,2*%
%TO.N,+5V*%
X188200000Y-115810000D03*
%TD*%
D10*
%TO.P,C46,1*%
%TO.N,GND*%
X211150000Y-83870000D03*
%TO.P,C46,2*%
%TO.N,1V8*%
X211150000Y-85770000D03*
%TD*%
%TO.P,C32,1*%
%TO.N,GND*%
X205020000Y-83890000D03*
%TO.P,C32,2*%
%TO.N,1V8*%
X205020000Y-85790000D03*
%TD*%
D18*
%TO.P,X1,1,OE*%
%TO.N,Net-(X1-OE)*%
X182780000Y-94480000D03*
%TO.P,X1,2,GND*%
%TO.N,GND*%
X181030000Y-94480000D03*
%TO.P,X1,3,OUT*%
%TO.N,CAM_CLK*%
X181030000Y-93080000D03*
%TO.P,X1,4,VCC*%
%TO.N,1V8*%
X182780000Y-93080000D03*
%TD*%
D19*
%TO.P,U1,1,VIN*%
%TO.N,+5V*%
X192025000Y-116025000D03*
%TO.P,U1,2,GND*%
%TO.N,GND*%
X192975000Y-116025000D03*
%TO.P,U1,3,EN*%
%TO.N,ENABLE_PWR*%
X193925000Y-116025000D03*
%TO.P,U1,4*%
%TO.N,N/C*%
X193925000Y-118300000D03*
%TO.P,U1,5,VOUT*%
%TO.N,1V8*%
X192025000Y-118300000D03*
%TD*%
D20*
%TO.P,R5,1,1*%
%TO.N,GND*%
X185315000Y-119025000D03*
%TO.P,R5,2,2*%
%TO.N,ENABLE_PWR*%
X185315000Y-117200000D03*
%TD*%
D16*
%TO.P,C33,1*%
%TO.N,GND*%
X152460000Y-87600000D03*
%TO.P,C33,2*%
%TO.N,2V8*%
X150560000Y-87600000D03*
%TD*%
D12*
%TO.P,C27,1*%
%TO.N,GND*%
X139260000Y-96690000D03*
%TO.P,C27,2*%
%TO.N,1V05*%
X139260000Y-94790000D03*
%TD*%
D19*
%TO.P,U2,1,VIN*%
%TO.N,+5V*%
X200600000Y-116035000D03*
%TO.P,U2,2,GND*%
%TO.N,GND*%
X201550000Y-116035000D03*
%TO.P,U2,3,EN*%
%TO.N,ENABLE_PWR*%
X202500000Y-116035000D03*
%TO.P,U2,4*%
%TO.N,N/C*%
X202500000Y-118310000D03*
%TO.P,U2,5,VOUT*%
%TO.N,2V8*%
X200600000Y-118310000D03*
%TD*%
D12*
%TO.P,C53,1*%
%TO.N,GND*%
X204530000Y-98220000D03*
%TO.P,C53,2*%
%TO.N,1V05*%
X204530000Y-96320000D03*
%TD*%
D10*
%TO.P,C63,1*%
%TO.N,Net-(U6-VRL)*%
X211160000Y-90580000D03*
%TO.P,C63,2*%
%TO.N,GND*%
X211160000Y-92480000D03*
%TD*%
D13*
%TO.P,R2,1,1*%
%TO.N,GND*%
X181027500Y-98490000D03*
%TO.P,R2,2,2*%
%TO.N,Net-(X1-OE)*%
X182852500Y-98490000D03*
%TD*%
D11*
%TO.P,R6,1,1*%
%TO.N,GND*%
X183310000Y-122050000D03*
%TO.P,R6,2,2*%
%TO.N,Net-(U3-FB)*%
X181485000Y-122050000D03*
%TD*%
D10*
%TO.P,C50,1*%
%TO.N,GND*%
X144220000Y-90850000D03*
%TO.P,C50,2*%
%TO.N,2V8*%
X144220000Y-92750000D03*
%TD*%
D12*
%TO.P,C45,1*%
%TO.N,GND*%
X209020000Y-98900000D03*
%TO.P,C45,2*%
%TO.N,1V05*%
X209020000Y-97000000D03*
%TD*%
D10*
%TO.P,C3,1*%
%TO.N,+5V*%
X190245000Y-115805000D03*
%TO.P,C3,2*%
%TO.N,GND*%
X190245000Y-117705000D03*
%TD*%
D16*
%TO.P,C15,1*%
%TO.N,1V05*%
X175210000Y-122200000D03*
%TO.P,C15,2*%
%TO.N,GND*%
X173310000Y-122200000D03*
%TD*%
D14*
%TO.P,C13,1*%
%TO.N,2V8*%
X200590000Y-120330000D03*
%TO.P,C13,2*%
%TO.N,GND*%
X202490000Y-120330000D03*
%TD*%
D10*
%TO.P,C20,1*%
%TO.N,GND*%
X142080000Y-83890000D03*
%TO.P,C20,2*%
%TO.N,1V05*%
X142080000Y-85790000D03*
%TD*%
D14*
%TO.P,C5,1*%
%TO.N,GND*%
X180980000Y-96380000D03*
%TO.P,C5,2*%
%TO.N,Net-(X1-OE)*%
X182880000Y-96380000D03*
%TD*%
D12*
%TO.P,C21,1*%
%TO.N,GND*%
X215180000Y-98920000D03*
%TO.P,C21,2*%
%TO.N,1V05*%
X215180000Y-97020000D03*
%TD*%
D10*
%TO.P,C40,1*%
%TO.N,GND*%
X213210000Y-83860000D03*
%TO.P,C40,2*%
%TO.N,1V05*%
X213210000Y-85760000D03*
%TD*%
D12*
%TO.P,C18,1*%
%TO.N,Net-(U5-VRL)*%
X146240000Y-92090000D03*
%TO.P,C18,2*%
%TO.N,GND*%
X146240000Y-90190000D03*
%TD*%
D16*
%TO.P,C61,1*%
%TO.N,GND*%
X217200000Y-91310000D03*
%TO.P,C61,2*%
%TO.N,1V05*%
X215300000Y-91310000D03*
%TD*%
D14*
%TO.P,C14,1*%
%TO.N,GND*%
X173280000Y-120140000D03*
%TO.P,C14,2*%
%TO.N,1V05*%
X175180000Y-120140000D03*
%TD*%
D10*
%TO.P,C58,1*%
%TO.N,GND*%
X209180000Y-90710000D03*
%TO.P,C58,2*%
%TO.N,2V8*%
X209180000Y-92610000D03*
%TD*%
%TO.P,C25,1*%
%TO.N,GND*%
X144210000Y-83900000D03*
%TO.P,C25,2*%
%TO.N,1V05*%
X144210000Y-85800000D03*
%TD*%
%TO.P,C4,1*%
%TO.N,+5V*%
X198730000Y-115850000D03*
%TO.P,C4,2*%
%TO.N,GND*%
X198730000Y-117750000D03*
%TD*%
D14*
%TO.P,C22,1*%
%TO.N,GND*%
X201500000Y-88490000D03*
%TO.P,C22,2*%
%TO.N,2V8*%
X203400000Y-88490000D03*
%TD*%
D12*
%TO.P,C60,1*%
%TO.N,GND*%
X144230000Y-98150000D03*
%TO.P,C60,2*%
%TO.N,1V05*%
X144230000Y-96250000D03*
%TD*%
D10*
%TO.P,C1,1*%
%TO.N,VIN_5V*%
X185340000Y-112790000D03*
%TO.P,C1,2*%
%TO.N,GND*%
X185340000Y-114690000D03*
%TD*%
D12*
%TO.P,C23,1*%
%TO.N,GND*%
X152480000Y-98180000D03*
%TO.P,C23,2*%
%TO.N,1V05*%
X152480000Y-96280000D03*
%TD*%
D14*
%TO.P,C44,1*%
%TO.N,GND*%
X136240000Y-92290000D03*
%TO.P,C44,2*%
%TO.N,2V8*%
X138140000Y-92290000D03*
%TD*%
%TO.P,C39,1*%
%TO.N,GND*%
X201480000Y-90510000D03*
%TO.P,C39,2*%
%TO.N,2V8*%
X203380000Y-90510000D03*
%TD*%
D12*
%TO.P,C37,1*%
%TO.N,GND*%
X211090000Y-98930000D03*
%TO.P,C37,2*%
%TO.N,1V05*%
X211090000Y-97030000D03*
%TD*%
%TO.P,C48,1*%
%TO.N,GND*%
X217260000Y-98900000D03*
%TO.P,C48,2*%
%TO.N,1V05*%
X217260000Y-97000000D03*
%TD*%
D16*
%TO.P,C9,1*%
%TO.N,GND*%
X176710000Y-96710000D03*
%TO.P,C9,2*%
%TO.N,Net-(U4-VCC)*%
X174810000Y-96710000D03*
%TD*%
D10*
%TO.P,C2,1*%
%TO.N,+5V*%
X179540000Y-112760000D03*
%TO.P,C2,2*%
%TO.N,GND*%
X179540000Y-114660000D03*
%TD*%
D11*
%TO.P,R3,1,1*%
%TO.N,ENABLE_XCLR*%
X176705000Y-100770000D03*
%TO.P,R3,2,2*%
%TO.N,Net-(U4-VCC)*%
X174880000Y-100770000D03*
%TD*%
D14*
%TO.P,C19,1*%
%TO.N,Net-(U5-VPI)*%
X150170000Y-91710000D03*
%TO.P,C19,2*%
%TO.N,GND*%
X152070000Y-91710000D03*
%TD*%
D19*
%TO.P,U4,1,GND*%
%TO.N,GND*%
X174462500Y-92482500D03*
%TO.P,U4,2,~{RESET}*%
%TO.N,XCLR*%
X176362500Y-92482500D03*
%TO.P,U4,3,VCC*%
%TO.N,Net-(U4-VCC)*%
X175412500Y-94757500D03*
%TD*%
D16*
%TO.P,C11,1*%
%TO.N,GND*%
X202500000Y-122450000D03*
%TO.P,C11,2*%
%TO.N,2V8*%
X200600000Y-122450000D03*
%TD*%
D15*
%TO.P,FB2,1,1*%
%TO.N,VIN_5V*%
X194105000Y-113815000D03*
%TO.P,FB2,2,2*%
%TO.N,+5V*%
X191980000Y-113815000D03*
%TD*%
D14*
%TO.P,C52,1*%
%TO.N,GND*%
X135470000Y-94360000D03*
%TO.P,C52,2*%
%TO.N,2V8*%
X137370000Y-94360000D03*
%TD*%
D10*
%TO.P,C35,1*%
%TO.N,GND*%
X146780000Y-83850000D03*
%TO.P,C35,2*%
%TO.N,1V8*%
X146780000Y-85750000D03*
%TD*%
D16*
%TO.P,C26,1*%
%TO.N,GND*%
X152460000Y-85540000D03*
%TO.P,C26,2*%
%TO.N,2V8*%
X150560000Y-85540000D03*
%TD*%
%TO.P,C30,1*%
%TO.N,GND*%
X217120000Y-87240000D03*
%TO.P,C30,2*%
%TO.N,2V8*%
X215220000Y-87240000D03*
%TD*%
D12*
%TO.P,C34,1*%
%TO.N,GND*%
X148280000Y-98180000D03*
%TO.P,C34,2*%
%TO.N,1V05*%
X148280000Y-96280000D03*
%TD*%
D11*
%TO.P,R1,1,1*%
%TO.N,Net-(X1-OE)*%
X182840000Y-100700000D03*
%TO.P,R1,2,2*%
%TO.N,ENABLE_XTAL*%
X181015000Y-100700000D03*
%TD*%
D13*
%TO.P,R11,1,1*%
%TO.N,Net-(U6-GPO)*%
X215395000Y-95260000D03*
%TO.P,R11,2,2*%
%TO.N,GND*%
X217220000Y-95260000D03*
%TD*%
D16*
%TO.P,C24,1*%
%TO.N,GND*%
X211470000Y-94700000D03*
%TO.P,C24,2*%
%TO.N,2V8*%
X209570000Y-94700000D03*
%TD*%
D21*
%TO.P,J1,1,1*%
%TO.N,VIN_5V*%
X182440000Y-103645000D03*
%TO.P,J1,2,2*%
X182440000Y-106355000D03*
%TO.P,J1,3,3*%
X182040000Y-103645000D03*
%TO.P,J1,4,4*%
X182040000Y-106355000D03*
%TO.P,J1,5,5*%
X181640000Y-103645000D03*
%TO.P,J1,6,6*%
X181640000Y-106355000D03*
%TO.P,J1,7,7*%
X181240000Y-103645000D03*
%TO.P,J1,8,8*%
X181240000Y-106355000D03*
%TO.P,J1,9,9*%
X180840000Y-103645000D03*
%TO.P,J1,10,10*%
X180840000Y-106355000D03*
%TO.P,J1,11,11*%
%TO.N,GND*%
X180440000Y-103645000D03*
%TO.P,J1,12,12*%
X180440000Y-106355000D03*
%TO.P,J1,13,13*%
X180040000Y-103645000D03*
%TO.P,J1,14,14*%
X180040000Y-106355000D03*
%TO.P,J1,15,15*%
%TO.N,/sensors/XVS0*%
X179640000Y-103645000D03*
%TO.P,J1,16,16*%
%TO.N,/sensors/CAM2_CLK_N*%
X179640000Y-106355000D03*
%TO.P,J1,17,17*%
%TO.N,/sensors/XVS1*%
X179240000Y-103645000D03*
%TO.P,J1,18,18*%
%TO.N,/sensors/CAM2_CLK_P*%
X179240000Y-106355000D03*
%TO.P,J1,19,19*%
%TO.N,GND*%
X178840000Y-103645000D03*
%TO.P,J1,20,20*%
X178840000Y-106355000D03*
%TO.P,J1,21,21*%
%TO.N,/sensors/SCL_1V8*%
X178440000Y-103645000D03*
%TO.P,J1,22,22*%
%TO.N,/sensors/CAM2_D2_N*%
X178440000Y-106355000D03*
%TO.P,J1,23,23*%
%TO.N,/sensors/SDA_1V8*%
X178040000Y-103645000D03*
%TO.P,J1,24,24*%
%TO.N,/sensors/CAM2_D2_P*%
X178040000Y-106355000D03*
%TO.P,J1,25,25*%
%TO.N,GND*%
X177640000Y-103645000D03*
%TO.P,J1,26,26*%
X177640000Y-106355000D03*
%TO.P,J1,27,27*%
%TO.N,ENABLE_XTAL*%
X177240000Y-103645000D03*
%TO.P,J1,28,28*%
%TO.N,/sensors/CAM2_D4_N*%
X177240000Y-106355000D03*
%TO.P,J1,29,29*%
%TO.N,ENABLE_XCLR*%
X176840000Y-103645000D03*
%TO.P,J1,30,30*%
%TO.N,/sensors/CAM2_D4_P*%
X176840000Y-106355000D03*
%TO.P,J1,31,31*%
%TO.N,ENABLE_PWR*%
X176440000Y-103645000D03*
%TO.P,J1,32,32*%
%TO.N,GND*%
X176440000Y-106355000D03*
%TO.P,J1,33,33*%
X176040000Y-103645000D03*
%TO.P,J1,34,34*%
%TO.N,/sensors/CAM1_D3_P*%
X176040000Y-106355000D03*
%TO.P,J1,35,35*%
%TO.N,GND*%
X175640000Y-103645000D03*
%TO.P,J1,36,36*%
%TO.N,/sensors/CAM1_D3_N*%
X175640000Y-106355000D03*
%TO.P,J1,37,37*%
%TO.N,GND*%
X175240000Y-103645000D03*
%TO.P,J1,38,38*%
X175240000Y-106355000D03*
%TO.P,J1,39,39*%
X174840000Y-103645000D03*
%TO.P,J1,40,40*%
%TO.N,/sensors/CAM1_D1_P*%
X174840000Y-106355000D03*
%TO.P,J1,41,41*%
%TO.N,GND*%
X174440000Y-103645000D03*
%TO.P,J1,42,42*%
%TO.N,/sensors/CAM1_D1_N*%
X174440000Y-106355000D03*
%TO.P,J1,43,43*%
%TO.N,GND*%
X174040000Y-103645000D03*
%TO.P,J1,44,44*%
X174040000Y-106355000D03*
%TO.P,J1,45,45*%
X173640000Y-103645000D03*
%TO.P,J1,46,46*%
%TO.N,/sensors/CAM1_CLK_N*%
X173640000Y-106355000D03*
%TO.P,J1,47,47*%
%TO.N,GND*%
X173240000Y-103645000D03*
%TO.P,J1,48,48*%
%TO.N,/sensors/CAM1_CLK_P*%
X173240000Y-106355000D03*
%TO.P,J1,49,49*%
%TO.N,GND*%
X172840000Y-103645000D03*
%TO.P,J1,50,50*%
X172840000Y-106355000D03*
%TO.P,J1,51,51*%
%TO.N,/sensors/CAM2_D1_N*%
X172440000Y-103645000D03*
%TO.P,J1,52,52*%
%TO.N,/sensors/CAM1_D2_N*%
X172440000Y-106355000D03*
%TO.P,J1,53,53*%
%TO.N,/sensors/CAM2_D1_P*%
X172040000Y-103645000D03*
%TO.P,J1,54,54*%
%TO.N,/sensors/CAM1_D2_P*%
X172040000Y-106355000D03*
%TO.P,J1,55,55*%
%TO.N,GND*%
X171640000Y-103645000D03*
%TO.P,J1,56,56*%
X171640000Y-106355000D03*
%TO.P,J1,57,57*%
%TO.N,/sensors/CAM2_D3_N*%
X171240000Y-103645000D03*
%TO.P,J1,58,58*%
%TO.N,/sensors/CAM1_D4_N*%
X171240000Y-106355000D03*
%TO.P,J1,59,59*%
%TO.N,/sensors/CAM2_D3_P*%
X170840000Y-103645000D03*
%TO.P,J1,60,60*%
%TO.N,/sensors/CAM1_D4_P*%
X170840000Y-106355000D03*
D22*
%TO.P,J1,MP*%
%TO.N,N/C*%
X182915000Y-106355000D03*
X182915000Y-103645000D03*
X170365000Y-106355000D03*
X170365000Y-103645000D03*
%TD*%
D23*
%TO.P,L1,1,1*%
%TO.N,Net-(U3-LX)*%
X178290000Y-117160000D03*
%TO.P,L1,2,2*%
%TO.N,1V05*%
X178290000Y-119960000D03*
%TD*%
D10*
%TO.P,C55,1*%
%TO.N,GND*%
X209130000Y-83890000D03*
%TO.P,C55,2*%
%TO.N,1V05*%
X209130000Y-85790000D03*
%TD*%
D16*
%TO.P,C54,1*%
%TO.N,GND*%
X217190000Y-89290000D03*
%TO.P,C54,2*%
%TO.N,2V8*%
X215290000Y-89290000D03*
%TD*%
%TO.P,C57,1*%
%TO.N,GND*%
X152300000Y-89650000D03*
%TO.P,C57,2*%
%TO.N,1V05*%
X150400000Y-89650000D03*
%TD*%
D14*
%TO.P,C36,1*%
%TO.N,GND*%
X136230000Y-90270000D03*
%TO.P,C36,2*%
%TO.N,2V8*%
X138130000Y-90270000D03*
%TD*%
D16*
%TO.P,C16,1*%
%TO.N,1V05*%
X175190000Y-124300000D03*
%TO.P,C16,2*%
%TO.N,GND*%
X173290000Y-124300000D03*
%TD*%
D12*
%TO.P,C59,1*%
%TO.N,GND*%
X146230000Y-98160000D03*
%TO.P,C59,2*%
%TO.N,1V05*%
X146230000Y-96260000D03*
%TD*%
D24*
%TO.N,GND*%
X184320000Y-122760000D03*
X204235000Y-93960000D03*
X214590000Y-99880000D03*
X153350000Y-88180000D03*
X213790000Y-99900000D03*
X147730000Y-99200000D03*
X172300000Y-124790000D03*
X187640000Y-118560000D03*
X176460000Y-105750000D03*
X144080000Y-93600000D03*
X208420000Y-93550000D03*
X153050000Y-93260000D03*
X172220000Y-121550000D03*
X201930000Y-86870000D03*
X184290000Y-121610000D03*
X212265000Y-88000000D03*
X149080000Y-90740000D03*
X175859001Y-104291000D03*
X178863998Y-104241000D03*
X189560000Y-118540000D03*
X218570000Y-98180000D03*
X218130000Y-91810000D03*
X153330000Y-85100000D03*
X185940000Y-115570000D03*
X172270000Y-123640000D03*
X148090000Y-88800000D03*
X153180000Y-90220000D03*
X212265000Y-89600000D03*
X210500000Y-83010000D03*
X208420000Y-99820000D03*
X203370000Y-121800000D03*
X212270000Y-92680000D03*
X206027500Y-92627500D03*
X141760000Y-93520000D03*
X214055000Y-90740000D03*
X212932500Y-88132500D03*
X144740000Y-91500000D03*
X180020000Y-94900000D03*
X143740000Y-91490000D03*
X146490000Y-88010000D03*
X144200000Y-99240000D03*
X192980000Y-115240000D03*
X206710000Y-88680000D03*
X148290000Y-83080000D03*
X147320000Y-83060000D03*
X175089001Y-103001000D03*
X140980000Y-92700000D03*
X215840000Y-99900000D03*
X211710000Y-99880000D03*
X146270000Y-83060000D03*
X144900000Y-86780000D03*
X153080000Y-90880000D03*
X204370000Y-83000000D03*
X205080000Y-99130000D03*
X182380000Y-118050000D03*
X180210000Y-115610000D03*
X140150000Y-91910000D03*
X148125000Y-91930000D03*
X211750000Y-83030000D03*
X145625000Y-88855000D03*
X141720000Y-90030000D03*
X180010000Y-95710000D03*
X151880000Y-99300000D03*
X211465000Y-88010000D03*
X213820000Y-83030000D03*
X142730000Y-97350000D03*
X171660000Y-105750000D03*
X213150000Y-91940000D03*
X178860000Y-105700000D03*
X212945000Y-94190000D03*
X207900000Y-90180000D03*
X149050000Y-89140000D03*
X205285000Y-94180000D03*
X140310000Y-94180000D03*
X174309001Y-104251000D03*
X214025000Y-89140000D03*
X140980000Y-89580000D03*
X201510000Y-115000000D03*
X146530000Y-95230000D03*
X188700000Y-118570000D03*
X209740000Y-83020000D03*
X146800000Y-99180000D03*
X218190000Y-93880000D03*
X177710000Y-96110000D03*
X172150000Y-120600000D03*
X153350000Y-87130000D03*
X172120000Y-119450000D03*
X178030000Y-115620000D03*
X218100000Y-88820000D03*
X179980000Y-94050000D03*
X148800000Y-99230000D03*
X180495003Y-104290000D03*
X135560000Y-89600000D03*
X190860000Y-118490000D03*
X208490000Y-83000000D03*
X172250000Y-122700000D03*
X203370000Y-121120000D03*
X198170000Y-118680000D03*
X153120000Y-94030000D03*
X218060000Y-87810000D03*
X175069001Y-104251000D03*
X139550000Y-97620000D03*
X174289001Y-102991000D03*
X209725000Y-86735000D03*
X139320000Y-91540000D03*
X184780000Y-115600000D03*
X147290000Y-92690000D03*
X172870000Y-105760000D03*
X176720000Y-115620000D03*
X146140000Y-87020000D03*
X216540000Y-99910000D03*
X134670000Y-90720000D03*
X213065000Y-88800000D03*
X208560000Y-91400000D03*
X174070000Y-105750000D03*
X218100000Y-87140000D03*
X218110000Y-89830000D03*
X185945000Y-119835000D03*
X173529001Y-102991000D03*
X139260000Y-89940000D03*
X147985000Y-88105000D03*
X195000000Y-121110000D03*
X180050000Y-99020000D03*
X179920000Y-104290000D03*
X199430000Y-118620000D03*
X205975000Y-94300000D03*
X204210000Y-99150000D03*
X207650000Y-91410000D03*
X204235000Y-89940000D03*
X145630000Y-99200000D03*
X203370000Y-119670000D03*
X144750000Y-83010000D03*
X177640000Y-104280000D03*
X202270000Y-90310000D03*
X205620000Y-83020000D03*
X144930000Y-99290000D03*
X134680000Y-95730000D03*
X140150000Y-89560000D03*
X200740000Y-90250000D03*
X211170000Y-91600000D03*
X149650000Y-99230000D03*
X218120000Y-90810000D03*
X152060000Y-90490000D03*
X209670000Y-99840000D03*
X141000000Y-94300000D03*
X142690000Y-90050000D03*
X180040000Y-96950000D03*
X203370000Y-123260000D03*
X206817500Y-93437500D03*
X208500000Y-90200000D03*
X174470000Y-91640000D03*
X206480000Y-82960000D03*
X175889001Y-102991000D03*
X196160000Y-118720000D03*
X142550000Y-87950000D03*
X212540000Y-99880000D03*
X195040000Y-121650000D03*
X153170000Y-99310000D03*
X151060000Y-99260000D03*
X206725000Y-87960000D03*
X173579001Y-104241000D03*
X139560000Y-83010000D03*
X153330000Y-86150000D03*
X205125000Y-91910000D03*
X218150000Y-92740000D03*
X171679001Y-104251000D03*
X145770000Y-87920000D03*
X177600000Y-105750000D03*
X180030000Y-97920000D03*
X179940000Y-105720000D03*
X177670000Y-97180000D03*
X209050000Y-86750000D03*
X172869001Y-104231000D03*
X195040000Y-119720000D03*
X207730000Y-82980000D03*
X143420000Y-93570000D03*
X211115000Y-87020000D03*
X212570000Y-83010000D03*
X147290000Y-89600000D03*
X184725000Y-119825000D03*
X178900000Y-115630000D03*
X207525000Y-87950000D03*
X153180000Y-89170000D03*
X218160000Y-95920000D03*
X175259001Y-105781000D03*
X218190000Y-94580000D03*
X180490000Y-105710000D03*
X207590000Y-99110000D03*
X197180000Y-118700000D03*
X138020000Y-86970000D03*
X204810000Y-86860000D03*
X140360000Y-86990000D03*
X149340000Y-83080000D03*
X200730000Y-87380000D03*
X141560000Y-83000000D03*
X138640000Y-93950000D03*
X205955000Y-89580000D03*
X144030000Y-86740000D03*
X143700000Y-83010000D03*
X140610000Y-83010000D03*
X208407500Y-94247500D03*
X206550000Y-99110000D03*
X195010000Y-123170000D03*
X141750000Y-87960000D03*
X210460000Y-99860000D03*
X201660000Y-91780000D03*
X142610000Y-83000000D03*
X205125000Y-89560000D03*
X210750000Y-88720000D03*
D25*
%TO.N,+5V*%
X169570000Y-100420000D03*
X168440000Y-101530000D03*
X169610000Y-107810000D03*
D24*
X188200000Y-114690000D03*
X177440000Y-111420000D03*
D25*
X168340000Y-106650000D03*
D24*
X196690000Y-114730000D03*
X177660000Y-98790000D03*
D25*
X173380000Y-100400000D03*
%TO.N,1V8*%
X161400000Y-93590000D03*
X178990000Y-125380000D03*
X205820000Y-97430000D03*
D24*
X211915000Y-87020000D03*
D25*
X165520000Y-123890000D03*
D24*
X146940000Y-87020000D03*
X141340000Y-87020000D03*
X142150000Y-95210000D03*
D25*
X195140000Y-125310000D03*
X182320000Y-91630000D03*
D24*
X207115000Y-95240000D03*
D25*
X176920000Y-90950000D03*
X161400000Y-96310000D03*
D24*
X206315000Y-87020000D03*
%TO.N,2V8*%
X145750000Y-93540000D03*
X212225000Y-88820000D03*
X205990000Y-88780000D03*
X205960000Y-90370000D03*
X140980000Y-88800000D03*
X146480000Y-88780000D03*
D25*
X222650000Y-86870000D03*
X219590000Y-86840000D03*
D24*
X141000000Y-90424651D03*
X147250000Y-88820000D03*
X146480000Y-93480000D03*
X211495000Y-88820000D03*
X140990000Y-93490000D03*
X211455000Y-93480000D03*
X210682500Y-93497500D03*
X206067500Y-91777500D03*
X141000000Y-91870000D03*
X206037500Y-93417500D03*
%TO.N,1V05*%
X212705000Y-87010000D03*
X140530000Y-95200000D03*
X207105000Y-87010000D03*
X207630402Y-95494930D03*
X142130000Y-87010000D03*
X143750000Y-95240000D03*
X147730000Y-87010000D03*
X149090000Y-91560000D03*
X142940000Y-87010000D03*
X214450000Y-86230000D03*
X212735000Y-95220000D03*
X144950000Y-95220000D03*
D25*
X218550000Y-96590000D03*
X158140000Y-94120000D03*
D24*
X147760000Y-95220000D03*
X209950000Y-95780000D03*
X207915000Y-87010000D03*
D25*
X158170000Y-95860000D03*
X192360000Y-126030000D03*
D24*
X214065000Y-91560000D03*
D25*
X222790000Y-96560000D03*
D24*
X143090000Y-95310000D03*
X205820000Y-96120000D03*
X208590000Y-95330000D03*
%TO.N,Net-(U5-VRLRD)*%
X147320000Y-90350000D03*
%TO.N,Net-(U5-VRL)*%
X147210000Y-91850000D03*
%TO.N,Net-(U5-VPI)*%
X147315000Y-93515000D03*
%TO.N,Net-(U6-VPI)*%
X212300000Y-93500000D03*
%TO.N,Net-(U6-VRL)*%
X212265000Y-91830000D03*
%TO.N,Net-(U6-VRLRD)*%
X212275000Y-90400000D03*
%TO.N,/sensors/CAM2_D1_P*%
X171980000Y-102940000D03*
%TO.N,/sensors/CAM1_D3_P*%
X176169999Y-107030000D03*
%TO.N,/sensors/CAM1_CLK_P*%
X173130000Y-107010000D03*
%TO.N,/sensors/XVS0*%
X179689001Y-102571000D03*
%TO.N,/sensors/CAM1_D4_N*%
X171360000Y-107000000D03*
%TO.N,/sensors/CAM1_D2_N*%
X172530000Y-107030000D03*
%TO.N,/sensors/CAM2_D3_N*%
X171360000Y-102930000D03*
%TO.N,/sensors/SCL_1V8*%
X178570000Y-102980000D03*
X213110000Y-92710000D03*
%TO.N,/sensors/CAM2_D2_P*%
X177960000Y-107090000D03*
%TO.N,/sensors/CAM2_D4_N*%
X177369999Y-107050000D03*
%TO.N,/sensors/CAM2_CLK_N*%
X179769999Y-107060000D03*
%TO.N,/sensors/CAM1_D1_P*%
X174969999Y-107020000D03*
%TO.N,/sensors/CAM2_D1_N*%
X172560000Y-102940000D03*
%TO.N,/sensors/CAM2_D3_P*%
X170720001Y-102930000D03*
%TO.N,/sensors/CAM2_CLK_P*%
X179160000Y-107090000D03*
%TO.N,/sensors/XVS1*%
X180230000Y-102820000D03*
X179230000Y-103070000D03*
X214010000Y-88340000D03*
%TO.N,/sensors/CAM1_D3_N*%
X175590000Y-107050000D03*
%TO.N,/sensors/CAM1_CLK_N*%
X173710000Y-107020000D03*
%TO.N,/sensors/SDA_1V8*%
X214070000Y-92340000D03*
X178079000Y-102580999D03*
%TO.N,/sensors/CAM2_D4_P*%
X176780000Y-107060000D03*
%TO.N,/sensors/CAM1_D4_P*%
X170720001Y-107000000D03*
%TO.N,/sensors/CAM1_D1_N*%
X174330000Y-107020000D03*
%TO.N,/sensors/CAM2_D2_N*%
X178569999Y-107060000D03*
%TO.N,/sensors/CAM1_D2_P*%
X171940001Y-107000000D03*
%TO.N,CAM_CLK*%
X206340000Y-95230000D03*
X141340000Y-95220000D03*
%TO.N,XCLR*%
X206802500Y-94252500D03*
X141765000Y-94315000D03*
%TO.N,Net-(U5-GPO)*%
X149060000Y-93950000D03*
%TO.N,Net-(U6-GPO)*%
X214035000Y-93950000D03*
%TD*%
%TO.N,VIN_5V*%
D26*
X183580000Y-112790000D02*
X183490000Y-112880000D01*
X183490000Y-112880000D02*
X183490000Y-107130000D01*
X185340000Y-112790000D02*
X183580000Y-112790000D01*
X184080000Y-105880000D02*
X184120000Y-105920000D01*
X184120000Y-105920000D02*
X186210000Y-105920000D01*
X186210000Y-105920000D02*
X194105000Y-113815000D01*
%TO.N,GND*%
D27*
X180479000Y-105840999D02*
X180479000Y-106341000D01*
X212265000Y-92690000D02*
X211370000Y-92690000D01*
X180580000Y-98490000D02*
X180050000Y-99020000D01*
D26*
X172740000Y-124350000D02*
X172300000Y-124790000D01*
D27*
X144230000Y-99210000D02*
X144200000Y-99240000D01*
X206560000Y-98590000D02*
X206560000Y-98630000D01*
X201480000Y-90510000D02*
X202070000Y-90510000D01*
X180490000Y-105829999D02*
X180479000Y-105840999D01*
D26*
X190245000Y-117705000D02*
X190860000Y-118320000D01*
D27*
X152550000Y-93760000D02*
X153050000Y-93260000D01*
X142060000Y-83890000D02*
X141560000Y-83390000D01*
D26*
X178030000Y-115280000D02*
X178030000Y-115620000D01*
D27*
X144220000Y-87430000D02*
X144870000Y-86780000D01*
X217730000Y-89830000D02*
X218110000Y-89830000D01*
X213140000Y-99010000D02*
X213790000Y-99660000D01*
X208490000Y-83240000D02*
X208490000Y-83000000D01*
X152460000Y-87630000D02*
X153010000Y-88180000D01*
X139260000Y-97330000D02*
X139550000Y-97620000D01*
X152320000Y-94030000D02*
X152050000Y-93760000D01*
X144230000Y-98150000D02*
X144230000Y-99210000D01*
D26*
X203270000Y-123250000D02*
X203360000Y-123250000D01*
D27*
X144220000Y-90850000D02*
X144220000Y-91010000D01*
X150340000Y-98180000D02*
X149650000Y-98870000D01*
X179940000Y-105720000D02*
X179978001Y-105720000D01*
X178828001Y-103681998D02*
X178828001Y-104181000D01*
X140610000Y-83350000D02*
X140610000Y-83010000D01*
X139260000Y-96690000D02*
X139260000Y-97330000D01*
D26*
X194870000Y-121650000D02*
X195040000Y-121650000D01*
D27*
X209180000Y-90710000D02*
X209010000Y-90710000D01*
X218100000Y-87140000D02*
X217220000Y-87140000D01*
X208500000Y-90200000D02*
X208670000Y-90200000D01*
X201500000Y-87300000D02*
X201930000Y-86870000D01*
X204530000Y-98220000D02*
X204530000Y-98830000D01*
X180980000Y-96380000D02*
X180610000Y-96380000D01*
X201500000Y-88490000D02*
X201500000Y-87300000D01*
X207130000Y-83850000D02*
X206480000Y-83200000D01*
X178879001Y-105821000D02*
X178879001Y-106341000D01*
D26*
X188720000Y-118230000D02*
X188200000Y-117710000D01*
X202490000Y-120330000D02*
X203150000Y-119670000D01*
D27*
X152840000Y-90220000D02*
X153180000Y-90220000D01*
X140060000Y-83900000D02*
X140610000Y-83350000D01*
X176710000Y-96710000D02*
X177180000Y-97180000D01*
D26*
X172590000Y-120160000D02*
X172150000Y-120600000D01*
X197190000Y-118290000D02*
X197190000Y-118620000D01*
D27*
X207180000Y-90680000D02*
X207400000Y-90680000D01*
D26*
X199430000Y-118450000D02*
X199430000Y-118620000D01*
D27*
X178879001Y-103630998D02*
X178828001Y-103681998D01*
X174070000Y-105750000D02*
X174070000Y-105811999D01*
X142060000Y-83890000D02*
X142610000Y-83340000D01*
D26*
X194770000Y-123170000D02*
X195010000Y-123170000D01*
D27*
X201500000Y-88070000D02*
X201020000Y-87590000D01*
X180440000Y-94480000D02*
X180020000Y-94900000D01*
X217200000Y-91310000D02*
X217700000Y-90810000D01*
X142240000Y-97840000D02*
X142730000Y-97350000D01*
X211060000Y-98990000D02*
X211710000Y-99640000D01*
X211710000Y-99640000D02*
X211710000Y-99880000D01*
X177679001Y-104211000D02*
X177679001Y-103630998D01*
X152480000Y-98180000D02*
X153170000Y-98870000D01*
X211980000Y-94190000D02*
X211470000Y-94700000D01*
X146270000Y-83450000D02*
X146270000Y-83060000D01*
D26*
X173280000Y-124350000D02*
X172740000Y-124350000D01*
D27*
X152990000Y-86150000D02*
X153330000Y-86150000D01*
D26*
X194670000Y-119720000D02*
X195040000Y-119720000D01*
D27*
X176479000Y-106341000D02*
X176479000Y-105820999D01*
X175279000Y-105800999D02*
X175259001Y-105781000D01*
D26*
X192975000Y-115245000D02*
X192980000Y-115240000D01*
D27*
X146230000Y-98160000D02*
X146800000Y-98730000D01*
D26*
X201550000Y-115040000D02*
X201510000Y-115000000D01*
D27*
X207180000Y-90680000D02*
X207650000Y-91150000D01*
X172879000Y-106341000D02*
X172879000Y-105769000D01*
X205080000Y-98770000D02*
X205080000Y-99130000D01*
X212570000Y-83250000D02*
X212570000Y-83010000D01*
X141720000Y-90120000D02*
X142170000Y-90570000D01*
X179920000Y-104290000D02*
X180030001Y-104290000D01*
X180479000Y-103630998D02*
X180479000Y-103841001D01*
X217700000Y-91810000D02*
X218130000Y-91810000D01*
D26*
X176720000Y-115410000D02*
X176720000Y-115620000D01*
D27*
X176710000Y-96710000D02*
X177310000Y-96110000D01*
X207650000Y-91150000D02*
X207650000Y-91410000D01*
X146230000Y-98160000D02*
X145630000Y-98760000D01*
X180610000Y-96380000D02*
X180040000Y-96950000D01*
D26*
X196160000Y-118280000D02*
X196160000Y-118720000D01*
D27*
X204370000Y-83240000D02*
X204370000Y-83000000D01*
X209180000Y-90710000D02*
X208560000Y-91330000D01*
X211160000Y-91610000D02*
X211170000Y-91600000D01*
X152050000Y-93760000D02*
X152550000Y-93760000D01*
X201480000Y-90510000D02*
X201000000Y-90510000D01*
X174070000Y-105811999D02*
X174079000Y-105820999D01*
X146700000Y-90190000D02*
X147290000Y-89600000D01*
X205020000Y-83890000D02*
X205610000Y-83300000D01*
D26*
X172830000Y-120160000D02*
X172120000Y-119450000D01*
D27*
X148280000Y-98180000D02*
X147730000Y-98730000D01*
D26*
X194040000Y-120350000D02*
X194670000Y-119720000D01*
D27*
X149340000Y-83420000D02*
X149340000Y-83080000D01*
X172879000Y-104180999D02*
X172959001Y-104261000D01*
D26*
X182390000Y-118040000D02*
X182380000Y-118050000D01*
D27*
X180079001Y-104241000D02*
X180079001Y-103630998D01*
X213220000Y-83900000D02*
X213810000Y-83310000D01*
X207400000Y-90680000D02*
X207900000Y-90180000D01*
X205020000Y-83890000D02*
X204370000Y-83240000D01*
X135470000Y-94360000D02*
X134680000Y-95150000D01*
D26*
X182390000Y-117075000D02*
X182390000Y-118040000D01*
D27*
X144220000Y-86930000D02*
X144030000Y-86740000D01*
X134670000Y-90720000D02*
X136240000Y-92290000D01*
X174462500Y-91647500D02*
X174470000Y-91640000D01*
X171679000Y-103630998D02*
X171679001Y-104251000D01*
X211160000Y-92480000D02*
X211160000Y-91610000D01*
X172879000Y-105769000D02*
X172870000Y-105760000D01*
X217880000Y-95920000D02*
X218160000Y-95920000D01*
X206560000Y-99100000D02*
X206550000Y-99110000D01*
X148280000Y-98180000D02*
X150340000Y-98180000D01*
X177650001Y-104240000D02*
X177679001Y-104211000D01*
D26*
X185340000Y-114690000D02*
X184780000Y-115250000D01*
D27*
X152290000Y-89670000D02*
X152790000Y-89170000D01*
D26*
X185340000Y-114690000D02*
X185950000Y-115300000D01*
D27*
X202070000Y-90510000D02*
X202270000Y-90310000D01*
X180079001Y-105821000D02*
X180079001Y-106341000D01*
X141720000Y-90030000D02*
X141720000Y-90120000D01*
X144230000Y-98150000D02*
X144930000Y-98850000D01*
X146220000Y-98150000D02*
X146230000Y-98160000D01*
X145690000Y-88790000D02*
X146240000Y-89340000D01*
X217220000Y-87140000D02*
X217120000Y-87240000D01*
X202270000Y-92600000D02*
X201660000Y-91990000D01*
X216540000Y-99620000D02*
X216540000Y-99910000D01*
X207130000Y-83850000D02*
X207720000Y-83260000D01*
X146770000Y-83950000D02*
X147320000Y-83400000D01*
X209020000Y-98950000D02*
X208430000Y-99540000D01*
X144200000Y-83900000D02*
X143700000Y-83400000D01*
D26*
X173230000Y-122260000D02*
X172930000Y-122260000D01*
D27*
X149650000Y-98870000D02*
X149650000Y-99230000D01*
X217220000Y-95260000D02*
X217880000Y-95920000D01*
X142690000Y-90050000D02*
X142170000Y-90570000D01*
D26*
X185950000Y-115300000D02*
X185950000Y-115510000D01*
D27*
X201020000Y-87590000D02*
X200810000Y-87380000D01*
X147730000Y-98730000D02*
X147730000Y-99200000D01*
X148290000Y-83470000D02*
X148290000Y-83080000D01*
X148280000Y-98180000D02*
X148800000Y-98700000D01*
D26*
X183610000Y-122050000D02*
X184320000Y-122760000D01*
D27*
X177679001Y-106341000D02*
X177689001Y-106331000D01*
D26*
X194040000Y-120350000D02*
X194800000Y-121110000D01*
X172980000Y-124350000D02*
X172270000Y-123640000D01*
D27*
X212550000Y-99600000D02*
X212550000Y-99840000D01*
X211740000Y-83310000D02*
X211740000Y-83070000D01*
X152440000Y-85600000D02*
X152990000Y-86150000D01*
X209140000Y-83890000D02*
X208490000Y-83240000D01*
X147320000Y-83400000D02*
X147320000Y-83060000D01*
X175279000Y-106341000D02*
X175279000Y-105800999D01*
X152290000Y-89670000D02*
X152840000Y-90220000D01*
X171660000Y-105781999D02*
X171679000Y-105800999D01*
D26*
X203140000Y-121800000D02*
X203360000Y-121800000D01*
X187640000Y-118270000D02*
X187640000Y-118560000D01*
X196670000Y-117770000D02*
X196160000Y-118280000D01*
X185945000Y-119655000D02*
X185945000Y-119835000D01*
D27*
X217280000Y-93290000D02*
X217830000Y-92740000D01*
D26*
X190860000Y-118320000D02*
X190860000Y-118490000D01*
D27*
X144930000Y-98850000D02*
X144930000Y-99290000D01*
X177180000Y-97180000D02*
X177670000Y-97180000D01*
X144220000Y-87430000D02*
X144220000Y-86930000D01*
X148790000Y-83970000D02*
X148290000Y-83470000D01*
D26*
X179540000Y-114660000D02*
X178900000Y-115300000D01*
D27*
X152480000Y-98180000D02*
X151880000Y-98780000D01*
D26*
X201550000Y-116035000D02*
X201550000Y-115040000D01*
D27*
X178860000Y-105801999D02*
X178879001Y-105821000D01*
X210470000Y-99580000D02*
X210470000Y-99820000D01*
X152940000Y-85100000D02*
X153330000Y-85100000D01*
X211150000Y-83900000D02*
X211740000Y-83310000D01*
X152070000Y-91710000D02*
X152900000Y-90880000D01*
X181027500Y-98490000D02*
X180580000Y-98490000D01*
X209010000Y-90710000D02*
X208500000Y-90200000D01*
X209170000Y-86870000D02*
X209170000Y-87290000D01*
X215190000Y-99010000D02*
X215840000Y-99660000D01*
D26*
X188720000Y-118480000D02*
X188720000Y-118230000D01*
D27*
X153170000Y-98870000D02*
X153170000Y-99310000D01*
D26*
X183850000Y-122050000D02*
X184290000Y-121610000D01*
D27*
X179978001Y-105720000D02*
X180079001Y-105821000D01*
X140060000Y-83900000D02*
X139560000Y-83400000D01*
X209670000Y-99600000D02*
X209670000Y-99840000D01*
X152070000Y-90500000D02*
X152060000Y-90490000D01*
X144230000Y-98150000D02*
X146220000Y-98150000D01*
D26*
X184780000Y-115250000D02*
X184780000Y-115600000D01*
D27*
X206930000Y-98220000D02*
X206560000Y-98590000D01*
X181030000Y-94480000D02*
X180410000Y-94480000D01*
X180410000Y-94480000D02*
X179980000Y-94050000D01*
X138010000Y-86980000D02*
X138020000Y-86970000D01*
D26*
X185315000Y-119025000D02*
X184725000Y-119615000D01*
D27*
X208560000Y-91330000D02*
X208560000Y-91400000D01*
X153120000Y-94030000D02*
X152320000Y-94030000D01*
X177650001Y-104269999D02*
X177650001Y-104240000D01*
X141560000Y-83390000D02*
X141560000Y-83000000D01*
X217690000Y-87810000D02*
X218060000Y-87810000D01*
X201500000Y-88490000D02*
X201500000Y-88070000D01*
X146800000Y-98730000D02*
X146800000Y-99180000D01*
X209725000Y-86735000D02*
X209170000Y-87290000D01*
X144220000Y-91010000D02*
X143740000Y-91490000D01*
X217220000Y-95260000D02*
X217900000Y-94580000D01*
D26*
X198730000Y-117750000D02*
X199430000Y-118450000D01*
D27*
X150340000Y-98180000D02*
X152480000Y-98180000D01*
X217870000Y-93880000D02*
X218190000Y-93880000D01*
X146240000Y-90190000D02*
X146700000Y-90190000D01*
X139560000Y-83400000D02*
X139560000Y-83010000D01*
X209140000Y-83890000D02*
X209730000Y-83300000D01*
X146770000Y-83950000D02*
X146270000Y-83450000D01*
X209730000Y-83300000D02*
X209730000Y-83060000D01*
X210500000Y-83250000D02*
X210500000Y-83010000D01*
D26*
X178900000Y-115300000D02*
X178900000Y-115630000D01*
D27*
X180600000Y-98490000D02*
X180030000Y-97920000D01*
X148800000Y-98700000D02*
X148800000Y-99230000D01*
X206560000Y-98630000D02*
X206560000Y-99100000D01*
X206930000Y-98220000D02*
X207590000Y-98880000D01*
X180479000Y-104191001D02*
X180459001Y-104211000D01*
D26*
X173130000Y-120160000D02*
X172830000Y-120160000D01*
D27*
X178860000Y-105700000D02*
X178860000Y-105801999D01*
D26*
X198170000Y-118310000D02*
X198170000Y-118680000D01*
X196670000Y-117770000D02*
X197190000Y-118290000D01*
X198730000Y-117750000D02*
X198170000Y-118310000D01*
D27*
X205610000Y-83300000D02*
X205610000Y-83060000D01*
X144220000Y-90850000D02*
X144740000Y-91370000D01*
X152070000Y-91710000D02*
X152070000Y-90500000D01*
X207590000Y-98880000D02*
X207590000Y-99110000D01*
X211150000Y-83900000D02*
X210500000Y-83250000D01*
D26*
X203280000Y-121120000D02*
X203370000Y-121120000D01*
X202480000Y-122460000D02*
X203140000Y-121800000D01*
D27*
X217120000Y-87240000D02*
X217690000Y-87810000D01*
X204530000Y-98830000D02*
X204210000Y-99150000D01*
X152440000Y-85600000D02*
X152940000Y-85100000D01*
X146230000Y-98160000D02*
X148260000Y-98160000D01*
D26*
X172690000Y-122260000D02*
X172250000Y-122700000D01*
X194800000Y-121110000D02*
X195000000Y-121110000D01*
D27*
X215190000Y-99010000D02*
X214600000Y-99600000D01*
D26*
X179540000Y-114660000D02*
X180210000Y-115330000D01*
X173130000Y-120160000D02*
X172590000Y-120160000D01*
X173230000Y-122260000D02*
X172690000Y-122260000D01*
X183310000Y-122050000D02*
X183610000Y-122050000D01*
D27*
X150340000Y-98180000D02*
X151060000Y-98900000D01*
X146240000Y-89340000D02*
X146240000Y-90190000D01*
X204210000Y-99150000D02*
X204200000Y-99160000D01*
X212945000Y-94190000D02*
X211980000Y-94190000D01*
D26*
X203150000Y-119670000D02*
X203370000Y-119670000D01*
D27*
X214600000Y-99600000D02*
X214600000Y-99840000D01*
X177689001Y-106331000D02*
X177689001Y-105801000D01*
X180490000Y-105710000D02*
X180490000Y-105829999D01*
X153010000Y-88180000D02*
X153350000Y-88180000D01*
X144740000Y-91370000D02*
X144740000Y-91500000D01*
D26*
X190245000Y-117705000D02*
X189560000Y-118390000D01*
D27*
X142610000Y-83340000D02*
X142610000Y-83000000D01*
X209050000Y-86750000D02*
X209170000Y-86870000D01*
X211370000Y-92690000D02*
X211160000Y-92480000D01*
X217980000Y-98180000D02*
X218570000Y-98180000D01*
X174079000Y-105820999D02*
X174079000Y-106341000D01*
X206480000Y-83200000D02*
X206480000Y-82960000D01*
X211060000Y-98990000D02*
X210470000Y-99580000D01*
D26*
X172930000Y-122260000D02*
X172220000Y-121550000D01*
D27*
X207720000Y-83260000D02*
X207720000Y-83020000D01*
X152960000Y-87130000D02*
X153350000Y-87130000D01*
D26*
X188200000Y-117710000D02*
X187640000Y-118270000D01*
D27*
X181030000Y-94480000D02*
X180440000Y-94480000D01*
D26*
X202480000Y-122460000D02*
X203270000Y-123250000D01*
D27*
X152790000Y-89170000D02*
X153180000Y-89170000D01*
X152900000Y-90880000D02*
X153080000Y-90880000D01*
X144200000Y-83900000D02*
X144750000Y-83350000D01*
X215840000Y-99660000D02*
X215840000Y-99900000D01*
X201660000Y-91990000D02*
X201660000Y-91780000D01*
X217260000Y-98900000D02*
X217980000Y-98180000D01*
X204530000Y-98220000D02*
X205080000Y-98770000D01*
X213140000Y-99010000D02*
X212550000Y-99600000D01*
X217260000Y-98900000D02*
X216540000Y-99620000D01*
X151880000Y-98780000D02*
X151880000Y-99300000D01*
X144750000Y-83350000D02*
X144750000Y-83010000D01*
X217200000Y-91310000D02*
X217700000Y-91810000D01*
D26*
X177440000Y-114690000D02*
X176720000Y-115410000D01*
D27*
X217280000Y-93290000D02*
X217870000Y-93880000D01*
X171660000Y-105750000D02*
X171660000Y-105781999D01*
X152050000Y-93760000D02*
X152520000Y-93760000D01*
X142240000Y-98150000D02*
X144230000Y-98150000D01*
X135560000Y-89600000D02*
X136230000Y-90270000D01*
X144870000Y-86780000D02*
X144900000Y-86780000D01*
D26*
X173280000Y-124350000D02*
X172980000Y-124350000D01*
X183310000Y-122050000D02*
X183850000Y-122050000D01*
D27*
X148260000Y-98160000D02*
X148280000Y-98180000D01*
X138010000Y-88270000D02*
X138010000Y-86980000D01*
X201000000Y-90510000D02*
X200740000Y-90250000D01*
X180030001Y-104290000D02*
X180079001Y-104241000D01*
X217190000Y-89290000D02*
X217800000Y-88680000D01*
X142240000Y-98150000D02*
X142240000Y-97840000D01*
X217800000Y-88680000D02*
X218080000Y-88680000D01*
X217700000Y-90810000D02*
X218120000Y-90810000D01*
X217900000Y-94580000D02*
X218190000Y-94580000D01*
X177310000Y-96110000D02*
X177710000Y-96110000D01*
X181027500Y-98490000D02*
X180600000Y-98490000D01*
X134680000Y-95150000D02*
X134680000Y-95730000D01*
X208430000Y-99540000D02*
X208430000Y-99780000D01*
D26*
X177440000Y-114690000D02*
X178030000Y-115280000D01*
D27*
X171679000Y-105800999D02*
X171679000Y-106341000D01*
X148790000Y-83970000D02*
X149340000Y-83420000D01*
D26*
X192975000Y-116025000D02*
X192975000Y-115245000D01*
D27*
X200810000Y-87380000D02*
X200730000Y-87380000D01*
X217830000Y-92740000D02*
X218150000Y-92740000D01*
X180680000Y-96380000D02*
X180010000Y-95710000D01*
D26*
X194060000Y-122460000D02*
X194770000Y-123170000D01*
D27*
X213790000Y-99660000D02*
X213790000Y-99900000D01*
X209020000Y-98950000D02*
X209670000Y-99600000D01*
X213220000Y-83900000D02*
X212570000Y-83250000D01*
X213810000Y-83310000D02*
X213810000Y-83070000D01*
D26*
X194060000Y-122460000D02*
X194870000Y-121650000D01*
D27*
X217190000Y-89290000D02*
X217730000Y-89830000D01*
D26*
X202490000Y-120330000D02*
X203280000Y-121120000D01*
X189560000Y-118390000D02*
X189560000Y-118540000D01*
X185315000Y-119025000D02*
X185945000Y-119655000D01*
D27*
X152460000Y-87630000D02*
X152960000Y-87130000D01*
D26*
X184725000Y-119615000D02*
X184725000Y-119825000D01*
D27*
X180479000Y-103630998D02*
X180479000Y-104191001D01*
X145630000Y-98760000D02*
X145630000Y-99200000D01*
X177640000Y-104280000D02*
X177650001Y-104269999D01*
X143700000Y-83400000D02*
X143700000Y-83010000D01*
X174462500Y-92482500D02*
X174462500Y-91647500D01*
X151060000Y-98900000D02*
X151060000Y-99260000D01*
X176479000Y-105820999D02*
X176469001Y-105811000D01*
X180980000Y-96380000D02*
X180680000Y-96380000D01*
D26*
X180210000Y-115330000D02*
X180210000Y-115610000D01*
%TO.N,+5V*%
X177660000Y-98790000D02*
X176700000Y-98790000D01*
X198710000Y-115870000D02*
X198750000Y-115910000D01*
X173860000Y-107840000D02*
X169610000Y-107840000D01*
X196690000Y-114730000D02*
X196690000Y-115850000D01*
X177440000Y-111420000D02*
X173860000Y-107840000D01*
X168300000Y-106610000D02*
X168300000Y-101670000D01*
X200475000Y-115910000D02*
X200600000Y-116035000D01*
X169570000Y-100420000D02*
X173360000Y-100420000D01*
X177440000Y-112790000D02*
X177440000Y-111420000D01*
X196690000Y-115850000D02*
X196670000Y-115870000D01*
X181365000Y-114725000D02*
X181440000Y-114800000D01*
X190245000Y-115805000D02*
X191805000Y-115805000D01*
X196670000Y-115870000D02*
X198710000Y-115870000D01*
X179540000Y-112760000D02*
X177470000Y-112760000D01*
X179660000Y-112880000D02*
X179540000Y-112760000D01*
X177470000Y-112760000D02*
X177440000Y-112790000D01*
X191980000Y-113815000D02*
X191980000Y-115860000D01*
X188200000Y-115810000D02*
X188200000Y-114690000D01*
X188205000Y-115805000D02*
X188200000Y-115810000D01*
X191980000Y-115860000D02*
X191985000Y-115865000D01*
X191805000Y-115805000D02*
X192025000Y-116025000D01*
X190245000Y-115805000D02*
X188205000Y-115805000D01*
D27*
X176700000Y-98790000D02*
X176690000Y-98780000D01*
X168340000Y-106650000D02*
X168300000Y-106610000D01*
X168300000Y-101670000D02*
X168440000Y-101530000D01*
X173360000Y-100420000D02*
X173380000Y-100400000D01*
D26*
X181365000Y-112880000D02*
X181365000Y-114725000D01*
X181365000Y-112880000D02*
X179660000Y-112880000D01*
X198750000Y-115910000D02*
X200475000Y-115910000D01*
%TO.N,Net-(X1-OE)*%
D27*
X182852500Y-96407500D02*
X182880000Y-96380000D01*
X182840000Y-98502500D02*
X182852500Y-98490000D01*
X182840000Y-100700000D02*
X182840000Y-98502500D01*
X182880000Y-94580000D02*
X182780000Y-94480000D01*
X182880000Y-96380000D02*
X182880000Y-94580000D01*
X182852500Y-98490000D02*
X182852500Y-96407500D01*
%TO.N,Net-(U4-VCC)*%
X174880000Y-100770000D02*
X174880000Y-98795000D01*
X174810000Y-96710000D02*
X174810000Y-95360000D01*
X174865000Y-98780000D02*
X174865000Y-96765000D01*
X174810000Y-95360000D02*
X175412500Y-94757500D01*
X174880000Y-98795000D02*
X174865000Y-98780000D01*
X174865000Y-96765000D02*
X174810000Y-96710000D01*
%TO.N,1V8*%
D26*
X167790000Y-82220000D02*
X161300000Y-82220000D01*
X192025000Y-118300000D02*
X192025000Y-120235000D01*
X145400000Y-84602600D02*
X145250000Y-84752600D01*
D28*
X211915000Y-87020000D02*
X211915000Y-86535000D01*
D27*
X207115000Y-95240000D02*
X207115000Y-96135000D01*
D26*
X189240000Y-125380000D02*
X192160000Y-122460000D01*
X192140000Y-120350000D02*
X192140000Y-122440000D01*
D27*
X142240000Y-95300000D02*
X142150000Y-95210000D01*
D26*
X200180000Y-82220000D02*
X203750000Y-85790000D01*
X205980000Y-84830000D02*
X205020000Y-85790000D01*
X192160000Y-122460000D02*
X195010000Y-125310000D01*
D27*
X141340000Y-87020000D02*
X141280000Y-87020000D01*
D28*
X206315000Y-87020000D02*
X206250000Y-87020000D01*
D26*
X205820000Y-97430000D02*
X206930000Y-96320000D01*
X145400000Y-82820000D02*
X145400000Y-84602600D01*
X182780000Y-91750000D02*
X182780000Y-93080000D01*
X165520000Y-123890000D02*
X150370000Y-108740000D01*
X167790000Y-82220000D02*
X200180000Y-82220000D01*
X141107400Y-84752600D02*
X140060000Y-85800000D01*
X145250000Y-84752600D02*
X141107400Y-84752600D01*
D27*
X141280000Y-87020000D02*
X140060000Y-85800000D01*
D26*
X141110000Y-97380000D02*
X142240000Y-96250000D01*
X210210000Y-84830000D02*
X205980000Y-84830000D01*
D28*
X206250000Y-87020000D02*
X205020000Y-85790000D01*
D26*
X182660000Y-91630000D02*
X182780000Y-91750000D01*
X150370000Y-108740000D02*
X141110000Y-99480000D01*
X192140000Y-122440000D02*
X192160000Y-122460000D01*
X168000000Y-88400000D02*
X170550000Y-90950000D01*
X146000000Y-82220000D02*
X145400000Y-82820000D01*
D27*
X146940000Y-87020000D02*
X146940000Y-85910000D01*
D26*
X192025000Y-120235000D02*
X192140000Y-120350000D01*
X182320000Y-91630000D02*
X182660000Y-91630000D01*
X161400000Y-97710000D02*
X161400000Y-96310000D01*
X161300000Y-82220000D02*
X146000000Y-82220000D01*
D28*
X211915000Y-86535000D02*
X211150000Y-85770000D01*
D26*
X161400000Y-93590000D02*
X161400000Y-82320000D01*
X145400000Y-84602600D02*
X145632600Y-84602600D01*
D27*
X142240000Y-96250000D02*
X142240000Y-95300000D01*
D26*
X168000000Y-82220000D02*
X168000000Y-88400000D01*
X195010000Y-125310000D02*
X195140000Y-125310000D01*
X211150000Y-85770000D02*
X210210000Y-84830000D01*
X178990000Y-125380000D02*
X189240000Y-125380000D01*
X203750000Y-85790000D02*
X205020000Y-85790000D01*
X141110000Y-99480000D02*
X141110000Y-97380000D01*
X145632600Y-84602600D02*
X146780000Y-85750000D01*
X170550000Y-90950000D02*
X176920000Y-90950000D01*
X161400000Y-82320000D02*
X161300000Y-82220000D01*
D27*
X207115000Y-96135000D02*
X206930000Y-96320000D01*
X146940000Y-85910000D02*
X146780000Y-85750000D01*
D26*
X167790000Y-82220000D02*
X168000000Y-82220000D01*
X150370000Y-108740000D02*
X161400000Y-97710000D01*
%TO.N,2V8*%
D27*
X213580000Y-89591000D02*
X214989000Y-89591000D01*
X214980000Y-87480000D02*
X215220000Y-87240000D01*
X145512189Y-88410000D02*
X143540000Y-88410000D01*
D26*
X163640000Y-126830000D02*
X135750000Y-98940000D01*
D27*
X147250000Y-88820000D02*
X148021000Y-89591000D01*
D26*
X210682500Y-93497500D02*
X210640000Y-93540000D01*
D27*
X143540000Y-88410000D02*
X142778905Y-89171095D01*
X142778905Y-89171095D02*
X143141000Y-89533189D01*
D26*
X200600000Y-122450000D02*
X200600000Y-120340000D01*
X200600000Y-122450000D02*
X196220000Y-126830000D01*
D27*
X213559000Y-88153189D02*
X213559000Y-89570000D01*
X140876656Y-90424651D02*
X140531369Y-90769938D01*
X139910000Y-88490000D02*
X139910000Y-88270000D01*
X206875000Y-92580000D02*
X207180000Y-92580000D01*
X206037500Y-93417500D02*
X206875000Y-92580000D01*
X212996000Y-89591000D02*
X213580000Y-89591000D01*
D26*
X200600000Y-120340000D02*
X200590000Y-120330000D01*
D27*
X206067500Y-92007500D02*
X206640000Y-92580000D01*
X148541000Y-87559000D02*
X150560000Y-85540000D01*
X146480000Y-93480000D02*
X145810000Y-93480000D01*
X145810000Y-93480000D02*
X145750000Y-93540000D01*
X142170000Y-92470000D02*
X141600000Y-92470000D01*
X203440000Y-90450000D02*
X203380000Y-90510000D01*
X146480000Y-88780000D02*
X146110000Y-88410000D01*
D26*
X209570000Y-94695000D02*
X209570000Y-94700000D01*
X225080000Y-98960000D02*
X225080000Y-88890000D01*
X220040000Y-123762000D02*
X220040000Y-104000000D01*
D27*
X213559000Y-89570000D02*
X213580000Y-89591000D01*
X206037500Y-93417500D02*
X205965000Y-93490000D01*
X142407811Y-88800000D02*
X142778905Y-89171095D01*
X141000000Y-90424651D02*
X141000000Y-91870000D01*
X215220000Y-87240000D02*
X214472189Y-87240000D01*
D26*
X210470000Y-93540000D02*
X209510000Y-92580000D01*
D27*
X145936811Y-88379000D02*
X145967811Y-88410000D01*
D26*
X135750000Y-98940000D02*
X135750000Y-95980000D01*
D27*
X205826307Y-90450000D02*
X203440000Y-90450000D01*
X141150000Y-93490000D02*
X142170000Y-92470000D01*
D26*
X210640000Y-93540000D02*
X210470000Y-93540000D01*
X207180000Y-92580000D02*
X206685000Y-92580000D01*
D27*
X143141000Y-89533189D02*
X143141000Y-91499000D01*
X145512189Y-88410000D02*
X145543189Y-88379000D01*
X148541000Y-87559000D02*
X148541000Y-89550000D01*
X148541000Y-89550000D02*
X148500000Y-89591000D01*
D26*
X138130000Y-90150000D02*
X139790000Y-88490000D01*
X138140000Y-92290000D02*
X138140000Y-93590000D01*
X138140000Y-92290000D02*
X138140000Y-90280000D01*
D27*
X205060000Y-93490000D02*
X204170000Y-92600000D01*
X205975000Y-91870000D02*
X205245000Y-92600000D01*
X205955000Y-88800000D02*
X205645000Y-88490000D01*
D26*
X200590000Y-120330000D02*
X200590000Y-118320000D01*
D27*
X146520000Y-88820000D02*
X146480000Y-88780000D01*
X211495000Y-88820000D02*
X212225000Y-88820000D01*
D26*
X210682500Y-93582500D02*
X209570000Y-94695000D01*
X150560000Y-85540000D02*
X150560000Y-87600000D01*
D27*
X146110000Y-88410000D02*
X145967811Y-88410000D01*
X212225000Y-88820000D02*
X212996000Y-89591000D01*
X149236811Y-89591000D02*
X149670000Y-89157811D01*
D26*
X215220000Y-87240000D02*
X216470000Y-85990000D01*
X138140000Y-93590000D02*
X137370000Y-94360000D01*
D27*
X141000000Y-91870000D02*
X140509000Y-92361000D01*
X148021000Y-89591000D02*
X148500000Y-89591000D01*
D26*
X203380000Y-91810000D02*
X203380000Y-90510000D01*
D27*
X141000000Y-90424651D02*
X140876656Y-90424651D01*
D26*
X139790000Y-88490000D02*
X139910000Y-88490000D01*
D27*
X138629938Y-90769938D02*
X138130000Y-90270000D01*
X210767500Y-93497500D02*
X210682500Y-93497500D01*
X206640000Y-92580000D02*
X207180000Y-92580000D01*
X206067500Y-91777500D02*
X206067500Y-92007500D01*
X140980000Y-88800000D02*
X140440000Y-88800000D01*
X214989000Y-89591000D02*
X215290000Y-89290000D01*
X140531369Y-90769938D02*
X138629938Y-90769938D01*
X140980000Y-88800000D02*
X142407811Y-88800000D01*
X145543189Y-88379000D02*
X145936811Y-88379000D01*
D26*
X218740000Y-85990000D02*
X219590000Y-86840000D01*
X216470000Y-85990000D02*
X218740000Y-85990000D01*
X225080000Y-88890000D02*
X223060000Y-86870000D01*
D27*
X149670000Y-89157811D02*
X149670000Y-88490000D01*
X203400000Y-90490000D02*
X203380000Y-90510000D01*
D26*
X209510000Y-92580000D02*
X207180000Y-92580000D01*
D27*
X145750000Y-93540000D02*
X144960000Y-92750000D01*
X140509000Y-92361000D02*
X138211000Y-92361000D01*
D26*
X204170000Y-92600000D02*
X203380000Y-91810000D01*
D27*
X140990000Y-93490000D02*
X141150000Y-93490000D01*
X149670000Y-88490000D02*
X150560000Y-87600000D01*
D26*
X138130000Y-90270000D02*
X138130000Y-90150000D01*
X135750000Y-95980000D02*
X137370000Y-94360000D01*
X200600000Y-122450000D02*
X202011000Y-123861000D01*
D27*
X147250000Y-88820000D02*
X146520000Y-88820000D01*
D26*
X220040000Y-104000000D02*
X225080000Y-98960000D01*
X203400000Y-88490000D02*
X203400000Y-90490000D01*
X200590000Y-118320000D02*
X200600000Y-118310000D01*
D27*
X142450000Y-92750000D02*
X142170000Y-92470000D01*
X140440000Y-88800000D02*
X139910000Y-88270000D01*
D26*
X202011000Y-123861000D02*
X220139000Y-123861000D01*
D27*
X205913328Y-90362979D02*
X205826307Y-90450000D01*
X148500000Y-89591000D02*
X149236811Y-89591000D01*
X138140000Y-90280000D02*
X138130000Y-90270000D01*
X205245000Y-92600000D02*
X204170000Y-92600000D01*
X138211000Y-92361000D02*
X138140000Y-92290000D01*
D26*
X220139000Y-123861000D02*
X220040000Y-123762000D01*
X196220000Y-126830000D02*
X163640000Y-126830000D01*
D27*
X144220000Y-92750000D02*
X142450000Y-92750000D01*
X205645000Y-88490000D02*
X203400000Y-88490000D01*
D26*
X211455000Y-93480000D02*
X210785000Y-93480000D01*
D27*
X143141000Y-91499000D02*
X142170000Y-92470000D01*
X141600000Y-92470000D02*
X141000000Y-91870000D01*
X205965000Y-93490000D02*
X205060000Y-93490000D01*
X214472189Y-87240000D02*
X213559000Y-88153189D01*
X210785000Y-93480000D02*
X210767500Y-93497500D01*
D26*
X223060000Y-86870000D02*
X222650000Y-86870000D01*
X210682500Y-93497500D02*
X210682500Y-93582500D01*
D27*
X144960000Y-92750000D02*
X144220000Y-92750000D01*
%TO.N,1V05*%
D26*
X211090000Y-97030000D02*
X213140000Y-97030000D01*
X175360000Y-119960000D02*
X175180000Y-120140000D01*
X192330000Y-126060000D02*
X192360000Y-126030000D01*
D27*
X144230000Y-96250000D02*
X146220000Y-96250000D01*
D26*
X137340000Y-96710000D02*
X139260000Y-94790000D01*
X218140000Y-97000000D02*
X218550000Y-96590000D01*
X213150000Y-97020000D02*
X213150000Y-95635000D01*
X222780000Y-88550000D02*
X219380000Y-85150000D01*
X183815000Y-120050000D02*
X185030000Y-121265000D01*
D27*
X207915000Y-87005000D02*
X209130000Y-85790000D01*
X144935000Y-85800000D02*
X145689000Y-86554000D01*
D26*
X148940000Y-85350000D02*
X150030000Y-84260000D01*
D27*
X149090000Y-91418000D02*
X150400000Y-90108000D01*
X142090000Y-85800000D02*
X142080000Y-85790000D01*
X143000000Y-87010000D02*
X144210000Y-85800000D01*
X148280000Y-96280000D02*
X151080000Y-96280000D01*
D28*
X212705000Y-86265000D02*
X213210000Y-85760000D01*
D26*
X178290000Y-119960000D02*
X175360000Y-119960000D01*
D28*
X212284000Y-87431000D02*
X210821758Y-87431000D01*
D26*
X185030000Y-121265000D02*
X185030000Y-123350000D01*
X157750000Y-96280000D02*
X158170000Y-95860000D01*
D27*
X145689000Y-87206811D02*
X146002189Y-87520000D01*
X147220000Y-87520000D02*
X147730000Y-87010000D01*
D26*
X174097400Y-125392600D02*
X164852600Y-125392600D01*
D28*
X144950000Y-95220000D02*
X145190000Y-95220000D01*
D27*
X139670000Y-95200000D02*
X139260000Y-94790000D01*
X146250000Y-96280000D02*
X146230000Y-96260000D01*
X142130000Y-85840000D02*
X142080000Y-85790000D01*
D26*
X214400000Y-86180000D02*
X214450000Y-86230000D01*
X151490000Y-84820000D02*
X151490000Y-88560000D01*
D27*
X144240000Y-96260000D02*
X144230000Y-96250000D01*
D26*
X209020000Y-97000000D02*
X211060000Y-97000000D01*
X209020000Y-95760000D02*
X208590000Y-95330000D01*
D28*
X143090000Y-95310000D02*
X143680000Y-95310000D01*
D26*
X222790000Y-96560000D02*
X222790000Y-88580000D01*
D27*
X144230000Y-95720000D02*
X143750000Y-95240000D01*
D28*
X212705000Y-87010000D02*
X212284000Y-87431000D01*
D26*
X175190000Y-124300000D02*
X176950000Y-126060000D01*
D27*
X151080000Y-96280000D02*
X151100000Y-96260000D01*
D26*
X204530000Y-96320000D02*
X205620000Y-96320000D01*
D28*
X210201000Y-86136000D02*
X209855000Y-85790000D01*
X210201000Y-86810242D02*
X210201000Y-86136000D01*
D26*
X209020000Y-97000000D02*
X209020000Y-95760000D01*
D27*
X146002189Y-87520000D02*
X147220000Y-87520000D01*
D28*
X145190000Y-95220000D02*
X146230000Y-96260000D01*
D26*
X214400000Y-85760000D02*
X213210000Y-85760000D01*
D28*
X215300000Y-91310000D02*
X214315000Y-91310000D01*
D26*
X175210000Y-122200000D02*
X175210000Y-124280000D01*
D27*
X147760000Y-95220000D02*
X147760000Y-95760000D01*
D28*
X207630402Y-95494930D02*
X207630402Y-95610402D01*
D27*
X147730000Y-87010000D02*
X147730000Y-86840000D01*
X144210000Y-85800000D02*
X144935000Y-85800000D01*
D28*
X209950000Y-95780000D02*
X209950000Y-95890000D01*
D26*
X217260000Y-97000000D02*
X218140000Y-97000000D01*
X158140000Y-94120000D02*
X158140000Y-85130000D01*
X175180000Y-120140000D02*
X175180000Y-122170000D01*
D27*
X144230000Y-96250000D02*
X144230000Y-95720000D01*
D26*
X150030000Y-84260000D02*
X150320000Y-84260000D01*
X150320000Y-84260000D02*
X150930000Y-84260000D01*
D27*
X145689000Y-86554000D02*
X145689000Y-87206811D01*
X151100000Y-96260000D02*
X151120000Y-96280000D01*
X149090000Y-91560000D02*
X149090000Y-91418000D01*
X148800000Y-85770000D02*
X148800000Y-85350000D01*
D26*
X205620000Y-96320000D02*
X205820000Y-96120000D01*
X215010000Y-85150000D02*
X214400000Y-85760000D01*
X183302500Y-120050000D02*
X183815000Y-120050000D01*
D27*
X151120000Y-96280000D02*
X152480000Y-96280000D01*
D26*
X209130000Y-85790000D02*
X207110000Y-85790000D01*
X178290000Y-120426632D02*
X178290000Y-119960000D01*
D27*
X150400000Y-90108000D02*
X150400000Y-89650000D01*
D26*
X175190000Y-124300000D02*
X174097400Y-125392600D01*
X151070000Y-83510000D02*
X150320000Y-84260000D01*
X207874943Y-95330000D02*
X207699537Y-95505406D01*
D27*
X148280000Y-96280000D02*
X146250000Y-96280000D01*
D26*
X219380000Y-85150000D02*
X215010000Y-85150000D01*
X185030000Y-123350000D02*
X185017400Y-123362600D01*
X185017400Y-123362600D02*
X181225968Y-123362600D01*
X175180000Y-122170000D02*
X175210000Y-122200000D01*
X137340000Y-97880000D02*
X137340000Y-96710000D01*
D27*
X142940000Y-87010000D02*
X143000000Y-87010000D01*
D26*
X176950000Y-126060000D02*
X192330000Y-126060000D01*
X211060000Y-97000000D02*
X211090000Y-97030000D01*
D27*
X151262600Y-84592600D02*
X151490000Y-84820000D01*
D26*
X208590000Y-95330000D02*
X207874943Y-95330000D01*
X164852600Y-125392600D02*
X137340000Y-97880000D01*
D27*
X207105000Y-87010000D02*
X207105000Y-85795000D01*
X207105000Y-85795000D02*
X207110000Y-85790000D01*
D26*
X209950000Y-95890000D02*
X211090000Y-97030000D01*
D28*
X210821758Y-87431000D02*
X210201000Y-86810242D01*
D27*
X147760000Y-95760000D02*
X148280000Y-96280000D01*
D26*
X156520000Y-83510000D02*
X151070000Y-83510000D01*
D27*
X146220000Y-96250000D02*
X146230000Y-96260000D01*
X140530000Y-95200000D02*
X139670000Y-95200000D01*
D26*
X217260000Y-97000000D02*
X213170000Y-97000000D01*
X151490000Y-88560000D02*
X150400000Y-89650000D01*
D27*
X147730000Y-86840000D02*
X148800000Y-85770000D01*
D26*
X148800000Y-85350000D02*
X148940000Y-85350000D01*
X152480000Y-96280000D02*
X157750000Y-96280000D01*
X214400000Y-85760000D02*
X214400000Y-86180000D01*
D27*
X213140000Y-97030000D02*
X213150000Y-97020000D01*
X142130000Y-87010000D02*
X142130000Y-85840000D01*
D28*
X143680000Y-95310000D02*
X143750000Y-95240000D01*
X209855000Y-85790000D02*
X209130000Y-85790000D01*
D26*
X181225968Y-123362600D02*
X178290000Y-120426632D01*
X213150000Y-95635000D02*
X212735000Y-95220000D01*
X150930000Y-84260000D02*
X151262600Y-84592600D01*
D27*
X144210000Y-85800000D02*
X142090000Y-85800000D01*
X142130000Y-87010000D02*
X142940000Y-87010000D01*
X211100000Y-97020000D02*
X211090000Y-97030000D01*
D28*
X214315000Y-91310000D02*
X214065000Y-91560000D01*
D26*
X175210000Y-124280000D02*
X175190000Y-124300000D01*
D28*
X212705000Y-87010000D02*
X212705000Y-86265000D01*
D27*
X207915000Y-87010000D02*
X207915000Y-87005000D01*
D26*
X158140000Y-85130000D02*
X156520000Y-83510000D01*
%TO.N,Net-(U5-VRLRD)*%
D27*
X145312400Y-90634400D02*
X145570600Y-90892600D01*
X145312400Y-90422400D02*
X145312400Y-90634400D01*
X145570600Y-90892600D02*
X146907400Y-90892600D01*
X144220000Y-89330000D02*
X145312400Y-90422400D01*
X146907400Y-90892600D02*
X147300000Y-90500000D01*
X147300000Y-90500000D02*
X147300000Y-90400000D01*
%TO.N,Net-(U5-VRL)*%
X147130000Y-92090000D02*
X146240000Y-92090000D01*
X146540000Y-91930000D02*
X146220000Y-92250000D01*
X147210000Y-92010000D02*
X147130000Y-92090000D01*
X147210000Y-91850000D02*
X147210000Y-92010000D01*
%TO.N,Net-(U5-VPI)*%
X150170000Y-91710000D02*
X150170000Y-92202189D01*
X150170000Y-92202189D02*
X148857189Y-93515000D01*
X148857189Y-93515000D02*
X147315000Y-93515000D01*
%TO.N,Net-(U6-VPI)*%
X212300000Y-93500000D02*
X212510000Y-93290000D01*
X212510000Y-93290000D02*
X215380000Y-93290000D01*
%TO.N,Net-(U6-VRL)*%
X212265000Y-91505000D02*
X211180000Y-90420000D01*
X212265000Y-91830000D02*
X212265000Y-91505000D01*
%TO.N,Net-(U6-VRLRD)*%
X212275000Y-90400000D02*
X212275000Y-90323000D01*
X212275000Y-90323000D02*
X211641938Y-89689938D01*
X209669938Y-89689938D02*
X209170000Y-89190000D01*
X211641938Y-89689938D02*
X209669938Y-89689938D01*
%TO.N,/sensors/CAM2_D1_P*%
D29*
X172040000Y-103574999D02*
X172040000Y-102989999D01*
%TO.N,/sensors/CAM1_D3_P*%
X176050000Y-106395001D02*
X176050000Y-106980001D01*
%TO.N,/sensors/CAM1_CLK_P*%
X173249999Y-106380000D02*
X173249999Y-106965000D01*
%TO.N,/sensors/XVS0*%
D28*
X179689001Y-102571000D02*
X179678999Y-102581002D01*
X179678999Y-102581002D02*
X179678999Y-103630998D01*
%TO.N,/sensors/CAM1_D4_N*%
D29*
X171240001Y-106940001D02*
X171360000Y-107060000D01*
X171240001Y-106355001D02*
X171240001Y-106940001D01*
%TO.N,/sensors/CAM1_D2_N*%
X172460001Y-106365001D02*
X172460001Y-106950001D01*
%TO.N,/sensors/CAM2_D3_N*%
X171240001Y-103560000D02*
X171240001Y-102975000D01*
%TO.N,/sensors/SCL_1V8*%
D28*
X178570000Y-102980000D02*
X178570000Y-102890000D01*
X213631500Y-92188500D02*
X213080000Y-92740000D01*
X220139000Y-90329000D02*
X213884758Y-90329000D01*
X178570000Y-102890000D02*
X179440000Y-102020000D01*
X220700000Y-90890000D02*
X220139000Y-90329000D01*
X178570000Y-102980000D02*
X178478999Y-103071001D01*
X216100000Y-102020000D02*
X220700000Y-97420000D01*
X213644000Y-90569758D02*
X213644000Y-92166000D01*
X220700000Y-97420000D02*
X220700000Y-90890000D01*
X213884758Y-90329000D02*
X213644000Y-90569758D01*
X178478999Y-103071001D02*
X178478999Y-103630998D01*
X179440000Y-102020000D02*
X216100000Y-102020000D01*
%TO.N,/sensors/CAM2_D2_P*%
D29*
X178049999Y-106430000D02*
X178049999Y-107015000D01*
%TO.N,/sensors/CAM2_D4_N*%
X177250000Y-106415001D02*
X177250000Y-107000001D01*
%TO.N,/sensors/CAM2_CLK_N*%
X179650000Y-106425001D02*
X179650000Y-107010001D01*
%TO.N,/sensors/CAM1_D1_P*%
X174850000Y-106385001D02*
X174850000Y-106970001D01*
%TO.N,/sensors/CAM2_D1_N*%
X172440001Y-103570000D02*
X172440001Y-102985000D01*
%TO.N,/sensors/CAM2_D3_P*%
X170840000Y-103564999D02*
X170840000Y-102979999D01*
%TO.N,/sensors/CAM2_CLK_P*%
X179249999Y-106430000D02*
X179249999Y-107015000D01*
%TO.N,/sensors/XVS1*%
D28*
X221460000Y-89190000D02*
X220610000Y-88340000D01*
X180230000Y-102820000D02*
X180730000Y-102320000D01*
X179240000Y-103644999D02*
X179240000Y-103080000D01*
X221460000Y-97070000D02*
X221460000Y-89190000D01*
X216210000Y-102320000D02*
X221460000Y-97070000D01*
X179240000Y-103080000D02*
X179230000Y-103070000D01*
X220610000Y-88340000D02*
X214010000Y-88340000D01*
X180730000Y-102320000D02*
X216210000Y-102320000D01*
%TO.N,/sensors/CAM1_D3_N*%
D29*
X175649999Y-106400000D02*
X175649999Y-106985000D01*
%TO.N,/sensors/CAM1_CLK_N*%
X173650000Y-106375001D02*
X173650000Y-106960001D01*
%TO.N,/sensors/SDA_1V8*%
D28*
X214080000Y-92350000D02*
X214130000Y-92300000D01*
X219960000Y-92890000D02*
X219960000Y-97620000D01*
X215830000Y-101750000D02*
X178820001Y-101750000D01*
X178034001Y-102536000D02*
X178079000Y-102580999D01*
X178079000Y-102580999D02*
X178079000Y-102671000D01*
X214130000Y-92300000D02*
X219370000Y-92300000D01*
D27*
X214070000Y-92340000D02*
X214080000Y-92350000D01*
D28*
X178820001Y-101750000D02*
X178034001Y-102536000D01*
D27*
X214070000Y-92340000D02*
X214070000Y-92262189D01*
D28*
X219370000Y-92300000D02*
X219960000Y-92890000D01*
X219960000Y-97620000D02*
X215830000Y-101750000D01*
X178079000Y-102671000D02*
X178079000Y-103630998D01*
%TO.N,/sensors/CAM2_D4_P*%
D29*
X176849999Y-106420000D02*
X176849999Y-107005000D01*
%TO.N,/sensors/CAM1_D4_P*%
X170840000Y-106360000D02*
X170840000Y-106945000D01*
%TO.N,/sensors/CAM1_D1_N*%
X174449999Y-106390000D02*
X174449999Y-106975000D01*
%TO.N,/sensors/CAM2_D2_N*%
X178450000Y-106425001D02*
X178450000Y-107010001D01*
%TO.N,/sensors/CAM1_D2_P*%
X172060000Y-106370000D02*
X172060000Y-106955000D01*
%TO.N,Net-(U3-LX)*%
D27*
X178375000Y-117075000D02*
X178290000Y-117160000D01*
X181440000Y-117075000D02*
X178375000Y-117075000D01*
%TO.N,Net-(U3-FB)*%
D28*
X181927400Y-116212600D02*
X181927400Y-119600100D01*
X181927400Y-119600100D02*
X181477500Y-120050000D01*
D27*
X181820000Y-120050000D02*
X181477500Y-120050000D01*
X181477500Y-122042500D02*
X181485000Y-122050000D01*
D28*
X183340000Y-114800000D02*
X181927400Y-116212600D01*
D27*
X181477500Y-120050000D02*
X181477500Y-122042500D01*
%TO.N,ENABLE_PWR*%
X202297399Y-116900100D02*
X202500000Y-116697499D01*
D28*
X183623640Y-113974900D02*
X183056360Y-113974900D01*
X168920000Y-110565200D02*
X168920000Y-105530000D01*
D27*
X193925000Y-116025000D02*
X194800100Y-116900100D01*
X185315000Y-117200000D02*
X185512600Y-117002400D01*
X193610099Y-117002400D02*
X193925000Y-116687499D01*
X194800100Y-116900100D02*
X202297399Y-116900100D01*
D28*
X174475196Y-116120396D02*
X168920000Y-110565200D01*
X182877400Y-114947796D02*
X181704800Y-116120396D01*
X183802600Y-114153860D02*
X183623640Y-113974900D01*
X183802600Y-116612400D02*
X183802600Y-114153860D01*
X176278001Y-104702000D02*
X176479000Y-104501001D01*
D27*
X193925000Y-116687499D02*
X193925000Y-116025000D01*
D28*
X183056360Y-113974900D02*
X182877400Y-114153860D01*
D27*
X202500000Y-116697499D02*
X202500000Y-116035000D01*
D28*
X169748000Y-104702000D02*
X176278001Y-104702000D01*
X182877400Y-114153860D02*
X182877400Y-114947796D01*
X168920000Y-105530000D02*
X169748000Y-104702000D01*
D27*
X183305000Y-117480000D02*
X185035000Y-117480000D01*
D28*
X176479000Y-104501001D02*
X176479000Y-103630998D01*
X183340000Y-117075000D02*
X183802600Y-116612400D01*
D27*
X185512600Y-117002400D02*
X193610099Y-117002400D01*
D28*
X181704800Y-116120396D02*
X174475196Y-116120396D01*
D27*
X185035000Y-117480000D02*
X185315000Y-117200000D01*
%TO.N,ENABLE_XTAL*%
X177239999Y-102692191D02*
X179232190Y-100700000D01*
X177239999Y-103644999D02*
X177239999Y-102692191D01*
X179232190Y-100700000D02*
X181015000Y-100700000D01*
%TO.N,ENABLE_XCLR*%
X176840000Y-103644999D02*
X176840000Y-100905000D01*
X176840000Y-100905000D02*
X176705000Y-100770000D01*
%TO.N,CAM_CLK*%
D28*
X186730000Y-93742600D02*
X181692600Y-93742600D01*
X175965532Y-100987400D02*
X175965532Y-95554468D01*
X203641000Y-95611000D02*
X201772600Y-93742600D01*
X149295196Y-95220000D02*
X163130000Y-95220000D01*
X181030000Y-93080000D02*
X180802400Y-93307600D01*
X175965532Y-95554468D02*
X178440000Y-93080000D01*
X201772600Y-93742600D02*
X201045800Y-93742600D01*
X205959000Y-95611000D02*
X203641000Y-95611000D01*
X169542600Y-101632600D02*
X175320332Y-101632600D01*
X175320332Y-101632600D02*
X175965532Y-100987400D01*
X163130000Y-95220000D02*
X169542600Y-101632600D01*
X178440000Y-93080000D02*
X181030000Y-93080000D01*
X206340000Y-95230000D02*
X205959000Y-95611000D01*
X141760000Y-94800000D02*
X148875196Y-94800000D01*
X148875196Y-94800000D02*
X149295196Y-95220000D01*
X181692600Y-93742600D02*
X181030000Y-93080000D01*
X201045800Y-93742600D02*
X186730000Y-93742600D01*
X141340000Y-95220000D02*
X141760000Y-94800000D01*
%TO.N,XCLR*%
X200180000Y-90690000D02*
X178155000Y-90690000D01*
X174215000Y-94630000D02*
X149020000Y-94630000D01*
X178155000Y-90690000D02*
X176362500Y-92482500D01*
X200990000Y-91500000D02*
X200180000Y-90690000D01*
X206802500Y-94252500D02*
X206344000Y-94711000D01*
X149020000Y-94630000D02*
X148710000Y-94320000D01*
X148710000Y-94320000D02*
X141770000Y-94320000D01*
X203061000Y-94711000D02*
X200990000Y-92640000D01*
X200990000Y-92640000D02*
X200990000Y-91500000D01*
X141770000Y-94320000D02*
X141765000Y-94315000D01*
X176362500Y-92482500D02*
X174215000Y-94630000D01*
X206344000Y-94711000D02*
X203061000Y-94711000D01*
%TO.N,Net-(U5-GPO)*%
D27*
X149060000Y-93950000D02*
X150035000Y-93950000D01*
X150035000Y-93950000D02*
X150225000Y-93760000D01*
%TO.N,Net-(U6-GPO)*%
X214085000Y-93950000D02*
X215395000Y-95260000D01*
X214035000Y-93950000D02*
X214085000Y-93950000D01*
%TD*%
%TA.AperFunction,Conductor*%
%TO.N,GND*%
G36*
X176165688Y-103000318D02*
G01*
X176232616Y-103020373D01*
X176278078Y-103073428D01*
X176289001Y-103124316D01*
X176289001Y-103187544D01*
X176269316Y-103254583D01*
X176244952Y-103275694D01*
X176239816Y-103290982D01*
X176236833Y-103298945D01*
X176232158Y-103310228D01*
X176222900Y-103356775D01*
X176222900Y-103933224D01*
X176232158Y-103979771D01*
X176232159Y-103979773D01*
X176268102Y-104033563D01*
X176288981Y-104100240D01*
X176289001Y-104102455D01*
X176289001Y-104254571D01*
X176269316Y-104321610D01*
X176216512Y-104367365D01*
X176162597Y-104378548D01*
X172799685Y-104313340D01*
X172733040Y-104292359D01*
X172688317Y-104238678D01*
X172678093Y-104190295D01*
X172676510Y-103979773D01*
X172675504Y-103845899D01*
X172675500Y-103844967D01*
X172675500Y-103349629D01*
X172695185Y-103282590D01*
X172737498Y-103242243D01*
X172775212Y-103220469D01*
X172840469Y-103155212D01*
X172886614Y-103075288D01*
X172886750Y-103074778D01*
X172886983Y-103074396D01*
X172889722Y-103067784D01*
X172890752Y-103068210D01*
X172923109Y-103015118D01*
X172985954Y-102984584D01*
X173007204Y-102982868D01*
X176165688Y-103000318D01*
G37*
%TD.AperFunction*%
%TD*%
%TA.AperFunction,Conductor*%
%TO.N,VIN_5V*%
G36*
X180949001Y-102591000D02*
G01*
X184045879Y-102600617D01*
X184112855Y-102620509D01*
X184158446Y-102673455D01*
X184169491Y-102724122D01*
X184188506Y-107496856D01*
X184169089Y-107563973D01*
X184116467Y-107609938D01*
X184064857Y-107621350D01*
X180773597Y-107630648D01*
X180706503Y-107611152D01*
X180660599Y-107558478D01*
X180649247Y-107506405D01*
X180650871Y-106686477D01*
X180650919Y-106683283D01*
X180651211Y-106672824D01*
X180657100Y-106643220D01*
X180657100Y-106462060D01*
X180657148Y-106460343D01*
X180658805Y-106455229D01*
X180666539Y-106416352D01*
X180681100Y-106381200D01*
X180681100Y-106065943D01*
X180696076Y-106014940D01*
X182637900Y-106014940D01*
X182637900Y-106695050D01*
X182637901Y-106695058D01*
X182643823Y-106724834D01*
X182643824Y-106724837D01*
X182666390Y-106758610D01*
X182700163Y-106781176D01*
X182729945Y-106787100D01*
X183100054Y-106787099D01*
X183129837Y-106781176D01*
X183163610Y-106758610D01*
X183186176Y-106724837D01*
X183192100Y-106695055D01*
X183192099Y-106014946D01*
X183186176Y-105985163D01*
X183163610Y-105951390D01*
X183129837Y-105928824D01*
X183129836Y-105928823D01*
X183129835Y-105928823D01*
X183100057Y-105922900D01*
X182729949Y-105922900D01*
X182729941Y-105922901D01*
X182700165Y-105928823D01*
X182700163Y-105928823D01*
X182700163Y-105928824D01*
X182666390Y-105951390D01*
X182666389Y-105951391D01*
X182643823Y-105985164D01*
X182637900Y-106014940D01*
X180696076Y-106014940D01*
X180700785Y-105998904D01*
X180717419Y-105978262D01*
X180741512Y-105954169D01*
X180770469Y-105925212D01*
X180816614Y-105845288D01*
X180840500Y-105756144D01*
X180840500Y-105663856D01*
X180816614Y-105574712D01*
X180776243Y-105504788D01*
X180770473Y-105494794D01*
X180770470Y-105494791D01*
X180770469Y-105494788D01*
X180705212Y-105429531D01*
X180705207Y-105429528D01*
X180702075Y-105427125D01*
X180700096Y-105424415D01*
X180699465Y-105423784D01*
X180699563Y-105423685D01*
X180660871Y-105370698D01*
X180653560Y-105328509D01*
X180654856Y-104673771D01*
X180674674Y-104606775D01*
X180705422Y-104577580D01*
X180703764Y-104575419D01*
X180710208Y-104570472D01*
X180710215Y-104570469D01*
X180775472Y-104505212D01*
X180821617Y-104425288D01*
X180845503Y-104336144D01*
X180845503Y-104243856D01*
X180821617Y-104154712D01*
X180776807Y-104077100D01*
X180775476Y-104074794D01*
X180775474Y-104074791D01*
X180775472Y-104074788D01*
X180717418Y-104016734D01*
X180683934Y-103955410D01*
X180681100Y-103929053D01*
X180681100Y-103590799D01*
X180681099Y-103590796D01*
X180666604Y-103555802D01*
X180657165Y-103508103D01*
X180657567Y-103304940D01*
X182637900Y-103304940D01*
X182637900Y-103985050D01*
X182637901Y-103985058D01*
X182643823Y-104014834D01*
X182643824Y-104014837D01*
X182666390Y-104048610D01*
X182700163Y-104071176D01*
X182729945Y-104077100D01*
X183100054Y-104077099D01*
X183129837Y-104071176D01*
X183163610Y-104048610D01*
X183186176Y-104014837D01*
X183192100Y-103985055D01*
X183192099Y-103304946D01*
X183186176Y-103275163D01*
X183163610Y-103241390D01*
X183129837Y-103218824D01*
X183129836Y-103218823D01*
X183129835Y-103218823D01*
X183100057Y-103212900D01*
X182729949Y-103212900D01*
X182729941Y-103212901D01*
X182700165Y-103218823D01*
X182700163Y-103218823D01*
X182700163Y-103218824D01*
X182666390Y-103241390D01*
X182666389Y-103241391D01*
X182643823Y-103275164D01*
X182637900Y-103304940D01*
X180657567Y-103304940D01*
X180657580Y-103298607D01*
X180657580Y-103298606D01*
X180657750Y-103212900D01*
X180658747Y-102709093D01*
X180678564Y-102642094D01*
X180731459Y-102596444D01*
X180787018Y-102585414D01*
X180949001Y-102591000D01*
G37*
%TD.AperFunction*%
%TD*%
M02*
